<?xml version="1.0" standalone="no"?>
<!DOCTYPE svg PUBLIC "-//W3C//DTD SVG 1.1//EN" "http://www.w3.org/Graphics/SVG/1.1/DTD/svg11.dtd" >
<svg xmlns="http://www.w3.org/2000/svg">
<metadata></metadata>
<defs>
<font id="sfu_eurostileboldoblique" horiz-adv-x="1474" >
<font-face units-per-em="2048" ascent="1638" descent="-410" />
<missing-glyph horiz-adv-x="737" />
<glyph horiz-adv-x="2048" />
<glyph horiz-adv-x="2048" />
<glyph unicode="&#xd;" horiz-adv-x="737" />
<glyph unicode=" "  horiz-adv-x="737" />
<glyph unicode="&#x09;" horiz-adv-x="737" />
<glyph unicode="&#xa0;" horiz-adv-x="737" />
<glyph unicode="!" horiz-adv-x="714" d="M193 0l75 356h332l-76 -356h-331zM311 604l183 932h380l-210 -932h-353z" />
<glyph unicode="&#x22;" horiz-adv-x="905" d="M354 1270l56 266h282l-55 -266l-143 -264h-111zM809 1270l55 266h283l-55 -266l-144 -264h-110z" />
<glyph unicode="#" d="M252 369l51 235h232l104 266h-197l52 236h239l170 430h217l-170 -430h207l170 430h215l-170 -430h164l-51 -236h-201l-104 -266h192l-51 -235h-242l-145 -369h-217l145 369h-207l-145 -369h-217l145 369h-186zM752 604h209l108 266h-213z" />
<glyph unicode="$" d="M131 311q0 82 25 195h368q-12 -57 -12 -94q0 -70 47 -90q33 -14 139 -15h199q129 0 174 21q61 29 86 137q8 37 8 55q0 59 -78 82q-29 8 -124 14l-197 15q-227 16 -315 47q-178 61 -179 223q0 63 25 176q63 293 217 389q129 82 449 82l34 168h199l-35 -168 q240 -14 332 -59q133 -66 133 -244q0 -72 -20 -168h-359q8 39 8 66q0 59 -55 78q-29 8 -106 8h-199q-111 0 -152 -23q-57 -31 -77 -129q-6 -29 -7 -51q0 -43 39 -57q34 -13 136 -23l194 -18q293 -29 377 -64q143 -61 143 -233q0 -66 -18 -152q-61 -287 -238 -397 q-152 -94 -463 -94l-41 -189h-198l41 189q-258 0 -367 59q-133 72 -133 264z" />
<glyph unicode="%" horiz-adv-x="1857" d="M254 926q0 53 14 118l49 226q39 174 125 231q72 47 260 47q141 0 195 -18q100 -35 100 -146q0 -44 -14 -112l-47 -225q-37 -174 -129 -232q-78 -47 -268 -47q-139 0 -189 16q-96 33 -96 142zM367 0l1232 1536h246l-1233 -1536h-245zM469 999q0 -41 35 -51q12 -2 69 -2 q84 0 111 17q35 26 53 114l35 170q10 49 10 68q0 43 -41 51q-14 4 -77 4q-78 0 -101 -16q-31 -23 -47 -107l-35 -170q-12 -59 -12 -78zM1186 145q0 53 14 119l49 225q39 174 125 232q72 47 260 47q141 0 195 -18q100 -35 100 -146q0 -44 -14 -112l-47 -226 q-37 -174 -129 -231q-78 -47 -269 -47q-139 0 -188 16q-96 33 -96 141zM1401 219q0 -41 35 -51q12 -2 69 -2q84 0 111 16q35 27 53 115l35 170q10 49 10 68q0 43 -41 51q-14 4 -78 4q-78 0 -100 -17q-31 -23 -47 -106l-35 -170q-12 -59 -12 -78z" />
<glyph unicode="&#x26;" horiz-adv-x="1585" d="M193 313q0 74 18 162q84 397 358 402q-76 80 -75 157q0 37 14 103q53 250 201 338q123 74 399 73q246 0 340 -45q121 -57 121 -219q0 -68 -19 -156l-16 -77h-352q31 129 8 159q-25 33 -148 33q-80 0 -113.5 -27.5t-49.5 -107.5q-4 -20 -5 -39q0 -53 54 -113l305 -335 l43 202h326l-64 -301q-16 -74 -72 -149l138 -154l-230 -219l-114 127q-88 -92 -228 -121q-88 -18 -256 -18q-301 0 -420 51q-164 72 -163 274zM588 436q0 -86 69 -108q43 -14 189 -15q141 0 217 33l-334 352q-66 -6 -96 -65q-18 -33 -35 -117q-10 -51 -10 -80z" />
<glyph unicode="'" horiz-adv-x="450" d="M354 1270l56 266h282l-55 -266l-143 -264h-111z" />
<glyph unicode="(" horiz-adv-x="788" d="M135 -23q0 107 55 367l115 541q57 268 98 366q76 178 244 246q127 51 354 51l-71 -336q-109 0 -156 -65q-35 -47 -65 -195l-142 -663q-20 -96 -20 -139q0 -121 131 -121l-72 -336q-223 0 -317 39q-154 61 -154 245z" />
<glyph unicode=")" horiz-adv-x="788" d="M51 -307l72 336q109 0 162 82q33 49 59 178l141 663q20 96 21 148q0 113 -131 112l71 336q215 0 318 -45q154 -68 154 -252q-1 -96 -58 -366l-115 -541q-57 -272 -106 -381q-76 -168 -244 -227q-119 -43 -344 -43z" />
<glyph unicode="*" d="M567 1171l103 181l239 -92l58 276h190l-57 -276l284 92l19 -197l-273 -80l107 -219l-174 -115l-111 230l-221 -228l-131 113l207 221z" />
<glyph unicode="+" horiz-adv-x="1228" d="M199 449l49 235h393l84 391h236l-84 -391h395l-49 -235h-396l-88 -408h-235l88 408h-393z" />
<glyph unicode="," horiz-adv-x="737" d="M113 -291l32 154q84 2 122 29.5t55 107.5h-127l73 344h332l-74 -344q-37 -174 -137 -238q-88 -55 -276 -53z" />
<glyph unicode="-" horiz-adv-x="557" d="M84 397l72 336h557l-72 -336h-557z" />
<glyph unicode="." horiz-adv-x="737" d="M184 0l76 356h332l-76 -356h-332z" />
<glyph unicode="/" horiz-adv-x="1304" d="M12 -231l1278 1767h281l-1278 -1767h-281z" />
<glyph unicode="0" d="M188 336q0 84 23 190l102 484q74 346 297 463q146 75 457 75q266 0 377 -49q170 -76 170 -299q0 -84 -23 -190l-102 -484q-74 -348 -297 -463q-147 -76 -457 -75q-268 0 -379 49q-168 76 -168 299zM592 436q0 -76 51 -96q35 -14 164 -14q164 0 209 34q55 43 96 232 l76 352q23 104 22 156q0 76 -51 96q-37 14 -164 14q-164 0 -209 -34q-57 -45 -98 -232l-76 -352q-20 -94 -20 -156z" />
<glyph unicode="1" d="M332 1073l657 463h479l-325 -1536h-410l250 1174l-475 -363z" />
<glyph unicode="2" d="M127 0l68 319q59 281 215 383q100 68 438 142q211 47 252 71q49 31 74 144q10 47 10 76q0 68 -68 86q-29 8 -121 8q-137 0 -178 -25q-51 -31 -78 -153l-16 -76h-389l16 76q63 295 244 405q150 92 469 92q264 0 375 -53q145 -70 145 -262q0 -80 -18 -168 q-51 -246 -164 -344q-100 -88 -365 -154q-27 -6 -334 -78q-90 -35 -118 -170h823l-68 -319h-1212z" />
<glyph unicode="3" d="M193 303q0 80 16 154l18 82h389l-10 -52q-8 -41 -8 -67q0 -74 55 -96q39 -16 148 -17q137 0 184 27q61 35 88 160q8 39 8 59q0 59 -82 78q-35 6 -129 6h-98l64 297h98q123 0 153 10q68 23 89 115q12 57 12 86q0 59 -72 76q-33 8 -119 8q-129 0 -170 -23q-61 -35 -86 -155 l-6 -31h-389l10 53q57 297 252 402q139 74 475 73q229 0 338 -43q172 -68 172 -256q0 -57 -12 -114q-68 -315 -309 -347l-4 -16q199 -8 198 -207q0 -55 -14 -123q-59 -274 -252 -376q-147 -78 -448 -78q-279 0 -396 49q-164 70 -163 266z" />
<glyph unicode="4" d="M137 303l94 438l756 795h604l-198 -936h131l-64 -297h-131l-63 -303h-389l63 303h-803zM522 600h482l133 621h-15z" />
<glyph unicode="5" d="M213 301q0 63 14 145h389q-2 -20 -2 -38q0 -61 48 -84q35 -16 122 -17q145 0 189 27q57 37 88 176q23 102 22 141q0 70 -73 90q-35 8 -131 9q-113 0 -142 -9q-45 -12 -71 -65h-353l183 860h1110l-62 -297h-758l-63 -295q88 76 156 96q55 16 206 17q190 0 281 -53 q119 -68 119 -242q0 -84 -27 -209q-74 -350 -244 -467q-143 -98 -497 -98q-233 0 -340 45q-164 70 -164 268z" />
<glyph unicode="6" d="M209 309q0 117 39 299l82 385q72 342 245 457q147 98 504 98q262 0 369 -41q160 -61 160 -243q0 -66 -15 -131l-14 -66h-389q8 41 8 70q0 59 -47 77q-37 14 -139 15q-152 0 -199 -31q-59 -39 -90 -182l-51 -244h4q59 106 139 139q51 20 174 21q252 0 350 -45 q125 -57 125 -225q0 -74 -20 -170q-66 -303 -236 -412q-143 -92 -460 -92q-260 0 -363 39q-176 70 -176 282zM596 393q0 -61 61 -78q27 -8 111 -8q156 0 195 19q63 31 90 159q6 31 6 47q0 55 -55 70q-37 10 -170 10q-113 0 -150 -16q-55 -27 -76 -119q-12 -57 -12 -84z" />
<glyph unicode="7" d="M338 0l774 1192h-739l71 344h1160l-72 -344l-764 -1192h-430z" />
<glyph unicode="8" d="M188 295q0 61 15 129q31 145 116 242q98 106 238 112l2 15q-190 51 -190 227q0 47 16 123q55 254 258 344q137 61 424 61q260 0 371 -45q156 -63 155 -246q0 -63 -14 -133q-31 -152 -93.5 -219t-211.5 -112l-2 -15q195 -27 194 -225q0 -61 -14 -129q-59 -276 -262 -371 q-142 -65 -455 -65q-266 0 -383 49q-164 70 -164 258zM594 410q0 -70 74 -93q37 -10 131 -10q166 0 213 33q37 27 61 135q12 55 12 78q0 61 -84 76q-22 4 -133 4q-133 0 -174 -19q-68 -31 -92 -145q-8 -37 -8 -59zM752 1018q0 -63 65 -80q29 -8 119 -8q125 0 166 22 q57 29 80 138q8 39 8 63q0 55 -74 70q-29 6 -117 6q-121 0 -157 -19q-59 -29 -82 -135q-8 -37 -8 -57z" />
<glyph unicode="9" d="M186 272q0 55 17 131l14 66h389q-10 -41 -10 -70q0 -59 47 -77q35 -14 141 -15q150 0 197 31q59 39 90 182l51 244h-4q-57 -106 -139 -139q-51 -20 -172 -21q-254 0 -352 45q-125 57 -125 225q0 74 20 170q66 303 236 412q143 92 463 92q258 0 362 -41q176 -68 176 -280 q0 -106 -41 -299l-82 -385q-72 -340 -245 -457q-147 -98 -502 -98q-262 0 -369 41q-162 61 -162 243zM735 1004q0 -55 56 -70q39 -10 172 -10q111 0 147 16q57 27 78 119q12 57 12 84q0 59 -61 78q-29 8 -111 8q-156 0 -194 -19q-63 -31 -93 -159q-6 -29 -6 -47z" />
<glyph unicode=":" horiz-adv-x="737" d="M184 0l76 356h332l-76 -356h-332zM338 719l76 356h331l-75 -356h-332z" />
<glyph unicode=";" horiz-adv-x="737" d="M113 -291l32 154q84 2 122 29.5t55 107.5h-127l73 344h332l-74 -344q-37 -174 -137 -238q-88 -55 -276 -53zM348 719l76 356h332l-76 -356h-332z" />
<glyph unicode="&#x3c;" horiz-adv-x="1228" d="M197 444l53 246l1106 385l-58 -262l-743 -244v-4l639 -243l-55 -263z" />
<glyph unicode="=" horiz-adv-x="1228" d="M147 213l52 236h1024l-52 -236h-1024zM248 684l49 236h1024l-49 -236h-1024z" />
<glyph unicode="&#x3e;" horiz-adv-x="1228" d="M115 59l55 263l745 243v4l-641 244l58 262l942 -385l-53 -246z" />
<glyph unicode="?" horiz-adv-x="1239" d="M326 1090l14 63q55 246 215 330q125 66 406 65q229 0 323 -45q123 -59 123 -217q0 -66 -14 -133q-39 -186 -127 -274q-70 -70 -260 -148q-119 -49 -138 -127l-14 -61h-352l14 61q37 158 76 207q55 70 205 133l82 35q70 31 100 57q47 43 61 117q4 20 4 45q0 53 -49 70 q-29 10 -92 10q-96 0 -135 -18q-57 -25 -76 -107l-14 -63h-352zM397 0l76 356h332l-76 -356h-332z" />
<glyph unicode="@" horiz-adv-x="1556" d="M176 596q0 82 19 168q72 328 344 556t606 228q233 0 405 -143q182 -154 183 -381q0 -57 -13 -113q-49 -223 -227 -403q-193 -193 -412 -193q-102 0 -102 74q0 12 4 27l-2 4q-104 -96 -217 -96q-121 0 -199 82.5t-78 203.5q0 39 9 76q41 188 182 326q152 145 336 145 q164 0 227 -121l41 105h195l-228 -598q-16 -43 -16 -56q0 -18 27 -18q92 0 182 145q72 117 96 230q14 66 14 129q0 193 -133 297q-123 94 -319 94q-258 0 -451.5 -171t-249.5 -429q-16 -76 -16 -146q0 -215 143 -333q135 -113 355 -113q213 0 419 137h203 q-301 -322 -678 -321q-283 0 -463 162q-186 168 -186 446zM743 670q0 -131 123 -131q102 0 182 84t80 188q0 129 -131 129q-98 0 -176 -85t-78 -185z" />
<glyph unicode="A" horiz-adv-x="1501" d="M-25 0l787 1536h622l142 -1536h-418l-25 264h-551l-131 -264h-426zM684 563h381l-47 666h-4z" />
<glyph unicode="B" horiz-adv-x="1511" d="M123 0l326 1536h806q195 0 281 -35q139 -57 139 -221q0 -61 -16 -137q-35 -158 -96 -236q-76 -96 -222 -119l-4 -16q213 -14 213 -197q0 -53 -20 -147q-57 -266 -203 -356q-117 -72 -389 -72h-815zM604 336h309q100 0 148 29q55 35 74 127q8 39 8 61q0 57 -56 76 q-25 8 -102 8h-317zM729 922h295q102 0 141 24q47 29 68 123q8 39 8 61q0 70 -108 70h-345z" />
<glyph unicode="C" horiz-adv-x="1490" d="M166 352q0 90 27 217l83 398q76 354 295 481q174 100 553 100q295 0 404 -49q139 -63 139 -254q0 -82 -25 -201l-12 -59h-422l13 59q1 13 1 25q0 73 -53 100q-45 23 -165 23q-168 0 -230 -64q-51 -53 -88 -227l-51 -239q-29 -135 -29 -181q0 -86 70 -116q45 -20 147 -21 q143 0 195 29q76 41 98 164l8 45h422l-8 -45q-27 -141 -70 -238q-115 -248 -415 -299q-74 -12 -260 -12q-326 0 -447 51q-180 76 -180 313z" />
<glyph unicode="D" horiz-adv-x="1587" d="M106 0l326 1536h778q244 0 363 -70q156 -90 156 -313q0 -100 -25 -213l-70 -322q-70 -322 -215 -462q-162 -156 -479 -156h-834zM592 356h358q205 0 262 262l70 322q12 59 12 109q0 80 -47 108q-37 23 -123 23h-358z" />
<glyph unicode="E" horiz-adv-x="1388" d="M131 0l326 1536h1108l-70 -336h-698l-62 -280h656l-60 -285h-655l-64 -299h713l-72 -336h-1122z" />
<glyph unicode="F" horiz-adv-x="1261" d="M113 0l325 1536h1090l-70 -336h-680l-65 -301h626l-71 -336h-627l-119 -563h-409z" />
<glyph unicode="G" horiz-adv-x="1552" d="M160 358q0 82 26 209l84 398q74 352 299 481q178 102 555 102q319 0 426 -39q170 -63 170 -272q0 -76 -20 -178h-416q2 18 2 35q0 80 -74 104q-43 14 -159 14q-209 0 -281 -75q-55 -57 -98 -263l-53 -249q-18 -86 -19 -138q0 -109 82 -143q49 -20 180 -20q158 0 221.5 52 t98.5 208h-283l60 284h698l-57 -268q-82 -385 -250 -504q-151 -108 -552 -108h-7q-334 0 -469 67q-164 82 -164 303z" />
<glyph unicode="H" horiz-adv-x="1613" d="M131 0l326 1536h409l-123 -578h535l123 578h409l-325 -1536h-410l127 602h-534l-127 -602h-410z" />
<glyph unicode="I" horiz-adv-x="663" d="M127 0l326 1536h409l-325 -1536h-410z" />
<glyph unicode="J" horiz-adv-x="1232" d="M119 254q0 86 37 262l26 127h389l-26 -127q-14 -68 -15 -96q0 -76 103 -76q84 0 118.5 24.5t51.5 104.5l225 1063h410l-226 -1063q-63 -303 -206 -399q-125 -86 -449 -86q-211 0 -297 35q-141 57 -141 231z" />
<glyph unicode="K" horiz-adv-x="1540" d="M131 0l326 1536h409l-123 -578h123l518 578h496l-700 -754l419 -782h-507l-301 602h-123l-127 -602h-410z" />
<glyph unicode="L" horiz-adv-x="1198" d="M119 0l325 1536h410l-250 -1180h641l-76 -356h-1050z" />
<glyph unicode="M" horiz-adv-x="2148" d="M125 0l326 1536h649l88 -965h14l484 965h665l-326 -1536h-409l291 1178h-15l-639 -1178h-354l-143 1178h-13l-208 -1178h-410z" />
<glyph unicode="N" horiz-adv-x="1783" d="M125 0l326 1536h692l190 -1180h17l225 1180h410l-326 -1536h-698l-185 1180h-16l-225 -1180h-410z" />
<glyph unicode="O" horiz-adv-x="1556" d="M164 375q0 80 20 176l92 434q70 330 297 459q182 104 535 104q276 0 410 -59q200 -88 200 -326q0 -82 -20 -178l-92 -434q-70 -330 -297 -459q-183 -104 -533 -104q-274 0 -409 59q-203 90 -203 328zM602 483q0 -98 82 -125q41 -14 168 -14q168 0 231 41q76 49 111 211 l74 346q14 68 14 113q0 96 -84 123q-43 14 -166 14q-174 0 -233 -39q-74 -47 -109 -211l-74 -346q-14 -68 -14 -113z" />
<glyph unicode="P" horiz-adv-x="1456" d="M119 0l325 1536h773q207 0 307 -66q125 -80 125 -274q0 -98 -27 -223q-70 -324 -192 -445q-139 -135 -455 -135h-363l-84 -393h-409zM688 750h281q127 0 170 47q33 37 61 176q14 70 14 106q0 63 -49 86q-33 14 -106 15h-281z" />
<glyph unicode="Q" horiz-adv-x="1630" d="M231 606l70 324q76 354 283 493q184 125 561 125q281 0 411 -61q195 -90 195 -336q0 -106 -25 -221l-81 -385q-25 -115 -76 -205l143 -115l-215 -227l-127 121q-178 -131 -557 -131q-285 0 -414 57q-196 86 -196 330q0 98 28 231zM637 481q0 -90 63 -116q47 -20 189 -21 q123 0 186 23l-233 178l209 229l186 -156l53 250q27 125 27 181q0 98 -82 127q-45 16 -168 16q-190 0 -258 -68q-57 -57 -100 -256l-60 -276q-12 -57 -12 -111z" />
<glyph unicode="R" horiz-adv-x="1519" d="M117 0l325 1536h791q213 0 307 -43q143 -66 143 -250q0 -76 -20 -172q-49 -231 -100 -307q-80 -119 -291 -166l-4 -16q227 -8 227 -199q0 -35 -8 -74l-66 -309h-409l45 215q8 39 8 68q0 125 -135 125h-318l-86 -408h-409zM688 764h318q123 0 163 55q27 35 58 185 q10 49 10 81q0 59 -45 80q-29 14 -98 15h-318z" />
<glyph unicode="S" horiz-adv-x="1466" d="M182 500h393q-10 -45 -10 -74q0 -76 86 -96q29 -6 146 -6q137 0 178 14q86 27 106 127q10 49 11 70q0 45 -41 57q-23 8 -154 16l-88 6q-301 20 -381 54q-141 57 -141 237q0 76 20 174q63 303 258 400q139 69 482 69h10q283 0 383 -37q164 -61 164 -251q0 -70 -17 -142 l-14 -63h-393q10 41 10 67q0 61 -51 78q-37 12 -154 12q-125 0 -168 -14q-80 -25 -100 -117q-6 -27 -6 -51q0 -51 39 -67q24 -11 106 -17l168 -12q285 -20 383 -70q113 -55 113 -198q0 -68 -23 -174q-37 -172 -74 -244q-135 -260 -698 -260q-303 0 -408 41q-159 63 -159 269 q0 87 24 202z" />
<glyph unicode="T" horiz-adv-x="1218" d="M252 1180l76 356h1216l-76 -356h-413l-250 -1180h-410l250 1180h-393z" />
<glyph unicode="U" horiz-adv-x="1579" d="M207 287q0 80 31 225l217 1024h409l-215 -1016q-8 -39 -8 -63q0 -76 66 -99q43 -14 176 -14q137 0 186 31q61 37 88 164l211 997h410l-217 -1024q-66 -307 -258 -424q-162 -100 -496 -100q-268 0 -383 35q-217 63 -217 264z" />
<glyph unicode="V" horiz-adv-x="1456" d="M293 1536h416l82 -1184h12l588 1184h424l-775 -1536h-639z" />
<glyph unicode="W" horiz-adv-x="2260" d="M307 1536h416l-29 -1184h15l538 1184h426l25 -1184h14l481 1184h412l-666 -1536h-591l-5 963h-16l-428 -963h-586z" />
<glyph unicode="X" horiz-adv-x="1499" d="M-33 0l629 791l-274 745h479l157 -563l398 563h471l-582 -745l289 -791h-477l-180 592l-428 -592h-482z" />
<glyph unicode="Y" horiz-adv-x="1449" d="M293 1536h469l149 -592h15l407 592h475l-772 -997l-114 -539h-410l115 539z" />
<glyph unicode="Z" horiz-adv-x="1349" d="M47 0l74 346l901 834h-678l76 356h1208l-72 -344l-913 -836h735l-75 -356h-1256z" />
<glyph unicode="[" horiz-adv-x="788" d="M51 -307l395 1855h555l-71 -336h-166l-252 -1183h166l-72 -336h-555z" />
<glyph unicode="\" horiz-adv-x="1310" d="M477 1536h287l395 -1536h-287z" />
<glyph unicode="]" horiz-adv-x="788" d="M51 -307l72 336h166l252 1183h-166l71 336h555l-395 -1855h-555z" />
<glyph unicode="^" horiz-adv-x="1228" d="M211 512l606 1024h246l172 -1024h-266l-97 692h-4l-391 -692h-266z" />
<glyph unicode="_" horiz-adv-x="1024" d="M-66 -307l33 153h1024l-33 -153h-1024z" />
<glyph unicode="`" horiz-adv-x="827" d="M434 1321l152 227l364 -245l-84 -127z" />
<glyph unicode="a" horiz-adv-x="1247" d="M139 207q0 57 13 115q39 186 155 266q105 71 300 71h5q117 0 168 -14q92 -27 101 -106h16l37 170q10 47 10 79q0 84 -135 84q-143 0 -170 -116h-352q49 223 217 291q98 40 338 40h12q242 0 334 -43q110 -51 110 -199q0 -77 -20 -173l-143 -672h-353l47 160h-12 q-68 -172 -346 -172q-154 0 -225 35q-106 49 -107 184zM504 299q0 -84 131 -84q104 0 141 16q61 27 80 115q2 10 2 25q0 51 -67 67q-29 6 -107 6q-154 0 -178 -112q-2 -18 -2 -33z" />
<glyph unicode="b" horiz-adv-x="1255" d="M113 0l325 1536h353l-129 -614h16q101 165 331 165h3q162 0 239 -55q92 -63 92 -217q0 -78 -22 -186l-51 -246q-82 -395 -492 -395q-125 0 -184 37q-76 45 -82 161h-16l-31 -186h-352zM553 369q0 -70 49 -95q35 -16 113 -16q123 0 174 82q29 47 61 199q23 106 23 157 q0 121 -139 121q-131 0 -185 -76q-37 -49 -69 -202q-27 -125 -27 -170z" />
<glyph unicode="c" horiz-adv-x="1140" d="M143 276q0 98 35 261q63 299 178 411q141 139 453 139q231 0 324 -43q124 -57 124 -220q0 -69 -16 -152h-352q10 39 10 65q0 53 -51 72q-27 8 -96 8q-115 0 -164 -86q-27 -45 -58 -194q-27 -127 -26 -183q0 -61 35 -82q25 -14 94 -14q113 0 151 37q31 29 54 135h352 q-49 -229 -133 -317q-94 -102 -307 -119q-76 -6 -175 -6q-207 0 -299 43q-133 63 -133 245z" />
<glyph unicode="d" horiz-adv-x="1253" d="M133 254q0 51 17 129l51 246q49 233 157 340q120 118 345 118h4q231 0 264 -165h16l129 614h352l-325 -1536h-352l47 186h-17q-92 -198 -345 -198h-3q-340 0 -340 266zM508 356q0 -68 43 -88q25 -10 104 -10q129 0 183 76q35 49 67 203q27 125 27 174q0 106 -158 106 q-127 0 -170 -59q-30 -43 -69 -221q-27 -125 -27 -181z" />
<glyph unicode="e" horiz-adv-x="1175" d="M143 293q0 92 33 244q68 315 193 428q134 122 445 122h5q213 0 305 -45q135 -66 136 -254q0 -94 -33 -251l-13 -60h-698q-20 -88 -20 -135q0 -109 141 -109q92 0 131 19q58 28 74 106h346q-37 -170 -133.5 -255t-272.5 -105q-84 -10 -196 -10q-211 0 -307 49 q-135 70 -136 256zM557 672h346q8 45 8 76q0 63 -47 83q-27 10 -104 11q-98 0 -139 -36t-64 -134z" />
<glyph unicode="f" horiz-adv-x="804" d="M182 0l174 817h-141l55 258h142l20 105q41 213 178 286q126 70 456 70h19l-55 -268q-33 10 -63 10q-109 0 -140.5 -27.5t-54.5 -136.5l-8 -39h240l-56 -258h-239l-174 -817h-353z" />
<glyph unicode="g" horiz-adv-x="1259" d="M78 -248q0 62 16 152h334q-5 -24 -5 -42q0 -44 26 -63q29 -20 110 -20q115 0 157 32.5t64 141.5l47 223h-12q-96 -176 -330 -176q-162 0 -241 57q-94 66 -94 219q0 86 36 261q61 295 154 405q121 145 377 145q123 0 184 -38q72 -47 78 -164h12l29 190h352l-219 -1028 q-63 -301 -197.5 -412.5t-439.5 -111.5q-250 0 -336 39q-102 47 -102 190zM516 379q0 -68 41 -92q29 -17 105 -17q123 0 172 64q39 51 71 203q23 106 23 165q0 72 -41 97q-31 18 -109 18q-135 0 -182 -74q-23 -37 -57 -206q-23 -109 -23 -158z" />
<glyph unicode="h" horiz-adv-x="1267" d="M117 0l325 1536h353l-140 -662h15q59 117 145 165t221 48q287 0 287 -229q0 -47 -14 -115l-158 -743h-352l141 662q8 39 8 63q0 92 -121 92q-109 0 -163 -61q-45 -51 -70 -164l-125 -592h-352z" />
<glyph unicode="i" horiz-adv-x="526" d="M88 0l229 1075h353l-230 -1075h-352zM356 1266l58 270h352l-57 -270h-353z" />
<glyph unicode="j" horiz-adv-x="495" d="M-106 -322l51 242q98 0 121 103l225 1052h352l-231 -1089q-37 -172 -137.5 -246t-280.5 -74q-61 0 -100 12zM330 1266l57 270h352l-57 -270h-352z" />
<glyph unicode="k" horiz-adv-x="1212" d="M113 0l325 1536h353l-183 -864h62l299 403h387l-414 -516l254 -559h-412l-166 436h-61l-92 -436h-352z" />
<glyph unicode="l" horiz-adv-x="591" d="M121 0l325 1536h353l-326 -1536h-352z" />
<glyph unicode="m" horiz-adv-x="1902" d="M119 0l229 1075h342l-33 -151h15q89 163 326 163h3q283 0 283 -180q0 -14 -2 -30h16q35 104 136 161q90 49 208 49q313 0 314 -237q0 -47 -14 -115l-156 -735h-352l133 623q14 68 14 102q0 92 -115 92q-166 0 -209 -207l-129 -610h-352l139 651q10 47 11 80q0 86 -109 86 q-102 0 -153 -55q-41 -45 -64 -152l-129 -610h-352z" />
<glyph unicode="n" horiz-adv-x="1267" d="M117 0l229 1075h352l-43 -201h15q59 117 145 165t221 48q287 0 287 -229q0 -47 -14 -115l-158 -743h-352l141 662q8 39 8 63q0 92 -121 92q-109 0 -163 -61q-45 -51 -70 -164l-125 -592h-352z" />
<glyph unicode="o" horiz-adv-x="1214" d="M150 274q0 96 34 263q70 330 193 436q131 114 461 114q223 0 309 -32q149 -55 149 -236q0 -108 -36 -282q-70 -328 -195 -437q-130 -112 -455 -112h-6q-217 0 -309 39q-145 63 -145 247zM510 365q0 -70 47 -93q31 -14 111 -14q129 0 178 76q27 43 61 203q27 125 27 178 q0 66 -43 88q-31 14 -105 14q-135 0 -186 -76q-29 -43 -63 -204q-27 -125 -27 -172z" />
<glyph unicode="p" horiz-adv-x="1265" d="M14 -465l328 1540h352l-45 -170h17q90 182 346 182q338 0 338 -266q0 -63 -15 -129l-53 -246q-51 -236 -156 -340q-118 -118 -344 -118h-4q-231 0 -262 174h-16l-133 -627h-353zM555 379q0 -121 141 -121q129 0 185 76q37 51 69 203q25 117 25 170q0 70 -47 94 q-35 16 -113 16q-123 0 -174 -82q-29 -45 -61 -198q-25 -113 -25 -158z" />
<glyph unicode="q" horiz-adv-x="1267" d="M147 260q0 82 23 186l53 246q86 395 492 395q256 0 268 -182h16l29 170h352l-327 -1540h-353l134 627h-17q-104 -174 -336 -174q-162 0 -239 55q-94 63 -95 217zM518 379q0 -121 141 -121q129 0 185 76q37 51 69 203q25 117 25 170q0 70 -47 94q-35 16 -113 16 q-123 0 -174 -82q-29 -45 -61 -198q-25 -113 -25 -158z" />
<glyph unicode="r" horiz-adv-x="1026" d="M111 0l229 1075h342l-35 -157h15q101 169 305 169h2q207 0 207 -204q0 -80 -25 -193l-18 -84h-318l10 51q14 72 15 91q0 69 -70 69h-2q-131 0 -168 -172l-137 -645h-352z" />
<glyph unicode="s" horiz-adv-x="1183" d="M123 221q0 51 14 115h352q-4 -20 -4 -39q0 -55 47 -72q29 -10 105 -10q106 0 129 6q61 16 76 88q4 23 4 39q0 45 -43 60q-27 8 -123 8q-205 0 -293 22q-178 45 -178 191q0 49 12 106q49 231 217 305q109 47 385 47q193 0 281 -26q145 -43 145 -176q0 -23 -8 -64l-10 -51 h-332v10q0 51 -39 70q-23 10 -86 10q-104 0 -125 -4q-63 -16 -78 -82q-4 -18 -4 -33q0 -57 170 -61q260 -6 350 -39q119 -43 119 -176q0 -47 -14 -115q-45 -215 -221 -299q-133 -63 -381 -63q-246 0 -326 26q-141 47 -141 207z" />
<glyph unicode="t" horiz-adv-x="993" d="M203 817l55 258h131l47 228h352l-47 -228h408l-55 -258h-408l-102 -481q-6 -29 -6 -41q0 -49 67 -49q59 0 88 41q12 18 33 98l14 57h281l-21 -96q-45 -211 -151 -287q-97 -71 -314 -71h-6q-174 0 -254 35q-106 47 -106 172q0 35 12 92l113 530h-131z" />
<glyph unicode="u" horiz-adv-x="1259" d="M164 229q0 53 12 111l158 735h352l-137 -641q-12 -57 -12 -86q0 -90 104 -90q80 0 143 39q72 43 88 117l142 661h352l-229 -1075h-342l55 207h-16q-111 -219 -367 -219q-303 0 -303 241z" />
<glyph unicode="v" horiz-adv-x="1085" d="M215 1075h369l14 -839h10l357 839h364l-493 -1075h-553z" />
<glyph unicode="w" horiz-adv-x="1716" d="M197 0l34 1075h338l-61 -839h16l359 839h411l-2 -839h15l305 839h332l-418 -1075h-506l10 766h-12l-309 -766h-512z" />
<glyph unicode="x" horiz-adv-x="1116" d="M-12 0l440 569l-168 506h408l59 -297l193 297h409l-391 -506l190 -569h-413l-78 354l-225 -354h-424z" />
<glyph unicode="y" horiz-adv-x="1091" d="M152 -471l51 244q41 -4 61 -4q172 0 234 231h-193l-90 1075h369l26 -874h4l361 874h360l-520 -1169q-94 -211 -203 -293q-121 -90 -342 -90q-14 0 -118 6z" />
<glyph unicode="z" horiz-adv-x="1015" d="M43 0l61 291l623 538h-469l53 246h891l-59 -278l-637 -551h520l-53 -246h-930z" />
<glyph unicode="{" horiz-adv-x="788" d="M154 496l57 270q170 0 188 90l88 420q20 98 107.5 185t183.5 87h291l-57 -270h-76q-57 0 -81 -23.5t-36 -80.5l-76 -351q-37 -174 -237 -192v-4q160 -16 160 -144q0 -27 -9 -65l-73 -350q-6 -29 -6 -50q0 -55 77 -55h76l-57 -270h-291q-76 0 -128 65.5t-52 143.5 q0 35 6 63l90 420q2 10 2 27q0 84 -147 84z" />
<glyph unicode="|" horiz-adv-x="1228" d="M498 0l325 1536h236l-326 -1536h-235z" />
<glyph unicode="}" horiz-adv-x="788" d="M-16 -307l57 270h76q57 0 84 25q20 23 32 80l74 350q41 190 242 209v4q-160 16 -160 145q0 29 4 47l76 351q6 29 6 49q0 55 -78 55h-75l57 270h291q76 0 131 -67q49 -63 49 -142q0 -25 -8 -63l-88 -420q-19 -90 147 -90l-57 -270q-166 0 -191 -111l-90 -420 q-27 -127 -131 -207q-86 -66 -158 -65h-290z" />
<glyph unicode="~" horiz-adv-x="1228" d="M186 399q92 424 361 424q72 0 129 -47l192 -160q63 -53 109 -53q39 0 74 68q24 53 32 104h199q-35 -166 -108 -274q-98 -145 -242 -146q-61 0 -139 60l-218 164q-51 39 -94 39q-35 0 -59 -66q-6 -16 -37 -113h-199z" />
<glyph horiz-adv-x="1019" d="M-84 535l43 96h115q6 51 24 149h-135l43 99h121q84 229 221 374q170 180 383 181q193 -1 338 -138l-47 -319l-98 12q0 322 -193 322q-211 0 -330 -432h353l-43 -99h-336q-12 -49 -33 -149h301l-43 -96h-274q-12 -84 -13 -152q0 -115 43 -186q53 -88 160 -88 q119 0 207 139q49 78 104 244l113 -21l-111 -385q-158 -109 -325 -109q-227 0 -340 173q-96 145 -96 385h-152z" />
<glyph unicode="&#xa1;" horiz-adv-x="714" d="M70 -465l211 932h352l-182 -932h-381zM346 719l76 356h332l-76 -356h-332z" />
<glyph unicode="&#xa2;" d="M332 451q0 100 39 282q61 289 159 400q123 139 394 139l32 153h156l-33 -153q164 0 246 -45q106 -57 107 -207q0 -70 -21 -166h-328q2 25 2 43q0 104 -141 104q-115 0 -160 -79q-23 -39 -53 -187q-37 -168 -37 -219q0 -57 39 -74q23 -10 90 -10q100 0 144.5 41t64.5 141 h328q-55 -256 -146 -346q-109 -106 -370 -106l-39 -185h-156l39 185q-174 0 -258 55q-98 68 -98 234z" />
<glyph unicode="&#xa3;" d="M143 0l70 328q94 0 135 71q23 39 51 166h-182l62 297h182l47 221q59 281 235 381q145 84 459 84q225 0 322 -32q172 -57 172 -234q0 -78 -25 -184l-16 -72h-402q6 23 13 61q8 72 -31 99q-31 20 -109 20q-106 0 -152 -38t-69 -144l-35 -162h390l-62 -297h-389 q-20 -98 -41 -135q-33 -59 -104 -92l-2 -10h845l-69 -328h-1295z" />
<glyph unicode="&#xa4;" d="M276 352l203 170q-39 63 -39 148q0 80 35 164t94 131l-135 165l182 148l132 -168q111 72 245 66q143 -6 207 -62l205 168l117 -145l-209 -170q35 -98 35 -144q0 -104 -66 -211q-4 -4 -70 -96l129 -166l-176 -139l-131 166q-49 -23 -96 -45q-66 -25 -141 -23 q-125 4 -197 72l-209 -172zM694 705q0 -70 44 -115t114 -45q80 0 150.5 55t82.5 133q8 25 9 51q0 70 -44 113t-114 43q-92 0 -167 -71.5t-75 -163.5z" />
<glyph unicode="&#xa5;" d="M133 442l57 271h412l-49 159h-328l58 271h186l-125 393h444l136 -592h14l393 592h451l-295 -393h192l-57 -271h-340l-121 -159h426l-57 -271h-502l-94 -442h-410l94 442h-485z" />
<glyph unicode="&#xa6;" horiz-adv-x="1228" d="M498 0l131 614h235l-131 -614h-235zM694 922l129 614h236l-129 -614h-236z" />
<glyph unicode="&#xa7;" d="M76 -182q0 88 28 221h379q-8 -53 -8 -86q0 -80 74 -100q33 -10 143 -11q145 0 187 8q106 25 125 115q6 29 6 41q0 49 -41 70q-27 12 -115 28l-469 84q-119 20 -166 50q-74 43 -74 141q0 49 23 158q27 127 57 182q53 96 152 123q-61 49 -62 147q0 51 23 158 q43 205 164 289q162 113 553 112q283 0 393 -41q162 -59 162 -237q-1 -57 -15 -125l-18 -86h-379q8 37 8 67q0 70 -43 91q-27 12 -176 12q-109 0 -145 -8q-84 -20 -99 -93q-4 -20 -4 -41q0 -41 37 -57q14 -4 109 -22l368 -70q172 -33 228 -68q76 -47 75 -161q0 -59 -18 -144 q-29 -133 -53 -182q-45 -90 -137 -133q86 -31 86 -141q0 -53 -19 -142q-51 -248 -188 -336q-166 -109 -604 -108q-303 0 -412 49q-135 61 -135 246zM520 532q0 -51 35 -69q14 -9 92 -23l309 -59q63 -12 86 -12q104 0 138 155q8 39 8 54q0 49 -64 75q-27 10 -106 27l-240 47 q-94 18 -110 18q-72 0 -113 -73q-35 -61 -35 -140z" />
<glyph unicode="&#xa8;" horiz-adv-x="960" d="M418 1247l45 211h223l-45 -211h-223zM848 1247l45 211h223l-45 -211h-223z" />
<glyph unicode="&#xa9;" horiz-adv-x="1638" d="M184 604q0 76 19 164q68 326 342 553t604 227q274 0 452.5 -172t178.5 -444q0 -86 -17 -164q-68 -322 -343 -551t-603 -229q-276 0 -454.5 171t-178.5 445zM367 641q0 -213 137 -344t350 -131q252 0 466 177t265 425q12 59 12 125q0 211 -137 344t-350 133 q-254 0 -465 -176t-264 -426q-14 -68 -14 -127zM553 657q0 59 12 117q45 207 189 338q152 135 358 135q150 0 238 -81t82 -228h-183q2 76 -46 119t-124 43q-143 0 -245 -131q-96 -121 -97 -269q0 -106 51 -174q57 -76 160 -75q78 0 147 48t87 122h182q-47 -143 -171 -230.5 t-278 -87.5q-164 0 -263 95.5t-99 258.5z" />
<glyph unicode="&#xaa;" horiz-adv-x="983" d="M240 614l32 158h766l-32 -158h-766zM383 1018q0 31 8 67q25 115 88.5 160t184.5 45q80 0 104 -6q55 -14 63 -63h7l18 92q10 51 10 61q0 31 -26 39q-10 4 -54 4q-86 0 -100 -69h-213q29 135 129 176q59 25 209 24q135 0 193 -22q80 -31 79 -123q0 -29 -8 -68l-96 -450 h-213l22 106h-4q-41 -115 -209 -114q-193 0 -192 141zM600 1061q0 -39 105 -39q59 0 81 18q14 14 25 56q15 65 -100 65q-90 0 -107 -74q-4 -18 -4 -26z" />
<glyph unicode="&#xab;" horiz-adv-x="1138" d="M213 557l367 498l206 -125l-276 -373l123 -346l-248 -135zM670 557l366 498l207 -125l-276 -373l123 -346l-248 -135z" />
<glyph unicode="&#xac;" horiz-adv-x="1228" d="M248 684l49 236h1024l-127 -598h-236l78 362h-788z" />
<glyph unicode="&#xad;" horiz-adv-x="692" d="M16 356l68 250h504l-68 -250h-504z" />
<glyph unicode="&#xae;" horiz-adv-x="1638" d="M184 604q0 76 19 164q68 326 342 553t604 227q274 0 452.5 -172t178.5 -444q0 -86 -17 -164q-68 -322 -343 -551t-603 -229q-276 0 -454.5 171t-178.5 445zM367 641q0 -213 137 -344t350 -131q252 0 466 177t265 425q12 59 12 125q0 211 -137 344t-350 133 q-254 0 -465 -176t-264 -426q-14 -68 -14 -127zM555 340l180 844h422q129 0 189 -25q94 -39 94 -149q0 -35 -10 -84q-46 -214 -279 -230l129 -356h-201l-114 346h-158l-74 -346h-178zM836 821h247q78 0 118 26.5t54 100.5q4 12 5 25q0 49 -58 65q-35 10 -112 11h-205z" />
<glyph unicode="&#xaf;" horiz-adv-x="950" d="M420 1253l41 193h643l-41 -193h-643z" />
<glyph unicode="&#xb0;" horiz-adv-x="819" d="M360 1178q0 145 117 257.5t262 112.5q106 0 177 -68.5t71 -174.5q0 -145 -117 -258t-262 -113q-109 0 -178.5 67.5t-69.5 176.5zM504 1206q0 -59 38 -95t97 -36q76 0 140.5 61.5t64.5 137.5q0 59 -39 96t-98 37q-78 0 -140.5 -61.5t-62.5 -139.5z" />
<glyph unicode="&#xb1;" horiz-adv-x="1228" d="M102 0l50 236h1024l-50 -236h-1024zM229 598l52 236h393l51 241h236l-52 -241h396l-52 -236h-395l-53 -252h-236l54 252h-394z" />
<glyph unicode="&#xb2;" horiz-adv-x="884" d="M172 618l41 193q37 168 143 231q59 37 277 82q127 27 133 29q57 25 74 100q6 29 6 43q0 43 -45 56q-16 4 -78 4q-88 0 -113 -13q-33 -18 -49 -94l-10 -45h-254l10 45q41 182 160 248q94 51 297 51q174 0 246 -32q96 -43 96 -162q0 -47 -10 -97q-31 -147 -105 -206 q-66 -53 -235 -93q-72 -14 -213 -47q-57 -20 -76 -100h534l-40 -193h-789z" />
<glyph unicode="&#xb3;" horiz-adv-x="884" d="M240 805q0 39 10 88l10 49h254l-6 -31q-6 -31 -6 -39q0 -45 37 -59q27 -10 94 -10q86 0 117 14q43 23 59 98q4 20 4 35q0 51 -137 51h-64l37 179h64q80 0 100 6q43 12 55 69q8 37 9 50q0 51 -125 51q-82 0 -109 -15q-37 -20 -53 -92l-4 -18h-254l6 33q33 178 156 241 q82 43 286 43q166 0 242 -26q119 -41 119 -158q0 -27 -8 -64q-41 -188 -197 -206l-4 -11q133 -6 133 -129q0 -31 -8 -69q-35 -164 -164 -226q-104 -49 -313 -49q-166 0 -238 31q-102 43 -102 164z" />
<glyph unicode="&#xb4;" horiz-adv-x="827" d="M430 1303l471 245l53 -227l-493 -145z" />
<glyph unicode="&#xb6;" d="M168 690q0 96 39 279q63 295 201 426q152 141 442 141h936l-424 -2001h-246l363 1704h-158l-363 -1704h-245l182 864h-266q-221 0 -314 41q-147 61 -147 250zM559 805q0 -74 66 -96q37 -12 131 -13h202l117 543h-205q-156 0 -208 -57q-39 -41 -76 -213q-27 -125 -27 -164 z" />
<glyph unicode="&#xb7;" horiz-adv-x="737" d="M285 387l75 356h332l-76 -356h-331z" />
<glyph unicode="&#xb8;" horiz-adv-x="659" d="M100 -252l297 168l56 -168l-318 -106z" />
<glyph unicode="&#xb9;" horiz-adv-x="884" d="M293 1270l424 278h311l-199 -930h-266l152 713l-303 -217z" />
<glyph unicode="&#xba;" horiz-adv-x="983" d="M240 614l32 158h766l-32 -158h-766zM403 1040q0 57 25 172q43 201 117.5 268.5t275.5 67.5q129 0 185 -22q90 -35 90 -142q0 -57 -25 -172q-43 -203 -110 -264q-78 -72 -283 -71q-131 0 -184 20q-90 37 -91 143zM625 1104q0 -70 86 -70q76 0 108 53q18 29 39 125 q14 68 14 109q0 70 -86 70q-76 0 -106 -54q-16 -29 -39 -125q-16 -74 -16 -108z" />
<glyph unicode="&#xbb;" horiz-adv-x="1138" d="M123 201l276 372l-125 347l248 135l174 -482l-368 -497zM580 201l276 372l-125 347l248 135l174 -482l-369 -497z" />
<glyph unicode="&#xbc;" horiz-adv-x="2211" d="M190 1257l422 279h312l-195 -918h-266l149 701l-305 -217zM467 0l1233 1536h246l-1233 -1536h-246zM1264 182l55 262l485 478h394l-121 -562h84l-37 -178h-84l-39 -182h-254l39 182h-522zM1509 360h314l80 373h-11z" />
<glyph unicode="&#xbd;" horiz-adv-x="2211" d="M193 1257l423 279h312l-195 -918h-266l149 701l-305 -217zM471 0l1233 1536h246l-1233 -1536h-246zM1335 0l41 193q35 168 144 231q61 37 276 82q125 27 133 31q59 25 74 98q4 20 4 43q0 43 -43 55q-16 4 -78 4q-86 0 -112 -12q-37 -20 -52 -94l-8 -45h-254l8 45 q31 174 154 243q96 55 305 56q174 0 246 -33q96 -43 96 -162q0 -39 -12 -96q-31 -150 -111 -211q-63 -51 -227 -88q-72 -14 -215 -47q-57 -20 -74 -100h535l-41 -193h-789z" />
<glyph unicode="&#xbe;" horiz-adv-x="2211" d="M233 805q0 39 11 88l10 49h254l-6 -31q-6 -31 -6 -39q0 -45 36 -59q27 -10 95 -10q86 0 116 14q43 23 60 98q4 20 4 35q0 51 -137 51h-64l37 179h64q80 0 100 6q43 12 55 69q8 37 8 50q0 51 -125 51q-82 0 -108 -15q-37 -20 -53 -92l-4 -18h-254l6 33q33 178 155 241 q82 43 287 43q166 0 242 -26q119 -41 119 -158q0 -27 -9 -64q-41 -188 -196 -206l-4 -11q133 -6 133 -129q0 -31 -8 -69q-35 -164 -164 -226q-104 -49 -314 -49q-166 0 -237 31q-102 43 -103 164zM584 0l1233 1536h245l-1233 -1536h-245zM1339 182l56 262l485 478h393 l-121 -562h84l-36 -178h-84l-39 -182h-254l39 182h-523zM1585 360h313l80 373h-10z" />
<glyph unicode="&#xbf;" horiz-adv-x="1239" d="M61 -215q0 66 15 133q39 186 127 275q70 70 260 147q119 49 137 127l14 61h353l-15 -61q-37 -158 -75 -207q-53 -68 -205 -133l-80 -35q-76 -33 -103 -57q-47 -43 -61 -117q-4 -20 -4 -45q0 -53 49 -70q29 -10 94 -10q94 0 133 19q57 27 76 106l15 64h352l-15 -64 q-55 -246 -215 -330q-125 -66 -405 -65q-229 0 -324 45q-123 59 -123 217zM666 719l75 356h332l-76 -356h-331z" />
<glyph unicode="&#xc0;" horiz-adv-x="1501" d="M-25 0l787 1536h622l142 -1536h-418l-25 264h-551l-131 -264h-426zM637 1982h287l219 -303h-146zM684 563h381l-47 666h-4z" />
<glyph unicode="&#xc1;" horiz-adv-x="1501" d="M-25 0l787 1536h622l142 -1536h-418l-25 264h-551l-131 -264h-426zM684 563h381l-47 666h-4zM995 1679l219 303h287l-360 -303h-146z" />
<glyph unicode="&#xc2;" horiz-adv-x="1501" d="M-25 0l787 1536h622l142 -1536h-418l-25 264h-551l-131 -264h-426zM684 563h381l-47 666h-4zM725 1694l414 223l327 -223l-77 -97l-295 127l-340 -127z" />
<glyph unicode="&#xc3;" horiz-adv-x="1501" d="M-25 0l787 1536h622l142 -1536h-418l-25 264h-551l-131 -264h-426zM684 563h381l-47 666h-4zM723 1733q174 174 293 184q53 4 128 -45t99 -47q51 4 125 84l102 -37q-164 -176 -284 -186q-61 -6 -136 43t-92 47q-61 -6 -135 -84z" />
<glyph unicode="&#xc4;" horiz-adv-x="1501" d="M-25 0l787 1536h622l142 -1536h-418l-25 264h-551l-131 -264h-426zM684 563h381l-47 666h-4zM787 1708l45 211h223l-45 -211h-223zM1217 1708l45 211h223l-45 -211h-223z" />
<glyph unicode="&#xc5;" horiz-adv-x="1501" d="M-25 0l787 1536h622l142 -1536h-418l-25 264h-551l-131 -264h-426zM684 563h381l-47 666h-4zM934 1780q0 96 76 168t172 72q70 0 115 -44.5t45 -113.5q0 -94 -76 -168t-170 -74q-72 0 -117 44t-45 116zM1043 1800q0 -74 74 -73q39 0 72.5 27.5t41.5 66.5q8 37 -14.5 64.5 t-58.5 27.5q-45 0 -80 -34t-35 -79z" />
<glyph unicode="&#xc6;" horiz-adv-x="2199" d="M-53 0l927 1536h1565l-69 -336h-703l-61 -287h647l-62 -284h-647l-61 -293h702l-71 -336h-1092l57 272h-528l-160 -272h-444zM721 557h420l137 643h-176z" />
<glyph unicode="&#xc7;" horiz-adv-x="1490" d="M166 352q0 90 27 217l83 398q76 354 295 481q174 100 553 100q295 0 404 -49q139 -63 139 -254q0 -82 -25 -201l-12 -59h-422l13 59q10 94 -52 125q-45 23 -165 23q-168 0 -230 -64q-51 -53 -88 -227l-51 -239q-29 -135 -29 -181q0 -86 70 -116q45 -20 147 -21 q143 0 195 29q76 41 98 164l8 45h422l-8 -45q-27 -141 -70 -238q-115 -248 -415 -299q-74 -12 -260 -12q-326 0 -447 51q-180 76 -180 313zM516 -252l297 168l56 -168l-318 -106z" />
<glyph unicode="&#xc8;" horiz-adv-x="1388" d="M131 0l326 1536h1108l-70 -336h-698l-62 -280h656l-60 -285h-655l-64 -299h713l-72 -336h-1122zM575 1982h287l219 -303h-145z" />
<glyph unicode="&#xc9;" horiz-adv-x="1388" d="M131 0l326 1536h1108l-70 -336h-698l-62 -280h656l-60 -285h-655l-64 -299h713l-72 -336h-1122zM934 1679l219 303h287l-361 -303h-145z" />
<glyph unicode="&#xca;" horiz-adv-x="1388" d="M131 0l326 1536h1108l-70 -336h-698l-62 -280h656l-60 -285h-655l-64 -299h713l-72 -336h-1122zM637 1714l414 223l327 -223l-78 -96l-294 127l-340 -127z" />
<glyph unicode="&#xcb;" horiz-adv-x="1388" d="M131 0l326 1536h1108l-70 -336h-698l-62 -280h656l-60 -285h-655l-64 -299h713l-72 -336h-1122zM731 1708l45 211h223l-45 -211h-223zM1161 1708l45 211h223l-45 -211h-223z" />
<glyph unicode="&#xcc;" horiz-adv-x="663" d="M127 0l326 1536h409l-325 -1536h-410zM231 1982h287l219 -303h-145z" />
<glyph unicode="&#xcd;" horiz-adv-x="663" d="M127 0l326 1536h409l-325 -1536h-410zM590 1679l219 303h287l-361 -303h-145z" />
<glyph unicode="&#xce;" horiz-adv-x="663" d="M127 0l326 1536h409l-325 -1536h-410zM342 1786l414 223l328 -223l-78 -117l-295 127l-340 -127z" />
<glyph unicode="&#xcf;" horiz-adv-x="663" d="M127 0l326 1536h409l-325 -1536h-410zM369 1708l45 211h223l-45 -211h-223zM799 1708l45 211h223l-45 -211h-223z" />
<glyph unicode="&#xd0;" horiz-adv-x="1587" d="M72 643l59 285h172l129 608h778q244 0 363 -70q156 -90 156 -313q0 -100 -25 -213l-70 -322q-70 -322 -215 -462q-162 -156 -479 -156h-834l138 643h-172zM592 356h358q205 0 262 262l70 322q12 59 12 109q0 80 -47 108q-37 23 -123 23h-358l-53 -252h229l-59 -285h-230z " />
<glyph unicode="&#xd1;" horiz-adv-x="1783" d="M125 0l326 1536h692l190 -1180h17l225 1180h410l-326 -1536h-698l-185 1180h-16l-225 -1180h-410zM831 1813q156 197 310 196q72 0 176 -70.5t143 -70.5q61 0 127 94l150 -84q-143 -203 -295 -203q-82 0 -187.5 70t-130.5 70q-74 0 -143 -92z" />
<glyph unicode="&#xd2;" horiz-adv-x="1556" d="M164 375q0 80 20 176l92 434q70 330 297 459q184 104 535 104q274 0 410 -59q201 -88 200 -328q0 -80 -20 -176l-92 -434q-70 -330 -297 -459q-183 -104 -533 -104q-274 0 -409 59q-203 90 -203 328zM602 483q0 -96 84 -125q41 -14 166 -14q174 0 233 39q74 47 109 213 l74 346q14 68 14 113q0 96 -84 123q-45 14 -166 14q-174 0 -233 -39q-74 -47 -109 -211l-74 -346q-14 -68 -14 -113zM674 1993h287l219 -303h-146z" />
<glyph unicode="&#xd3;" horiz-adv-x="1556" d="M164 375q0 80 20 176l92 434q70 330 297 459q184 104 535 104q274 0 410 -59q201 -88 200 -328q0 -80 -20 -176l-92 -434q-70 -330 -297 -459q-183 -104 -533 -104q-274 0 -409 59q-203 90 -203 328zM602 483q0 -96 84 -125q41 -14 166 -14q174 0 233 39q74 47 109 213 l74 346q14 68 14 113q0 96 -84 123q-45 14 -166 14q-174 0 -233 -39q-74 -47 -109 -211l-74 -346q-14 -68 -14 -113zM1034 1690l219 303h287l-360 -303h-146z" />
<glyph unicode="&#xd4;" horiz-adv-x="1556" d="M164 375q0 80 20 176l92 434q70 330 297 459q184 104 535 104q274 0 410 -59q201 -88 200 -328q0 -80 -20 -176l-92 -434q-70 -330 -297 -459q-183 -104 -533 -104q-274 0 -409 59q-203 90 -203 328zM602 483q0 -96 84 -125q41 -14 166 -14q174 0 233 39q74 47 109 213 l74 346q14 68 14 113q0 96 -84 123q-45 14 -166 14q-174 0 -233 -39q-74 -47 -109 -211l-74 -346q-14 -68 -14 -113zM778 1716l414 223l328 -223l-78 -96l-295 127l-340 -127z" />
<glyph unicode="&#xd5;" horiz-adv-x="1556" d="M164 375q0 80 20 176l92 434q70 330 297 459q184 104 535 104q274 0 410 -59q201 -88 200 -328q0 -80 -20 -176l-92 -434q-70 -330 -297 -459q-183 -104 -533 -104q-274 0 -409 59q-203 90 -203 328zM602 483q0 -96 84 -125q41 -14 166 -14q174 0 233 39q74 47 109 213 l74 346q14 68 14 113q0 96 -84 123q-45 14 -166 14q-174 0 -233 -39q-74 -47 -109 -211l-74 -346q-14 -68 -14 -113zM776 1743q174 174 293 184q53 4 128 -45t99 -47q51 4 125 84l103 -37q-164 -176 -285 -186q-61 -6 -136 43t-91 47q-61 -6 -135 -84z" />
<glyph unicode="&#xd6;" horiz-adv-x="1556" d="M164 375q0 80 20 176l92 434q70 330 297 459q182 104 535 104q276 0 410 -59q201 -88 200 -328q0 -80 -20 -176l-92 -434q-70 -330 -297 -459q-183 -104 -533 -104q-274 0 -409 59q-203 90 -203 328zM602 483q0 -98 82 -125q41 -14 168 -14q168 0 231 41q76 49 111 211 l74 346q14 68 14 113q0 96 -84 123q-43 14 -166 14q-174 0 -233 -39q-74 -47 -109 -211l-74 -346q-14 -68 -14 -113zM815 1708l45 211h223l-45 -211h-223zM1245 1708l45 211h223l-45 -211h-223z" />
<glyph unicode="&#xd7;" horiz-adv-x="1228" d="M152 233l403 332l-262 332l219 178l260 -330l404 330l141 -178l-402 -332l261 -332l-218 -180l-262 332l-401 -332z" />
<glyph unicode="&#xd8;" horiz-adv-x="1556" d="M-29 -61l60 284l133 94q-16 84 6 189l51 244q100 473 260 626q180 172 639 172q199 0 293 -18q150 -29 232 -125l272 194l-62 -288l-137 -99q6 -131 -53 -411q-68 -324 -141 -471q-102 -205 -307 -283q-156 -59 -429 -59q-203 0 -301 18q-172 33 -245 129zM618 408 q18 -63 259 -64q270 0 313 201l70 327zM623 655l645 471q-35 45 -97 58q-39 8 -127 8q-193 0 -256 -53q-74 -61 -126 -305z" />
<glyph unicode="&#xd9;" horiz-adv-x="1579" d="M207 287q0 80 31 225l217 1024h409l-215 -1016q-8 -39 -8 -63q0 -76 66 -99q43 -14 176 -14q141 0 188 29q59 37 86 166l211 997h410l-217 -1024q-66 -309 -256 -426q-160 -98 -498 -98q-266 0 -383 35q-217 63 -217 264zM674 1942h287l219 -304h-146z" />
<glyph unicode="&#xda;" horiz-adv-x="1579" d="M207 287q0 80 31 225l217 1024h409l-215 -1016q-8 -39 -8 -63q0 -76 66 -99q43 -14 176 -14q141 0 188 29q59 37 86 166l211 997h410l-217 -1024q-66 -309 -256 -426q-160 -98 -498 -98q-266 0 -383 35q-217 63 -217 264zM1034 1638l219 304h287l-360 -304h-146z" />
<glyph unicode="&#xdb;" horiz-adv-x="1579" d="M207 287q0 80 31 225l217 1024h409l-215 -1016q-8 -39 -8 -63q0 -76 66 -99q43 -14 176 -14q137 0 186 31q61 37 88 164l211 997h410l-217 -1024q-66 -307 -258 -424q-162 -100 -496 -100q-268 0 -383 35q-217 63 -217 264zM801 1786l414 223l328 -223l-78 -117l-295 127 l-340 -127z" />
<glyph unicode="&#xdc;" horiz-adv-x="1579" d="M207 287q0 80 31 225l217 1024h409l-215 -1016q-8 -39 -8 -63q0 -76 66 -99q43 -14 176 -14q137 0 186 31q61 37 88 164l211 997h410l-217 -1024q-66 -307 -258 -424q-162 -100 -496 -100q-268 0 -383 35q-217 63 -217 264zM826 1708l45 211h223l-45 -211h-223z M1256 1708l45 211h223l-45 -211h-223z" />
<glyph unicode="&#xdd;" horiz-adv-x="1449" d="M293 1536h469l149 -592h15l407 592h475l-772 -997l-114 -539h-410l115 539zM971 1618l219 303h287l-361 -303h-145z" />
<glyph unicode="&#xde;" horiz-adv-x="1456" d="M119 0l325 1536h410l-41 -197h363q205 0 307 -65q125 -82 125 -275q0 -98 -27 -223q-70 -326 -192 -444q-139 -135 -457 -135h-363l-41 -197h-409zM645 553h281q127 0 172 49q31 35 61 174q14 68 15 107q0 100 -156 100h-281z" />
<glyph unicode="&#xdf;" horiz-adv-x="1263" d="M117 0l245 1157q49 227 207 318q131 74 387 73q215 0 306 -32q139 -51 139 -199q0 -43 -10 -92q-49 -238 -304 -267l-2 -16q244 -4 244 -231q0 -74 -29 -209q-57 -264 -159 -377q-141 -154 -377 -137l-182 12l53 248q39 -14 90 -15q117 0 166 80q27 45 57 189 q29 135 29 194q0 143 -148 144h-32l51 235h39q147 0 170 107q4 20 4 39q0 92 -156 92q-86 0 -129 -36t-61 -120l-246 -1157h-352z" />
<glyph unicode="&#xe0;" horiz-adv-x="1247" d="M137 207q0 49 15 115q41 188 155 266q106 72 305 71q117 0 168 -14q92 -27 101 -106h16l37 170q12 57 12 79q0 84 -137 84q-145 0 -170 -116h-352q47 221 217 291q100 41 350 40q242 0 334 -43q111 -51 110 -202q0 -74 -20 -170l-143 -672h-353l47 160h-12 q-70 -172 -346 -172q-152 0 -225 35q-109 49 -109 184zM444 1516h273l207 -287h-138zM502 297q0 -82 133 -82q104 0 141 16q61 27 80 115q2 10 2 25q0 51 -67 67q-27 6 -107 6q-154 0 -178 -112q-4 -18 -4 -35z" />
<glyph unicode="&#xe1;" horiz-adv-x="1247" d="M137 207q0 49 15 115q41 188 155 266q106 72 305 71q117 0 168 -14q92 -27 101 -106h16l37 170q12 57 12 79q0 84 -137 84q-145 0 -170 -116h-352q47 221 217 291q100 41 350 40q242 0 334 -43q111 -51 110 -202q0 -74 -20 -170l-143 -672h-353l47 160h-12 q-70 -172 -346 -172q-152 0 -225 35q-109 49 -109 184zM502 297q0 -82 133 -82q104 0 141 16q61 27 80 115q2 10 2 25q0 51 -67 67q-27 6 -107 6q-154 0 -178 -112q-4 -18 -4 -35zM784 1229l207 287h273l-342 -287h-138z" />
<glyph unicode="&#xe2;" horiz-adv-x="1247" d="M137 207q0 49 15 115q41 188 155 266q106 72 305 71q117 0 168 -14q92 -27 101 -106h16l37 170q12 57 12 79q0 84 -137 84q-145 0 -170 -116h-352q47 221 217 291q100 41 350 40q242 0 334 -43q111 -51 110 -202q0 -74 -20 -170l-143 -672h-353l47 160h-12 q-70 -172 -346 -172q-152 0 -225 35q-109 49 -109 184zM502 297q0 -82 133 -82q104 0 141 16q61 27 80 115q2 10 2 25q0 51 -67 67q-27 6 -107 6q-154 0 -178 -112q-4 -18 -4 -35zM539 1245l393 213l311 -213l-74 -90l-280 121l-324 -121z" />
<glyph unicode="&#xe3;" horiz-adv-x="1247" d="M137 207q0 49 15 115q41 188 155 266q106 72 305 71q117 0 168 -14q92 -27 101 -106h16l37 170q12 57 12 79q0 84 -137 84q-145 0 -170 -116h-352q47 221 217 291q100 41 350 40q242 0 334 -43q111 -51 110 -202q0 -74 -20 -170l-143 -672h-353l47 160h-12 q-70 -172 -346 -172q-152 0 -225 35q-109 49 -109 184zM502 297q0 -82 133 -82q104 0 141 16q61 27 80 115q2 10 2 25q0 51 -67 67q-27 6 -107 6q-154 0 -178 -112q-4 -18 -4 -35zM549 1276q166 166 278 174q57 4 121 -41q53 -49 94 -45q49 4 119 80l99 -35 q-156 -168 -271 -178q-57 -6 -130 41t-87 45q-57 -6 -127 -80z" />
<glyph unicode="&#xe4;" horiz-adv-x="1247" d="M139 207q0 57 13 115q39 186 155 266q106 72 305 71q117 0 168 -14q92 -27 101 -106h16l37 170q10 47 10 79q0 84 -135 84q-143 0 -170 -116h-352q49 223 217 291q100 41 350 40q242 0 334 -43q111 -51 110 -202q0 -74 -20 -170l-143 -672h-353l47 160h-12 q-68 -172 -346 -172q-154 0 -225 35q-106 49 -107 184zM504 299q0 -84 131 -84q104 0 141 16q61 27 80 115q2 10 2 25q0 51 -67 67q-29 6 -107 6q-154 0 -178 -112q-2 -18 -2 -33zM561 1247l45 211h223l-45 -211h-223zM991 1247l45 211h223l-45 -211h-223z" />
<glyph unicode="&#xe5;" horiz-adv-x="1247" d="M139 207q0 57 13 115q39 186 155 266q106 72 305 71q117 0 168 -14q92 -27 101 -106h16l37 170q10 47 10 79q0 84 -135 84q-143 0 -170 -116h-352q49 223 217 291q100 41 350 40q242 0 334 -43q111 -51 110 -202q0 -74 -20 -170l-143 -672h-353l47 160h-12 q-68 -172 -346 -172q-154 0 -225 35q-106 49 -107 184zM504 299q0 -84 131 -84q104 0 141 16q61 27 80 115q2 10 2 25q0 51 -67 67q-29 6 -107 6q-154 0 -178 -112q-2 -18 -2 -33zM708 1319q0 96 76 168t172 72q70 0 115 -44.5t45 -113.5q0 -94 -76 -168t-170 -74 q-72 0 -117 44t-45 116zM817 1339q0 -74 74 -73q39 0 72.5 27.5t41.5 66.5q8 37 -14.5 64.5t-58.5 27.5q-45 0 -80 -34t-35 -79z" />
<glyph unicode="&#xe6;" horiz-adv-x="1898" d="M133 207q0 57 12 115q39 186 156 266q106 72 305 71q117 0 168 -14q92 -27 100 -106h17l37 170q10 47 10 79q0 84 -135 84q-143 0 -170 -116h-352q49 223 217 291q100 41 350 40q305 0 313 -145h10q63 145 363 145q213 0 305 -45q135 -66 135 -254q0 -94 -32 -251 l-13 -60h-698q-20 -88 -21 -135q0 -109 142 -109q92 0 131 19q57 29 73 106h347q-37 -176 -137.5 -260t-280.5 -102q-80 -8 -185 -8q-330 0 -348 162h-12q-61 -104 -203 -140q-90 -23 -272 -22q-154 0 -225 35q-106 49 -107 184zM498 301q0 -84 133 -84q104 0 141 16 q57 25 78 115q4 18 4 25q0 73 -176 73q-154 0 -176 -112q-4 -20 -4 -33zM1272 672h346q10 47 10 82q0 113 -147 112q-96 0 -146 -51q-40 -41 -63 -143z" />
<glyph unicode="&#xe7;" horiz-adv-x="1140" d="M143 276q0 98 35 261q63 299 178 411q141 139 453 139q231 0 324 -43q125 -57 124 -223q0 -66 -16 -149h-352q10 39 10 65q0 53 -51 72q-27 8 -96 8q-115 0 -164 -86q-27 -45 -58 -194q-27 -127 -26 -183q0 -61 35 -82q25 -14 94 -14q113 0 151 37q31 29 54 135h352 q-49 -229 -133 -317q-94 -102 -307 -119q-76 -6 -175 -6q-207 0 -299 43q-133 63 -133 245zM342 -252l297 168l56 -168l-318 -106z" />
<glyph unicode="&#xe8;" horiz-adv-x="1175" d="M143 293q0 90 33 244q68 313 195 428q137 123 448 122q213 0 305 -45q133 -66 133 -254q0 -102 -30 -251l-13 -60h-698q-18 -90 -18 -135q0 -66 39 -90q31 -18 100 -19q94 0 131 19q58 28 74 106h346q-37 -166 -130 -250.5t-263 -107.5q-90 -12 -209 -12q-211 0 -307 49 q-135 70 -136 256zM410 1516h272l207 -287h-137zM557 672h346q8 45 8 76q0 63 -47 83q-25 10 -104 11q-98 0 -139 -36t-64 -134z" />
<glyph unicode="&#xe9;" horiz-adv-x="1175" d="M143 293q0 90 33 244q68 313 195 428q137 123 448 122q213 0 305 -45q133 -66 133 -254q0 -102 -30 -251l-13 -60h-698q-18 -90 -18 -135q0 -66 39 -90q31 -18 100 -19q94 0 131 19q58 28 74 106h346q-37 -166 -130 -250.5t-263 -107.5q-90 -12 -209 -12q-211 0 -307 49 q-135 70 -136 256zM557 672h346q8 45 8 76q0 63 -47 83q-25 10 -104 11q-98 0 -139 -36t-64 -134zM750 1229l206 287h273l-342 -287h-137z" />
<glyph unicode="&#xea;" horiz-adv-x="1175" d="M143 293q0 90 33 244q68 313 195 428q137 123 448 122q213 0 305 -45q133 -66 133 -254q0 -102 -30 -251l-13 -60h-698q-18 -90 -18 -135q0 -66 39 -90q31 -18 100 -19q94 0 131 19q58 28 74 106h346q-37 -166 -130 -250.5t-263 -107.5q-90 -12 -209 -12q-211 0 -307 49 q-135 70 -136 256zM508 1245l393 213l311 -213l-73 -90l-281 121l-321 -121zM557 672h346q8 45 8 76q0 63 -47 83q-25 10 -104 11q-98 0 -139 -36t-64 -134z" />
<glyph unicode="&#xeb;" horiz-adv-x="1175" d="M143 293q0 92 33 244q68 315 193 428q135 123 450 122q213 0 305 -45q135 -66 136 -254q0 -94 -33 -251l-13 -60h-698q-20 -88 -20 -135q0 -109 141 -109q92 0 131 19q58 28 74 106h346q-37 -170 -133.5 -255t-272.5 -105q-84 -10 -196 -10q-211 0 -307 49 q-135 70 -136 256zM527 1247l45 211h223l-45 -211h-223zM557 672h346q8 45 8 76q0 63 -47 83q-27 10 -104 11q-98 0 -139 -36t-64 -134zM957 1247l45 211h223l-45 -211h-223z" />
<glyph unicode="&#xec;" horiz-adv-x="526" d="M88 0l229 1075h353l-230 -1075h-352zM123 1495h231l207 -287h-137z" />
<glyph unicode="&#xed;" horiz-adv-x="526" d="M88 0l229 1075h353l-230 -1075h-352zM422 1208l207 287h272l-342 -287h-137z" />
<glyph unicode="&#xee;" horiz-adv-x="526" d="M88 0l229 1075h353l-230 -1075h-352zM176 1325l414 223l328 -223l-78 -117l-295 127l-340 -127z" />
<glyph unicode="&#xef;" horiz-adv-x="526" d="M88 0l229 1075h353l-230 -1075h-352zM201 1247l45 211h223l-45 -211h-223zM631 1247l45 211h223l-45 -211h-223z" />
<glyph unicode="&#xf0;" horiz-adv-x="1214" d="M150 274q0 98 34 263q72 336 205 443t479 107q-66 82 -192 150l-117 -127l-80 61l99 107q-59 27 -185 70l119 200q106 -25 238 -84l84 92l88 -55l-70 -76q291 -150 410 -405q37 -80 36 -189q0 -113 -38 -294q-70 -328 -195 -437q-131 -113 -461 -112q-217 0 -309 39 q-145 63 -145 247zM510 365q0 -70 47 -93q31 -14 111 -14q129 0 178 76q27 43 61 203q27 125 27 178q0 66 -43 88q-31 14 -105 14q-135 0 -186 -76q-29 -43 -63 -204q-27 -125 -27 -172z" />
<glyph unicode="&#xf1;" horiz-adv-x="1267" d="M117 0l229 1075h352l-43 -201h15q59 117 145 165t221 48q287 0 287 -229q0 -47 -14 -115l-158 -743h-352l141 662q8 39 8 63q0 92 -121 92q-109 0 -163 -61q-45 -51 -70 -164l-125 -592h-352zM475 1352q156 197 310 196q72 0 176 -70.5t143 -70.5q61 0 127 94l150 -84 q-143 -203 -295 -203q-82 0 -187.5 70t-130.5 70q-74 0 -143 -92z" />
<glyph unicode="&#xf2;" horiz-adv-x="1214" d="M150 274q0 102 34 263q72 326 195 434q131 116 459 116q225 0 311 -32q150 -57 149 -240q0 -98 -38 -278q-72 -326 -195 -435q-133 -115 -461 -114q-215 0 -309 41q-145 63 -145 245zM410 1495h272l207 -287h-137zM510 365q0 -70 47 -93q31 -14 111 -14q133 0 180 76 q25 39 59 203q27 125 27 178q0 66 -45 88q-29 14 -103 14q-131 0 -184 -76q-31 -45 -65 -204q-27 -123 -27 -172z" />
<glyph unicode="&#xf3;" horiz-adv-x="1214" d="M150 274q0 102 34 263q72 326 195 434q131 116 459 116q225 0 311 -32q150 -57 149 -240q0 -98 -38 -278q-72 -326 -195 -435q-133 -115 -461 -114q-215 0 -309 41q-145 63 -145 245zM510 365q0 -70 47 -93q31 -14 111 -14q133 0 180 76q25 39 59 203q27 125 27 178 q0 66 -45 88q-29 14 -103 14q-131 0 -184 -76q-31 -45 -65 -204q-27 -123 -27 -172zM768 1229l207 287h272l-342 -287h-137z" />
<glyph unicode="&#xf4;" horiz-adv-x="1214" d="M150 274q0 102 34 263q72 326 195 434q131 116 459 116q225 0 311 -32q150 -57 149 -240q0 -98 -38 -278q-72 -326 -195 -435q-133 -115 -461 -114q-215 0 -309 41q-145 63 -145 245zM510 365q0 -70 47 -93q31 -14 111 -14q133 0 180 76q25 39 59 203q27 125 27 178 q0 66 -45 88q-29 14 -103 14q-131 0 -184 -76q-31 -45 -65 -204q-27 -123 -27 -172zM524 1245l394 213l311 -213l-74 -90l-281 121l-321 -121z" />
<glyph unicode="&#xf5;" horiz-adv-x="1214" d="M150 274q0 102 34 263q72 326 195 434q131 116 459 116q225 0 311 -32q150 -57 149 -240q0 -98 -38 -278q-72 -326 -195 -435q-133 -115 -461 -114q-215 0 -309 41q-145 63 -145 245zM510 365q0 -70 47 -93q31 -14 111 -14q133 0 180 76q25 39 59 203q27 125 27 178 q0 66 -45 88q-29 14 -103 14q-131 0 -184 -76q-31 -45 -65 -204q-27 -123 -27 -172zM528 1278q166 166 279 174q57 4 121 -41q53 -49 94 -45q49 4 119 80l98 -35q-156 -168 -270 -178q-57 -6 -130 41t-87 45q-57 -6 -127 -80z" />
<glyph unicode="&#xf6;" horiz-adv-x="1214" d="M150 274q0 96 34 263q70 330 193 436q131 114 461 114q223 0 309 -32q150 -55 149 -238q0 -106 -36 -280q-70 -328 -195 -437q-131 -113 -461 -112q-217 0 -309 39q-145 63 -145 247zM510 365q0 -70 47 -93q31 -14 111 -14q129 0 178 76q27 43 61 203q27 125 27 178 q0 66 -43 88q-31 14 -105 14q-135 0 -186 -76q-29 -43 -63 -204q-27 -125 -27 -172zM545 1247l45 211h223l-45 -211h-223zM975 1247l45 211h223l-45 -211h-223z" />
<glyph unicode="&#xf7;" horiz-adv-x="1228" d="M199 449l49 235h1024l-49 -235h-1024zM508 57l49 236h236l-50 -236h-235zM674 840l51 235h236l-52 -235h-235z" />
<glyph unicode="&#xf8;" horiz-adv-x="1259" d="M-4 0l37 170l135 84q4 119 51 340q63 299 201 399q129 94 440 94q172 0 250 -16q135 -29 180 -117l176 113l-36 -174l-105 -66q4 -68 -31 -231q-80 -371 -190 -481q-129 -127 -477 -127q-164 0 -246 18q-131 29 -180 121zM532 330q14 -72 152 -72q119 0 170 57 q39 43 66 172l20 97zM549 492l405 249q0 76 -151 76q-184 0 -213 -133z" />
<glyph unicode="&#xf9;" horiz-adv-x="1259" d="M164 231q0 51 12 109l158 735h352l-137 -641q-12 -57 -12 -86q0 -90 104 -90q80 0 143 39q72 43 88 117l142 661h352l-229 -1075h-342l55 207h-16q-111 -219 -367 -219q-303 0 -303 243zM428 1466h272l207 -286h-137z" />
<glyph unicode="&#xfa;" horiz-adv-x="1259" d="M164 231q0 51 12 109l158 735h352l-137 -641q-12 -57 -12 -86q0 -90 104 -90q80 0 143 39q72 43 88 117l142 661h352l-229 -1075h-342l55 207h-16q-111 -219 -367 -219q-303 0 -303 243zM768 1180l207 286h272l-342 -286h-137z" />
<glyph unicode="&#xfb;" horiz-adv-x="1259" d="M164 229q0 53 12 111l158 735h352l-137 -641q-12 -57 -12 -86q0 -90 104 -90q80 0 143 39q72 43 88 117l142 661h352l-229 -1075h-342l55 207h-16q-111 -219 -367 -219q-303 0 -303 241zM542 1325l414 223l328 -223l-78 -117l-295 127l-340 -127z" />
<glyph unicode="&#xfc;" horiz-adv-x="1259" d="M164 229q0 53 12 111l158 735h352l-137 -641q-12 -57 -12 -86q0 -90 104 -90q80 0 143 39q72 43 88 117l142 661h352l-229 -1075h-342l55 207h-16q-111 -219 -367 -219q-303 0 -303 241zM568 1247l45 211h223l-45 -211h-223zM998 1247l45 211h223l-45 -211h-223z" />
<glyph unicode="&#xfd;" horiz-adv-x="1091" d="M152 -471l51 244q41 -4 61 -4q172 0 234 231h-193l-90 1075h369l26 -874h4l361 874h360l-520 -1169q-94 -211 -203 -293q-123 -90 -342 -90q-14 0 -118 6zM705 1155l206 287h273l-342 -287h-137z" />
<glyph unicode="&#xfe;" horiz-adv-x="1265" d="M6 -465l424 2001h352l-133 -627h13q86 178 342 178q338 0 337 -266q0 -63 -14 -129l-53 -246q-51 -236 -156 -340q-119 -119 -348 -118q-231 0 -262 174h-16l-134 -627h-352zM547 379q0 -121 141 -121q129 0 184 76q37 51 70 203q25 117 25 170q0 70 -47 94 q-35 16 -113 16q-123 0 -174 -82q-29 -45 -62 -198q-25 -113 -24 -158z" />
<glyph unicode="&#xff;" horiz-adv-x="1091" d="M152 -471l51 244q41 -4 61 -4q172 0 234 231h-193l-90 1075h369l26 -874h4l361 874h360l-520 -1169q-94 -211 -203 -293q-121 -90 -342 -90q-14 0 -118 6zM484 1247l45 211h223l-45 -211h-223zM914 1247l45 211h223l-45 -211h-223z" />
<glyph unicode="&#x152;" horiz-adv-x="2254" d="M178 350q0 102 29 238l61 289q76 358 215 501q164 170 512 170q156 0 238 -28q131 -45 149 -168h15l24 184h1078l-70 -336h-696l-62 -285h651l-61 -284h-651l-62 -295h711l-72 -336h-1091l51 170h-14q-147 -182 -402 -182q-262 0 -379 53q-174 82 -174 309zM604 469 q0 -96 70 -127q43 -18 155 -18q213 0 291 71q64 58 103 244l63 297q16 76 17 119q0 98 -72 131q-57 27 -213 26q-162 0 -227.5 -57t-100.5 -219l-63 -297q-23 -104 -23 -170z" />
<glyph unicode="&#x153;" horiz-adv-x="1884" d="M141 262q0 92 39 275q70 326 178 430q126 120 443 120q137 0 207 -20q113 -33 135 -123h8q57 94 176 125q70 18 195 18q213 0 305 -45q135 -66 135 -254q0 -94 -33 -251l-12 -60h-698q-20 -88 -21 -135q0 -109 141 -109q92 0 131 19q57 29 74 106h346q-37 -170 -133 -255 t-272 -105q-84 -10 -197 -10q-137 0 -196 20q-100 35 -111 137h-12q-78 -102 -168 -133q-72 -25 -234 -24q-205 0 -291 39q-135 61 -135 235zM506 360q0 -68 39 -88q27 -14 102 -14q115 0 158 57q37 50 74 222q31 145 30 190q0 59 -45 78q-27 12 -98 12q-129 0 -176 -78 q-20 -35 -58 -202q-27 -125 -26 -177zM1260 672h346q10 49 10 84q0 117 -146 116q-96 0 -145 -55q-40 -43 -65 -145z" />
<glyph unicode="&#x178;" horiz-adv-x="1449" d="M293 1536h469l149 -592h15l407 592h475l-772 -997l-114 -539h-410l115 539zM762 1708l45 211h223l-45 -211h-223zM1192 1708l45 211h223l-45 -211h-223z" />
<glyph unicode="&#x2c6;" horiz-adv-x="1048" d="M436 1325l414 223l328 -223l-78 -117l-295 127l-340 -127z" />
<glyph unicode="&#x2dc;" horiz-adv-x="1198" d="M440 1352q156 197 310 196q72 0 176 -70.5t143 -70.5q61 0 127 94l150 -84q-143 -203 -295 -203q-82 0 -187.5 70t-130.5 70q-74 0 -143 -92z" />
<glyph unicode="&#x2000;" horiz-adv-x="1010" />
<glyph unicode="&#x2001;" horiz-adv-x="2020" />
<glyph unicode="&#x2002;" horiz-adv-x="1010" />
<glyph unicode="&#x2003;" horiz-adv-x="2020" />
<glyph unicode="&#x2004;" horiz-adv-x="673" />
<glyph unicode="&#x2005;" horiz-adv-x="505" />
<glyph unicode="&#x2006;" horiz-adv-x="336" />
<glyph unicode="&#x2007;" horiz-adv-x="336" />
<glyph unicode="&#x2008;" horiz-adv-x="252" />
<glyph unicode="&#x2009;" horiz-adv-x="404" />
<glyph unicode="&#x200a;" horiz-adv-x="112" />
<glyph unicode="&#x2010;" horiz-adv-x="557" d="M84 397l72 336h557l-72 -336h-557z" />
<glyph unicode="&#x2011;" horiz-adv-x="557" d="M84 397l72 336h557l-72 -336h-557z" />
<glyph unicode="&#x2012;" horiz-adv-x="557" d="M84 397l72 336h557l-72 -336h-557z" />
<glyph unicode="&#x2013;" horiz-adv-x="1024" d="M84 397l72 336h1024l-72 -336h-1024z" />
<glyph unicode="&#x2014;" horiz-adv-x="2048" d="M84 397l72 336h2048l-72 -336h-2048z" />
<glyph unicode="&#x2018;" horiz-adv-x="540" d="M289 913l73 344q37 176 138 238q86 55 276 53l-33 -153q-84 -2 -121.5 -30t-54.5 -108h127l-73 -344h-332z" />
<glyph unicode="&#x2019;" horiz-adv-x="540" d="M287 901l30 154q84 2 123 29.5t56 107.5h-127l71 344h332l-72 -344q-37 -174 -137 -238q-88 -55 -276 -53z" />
<glyph unicode="&#x201a;" horiz-adv-x="540" d="M33 -291l33 154q84 2 121.5 29.5t54.5 107.5h-127l73 344h332l-74 -344q-37 -174 -137 -238q-88 -55 -276 -53z" />
<glyph unicode="&#x201c;" horiz-adv-x="1001" d="M289 913l73 344q37 176 138 238q86 55 276 53l-33 -153q-84 -2 -121.5 -30t-54.5 -108h127l-73 -344h-332zM750 913l73 344q37 176 138 238q86 55 276 53l-33 -153q-84 -2 -122 -30t-54 -108h127l-74 -344h-331z" />
<glyph unicode="&#x201d;" horiz-adv-x="1001" d="M287 901l30 154q84 2 123 29.5t56 107.5h-127l71 344h332l-72 -344q-37 -174 -137 -238q-88 -55 -276 -53zM748 901l30 154q84 2 123 29.5t55 107.5h-127l72 344h332l-72 -344q-37 -174 -137 -238q-88 -55 -276 -53z" />
<glyph unicode="&#x201e;" horiz-adv-x="1001" d="M29 -291l32 154q84 2 122 29.5t55 107.5h-127l73 344h332l-74 -344q-37 -174 -137 -238q-88 -55 -276 -53zM489 -291l33 154q84 2 122 29.5t54 107.5h-127l74 344h332l-74 -344q-37 -174 -137 -238q-88 -55 -277 -53z" />
<glyph unicode="&#x2022;" horiz-adv-x="1228" d="M387 688q0 205 176 352q135 113 297 113q135 0 223 -85t88 -220q0 -203 -178 -350q-137 -113 -297 -113q-135 0 -222 84t-87 219z" />
<glyph unicode="&#x2026;" horiz-adv-x="2048" d="M174 0l76 356h332l-76 -356h-332zM858 0l76 356h332l-76 -356h-332zM1542 0l76 356h332l-76 -356h-332z" />
<glyph unicode="&#x202f;" horiz-adv-x="404" />
<glyph unicode="&#x2039;" horiz-adv-x="677" d="M209 557l366 498l207 -125l-276 -373l123 -346l-248 -135z" />
<glyph unicode="&#x203a;" horiz-adv-x="675" d="M123 201l276 372l-125 347l248 135l174 -482l-368 -497z" />
<glyph unicode="&#x205f;" horiz-adv-x="505" />
<glyph unicode="&#x2122;" horiz-adv-x="1761" d="M283 1366l34 170h713l-35 -170h-252l-139 -657h-209l140 657h-252zM946 709l174 827h301l84 -489l289 489h301l-174 -827h-190l139 661h-4l-379 -661h-107l-100 661h-4l-139 -661h-191z" />
<glyph unicode="&#x25fc;" horiz-adv-x="1075" d="M0 0v1075h1075v-1075h-1075z" />
</font>
</defs>
</svg>
