<?xml version="1.0" standalone="no"?>
<!DOCTYPE svg PUBLIC "-//W3C//DTD SVG 1.1//EN" "http://www.w3.org/Graphics/SVG/1.1/DTD/svg11.dtd" >
<svg xmlns="http://www.w3.org/2000/svg">
<metadata></metadata>
<defs>
<font id="sfu_eurostileboldextendedtwo" horiz-adv-x="1669" >
<font-face units-per-em="2048" ascent="1638" descent="-410" />
<missing-glyph horiz-adv-x="1011" />
<glyph horiz-adv-x="2048" />
<glyph horiz-adv-x="2048" />
<glyph unicode="&#xd;" horiz-adv-x="1011" />
<glyph unicode=" "  horiz-adv-x="1011" />
<glyph unicode="&#x09;" horiz-adv-x="1011" />
<glyph unicode="&#xa0;" horiz-adv-x="1011" />
<glyph unicode="!" horiz-adv-x="1011" d="M291 0v418h430v-418h-430zM297 1130v353h418v-353l-19 -538h-381z" />
<glyph unicode="&#x22;" horiz-adv-x="1366" d="M274 664v819h312v-819h-312zM780 664v819h312v-819h-312z" />
<glyph unicode="#" horiz-adv-x="2023" d="M483 397v246h193l26 197h-159v245h192l53 398h254l-53 -398h137l54 398h254l-54 -398h160v-245h-192l-27 -197h160v-246h-193l-53 -397h-254l53 397h-137l-53 -397h-254l53 397h-160zM930 643h137l27 197h-138z" />
<glyph unicode="$" horiz-adv-x="2023" d="M123 403v62h405q0 -72 13 -96q23 -41 88 -41h276v252q-473 0 -635 125q-133 102 -133 376q0 217 102.5 317.5t323.5 100.5h342v127h221v-127h297q184 0 297 -92q133 -111 133 -340h-393q0 59 -33.5 79.5t-142.5 20.5h-158v-237q438 0 611 -109q164 -104 164 -362 q0 -268 -154 -377q-137 -98 -461 -98h-160v-136h-221v136h-325q-457 -1 -457 419zM543 1059q0 -66 45 -88q61 -35 254 -35h63v231h-223q-82 0 -110.5 -23.5t-28.5 -84.5zM1126 328h195q84 0 119 22q43 29 43 111q0 90 -142 108q-25 4 -215 4v-245z" />
<glyph unicode="%" horiz-adv-x="2729" d="M47 821v353q0 326 324 325h463q180 0 262 -73.5t82 -243.5v-269q0 -238 -93.5 -317.5t-367.5 -79.5h-324q-346 0 -346 305zM330 915q0 -86 30.5 -119.5t116.5 -33.5h271q86 0 116.5 33.5t30.5 119.5v193q0 90 -27.5 117.5t-107.5 27.5h-295q-80 0 -107.5 -27.5 t-27.5 -117.5v-193zM1018 -16l500 1515h186l-500 -1515h-186zM1552 289v352q0 326 324 326h463q180 0 262 -74t82 -244v-268q0 -238 -93 -317.5t-368 -79.5h-324q-346 0 -346 305zM1835 383q0 -86 30.5 -120t116.5 -34h271q86 0 116.5 34t30.5 120v192q0 90 -27.5 118 t-107.5 28h-295q-80 0 -107.5 -28t-27.5 -118v-192z" />
<glyph unicode="&#x26;" horiz-adv-x="2172" d="M137 403v115q0 178 67.5 249t254.5 75v4q-102 66 -129 125q-23 49 -23 188q0 215 95.5 277.5t439.5 62.5h352q385 0 493.5 -75.5t108.5 -340.5v-82h-393v72q0 119 -203 119h-313q-82 0 -109 -8q-53 -18 -53 -82q0 -45 17.5 -67.5t80.5 -55.5l740 -381v197h368v-209 q0 -76 -16 -170l264 -137l-125 -279l-260 135q-61 -94 -209 -127q-100 -25 -285 -24h-612q-272 0 -401 84q-150 99 -150 335zM543 496q0 -113 55 -156q49 -37 170 -37h651q10 0 11 12l-699 357q-20 10 -67 10q-59 0 -84 -31q-37 -41 -37 -155z" />
<glyph unicode="'" horiz-adv-x="708" d="M199 664v819h311v-819h-311z" />
<glyph unicode="(" horiz-adv-x="1011" d="M186 428v627q0 242 117 348q106 96 324 96h262v-332h-148q-84 0 -122.5 -33.5t-38.5 -119.5v-545q0 -86 38.5 -120t122.5 -34h148v-331h-262q-217 0 -324 96q-117 106 -117 348z" />
<glyph unicode=")" horiz-adv-x="1011" d="M123 -16v331h147q84 0 123 34t39 120v545q0 86 -39 119.5t-123 33.5h-147v332h262q217 0 324 -96q117 -106 116 -348v-627q0 -242 -116 -348q-106 -96 -324 -96h-262z" />
<glyph unicode="*" horiz-adv-x="1216" d="M172 987v184l283 -12v-160zM309 754l154 237l141 -80l-131 -252zM309 1405l164 94l131 -252l-141 -80zM612 911l142 80l153 -237l-164 -95zM612 1247l131 252l164 -94l-153 -238zM762 999v160l282 12v-184z" />
<glyph unicode="+" horiz-adv-x="1228" d="M96 377v282h377v377h283v-377h377v-282h-377v-377h-283v377h-377z" />
<glyph unicode="," horiz-adv-x="1011" d="M227 -131q111 0 148 22q31 20 31 74v35h-115v418h430v-371q0 -272 -86 -344t-408 -68v234z" />
<glyph unicode="-" horiz-adv-x="909" d="M168 334v368h573v-368h-573z" />
<glyph unicode="." horiz-adv-x="1011" d="M291 0v418h430v-418h-430z" />
<glyph unicode="/" horiz-adv-x="757" d="M-117 -16l680 1515h311l-679 -1515h-312z" />
<glyph unicode="0" horiz-adv-x="2023" d="M96 504v414q0 334 144 460q139 121 505 121h533q367 0 506 -121q143 -127 143 -460v-414q0 -283 -133 -404q-125 -117 -397 -116h-770q-272 0 -398 116q-133 121 -133 404zM539 582q0 -123 51 -172q57 -57 211 -58h422q154 0 211 58q51 49 51 172v319q0 123 -51 172 q-57 57 -211 57h-422q-154 0 -211 -57q-51 -49 -51 -172v-319z" />
<glyph unicode="1" horiz-adv-x="2023" d="M348 1073l629 410h543v-1483h-418v1126l-547 -350z" />
<glyph unicode="2" horiz-adv-x="2023" d="M143 0v504q0 297 412 323l520 33q252 16 303.5 40t51.5 132q0 96 -44 119q-51 29 -260 29h-301q-150 0 -201 -35t-51 -148v-63h-430v174q0 217 138 305q131 86 444 86h598q311 0 428 -102q109 -94 109 -334q0 -229 -41 -328q-45 -111 -177 -155q-117 -41 -393 -56 l-469 -24q-139 -8 -179 -43t-40 -138h1319v-319h-1737z" />
<glyph unicode="3" horiz-adv-x="2023" d="M133 369v157h430v-65q0 -94 39 -126t158 -32h543q100 0 131 33q27 27 26 106q0 80 -28 109q-35 35 -136 35h-467v307h424q106 0 144 33q31 27 30 110q0 82 -53 115q-45 29 -153 29h-451q-111 0 -151.5 -30t-40.5 -112v-63h-431v82q0 285 168 370q137 72 584 72h305 q395 0 524.5 -82t129.5 -327q0 -180 -48 -242q-41 -53 -198 -100v-7q174 -31 229 -102q49 -68 49 -250q0 -225 -102 -313q-111 -92 -412 -92h-755q-488 0 -488 385z" />
<glyph unicode="4" horiz-adv-x="2023" d="M111 297v543l1058 643h525v-854h219v-332h-219v-297h-430v297h-1153zM467 629h797v497l-797 -493v-4z" />
<glyph unicode="5" horiz-adv-x="2023" d="M143 377v86h418q0 -96 45 -128t199 -32h426q147 0 194 47q37 37 37 154q0 121 -50 153.5t-214 32.5h-479q-113 0 -133 -98h-393v891h1615v-320h-1222v-258q92 92 282 92h514q250 0 367 -92q131 -102 131 -338v-94q0 -315 -176 -414q-135 -76 -537 -75h-356 q-369 0 -502 65q-166 82 -166 328z" />
<glyph unicode="6" horiz-adv-x="2023" d="M158 504v414q0 334 143 460q139 121 506 121h473q547 0 547 -338v-117h-393q0 74 -52.5 105t-173.5 31h-399q-221 0 -221 -179v-176q113 113 338 113h424q309 0 422 -107q94 -88 94 -307v-129q0 -256 -133 -342q-106 -70 -398 -69h-647q-272 0 -397 116 q-133 121 -133 404zM588 469q0 -96 47 -131t176 -35h414q129 0 176 35t47 131q0 94 -47 128t-184 34h-398q-137 0 -184 -34t-47 -128z" />
<glyph unicode="7" horiz-adv-x="2023" d="M162 1114v369h1700v-332l-944 -1151h-529l920 1114h-1147z" />
<glyph unicode="8" horiz-adv-x="2023" d="M137 342v129q0 123 59.5 188.5t204.5 85.5v5q-256 43 -256 311v84q0 168 59.5 240.5t219.5 95.5q125 18 448 18h451q297 0 418 -72q133 -78 133 -280v-96q0 -133 -45 -197q-57 -78 -203 -96v-4q129 -37 189 -99q72 -76 71 -217v-119q0 -180 -109.5 -257.5t-324.5 -77.5 h-856q-459 0 -459 358zM567 453q0 -84 33.5 -117t142.5 -33h537q109 0 145 35q31 31 31 115q0 100 -47 127q-35 20 -154 20h-487q-119 0 -154 -20q-47 -27 -47 -127zM575 1044q1 -137 175 -137h520q174 0 174 137q0 135 -139 136h-590q-139 0 -140 -136z" />
<glyph unicode="9" horiz-adv-x="2023" d="M152 322v100h417q0 -70 39 -94.5t140 -24.5h473q221 0 221 178v176q-113 -113 -338 -112h-424q-309 0 -422 106q-94 88 -94 307v129q0 256 133 343q106 70 397 69h647q272 0 398 -115q133 -123 133 -405v-414q0 -334 -141.5 -457.5t-507.5 -123.5h-551q-266 0 -389 73 q-131 81 -131 265zM582 1014q0 -94 47 -128t184 -34h395q139 0 186.5 34t47.5 128q0 96 -47 131t-176 35h-414q-129 0 -176 -35t-47 -131z" />
<glyph unicode=":" horiz-adv-x="1011" d="M291 0v418h430v-418h-430zM291 627v417h430v-417h-430z" />
<glyph unicode=";" horiz-adv-x="1011" d="M227 -131q111 0 148 22q31 20 31 74v35h-115v418h430v-371q0 -272 -86 -344t-408 -68v234zM291 627v417h430v-417h-430z" />
<glyph unicode="&#x3c;" horiz-adv-x="1228" d="M96 389v258l1037 406v-269l-691 -266l691 -266v-268z" />
<glyph unicode="=" horiz-adv-x="1228" d="M96 125v283h1037v-283h-1037zM96 629v282h1037v-282h-1037z" />
<glyph unicode="&#x3e;" horiz-adv-x="1228" d="M96 -16v268l690 266l-690 266v269l1037 -406v-258z" />
<glyph unicode="?" d="M80 961v147q0 215 121 301q129 90 456 90h349q272 0 395 -65q156 -84 155 -299v-109q0 -217 -90 -293q-68 -57 -274 -86q-164 -23 -215 -53q-41 -25 -41 -84h-393v82q0 158 66.5 220t267.5 95q195 31 241 54q57 27 58 100q0 84 -42 113.5t-163 29.5h-316 q-195 0 -194 -182v-61h-381zM530 0v393h431v-393h-431z" />
<glyph unicode="@" horiz-adv-x="1638" d="M61 739q0 354 232 561q219 199 565 199q328 0 526 -174q193 -168 193 -430q0 -307 -221 -483q-162 -131 -309 -131q-102 0 -115 104h-4q-66 -104 -205 -104q-156 0 -252 114q-92 109 -92 267q0 203 121 342t307 139q162 0 248 -123l20 86h193l-92 -483q-10 -53 -11 -70 q0 -45 31 -45q61 0 113 76q59 90 59 245q0 227 -147 351q-137 111 -365 110q-248 0 -410.5 -157.5t-162.5 -393.5q0 -244 168 -399q160 -147 393 -147q248 0 413 118h232q-217 -328 -645 -327q-336 0 -559.5 213t-223.5 542zM649 690q0 -57 38 -101t97 -44q90 0 148 59 q49 53 49 121q0 160 -137 160q-82 0 -138.5 -58.5t-56.5 -136.5z" />
<glyph unicode="A" horiz-adv-x="2226" d="M8 0l803 1483h592l815 -1483h-506l-141 262h-922l-133 -262h-508zM819 582h582l-295 557z" />
<glyph unicode="B" horiz-adv-x="2174" d="M154 0v1483h1308q281 0 406 -86q133 -90 133 -303q0 -174 -62 -252q-45 -55 -157 -88v-6q147 -18 209.5 -101.5t62.5 -253.5q0 -227 -129 -319q-104 -74 -323 -74h-1448zM608 356h815q164 0 164 109q0 123 -164 123h-815v-232zM608 895h805q133 0 133 115q0 116 -131 116 h-2h-805v-231z" />
<glyph unicode="C" horiz-adv-x="2174" d="M121 520v443q0 307 174 432q147 104 479 104h535q324 0 477 -51t207 -176q43 -100 43 -313v-19h-455v41q0 137 -213 137h-496q-168 0 -231 -80q-53 -66 -53 -217v-159q0 -168 49 -230q54 -67 206 -67h5h485q152 0 195 24q72 39 71 180h455v-139q0 -213 -102 -317 q-129 -129 -445 -129h-733q-332 0 -479 106q-174 123 -174 430z" />
<glyph unicode="D" horiz-adv-x="2277" d="M170 0v1483h1372q338 0 476.5 -119t138.5 -397v-451q0 -279 -138.5 -397.5t-476.5 -118.5h-1372zM625 381h807q150 0 210 56.5t60 209.5v201q0 154 -62 213q-59 53 -208 53h-807v-733z" />
<glyph unicode="E" horiz-adv-x="1923" d="M154 0v1483h1622v-344h-1168v-238h1106v-307h-1106v-238h1194v-356h-1648z" />
<glyph unicode="F" horiz-adv-x="1822" d="M154 0v1483h1548v-357h-1094v-276h1043v-344h-1043v-506h-454z" />
<glyph unicode="G" horiz-adv-x="2174" d="M121 520v443q0 307 174 432q147 104 479 104h684q358 0 488 -129q100 -100 100 -346v-47h-447q0 109 -67 143q-45 23 -162 23h-493q-174 0 -231.5 -60.5t-57.5 -248.5v-185q0 -188 57 -248.5t232 -60.5h485q238 0 237 162v43h-565v307h1020v-422q0 -297 -174 -383 q-131 -63 -559 -63h-547q-332 0 -479 106q-174 123 -174 430z" />
<glyph unicode="H" horiz-adv-x="2174" d="M154 0v1483h454v-529h959v529h454v-1483h-454v561h-959v-561h-454z" />
<glyph unicode="I" horiz-adv-x="811" d="M178 0v1483h455v-1483h-455z" />
<glyph unicode="J" horiz-adv-x="1718" d="M51 461v178h443v-131q0 -156 198 -156h180q117 0 162 21q76 33 76 135v975h455v-1012q0 -289 -164 -397q-137 -90 -471 -90h-297q-319 0 -450.5 108.5t-131.5 368.5z" />
<glyph unicode="K" horiz-adv-x="2123" d="M154 0v1483h454v-545h213l574 545h618l-803 -725l897 -758h-643l-655 569h-201v-569h-454z" />
<glyph unicode="L" d="M154 0v1483h454v-1102h1022v-381h-1476z" />
<glyph unicode="M" horiz-adv-x="2732" d="M154 0v1483h698l514 -955l514 955h698v-1483h-442v1065h-4l-596 -1065h-340l-596 1065h-4v-1065h-442z" />
<glyph unicode="N" horiz-adv-x="2324" d="M154 0v1483h704l854 -1077h4v1077h455v-1483h-705l-854 1077h-4v-1077h-454z" />
<glyph unicode="O" horiz-adv-x="2277" d="M121 520v443q0 307 174 432q147 104 479 104h729q332 0 482 -104q172 -125 172 -432v-443q0 -307 -172 -430q-150 -106 -482 -106h-729q-332 0 -479 106q-174 123 -174 430zM588 662q0 -168 49 -230q54 -67 206 -67h5h582q156 0 210 67q49 61 50 230v159q0 152 -54 217 q-63 80 -231 80h-533q-168 0 -231 -80q-53 -65 -53 -217v-159z" />
<glyph unicode="P" horiz-adv-x="2021" d="M154 0v1483h1239q303 0 430 -146q106 -119 106 -362v-127q0 -195 -88 -320q-108 -155 -327 -155h-3h-903v-373h-454zM608 741h707q147 0 147 158v57q0 158 -186 158h-668v-373z" />
<glyph unicode="Q" horiz-adv-x="2277" d="M121 520v443q0 307 174 432q147 104 479 104h729q332 0 482 -104q172 -125 172 -432v-443q0 -78 -11 -129l181 -110l-189 -297l-168 96q-150 -96 -467 -96h-729q-332 0 -479 106q-174 123 -174 430zM588 662q0 -168 49 -230q54 -67 206 -67h5h582q12 0 36 2h33v4 l-428 260l189 303l430 -264v151q0 152 -54 217q-63 80 -231 80h-533q-168 0 -231 -80q-53 -65 -53 -217v-159z" />
<glyph unicode="R" horiz-adv-x="2123" d="M154 0v1483h1372q248 0 354 -121q90 -102 90 -320v-94q0 -160 -49 -237q-55 -92 -205 -127v-4q119 -23 174 -82q74 -78 74 -246v-252h-455v178q0 117 -39.5 162t-146.5 45h-715v-385h-454zM608 754h752q168 0 168 155v49q0 94 -51 127q-43 29 -158 29h-711v-360z" />
<glyph unicode="S" horiz-adv-x="2123" d="M127 383v102h455q2 -111 49 -143q37 -27 147 -27h557q92 0 133 21q61 27 62 104q0 68 -35 92q-43 29 -178 39q-109 6 -426 7q-348 0 -502 34q-160 37 -215 133q-45 82 -45 279q0 246 84 338q125 137 514 137h635q360 0 483 -121q90 -90 90 -317v-47h-454q0 90 -33 116 q-41 37 -188 37h-504q-172 0 -172 -114q0 -68 34.5 -93.5t151.5 -33.5q72 -4 356 -4q391 0 541 -25q190 -33 260 -131t70 -317q0 -205 -59.5 -301.5t-219.5 -131.5q-139 -32 -442 -32h-19h-550q-322 0 -445 79q-135 87 -135 320z" />
<glyph unicode="T" horiz-adv-x="1822" d="M45 1114v369h1733v-369h-639v-1114h-455v1114h-639z" />
<glyph unicode="U" horiz-adv-x="2174" d="M154 528v955h454v-856q0 -141 57.5 -201.5t196.5 -60.5h451q139 0 196.5 60t57.5 202v856h454v-955q0 -279 -148.5 -411.5t-459.5 -132.5h-651q-311 0 -459.5 132.5t-148.5 411.5z" />
<glyph unicode="V" horiz-adv-x="2174" d="M10 1483h498l579 -1102l580 1102h498l-797 -1483h-561z" />
<glyph unicode="W" horiz-adv-x="2732" d="M14 1483h445l315 -1090h4l377 1090h422l377 -1090h4l315 1090h445l-482 -1483h-522l-346 979h-4l-346 -979h-522z" />
<glyph unicode="X" horiz-adv-x="2228" d="M14 0l727 743l-675 740h587l461 -518l461 518h588l-676 -740l727 -743h-610l-490 539l-489 -539h-611z" />
<glyph unicode="Y" horiz-adv-x="2125" d="M14 1483h549l500 -606l500 606h548l-821 -967v-516h-454v516z" />
<glyph unicode="Z" horiz-adv-x="1923" d="M82 0v356l1063 766v4h-1034v357h1706v-357l-1061 -766v-4h1085v-356h-1759z" />
<glyph unicode="[" horiz-adv-x="1011" d="M186 0v1483h703v-344h-309v-795h309v-344h-703z" />
<glyph unicode="\" horiz-adv-x="757" d="M-117 1499h312l679 -1515h-311z" />
<glyph unicode="]" horiz-adv-x="1011" d="M123 0v344h309v795h-309v344h702v-1483h-702z" />
<glyph unicode="^" horiz-adv-x="1228" d="M133 735l356 748h250l357 -748h-273l-209 465l-208 -465h-273z" />
<glyph unicode="_" horiz-adv-x="1024" d="M0 -154h1024v-102h-1024v102z" />
<glyph unicode="`" horiz-adv-x="708" d="M-152 1624h498l262 -405h-325z" />
<glyph unicode="a" horiz-adv-x="1566" d="M70 281v86q0 197 145 258q106 43 432 43q182 0 258 -13q98 -18 152 -71v92q0 80 -36 109.5t-149 29.5h-231q-90 0 -117 -14q-33 -16 -35 -70h-380q0 203 110 270q96 59 361 60h456q414 0 414 -375v-686h-373v119q-84 -86 -139 -111q-61 -24 -196 -24h-11h-268 q-199 0 -287 57q-106 68 -106 240zM451 324q0 -51 45.5 -73t160.5 -22h113q186 0 250 29q45 23 45 82q0 63 -39 82q-45 24 -189 24h-12h-174q-119 0 -159.5 -27.5t-40.5 -94.5z" />
<glyph unicode="b" d="M135 0v1483h393v-631h4q31 209 353 209h116q344 0 467 -123q92 -92 93 -322v-188q0 -229 -93 -322q-122 -122 -461 -122h-6h-114q-309 0 -379 209h-4v-193h-369zM504 471q0 -113 61 -156q50 -36 169 -36h7h232q131 0 174 47q33 37 33 135v123q0 98 -33 135 q-43 47 -174 47h-232q-125 0 -176 -37q-61 -43 -61 -156v-102z" />
<glyph unicode="c" horiz-adv-x="1566" d="M86 479v101q0 276 135 389q111 92 348 92h443q469 0 469 -346v-94h-381q0 80 -50.5 112.5t-177.5 32.5h-151q-242 0 -242 -160v-139q0 -176 209 -176h201q211 0 211 121v24h381v-92q0 -193 -146 -285q-115 -75 -308 -75h-5h-401q-246 0 -365 79q-170 115 -170 416z" />
<glyph unicode="d" d="M109 428v188q0 229 92 322q123 123 467 123h116q322 0 353 -209h4v631h393v-1483h-369v193h-4q-70 -209 -379 -209h-114q-344 0 -467 122q-92 93 -92 322zM489 461q0 -98 33 -135q43 -47 174 -47h232q125 0 181 39.5t56 152.5v102q0 113 -59 156q-53 37 -178 37h-232 q-131 0 -174 -47q-33 -37 -33 -135v-123z" />
<glyph unicode="e" horiz-adv-x="1519" d="M86 479v101q0 276 135 389q111 92 348 92h275q326 0 452 -90q137 -96 138 -361v-176h-955v-63q0 -80 60 -113q53 -29 182 -29h121q143 0 192 37q31 23 31 82h369v-45q0 -182 -152 -258q-123 -61 -367 -61h-294q-246 0 -365 79q-170 115 -170 416zM479 668h574 q0 92 -56.5 119.5t-230.5 27.5q-188 0 -237.5 -26.5t-49.5 -120.5z" />
<glyph unicode="f" horiz-adv-x="1011" d="M33 774v270h180v80q0 209 117 295q109 80 364 80q61 0 144 -4q98 -6 123 -6v-266q-166 6 -160 6q-117 0 -156 -27.5t-39 -107.5v-50h373v-270h-373v-774h-393v774h-180z" />
<glyph unicode="g" d="M109 508v143q0 231 122 326q109 84 357 84h229q147 0 208.5 -28.5t135.5 -131.5h4v143h369v-978q0 -199 -96 -297q-131 -133 -467 -134h-434q-213 0 -306 64q-109 76 -108 262h405q0 -80 97 -80h284q133 0 194.5 51.5t61.5 180.5v69q-61 -61 -127 -84q-73 -24 -214 -24 h-11h-207q-274 0 -391 110q-106 103 -106 324zM489 565q0 -121 48.5 -165t191.5 -44h193q143 0 191 44t48 165q0 123 -48 168t-191 45h-193q-143 0 -191.5 -45t-48.5 -168z" />
<glyph unicode="h" d="M135 0v1483h393v-606h4q49 104 156 147q94 37 262 37q262 0 383 -62q201 -102 201 -399v-600h-393v600q0 154 -254 154h-90q-268 0 -269 -228v-526h-393z" />
<glyph unicode="i" horiz-adv-x="708" d="M158 0v1044h393v-1044h-393zM158 1176v307h393v-307h-393z" />
<glyph unicode="j" horiz-adv-x="708" d="M12 -90q37 -4 41 -4q104 0 105 102v1036h393v-1112q0 -297 -383 -297q-33 0 -84 5q-63 6 -72 6v264zM158 1176v307h393v-307h-393z" />
<glyph unicode="k" horiz-adv-x="1566" d="M135 0v1483h393v-783h74l346 344h516l-524 -489l588 -555h-502l-420 418h-78v-418h-393z" />
<glyph unicode="l" horiz-adv-x="708" d="M158 0v1483h393v-1483h-393z" />
<glyph unicode="m" horiz-adv-x="2478" d="M117 0v1044h375v-204h4q31 221 348 221h149q276 0 387 -244q49 141 127 192.5t246 51.5h121q260 0 379 -125q109 -115 108 -348v-588h-393v561q0 113 -47 150q-53 43 -219 43q-145 0 -203 -37q-63 -41 -63 -142v-575h-394v592q0 98 -54 130t-230 32q-133 0 -187 -41 q-61 -45 -61 -162v-551h-393z" />
<glyph unicode="n" d="M135 0v1044h393v-167h4q49 104 156 147q94 37 262 37q262 0 383 -62q201 -102 201 -399v-600h-393v600q0 154 -254 154h-90q-268 0 -269 -228v-526h-393z" />
<glyph unicode="o" d="M109 397v250q0 414 432 414h587q432 0 433 -414v-250q0 -413 -431 -413h-2h-587h-2q-430 0 -430 413zM502 473q0 -109 67 -154q58 -40 194 -40h7h94q188 0 245.5 32.5t57.5 139.5v143q0 106 -57 139t-246 33h-94q-141 0 -201 -41q-67 -45 -67 -154v-98z" />
<glyph unicode="p" d="M135 -365v1409h381v-155h4q92 172 369 172h112q344 0 467 -123q92 -92 93 -322v-188q0 -229 -93 -322q-122 -122 -461 -122h-6h-79q-172 0 -248 36.5t-142 159.5h-4v-545h-393zM528 471q0 -113 62 -156q50 -36 169 -36h7h207q131 0 174 47q33 37 33 135v123q0 98 -33 135 q-43 47 -174 47h-207q-125 0 -176 -37q-62 -43 -62 -156v-102z" />
<glyph unicode="q" d="M109 428v188q0 229 92 322q123 123 467 123h112q276 0 369 -172h4v155h381v-1409h-393v545h-4q-66 -123 -141.5 -159.5t-247.5 -36.5h-80q-344 0 -467 122q-92 93 -92 322zM489 461q0 -98 33 -135q43 -47 174 -47h207q125 0 181.5 39.5t56.5 152.5v102q0 113 -60 156 q-53 37 -178 37h-207q-131 0 -174 -47q-33 -37 -33 -135v-123z" />
<glyph unicode="r" horiz-adv-x="1366" d="M135 0v1044h369v-198h4q59 215 383 215q213 0 306 -97.5t93 -314.5q0 -18 -4 -92h-340q0 106 -35 148q-41 49 -153 49q-229 0 -230 -176v-578h-393z" />
<glyph unicode="s" horiz-adv-x="1619" d="M96 326h406q0 -49 39 -70q51 -27 204 -27h140q117 0 139 4q94 14 94 74q0 47 -34.5 66.5t-135.5 19.5h-368q-276 0 -376 77t-100 292q0 178 140 248q104 51 340 51h274q377 0 496 -66q109 -61 112 -252h-393q-18 57 -127 70q-18 2 -166 2q-176 0 -223 -12t-47 -66 q0 -35 44 -48t191 -13h273q319 0 430 -103q76 -70 76 -241q0 -209 -112 -278.5t-447 -69.5h-373q-274 0 -385 74.5t-111 267.5z" />
<glyph unicode="t" horiz-adv-x="1366" d="M33 762v282h196v246h394v-246h610v-282h-610v-402q0 -94 151 -94q94 0 128 26.5t34 98.5v70h344v-127q0 -158 -104 -250q-115 -100 -340 -100h-156h-2q-449 0 -449 364v414h-196z" />
<glyph unicode="u" d="M135 444v600h393v-600q0 -153 251 -153h3h90q268 0 269 227v526h393v-1044h-393v168h-4q-49 -104 -156 -148q-92 -36 -253 -36h-9q-262 0 -383 61q-201 102 -201 399z" />
<glyph unicode="v" horiz-adv-x="1519" d="M12 1044h428l320 -737l319 737h428l-501 -1044h-492z" />
<glyph unicode="w" horiz-adv-x="2277" d="M12 1044h430l238 -761h4l274 761h361l274 -761h4l238 761h430l-401 -1044h-525l-198 565h-4l-199 -565h-524z" />
<glyph unicode="x" horiz-adv-x="1519" d="M12 0l447 549l-410 495h510l201 -282l201 282h509l-409 -495l446 -549h-497l-250 352l-250 -352h-498z" />
<glyph unicode="y" horiz-adv-x="1466" d="M6 1044h426l301 -727l301 727h426l-586 -1237q-82 -172 -378 -172q-4 1 -160 9v250h33q256 0 256 151h-140z" />
<glyph unicode="z" horiz-adv-x="1314" d="M53 0v266l635 504v4h-602v270h1147v-307l-600 -463v-4h629v-270h-1209z" />
<glyph unicode="{" horiz-adv-x="1011" d="M45 653v189q141 0 141 96v326q0 104 97 168q80 51 176 51h311v-221h-72q-119 0 -118 -103v-256q0 -78 -80 -119q-61 -31 -150 -32v-7q229 -12 230 -165v-256q0 -102 118 -103h72v-221h-311q-96 0 -176 51q-96 63 -97 168v324q0 110 -141 110z" />
<glyph unicode="|" horiz-adv-x="454" d="M86 -16v1515h283v-1515h-283z" />
<glyph unicode="}" horiz-adv-x="1011" d="M242 0v221h71q119 0 119 103v256q0 78 80 118q61 31 150 33v6q-229 12 -230 166v256q0 102 -119 103h-71v221h311q96 0 176 -51q96 -63 96 -168v-324q0 -111 142 -111v-188q-141 0 -142 -96v-326q0 -104 -96 -168q-80 -51 -176 -51h-311z" />
<glyph unicode="~" horiz-adv-x="1228" d="M141 553q92 176 256 176q82 0 235.5 -69.5t201.5 -69.5q82 0 180 149l73 -256q-61 -86 -102 -121q-70 -55 -154 -55q-76 0 -210 69.5t-232 69.5q-106 1 -174 -149z" />
<glyph horiz-adv-x="1019" d="M-84 535l43 96h115q6 51 24 149h-135l43 99h121q84 229 221 374q170 180 383 181q193 -1 338 -138l-47 -319l-98 12q0 322 -193 322q-211 0 -330 -432h353l-43 -99h-336q-12 -49 -33 -149h301l-43 -96h-274q-12 -84 -13 -152q0 -115 43 -186q53 -88 160 -88 q119 0 207 139q49 78 104 244l113 -21l-111 -385q-158 -109 -325 -109q-227 0 -340 173q-96 145 -96 385h-152z" />
<glyph unicode="&#xa1;" horiz-adv-x="1011" d="M291 717v418h430v-418h-430zM297 4l18 539h381l19 -539v-352h-418v352z" />
<glyph unicode="&#xa2;" horiz-adv-x="2023" d="M313 479v101q0 276 136 389q111 92 348 92h239l72 258h233l-73 -260q424 -16 424 -344v-99h-369q0 123 -139 144l-133 -469h65q213 0 213 121v26h381v-94q0 -193 -145 -285q-119 -76 -316 -75h-284l-74 -258h-229l73 262q-193 16 -293 108q-129 121 -129 383zM707 467 q0 -133 116 -164l129 463h-4q-241 0 -241 -160v-139z" />
<glyph unicode="&#xa3;" horiz-adv-x="2023" d="M90 567v283h178q-8 92 -8 199q0 272 172 372q135 78 451 78h428q342 0 479 -129q119 -113 119 -364h-406q0 104 -30.5 139t-122.5 35h-484q-104 0 -136 -27t-32 -106v-197h650v-283h-650q0 -160 -106 -229v-6h1341v-332h-1808v332q86 0 121 41t35 133q0 41 -2 61h-189z " />
<glyph unicode="&#xa4;" horiz-adv-x="2023" d="M410 285l129 131q-101 145 -101 325q0 182 101 326l-129 131l155 156l131 -133q145 94 316 94q176 0 315 -94l131 133l156 -156l-129 -131q100 -145 100 -326q0 -180 -100 -323l129 -133l-156 -156l-131 135q-137 -96 -315 -96q-170 0 -316 94l-131 -133zM721 741 q0 -129 82 -222t209 -93t209 93t82 222t-82 222.5t-209 93.5t-209 -93.5t-82 -222.5z" />
<glyph unicode="&#xa5;" horiz-adv-x="2023" d="M25 1483h467l520 -688l520 688h467l-547 -676h221v-246h-420l-32 -41v-63h452v-246h-452v-211h-418v211h-453v246h453v63l-33 41h-420v246h221z" />
<glyph unicode="&#xa6;" horiz-adv-x="454" d="M86 -16v589h283v-589h-283zM86 909v590h283v-590h-283z" />
<glyph unicode="&#xa7;" d="M166 733q0 203 213 230v4q-152 70 -152 241q0 291 322 291h536q311 0 312 -244v-38h-307q0 53 -24 69.5t-83 16.5h-338q-98 0 -98 -76q0 -68 141 -88l494 -74q180 -27 254 -94q68 -61 67 -180q0 -213 -221 -224v-4q168 -70 168 -276q0 -145 -61 -215q-80 -88 -283 -88 h-578q-156 0 -229 57q-88 66 -88 223v45h319v-53q0 -76 164 -76h316q121 0 120 92q0 47 -26.5 65.5t-106.5 33.5l-608 112q-96 18 -156 78q-68 68 -67 172zM436 829q0 -97 121 -120l473 -91q76 -14 119 -14q96 0 96 111q0 74 -102 92l-594 108q-55 10 -49 11 q-25 0 -44.5 -31t-19.5 -66z" />
<glyph unicode="&#xa8;" horiz-adv-x="708" d="M-121 1247v307h393v-307h-393zM436 1247v307h393v-307h-393z" />
<glyph unicode="&#xa9;" horiz-adv-x="1638" d="M61 741q0 313 222.5 535.5t535.5 222.5t535.5 -222t222.5 -536q0 -313 -222 -535t-536 -222q-313 0 -535.5 222t-222.5 535zM307 741q0 -242 143.5 -389t368.5 -147t368.5 147.5t143.5 388.5q0 242 -143.5 389.5t-368.5 147.5t-368.5 -147.5t-143.5 -389.5zM418 739 q0 188 110.5 308t296.5 120q141 0 238.5 -78.5t122.5 -226.5h-197q-25 109 -155 109q-88 0 -135.5 -61.5t-47.5 -166.5q0 -102 50.5 -167.5t125.5 -65.5q144 0 158 121h209q-25 -154 -125 -236t-240 -82q-182 0 -296.5 122t-114.5 304z" />
<glyph unicode="&#xaa;" horiz-adv-x="1017" d="M59 1022v45q0 123 95 160q70 27 278 26q119 0 168 -8q66 -12 100 -47v68q0 55 -32 73q-23 12 -86 13h-152q-51 0 -65 -4q-31 -12 -33 -52h-246q0 125 72 166q63 37 235 37h297q268 0 268 -229v-418h-241v72q-59 -57 -105 -72q-37 -12 -123 -12h-174q-129 0 -186 34 q-70 42 -70 148zM305 1042q0 -55 135 -55h74q121 0 162 19q31 12 31 47q0 51 -56 63q-12 2 -100 2h-115q-70 0 -90 -8q-41 -14 -41 -68z" />
<glyph unicode="&#xab;" horiz-adv-x="1062" d="M-20 516l247 363h346l-245 -363l245 -358h-346zM489 516l248 363h346l-245 -363l245 -358h-346z" />
<glyph unicode="&#xac;" horiz-adv-x="1228" d="M96 629v282h1037v-653h-283v371h-754z" />
<glyph unicode="&#xad;" horiz-adv-x="692" d="M16 356l68 250h504l-68 -250h-504z" />
<glyph unicode="&#xae;" horiz-adv-x="1638" d="M61 741q0 313 222.5 535.5t535.5 222.5t535.5 -222t222.5 -536q0 -313 -222 -535t-536 -222q-313 0 -535.5 222t-222.5 535zM307 741q0 -242 143.5 -389t368.5 -147t368.5 147.5t143.5 388.5q0 242 -143.5 389.5t-368.5 147.5t-368.5 -147.5t-143.5 -389.5zM516 342v778 h301q174 0 252 -51q86 -57 86 -195q0 -201 -201 -210l174 -322h-198l-156 309h-74v-309h-184zM700 799h150q109 0 108 96q0 78 -149 78h-109v-174z" />
<glyph unicode="&#xaf;" horiz-adv-x="708" d="M-139 1298v234h987v-234h-987z" />
<glyph unicode="&#xb0;" horiz-adv-x="819" d="M74 1163q0 139 98 237.5t238 98.5q139 0 237 -98t98 -238q0 -139 -98 -237.5t-237 -98.5t-237.5 98.5t-98.5 237.5zM270 1163q0 -57 41 -98t99 -41q59 0 99 41t40 98q0 59 -40 99.5t-99 40.5q-57 0 -98.5 -40.5t-41.5 -99.5z" />
<glyph unicode="&#xb1;" horiz-adv-x="1228" d="M96 0v283h1037v-283h-1037zM96 543v282h377v211h283v-211h377v-282h-377v-211h-283v211h-377z" />
<glyph unicode="&#xb2;" horiz-adv-x="1314" d="M90 600v301q0 174 268 193l299 20q164 10 197 20.5t33 53.5q0 72 -68 86q-12 4 -129 4h-117q-86 0 -114 -14q-49 -20 -49 -97v-6h-320v105q0 129 87 181t290 52h389q203 0 276.5 -59.5t73.5 -202.5q0 -197 -64.5 -254t-291.5 -70l-305 -16q-51 -2 -74 -8q-51 -8 -63 -33 q-6 -12 -7 -35h824v-221h-1135z" />
<glyph unicode="&#xb3;" horiz-adv-x="1314" d="M90 817v94h320q0 -72 28 -92q23 -14 101 -14h264q66 0 86 18q16 12 16 54q0 59 -106 59h-258v209h231q113 0 113 55q0 78 -133 78h-211q-68 0 -92 -14q-33 -18 -33 -80h-320v49q0 172 109 223q90 43 381 43h194q256 0 340 -49t84 -199q0 -109 -28.5 -143.5t-131.5 -63.5 v-4q113 -16 150 -61q31 -39 31 -150q0 -137 -66 -188q-74 -57 -268 -57h-485q-316 0 -316 233z" />
<glyph unicode="&#xb4;" horiz-adv-x="708" d="M100 1219l262 405h498l-434 -405h-326z" />
<glyph unicode="&#xb6;" horiz-adv-x="1269" d="M33 1118q0 205 145 293q119 72 359 72h651v-1483h-283v1274h-133v-1274h-283v768q-221 0 -338.5 92t-117.5 258z" />
<glyph unicode="&#xb7;" horiz-adv-x="1011" d="M260 709q0 102 73 173.5t173 71.5q102 0 174 -71.5t72 -173.5q0 -100 -72 -173t-174 -73q-100 0 -173 73t-73 173z" />
<glyph unicode="&#xb8;" horiz-adv-x="708" d="M35 -555l53 127q143 -49 223 -49q137 0 138 98q0 47 -34 72.5t-79 25.5q-66 0 -113 -18l-59 47l155 252h152l-111 -168q47 10 89 10q102 0 176 -51q82 -57 82 -153q0 -133 -113 -203q-94 -59 -238 -60q-116 0 -321 70z" />
<glyph unicode="&#xb9;" horiz-adv-x="1314" d="M166 1237l407 246h390v-883h-308v637l-356 -211z" />
<glyph unicode="&#xba;" horiz-adv-x="1085" d="M70 1092v155q0 252 282 252h383q281 0 281 -252v-155q0 -252 -281 -252h-383q-282 0 -282 252zM328 1143q0 -68 41 -93.5t133 -25.5h57q104 0 133 8q66 20 66 96v82q0 76 -66 97q-29 8 -133 8h-57q-92 0 -133 -25.5t-41 -93.5v-53z" />
<glyph unicode="&#xbb;" horiz-adv-x="1062" d="M-20 158l245 362l-245 359h346l247 -359l-247 -362h-346zM489 158l246 362l-246 359h347l247 -359l-247 -362h-347z" />
<glyph unicode="&#xbc;" horiz-adv-x="3031" d="M166 1237l407 246h390v-883h-308v637l-356 -211zM662 -16l1163 1515h250l-1155 -1515h-258zM1604 158v338l690 387h340v-492h141v-233h-141v-158h-320v158h-710zM1874 391h440v246l-440 -242v-4z" />
<glyph unicode="&#xbd;" horiz-adv-x="3031" d="M166 1237l407 246h390v-883h-308v637l-356 -211zM662 -16l1163 1515h250l-1155 -1515h-258zM1645 0v301q0 174 268 193l299 20q164 10 196.5 20.5t32.5 53.5q0 72 -67 86q-12 4 -129 4h-117q-86 0 -115 -14q-49 -20 -49 -97v-6h-319v105q0 129 87 181t289 52h389 q203 0 277 -59.5t74 -202.5q0 -197 -64.5 -254t-292.5 -70l-305 -16q-51 -2 -74 -8q-51 -8 -63 -33q-6 -12 -6 -35h819v-221h-1130z" />
<glyph unicode="&#xbe;" horiz-adv-x="3031" d="M150 817v94h319q0 -72 29 -92q23 -14 100 -14h264q66 0 86 18q16 12 17 54q0 59 -107 59h-258v209h231q113 0 113 55q0 78 -133 78h-211q-68 0 -92 -14q-33 -18 -33 -80h-319v49q0 172 108 223q90 43 381 43h195q256 0 340 -49t84 -199q0 -109 -29 -143.5t-131 -63.5v-4 q113 -16 149 -61q31 -39 31 -150q0 -137 -65 -188q-74 -57 -269 -57h-485q-315 0 -315 233zM856 -16l1163 1515h250l-1155 -1515h-258zM1665 158v338l690 387h340v-492h141v-233h-141v-158h-319v158h-711zM1935 391h441v246l-441 -242v-4z" />
<glyph unicode="&#xbf;" d="M113 0v109q0 217 90 292q68 57 274 86q164 23 215 54q41 25 41 84h393v-82q0 -158 -66.5 -220.5t-264 -94t-244.5 -54.5q-57 -27 -57 -100q0 -84 42 -114t162 -30h316q195 0 194 183v61h381v-147q0 -215 -121 -301q-129 -90 -456 -91h-348q-272 0 -396 66 q-155 84 -155 299zM709 741v394h430v-394h-430z" />
<glyph unicode="&#xc0;" horiz-adv-x="2226" d="M8 0l803 1483h592l815 -1483h-506l-141 262h-922l-133 -262h-508zM539 1993h411l273 -365h-219zM819 582h582l-295 557z" />
<glyph unicode="&#xc1;" horiz-adv-x="2226" d="M8 0l803 1483h592l815 -1483h-506l-141 262h-922l-133 -262h-508zM819 582h582l-295 557zM989 1628l273 365h411l-465 -365h-219z" />
<glyph unicode="&#xc2;" horiz-adv-x="2226" d="M8 0l803 1483h592l815 -1483h-506l-141 262h-922l-133 -262h-508zM643 1548l295 324h332l299 -324h-277l-186 178l-193 -178h-270zM819 582h582l-295 557z" />
<glyph unicode="&#xc3;" horiz-adv-x="2226" d="M8 0l803 1483h592l815 -1483h-506l-141 262h-922l-133 -262h-508zM551 1649q90 104 227 186q158 92 275 84q55 -4 148 -57.5t122 -55.5q88 -6 166 80l170 10q-250 -274 -483 -254q-63 6 -157.5 52.5t-121.5 48.5q-92 6 -178 -86zM819 582h582l-295 557z" />
<glyph unicode="&#xc4;" horiz-adv-x="2226" d="M8 0l803 1483h592l815 -1483h-506l-141 262h-922l-133 -262h-508zM639 1626v307h393v-307h-393zM819 582h582l-295 557zM1196 1626v307h393v-307h-393z" />
<glyph unicode="&#xc5;" horiz-adv-x="2226" d="M8 0l803 1483h592l815 -1483h-506l-141 262h-922l-133 -262h-508zM819 582h582l-295 557zM823 1888q0 121 86.5 206t204.5 85q121 0 206 -85t85 -206q0 -119 -85 -204.5t-206 -85.5q-119 0 -205 85.5t-86 204.5zM983 1888q0 -53 39 -92t92 -39t92 39t39 92t-38.5 92 t-92.5 39q-53 0 -92 -39t-39 -92z" />
<glyph unicode="&#xc6;" horiz-adv-x="2732" d="M8 0l963 1483h1679v-344h-866v-238h839v-307h-839v-238h870v-356h-1325v299h-616l-193 -299h-512zM901 594h428v569h-63z" />
<glyph unicode="&#xc7;" horiz-adv-x="2174" d="M121 520v443q0 307 174 432q147 104 479 104h535q324 0 477 -51t207 -176q45 -104 43 -332h-455v41q0 137 -213 137h-496q-168 0 -231 -80q-53 -66 -53 -217v-159q0 -168 49 -230q55 -68 211 -67h485q152 0 195 24q72 39 71 180h455v-139q0 -213 -102 -317 q-129 -129 -445 -129h-733q-332 0 -479 106q-174 123 -174 430zM768 -555l53 127q143 -49 223 -49q137 0 138 98q0 47 -34 72.5t-79 25.5q-66 0 -113 -18l-59 47l155 252h152l-111 -168q47 10 89 10q102 0 176 -51q82 -57 82 -153q0 -133 -113 -203q-94 -59 -238 -60 q-116 0 -321 70z" />
<glyph unicode="&#xc8;" horiz-adv-x="1923" d="M154 0v1483h1622v-344h-1168v-238h1106v-307h-1106v-238h1194v-356h-1648zM406 1993h411l273 -365h-220z" />
<glyph unicode="&#xc9;" horiz-adv-x="1923" d="M154 0v1483h1622v-344h-1168v-238h1106v-307h-1106v-238h1194v-356h-1648zM854 1628l272 365h412l-465 -365h-219z" />
<glyph unicode="&#xca;" horiz-adv-x="1923" d="M154 0v1483h1622v-344h-1168v-238h1106v-307h-1106v-238h1194v-356h-1648zM508 1589l295 324h332l299 -324h-277l-186 178l-193 -178h-270z" />
<glyph unicode="&#xcb;" horiz-adv-x="1923" d="M154 0v1483h1622v-344h-1168v-238h1106v-307h-1106v-238h1194v-356h-1648zM487 1626v307h393v-307h-393zM1044 1626v307h393v-307h-393z" />
<glyph unicode="&#xcc;" horiz-adv-x="811" d="M-162 1995h412l272 -365h-219zM178 0v1483h455v-1483h-455z" />
<glyph unicode="&#xcd;" horiz-adv-x="811" d="M178 0v1483h455v-1483h-455zM289 1628l272 365h412l-465 -365h-219z" />
<glyph unicode="&#xce;" horiz-adv-x="811" d="M-109 1598l305 405h414l309 -405h-352l-164 221l-166 -221h-346zM178 0v1483h455v-1483h-455z" />
<glyph unicode="&#xcf;" horiz-adv-x="811" d="M-70 1626v307h393v-307h-393zM178 0v1483h455v-1483h-455zM487 1626v307h393v-307h-393z" />
<glyph unicode="&#xd0;" horiz-adv-x="2277" d="M29 672v221h141v590h1372q338 0 476.5 -119t138.5 -397v-451q0 -279 -138.5 -397.5t-476.5 -118.5h-1372v672h-141zM625 381h807q150 0 210 56.5t60 209.5v201q0 154 -62 213q-59 53 -208 53h-807v-221h686v-221h-686v-291z" />
<glyph unicode="&#xd1;" horiz-adv-x="2324" d="M154 0v1483h704l854 -1077h4v1077h455v-1483h-705l-854 1077h-4v-1077h-454zM645 1606q16 141 101 248q96 121 229 120q70 0 214 -56t179 -56q45 0 79 33.5t40 78.5h194q-45 -346 -325 -346q-88 0 -220 49.5t-169 49.5q-49 0 -85 -35t-42 -86h-195z" />
<glyph unicode="&#xd2;" horiz-adv-x="2277" d="M121 520v443q0 311 180 434q147 102 473 102h729q336 0 482 -104q172 -123 172 -432v-443q0 -311 -181 -434q-147 -102 -473 -102h-729q-324 0 -473 102q-180 125 -180 434zM563 2013h412l272 -364h-219zM588 662q0 -164 47 -226q55 -72 213 -71h582q158 0 212 71 q47 61 48 226v159q0 158 -63.5 227.5t-221.5 69.5h-533q-158 0 -221 -69.5t-63 -227.5v-159z" />
<glyph unicode="&#xd3;" horiz-adv-x="2277" d="M121 520v443q0 311 180 434q147 102 473 102h729q336 0 482 -104q172 -123 172 -432v-443q0 -311 -181 -434q-147 -102 -473 -102h-729q-324 0 -473 102q-180 125 -180 434zM588 662q0 -164 47 -226q55 -72 213 -71h582q158 0 212 71q47 61 48 226v159q0 158 -63.5 227.5 t-221.5 69.5h-533q-158 0 -221 -69.5t-63 -227.5v-159zM1014 1649l272 364h412l-465 -364h-219z" />
<glyph unicode="&#xd4;" horiz-adv-x="2277" d="M121 520v443q0 311 180 434q147 102 473 102h729q336 0 482 -104q172 -123 172 -432v-443q0 -311 -181 -434q-147 -102 -473 -102h-729q-324 0 -473 102q-180 125 -180 434zM588 662q0 -164 47 -226q55 -72 213 -71h582q158 0 212 71q47 61 48 226v159q0 158 -63.5 227.5 t-221.5 69.5h-533q-158 0 -221 -69.5t-63 -227.5v-159zM668 1589l295 324h331l299 -324h-276l-187 178l-192 -178h-270z" />
<glyph unicode="&#xd5;" horiz-adv-x="2277" d="M121 520v443q0 311 180 434q147 102 473 102h729q336 0 482 -104q172 -123 172 -432v-443q0 -311 -181 -434q-147 -102 -473 -102h-729q-324 0 -473 102q-180 125 -180 434zM575 1669q90 104 228 186q158 92 274 84q55 -4 148.5 -57t122.5 -55q88 -6 165 80l170 10 q-250 -274 -483 -254q-63 6 -157.5 52t-120.5 48q-93 6 -179 -86zM588 662q0 -164 47 -226q55 -72 213 -71h582q158 0 212 71q47 61 48 226v159q0 158 -63.5 227.5t-221.5 69.5h-533q-158 0 -221 -69.5t-63 -227.5v-159z" />
<glyph unicode="&#xd6;" horiz-adv-x="2277" d="M121 520v443q0 307 174 432q147 104 479 104h729q332 0 482 -104q172 -125 172 -432v-443q0 -307 -172 -430q-150 -106 -482 -106h-729q-332 0 -479 106q-174 123 -174 430zM588 662q0 -168 49 -230q55 -68 211 -67h582q156 0 210 67q49 61 50 230v159q0 152 -54 217 q-63 80 -231 80h-533q-168 0 -231 -80q-53 -65 -53 -217v-159zM663 1626v307h393v-307h-393zM1220 1626v307h393v-307h-393z" />
<glyph unicode="&#xd7;" horiz-adv-x="1228" d="M119 215l305 303l-305 303l192 193l303 -305l304 305l192 -193l-305 -303l305 -303l-192 -192l-304 305l-303 -305z" />
<glyph unicode="&#xd8;" horiz-adv-x="2277" d="M100 102l107 78q-86 117 -86 340v443q0 307 174 432q147 104 479 104h729q258 0 404 -61l137 100l133 -158l-104 -77q84 -121 84 -340v-443q0 -307 -172 -430q-150 -106 -482 -106h-729q-262 0 -403 63l-138 -102zM588 662q0 -123 24 -183l856 635q-37 4 -63 4h-533 q-168 0 -231 -80q-53 -65 -53 -217v-159zM805 367q10 -2 43 -2h582q156 0 210 67q49 61 50 230v159q0 115 -29 178z" />
<glyph unicode="&#xd9;" horiz-adv-x="2174" d="M154 528v955h454v-856q0 -141 57.5 -201.5t196.5 -60.5h451q139 0 196.5 60t57.5 202v856h454v-955q0 -291 -161 -424q-150 -121 -447 -120h-651q-297 0 -447 120q-161 133 -161 424zM514 1952h412l272 -365h-219z" />
<glyph unicode="&#xda;" horiz-adv-x="2174" d="M154 528v955h454v-856q0 -141 57.5 -201.5t196.5 -60.5h451q139 0 196.5 60t57.5 202v856h454v-955q0 -291 -161 -424q-150 -121 -447 -120h-651q-297 0 -447 120q-161 133 -161 424zM965 1587l272 365h412l-465 -365h-219z" />
<glyph unicode="&#xdb;" horiz-adv-x="2174" d="M154 528v955h454v-856q0 -141 57.5 -201.5t196.5 -60.5h451q139 0 196.5 60t57.5 202v856h454v-955q0 -279 -148.5 -411.5t-459.5 -132.5h-651q-311 0 -459.5 132.5t-148.5 411.5zM573 1598l305 405h414l309 -405h-352l-164 221l-166 -221h-346z" />
<glyph unicode="&#xdc;" horiz-adv-x="2174" d="M154 528v955h454v-856q0 -141 57.5 -201.5t196.5 -60.5h451q139 0 196.5 60t57.5 202v856h454v-955q0 -279 -148.5 -411.5t-459.5 -132.5h-651q-311 0 -459.5 132.5t-148.5 411.5zM612 1626v307h393v-307h-393zM1169 1626v307h393v-307h-393z" />
<glyph unicode="&#xdd;" horiz-adv-x="2125" d="M14 1483h549l500 -606l500 606h548l-821 -967v-516h-454v516zM948 1567l273 364h411l-465 -364h-219z" />
<glyph unicode="&#xde;" horiz-adv-x="2021" d="M154 0v1483h454v-129h785q303 0 430 -146q106 -119 106 -362v-127q0 -195 -88 -320q-109 -156 -330 -155h-903v-244h-454zM608 612h707q147 0 147 158v57q0 158 -186 158h-668v-373z" />
<glyph unicode="&#xdf;" d="M135 0v1075q0 213 135 324q121 100 324 100h393q256 0 364.5 -92t108.5 -289q0 -119 -35.5 -180t-126.5 -98v-4q248 -43 248 -312v-110q0 -219 -73 -310q-100 -121 -390 -120q-92 0 -350 12v285q23 -2 96 -9q57 -6 89 -6q236 0 235 164v111q0 82 -55.5 109.5t-216.5 27.5 h-148v258h164q182 0 182 145q0 88 -55 117q-37 18 -133 19h-139q-139 0 -181.5 -36t-42.5 -151v-1030h-393z" />
<glyph unicode="&#xe0;" horiz-adv-x="1566" d="M70 281v86q0 199 145 258q104 43 432 43q188 0 258 -13q96 -16 152 -71v92q0 90 -49 119q-37 20 -136 20h-231q-78 0 -100 -8q-49 -16 -52 -76h-380q0 215 137 285q90 45 334 45h456q414 0 414 -375v-686h-373v119q-86 -88 -139 -111q-59 -25 -207 -24h-268 q-190 0 -279 53q-114 68 -114 244zM252 1556h371l245 -327h-198zM451 324q-1 -95 206 -95h113q143 0 180 7q115 20 115 104q0 80 -88 98q-31 8 -152 8h-174q-98 0 -137 -16q-63 -27 -63 -106z" />
<glyph unicode="&#xe1;" horiz-adv-x="1566" d="M70 281v86q0 199 145 258q104 43 432 43q188 0 258 -13q96 -16 152 -71v92q0 90 -49 119q-37 20 -136 20h-231q-78 0 -100 -8q-49 -16 -52 -76h-380q0 215 137 285q90 45 334 45h456q414 0 414 -375v-686h-373v119q-86 -88 -139 -111q-59 -25 -207 -24h-268 q-190 0 -279 53q-114 68 -114 244zM451 324q-1 -95 206 -95h113q143 0 180 7q115 20 115 104q0 80 -88 98q-31 8 -152 8h-174q-98 0 -137 -16q-63 -27 -63 -106zM657 1229l246 327h371l-420 -327h-197z" />
<glyph unicode="&#xe2;" horiz-adv-x="1566" d="M70 281v86q0 199 145 258q104 43 432 43q188 0 258 -13q96 -16 152 -71v92q0 90 -49 119q-37 20 -136 20h-231q-78 0 -100 -8q-49 -16 -52 -76h-380q0 215 137 285q90 45 334 45h456q414 0 414 -375v-686h-373v119q-86 -88 -139 -111q-59 -25 -207 -24h-268 q-190 0 -279 53q-114 68 -114 244zM346 1128l266 291h297l271 -291h-250l-168 160l-172 -160h-244zM451 324q-1 -95 206 -95h113q143 0 180 7q115 20 115 104q0 80 -88 98q-31 8 -152 8h-174q-98 0 -137 -16q-63 -27 -63 -106z" />
<glyph unicode="&#xe3;" horiz-adv-x="1566" d="M70 281v86q0 199 145 258q104 43 432 43q188 0 258 -13q96 -16 152 -71v92q0 90 -49 119q-37 20 -136 20h-231q-78 0 -100 -8q-49 -16 -52 -76h-380q0 215 137 285q90 45 334 45h456q414 0 414 -375v-686h-373v119q-86 -88 -139 -111q-59 -25 -207 -24h-268 q-190 0 -279 53q-114 68 -114 244zM262 1247q84 94 205 166q143 82 248 76q49 -4 133 -51t108 -49q80 -6 150 71l154 8q-229 -244 -435 -227q-55 4 -140 46t-112 44q-81 6 -159 -78zM451 324q-1 -95 206 -95h113q143 0 180 7q115 20 115 104q0 80 -88 98q-31 8 -152 8h-174 q-98 0 -137 -16q-63 -27 -63 -106z" />
<glyph unicode="&#xe4;" horiz-adv-x="1566" d="M70 281v86q0 197 145 258q106 43 432 43q182 0 258 -13q98 -18 152 -71v92q0 80 -36 109.5t-149 29.5h-231q-90 0 -117 -14q-33 -16 -35 -70h-380q0 203 110 270q96 59 361 60h456q414 0 414 -375v-686h-373v119q-84 -86 -139 -111q-63 -25 -207 -24h-268q-199 0 -287 57 q-106 68 -106 240zM309 1247v307h393v-307h-393zM451 324q0 -51 45.5 -73t160.5 -22h113q186 0 250 29q45 23 45 82q0 63 -39 82q-47 25 -201 24h-174q-119 0 -159.5 -27.5t-40.5 -94.5zM866 1247v307h393v-307h-393z" />
<glyph unicode="&#xe5;" horiz-adv-x="1566" d="M70 281v86q0 197 145 258q106 43 432 43q182 0 258 -13q98 -18 152 -71v92q0 80 -36 109.5t-149 29.5h-231q-90 0 -117 -14q-33 -16 -35 -70h-380q0 203 110 270q96 59 361 60h456q414 0 414 -375v-686h-373v119q-84 -86 -139 -111q-63 -25 -207 -24h-268q-199 0 -287 57 q-106 68 -106 240zM451 324q0 -51 45.5 -73t160.5 -22h113q186 0 250 29q45 23 45 82q0 63 -39 82q-47 25 -201 24h-174q-119 0 -159.5 -27.5t-40.5 -94.5zM493 1509q0 121 86.5 206t204.5 85q121 0 206 -85t85 -206q0 -119 -85 -204.5t-206 -85.5q-119 0 -205 85.5 t-86 204.5zM653 1509q0 -53 39 -92t92 -39t92 39t39 92t-38.5 92t-92.5 39q-53 0 -92 -39t-39 -92z" />
<glyph unicode="&#xe6;" horiz-adv-x="2478" d="M70 281v86q0 197 145 258q106 43 432 43q182 0 258 -13q98 -18 152 -71v92q0 80 -36 109.5t-149 29.5h-231q-90 0 -117 -14q-33 -16 -35 -70h-380q0 203 110 270q96 59 361 60h331q276 0 332 -168h4q51 168 342 168h213q307 0 430 -76q160 -98 160 -375v-176h-954v-63 q0 -80 59 -113q53 -29 182 -29h121q143 0 193 37q31 23 30 82h369v-45q0 -182 -151 -258q-123 -61 -367 -61h-238q-172 0 -245 22q-98 31 -156 127q-47 -98 -156 -127q-88 -23 -348 -22h-268q-199 0 -287 57q-106 68 -106 240zM451 324q0 -51 45.5 -73t160.5 -22h113 q186 0 250 29q45 23 45 82q0 63 -39 82q-47 25 -201 24h-174q-119 0 -159.5 -27.5t-40.5 -94.5zM1440 668h571q0 92 -55 119.5t-230 27.5q-188 0 -237 -26.5t-49 -120.5z" />
<glyph unicode="&#xe7;" horiz-adv-x="1566" d="M86 479v101q0 276 135 389q111 92 348 92h443q469 0 469 -346v-94h-381q0 80 -50.5 112.5t-177.5 32.5h-151q-242 0 -242 -160v-139q0 -176 209 -176h201q211 0 211 121v24h381v-92q0 -193 -146 -285q-117 -76 -313 -75h-401q-246 0 -365 79q-170 115 -170 416zM465 -555 l53 127q143 -49 223 -49q137 0 138 98q0 47 -34 72.5t-79 25.5q-66 0 -113 -18l-59 47l155 252h152l-111 -168q47 10 89 10q102 0 176 -51q82 -57 82 -153q0 -133 -113 -203q-94 -59 -238 -60q-116 0 -321 70z" />
<glyph unicode="&#xe8;" horiz-adv-x="1519" d="M86 479v101q0 258 114.5 369.5t368.5 111.5h275q303 0 426 -74q164 -98 164 -377v-176h-955v-63q0 -92 82 -123q49 -18 160 -19h121q143 0 192 37q31 23 31 82h369v-45q0 -195 -174 -268q-119 -51 -345 -51h-294q-246 0 -365 79q-170 115 -170 416zM252 1556h371 l245 -327h-198zM479 668h574q0 106 -99 135q-41 12 -188 12q-160 0 -193 -10q-94 -24 -94 -137z" />
<glyph unicode="&#xe9;" horiz-adv-x="1519" d="M86 479v101q0 258 114.5 369.5t368.5 111.5h275q303 0 426 -74q164 -98 164 -377v-176h-955v-63q0 -92 82 -123q49 -18 160 -19h121q143 0 192 37q31 23 31 82h369v-45q0 -195 -174 -268q-119 -51 -345 -51h-294q-246 0 -365 79q-170 115 -170 416zM479 668h574 q0 106 -99 135q-41 12 -188 12q-160 0 -193 -10q-94 -24 -94 -137zM657 1229l246 327h371l-420 -327h-197z" />
<glyph unicode="&#xea;" horiz-adv-x="1519" d="M86 479v101q0 258 114.5 369.5t368.5 111.5h275q303 0 426 -74q164 -98 164 -377v-176h-955v-63q0 -92 82 -123q49 -18 160 -19h121q143 0 192 37q31 23 31 82h369v-45q0 -195 -174 -268q-119 -51 -345 -51h-294q-246 0 -365 79q-170 115 -170 416zM346 1128l266 291h297 l271 -291h-250l-168 160l-172 -160h-244zM479 668h574q0 106 -99 135q-41 12 -188 12q-160 0 -193 -10q-94 -24 -94 -137z" />
<glyph unicode="&#xeb;" horiz-adv-x="1519" d="M86 479v101q0 276 135 389q111 92 348 92h275q326 0 452 -90q137 -96 138 -361v-176h-955v-63q0 -80 60 -113q53 -29 182 -29h121q143 0 192 37q31 23 31 82h369v-45q0 -182 -152 -258q-123 -61 -367 -61h-294q-246 0 -365 79q-170 115 -170 416zM285 1247v307h393v-307 h-393zM479 668h574q0 92 -56.5 119.5t-230.5 27.5q-188 0 -237.5 -26.5t-49.5 -120.5zM842 1247v307h393v-307h-393z" />
<glyph unicode="&#xec;" horiz-adv-x="708" d="M-154 1536h371l246 -328h-199zM158 0v1044h393v-1044h-393z" />
<glyph unicode="&#xed;" horiz-adv-x="708" d="M158 0v1044h393v-1044h-393zM252 1208l246 328h370l-419 -328h-197z" />
<glyph unicode="&#xee;" horiz-adv-x="708" d="M-160 1219l305 405h414l309 -405h-352l-164 221l-166 -221h-346zM158 0v1044h393v-1044h-393z" />
<glyph unicode="&#xef;" horiz-adv-x="708" d="M-121 1247v307h393v-307h-393zM158 0v1044h393v-1044h-393zM436 1247v307h393v-307h-393z" />
<glyph unicode="&#xf0;" d="M109 397v250q0 414 432 414h327q117 0 174 -19q76 -25 134 -96l4 4q-92 231 -377 305l-219 -155l-113 117l104 71v4q-98 6 -286 6l96 283q326 0 528 -49l205 145l113 -116l-125 -91q455 -195 455 -823v-250q0 -414 -433 -413h-587q-432 0 -432 413zM502 473 q0 -109 67 -154q59 -41 201 -40h94q188 0 245.5 32.5t57.5 139.5v143q0 106 -57 139t-246 33h-94q-141 0 -201 -41q-67 -45 -67 -154v-98z" />
<glyph unicode="&#xf1;" d="M135 0v1044h393v-167h4q49 104 156 147q94 37 262 37q262 0 383 -62q201 -102 201 -399v-600h-393v600q0 154 -254 154h-90q-268 0 -269 -228v-526h-393zM317 1227q16 141 101 248q96 121 229 120q70 0 214 -56t179 -56q45 0 79 33.5t40 78.5h194q-45 -346 -325 -346 q-88 0 -220 49.5t-169 49.5q-49 0 -85 -35t-42 -86h-195z" />
<glyph unicode="&#xf2;" d="M109 397v250q0 414 432 414h587q432 0 433 -414v-250q0 -414 -433 -413h-587q-432 -1 -432 413zM326 1556h370l246 -327h-199zM502 473q0 -117 80 -162q61 -33 188 -32h94q160 0 207 16q96 33 96 156v143q0 123 -96 156q-47 16 -207 16h-94q-127 0 -188 -33 q-80 -45 -80 -162v-98z" />
<glyph unicode="&#xf3;" d="M109 397v250q0 414 432 414h587q432 0 433 -414v-250q0 -414 -433 -413h-587q-432 -1 -432 413zM502 473q0 -117 80 -162q61 -33 188 -32h94q160 0 207 16q96 33 96 156v143q0 123 -96 156q-47 16 -207 16h-94q-127 0 -188 -33q-80 -45 -80 -162v-98zM733 1229l246 327 h371l-420 -327h-197z" />
<glyph unicode="&#xf4;" d="M109 397v250q0 414 432 414h587q432 0 433 -414v-250q0 -414 -433 -413h-587q-432 -1 -432 413zM420 1128l266 291h297l270 -291h-249l-168 160l-172 -160h-244zM502 473q0 -117 80 -162q61 -33 188 -32h94q160 0 207 16q96 33 96 156v143q0 123 -96 156q-47 16 -207 16 h-94q-127 0 -188 -33q-80 -45 -80 -162v-98z" />
<glyph unicode="&#xf5;" d="M109 397v250q0 414 432 414h587q432 0 433 -414v-250q0 -414 -433 -413h-587q-432 -1 -432 413zM336 1247q84 94 205 166q143 82 247 76q49 -4 133.5 -51t108.5 -49q80 -6 150 71l153 8q-229 -244 -434 -227q-55 4 -140 46t-112 44q-82 6 -160 -78zM502 473 q0 -117 80 -162q61 -33 188 -32h94q160 0 207 16q96 33 96 156v143q0 123 -96 156q-47 16 -207 16h-94q-127 0 -188 -33q-80 -45 -80 -162v-98z" />
<glyph unicode="&#xf6;" d="M109 397v250q0 414 432 414h587q432 0 433 -414v-250q0 -414 -433 -413h-587q-432 -1 -432 413zM360 1247v307h393v-307h-393zM502 473q0 -109 67 -154q59 -41 201 -40h94q188 0 245.5 32.5t57.5 139.5v143q0 106 -57 139t-246 33h-94q-141 0 -201 -41q-67 -45 -67 -154 v-98zM917 1247v307h393v-307h-393z" />
<glyph unicode="&#xf7;" horiz-adv-x="1228" d="M96 395v246h1037v-246h-1037zM424 94q0 78 56.5 134.5t133.5 56.5q78 0 134.5 -56.5t56.5 -134.5t-56.5 -134t-134.5 -56t-134 56t-56 134zM424 942q0 78 56.5 134.5t133.5 56.5q78 0 134.5 -56.5t56.5 -134.5t-56.5 -134t-134.5 -56t-134 56t-56 134z" />
<glyph unicode="&#xf8;" d="M31 104l119 78q-41 82 -41 193v246q0 270 120 358q113 82 443 82h456q162 0 261 -62l141 95l108 -156l-116 -74q39 -82 39 -196v-293q0 -215 -142 -314q-109 -78 -291 -77h-587q-162 0 -260 61l-142 -94zM502 473q0 -31 6 -53l512 338q-51 8 -156 8h-94q-141 0 -201 -41 q-67 -45 -67 -154v-98zM649 289q55 -10 121 -10h94q188 0 245.5 32.5t57.5 139.5v143q0 25 -2 37z" />
<glyph unicode="&#xf9;" d="M135 444v600h393v-600q0 -154 254 -153h90q268 0 269 227v526h393v-1044h-393v168h-4q-53 -113 -176 -156q-86 -29 -242 -28q-262 0 -383 61q-201 102 -201 399zM326 1487h370l246 -328h-199z" />
<glyph unicode="&#xfa;" d="M135 444v600h393v-600q0 -154 254 -153h90q268 0 269 227v526h393v-1044h-393v168h-4q-53 -113 -176 -156q-86 -29 -242 -28q-262 0 -383 61q-201 102 -201 399zM733 1159l246 328h371l-420 -328h-197z" />
<glyph unicode="&#xfb;" d="M135 444v600h393v-600q0 -154 254 -153h90q268 0 269 227v526h393v-1044h-393v168h-4q-49 -104 -156 -148q-94 -37 -262 -36q-262 0 -383 61q-201 102 -201 399zM321 1219l305 405h414l309 -405h-352l-164 221l-166 -221h-346z" />
<glyph unicode="&#xfc;" d="M135 444v600h393v-600q0 -154 254 -153h90q268 0 269 227v526h393v-1044h-393v168h-4q-49 -104 -156 -148q-94 -37 -262 -36q-262 0 -383 61q-201 102 -201 399zM360 1247v307h393v-307h-393zM917 1247v307h393v-307h-393z" />
<glyph unicode="&#xfd;" horiz-adv-x="1466" d="M6 1044h426l301 -727l301 727h426l-586 -1237q-82 -172 -378 -172q-4 1 -160 9v250h33q256 0 256 151h-140zM627 1130l245 328h371l-420 -328h-196z" />
<glyph unicode="&#xfe;" d="M135 -365v1848h393v-631h4q31 209 353 209h116q344 0 467 -123q92 -92 93 -322v-188q0 -229 -93 -322q-123 -123 -467 -122h-79q-172 0 -248 36.5t-142 159.5h-4v-545h-393zM528 471q0 -113 62 -156q51 -37 176 -36h207q131 0 174 47q33 37 33 135v123q0 98 -33 135 q-43 47 -174 47h-207q-125 0 -176 -37q-62 -43 -62 -156v-102z" />
<glyph unicode="&#xff;" horiz-adv-x="1466" d="M6 1044h426l301 -727l301 727h426l-586 -1237q-82 -172 -378 -172q-4 1 -160 9v250h33q256 0 256 151h-140zM258 1247v307h393v-307h-393zM815 1247v307h393v-307h-393z" />
<glyph unicode="&#x152;" horiz-adv-x="2732" d="M61 520v443q0 307 175 432q147 104 479 104h299q324 0 395 -209h4v193h1237v-344h-833v-238h806v-307h-806v-238h837v-356h-1245v168h-4q-57 -104 -141 -143q-90 -41 -285 -41h-264q-332 0 -479 106q-175 123 -175 430zM504 625q0 -166 55 -213t229 -47h289 q174 0 229.5 47t55.5 213v286q0 129 -56.5 168t-228.5 39h-289q-172 0 -228 -39t-56 -168v-286z" />
<glyph unicode="&#x153;" horiz-adv-x="2578" d="M86 397v250q0 414 432 414h436q350 0 379 -195h4q41 195 402 195h164q326 0 452 -90q137 -96 137 -361v-176h-954v-63q0 -80 59 -113q53 -29 183 -29h121q143 0 192 37q31 23 31 82h368v-45q0 -182 -151 -258q-123 -61 -367 -61h-280q-178 0 -260 43q-68 35 -97 118h-4 q-53 -162 -430 -161h-385q-432 -1 -432 413zM479 473q0 -109 68 -154q59 -41 201 -40h94q188 0 245.5 32.5t57.5 139.5v143q0 106 -57.5 139t-245.5 33h-94q-141 0 -201 -41q-68 -45 -68 -154v-98zM1538 668h573q0 92 -56 119.5t-230 27.5q-188 0 -237.5 -26.5t-49.5 -120.5 z" />
<glyph unicode="&#x178;" horiz-adv-x="2125" d="M14 1483h549l500 -606l500 606h548l-821 -967v-516h-454v516zM588 1626v307h393v-307h-393zM1145 1626v307h393v-307h-393z" />
<glyph unicode="&#x2c6;" horiz-adv-x="708" d="M-160 1219l305 405h414l309 -405h-352l-164 221l-166 -221h-346z" />
<glyph unicode="&#x2dc;" horiz-adv-x="708" d="M-164 1227q16 141 101 248q96 121 229 120q70 0 214 -56t179 -56q45 0 79 33.5t40 78.5h194q-45 -346 -325 -346q-88 0 -220 49.5t-169 49.5q-49 0 -85 -35t-42 -86h-195z" />
<glyph unicode="&#x2000;" horiz-adv-x="1089" />
<glyph unicode="&#x2001;" horiz-adv-x="2179" />
<glyph unicode="&#x2002;" horiz-adv-x="1089" />
<glyph unicode="&#x2003;" horiz-adv-x="2179" />
<glyph unicode="&#x2004;" horiz-adv-x="726" />
<glyph unicode="&#x2005;" horiz-adv-x="544" />
<glyph unicode="&#x2006;" horiz-adv-x="363" />
<glyph unicode="&#x2007;" horiz-adv-x="363" />
<glyph unicode="&#x2008;" horiz-adv-x="272" />
<glyph unicode="&#x2009;" horiz-adv-x="435" />
<glyph unicode="&#x200a;" horiz-adv-x="121" />
<glyph unicode="&#x2010;" horiz-adv-x="909" d="M168 334v368h573v-368h-573z" />
<glyph unicode="&#x2011;" horiz-adv-x="909" d="M168 334v368h573v-368h-573z" />
<glyph unicode="&#x2012;" horiz-adv-x="909" d="M168 334v368h573v-368h-573z" />
<glyph unicode="&#x2013;" horiz-adv-x="1024" d="M0 389v258h1024v-258h-1024z" />
<glyph unicode="&#x2014;" horiz-adv-x="2048" d="M0 389v258h2048v-258h-2048z" />
<glyph unicode="&#x2018;" horiz-adv-x="708" d="M109 664v483q0 186 73 256q84 80 318 80h100v-234h-72q-109 0 -108 -104v-88h106v-393h-417z" />
<glyph unicode="&#x2019;" horiz-adv-x="708" d="M109 664v233h71q109 0 109 104v89h-107v393h418v-484q0 -186 -74 -256q-84 -80 -317 -79h-100z" />
<glyph unicode="&#x201a;" horiz-adv-x="708" d="M109 -193h71q109 0 109 105v88h-107v393h418v-483q0 -186 -74 -256q-84 -80 -317 -80h-100v233z" />
<glyph unicode="&#x201c;" horiz-adv-x="1366" d="M131 664v483q0 186 74 256q84 80 317 80h101v-234h-72q-109 0 -109 -104v-88h107v-393h-418zM743 664v483q0 186 74 256q84 80 318 80h100v-234h-72q-109 0 -108 -104v-88h106v-393h-418z" />
<glyph unicode="&#x201d;" horiz-adv-x="1366" d="M131 664v233h72q109 0 108 104v89h-106v393h418v-484q0 -186 -74 -256q-84 -80 -318 -79h-100zM743 664v233h72q109 0 109 104v89h-107v393h418v-484q0 -186 -74 -256q-84 -80 -317 -79h-101z" />
<glyph unicode="&#x201e;" horiz-adv-x="1366" d="M131 -193h72q109 0 108 105v88h-106v393h418v-483q0 -186 -74 -256q-84 -80 -318 -80h-100v233zM743 -193h72q109 0 109 105v88h-107v393h418v-483q0 -186 -74 -256q-84 -80 -317 -80h-101v233z" />
<glyph unicode="&#x2022;" horiz-adv-x="1024" d="M141 741q0 154 108.5 262.5t262.5 108.5t262.5 -108.5t108.5 -262.5t-108.5 -262t-262.5 -108t-262.5 108t-108.5 262z" />
<glyph unicode="&#x2026;" horiz-adv-x="2048" d="M127 0v418h430v-418h-430zM809 0v418h430v-418h-430zM1491 0v418h430v-418h-430z" />
<glyph unicode="&#x202f;" horiz-adv-x="435" />
<glyph unicode="&#x2039;" horiz-adv-x="606" d="M6 516l248 363h346l-246 -363l246 -358h-346z" />
<glyph unicode="&#x203a;" horiz-adv-x="606" d="M6 158l246 362l-246 359h346l248 -359l-248 -362h-346z" />
<glyph unicode="&#x205f;" horiz-adv-x="544" />
<glyph unicode="&#x2122;" horiz-adv-x="2048" d="M66 1298v185h704v-185h-211v-659h-283v659h-210zM946 639v844h352l164 -488h4l164 488h352v-844h-258v463h-4l-149 -463h-213l-150 463h-4v-463h-258z" />
<glyph unicode="&#x25fc;" horiz-adv-x="1044" d="M0 0v1044h1044v-1044h-1044z" />
</font>
</defs>
</svg>
