<?xml version="1.0" standalone="no"?>
<!DOCTYPE svg PUBLIC "-//W3C//DTD SVG 1.1//EN" "http://www.w3.org/Graphics/SVG/1.1/DTD/svg11.dtd" >
<svg xmlns="http://www.w3.org/2000/svg">
<metadata></metadata>
<defs>
<font id="utm_as_gracelandregular" horiz-adv-x="1710" >
<font-face units-per-em="2048" ascent="1638" descent="-410" />
<missing-glyph horiz-adv-x="410" />
<glyph horiz-adv-x="2048" />
<glyph horiz-adv-x="2048" />
<glyph unicode="&#xd;" horiz-adv-x="571" />
<glyph unicode=" "  horiz-adv-x="410" />
<glyph unicode="&#x09;" horiz-adv-x="410" />
<glyph unicode="&#xa0;" horiz-adv-x="410" />
<glyph unicode="!" horiz-adv-x="579" d="M227 18q-21 30 28 89.5t166 96.5q75 24 65 -49.5t-112 -123.5q-120 -55 -147 -13zM374.5 424q-9.5 37 15.5 150q19 85 63 217t96.5 263t104 239t84.5 146q22 25 100.5 60.5t166.5 67t160 50.5t81 12q7 -6 -10.5 -18t-27.5 -18q-68 -46 -168.5 -170t-204 -283.5t-194 -333 t-136.5 -317.5q-14 -26 -43 -58t-53.5 -38t-34 31z" />
<glyph unicode="&#x22;" horiz-adv-x="469" d="M465.5 924q-19.5 8 2.5 24q104 78 156.5 173.5t7.5 128.5q-19 14 -44 -1t-44 -13q-111 9 -8 94.5t209 119.5q52 16 83 -19t13 -89q-40 -115 -139.5 -223.5t-189.5 -181.5q-27 -21 -46.5 -13zM825.5 924q-19.5 8 2.5 24q103 78 156 173.5t8 128.5q-19 14 -44 -1t-44 -13 q-111 9 -8 94.5t208 119.5q52 16 83.5 -19t13.5 -89q-40 -115 -139.5 -223.5t-189.5 -181.5q-27 -21 -46.5 -13z" />
<glyph unicode="#" horiz-adv-x="1320" d="M52.5 823.5q-13.5 23.5 56.5 42.5q62 16 176.5 57t176.5 57q14 3 30 27l23 51q4 19 -10 19q-71 0 -144.5 -10.5t-150.5 -43.5q-48 -21 -62 2t57 42q62 16 177 57t176 57q9 2 25 24l116 252h88l-110 -235q-6 -22 8 -20q14 0 28.5 1t29.5 2q14 0 32 28l101 221h88 l-102 -218q-12 -32 9 -32q101 -5 185.5 -6t142.5 32q35 20 66 8t-52 -42q-106 -36 -182 -82.5t-158 -52.5q-47 -2 -70 -2q-19 0 -31 -17l-9 -20q-5 -20 28 -21q99 -4 176.5 -4.5t135.5 32.5q34 20 65.5 7.5t-52.5 -41.5q-105 -36 -181 -82.5t-159 -52.5q-40 -2 -62 -2 q-24 0 -28.5 -7.5t-15.5 -25.5l-193 -415l-82 -4l197 430q7 27 -10 29q-18 2 -52 4q-14 1 -30 -28l-200 -427l-83 -4l204 441q6 25 -13 25q-71 0 -144 -11t-150 -44q-48 -21 -61.5 2.5zM582 1018q-4 -19 16 -17q27 3 54 3q10 0 26 20l11 24q5 17 -8 18q-15 0 -28.5 1.5 t-27.5 2.5q-13 2 -25 -14z" />
<glyph unicode="$" horiz-adv-x="928" d="M13 702q-11 57 52 92t152 47q31 4 31.5 -7t-16.5 -32q-50 -81 30.5 -142.5t168.5 -36.5q156 43 88 150t-362 127q-30 18 2.5 88.5t142.5 165.5q133 105 329 127q15 1 23 13q30 45 39.5 84t24.5 45q45 21 89.5 29.5t34.5 -21.5q-6 -18 -40.5 -52.5t-74.5 -79.5 q-12 -13 11 -14q12 0 34 -2q83 -6 132 -38t-5 -86q-28 -28 -69 -61t-59 -42q-22 -12 -27.5 1.5t-4.5 16.5q15 57 -116 68t-189 -7q-28 -9 -37 -23t28 -11q70 1 156.5 -22t151.5 -65.5t76 -120.5t-45 -149.5t-160.5 -118t-212.5 -52.5q-22 -2 -37 -17q-30 -23 -96 -137 q-45 -86 -65.5 -70t19.5 77q19 36 34 69t26 58q7 20 -13 22q-90 10 -163.5 44t-82.5 83z" />
<glyph unicode="%" horiz-adv-x="1755" d="M-83.5 -116.5q13.5 38.5 106.5 181.5q69 106 214.5 280t307.5 354q171 189 325.5 347t220.5 209q42 32 134.5 73.5t188 76t170 55.5t82.5 12q6 -9 -23.5 -24t-46.5 -24q-140 -75 -407.5 -301.5t-540.5 -493.5q-164 -162 -311.5 -322t-251.5 -296q-31 -32 -79.5 -81.5 t-75.5 -67t-13.5 21zM18.5 941.5q6.5 77.5 29.5 131.5q39 94 143 205q71 73 181.5 131t242.5 56q95 -3 141 -42.5t58 -96.5q16 -73 -7.5 -155.5t-52.5 -130.5q-59 -96 -209.5 -213t-309.5 -119q-140 -3 -191 95q-32 61 -25.5 138.5zM279 1051q-10 -113 14 -172 q28 -70 89 -56.5t109 69.5q44 51 59.5 121t16.5 131q1 115 -34 169q-36 52 -88 35t-82 -64q-73 -110 -84 -233zM551 238q9 73 33 124q49 106 144 204q71 74 181 131.5t242 56.5q123 -3 165.5 -66t39.5 -141q-3 -62 -23.5 -121.5t-42.5 -96.5q-59 -96 -209.5 -213 t-309.5 -119q-155 -2 -202 107q-27 61 -18 134zM816 340q-13 -125 19 -184q30 -60 88 -45t104 69q44 51 59.5 121t16.5 132q1 136 -47 185q-36 35 -83 16t-74 -61q-71 -109 -83 -233z" />
<glyph unicode="&#x26;" horiz-adv-x="1784" d="M220.5 133q-57.5 182 161.5 390q58 47 135 98.5t152 101.5q17 12 17 43q-4 222 141 412q78 104 217 204t278 102q121 -2 175.5 -77t-12.5 -186q-48 -81 -227 -202.5t-295 -193.5q-15 -11 -6 -28q79 -191 238 -348q18 -18 37 7q31 37 62.5 76.5t63.5 79.5q52 68 132 80 t189 1.5t200.5 -13.5t128.5 44q29 33 37 13.5t-69 -82.5q-61 -54 -116 -102t-119 -72q-111 -42 -272 -1q-69 17 -107 -7.5t-80 -63.5q-23 -22 -3 -37q49 -42 109 -78q164 -98 299 -130.5t249 45.5q36 30 43.5 9.5t-29.5 -40t-69 -37.5q-113 -61 -241 -120.5t-265 -55.5 q-106 4 -193.5 51.5t-165.5 113.5q-20 15 -38 0q-99 -78 -213 -129t-246 -50q-241 0 -298.5 182zM553 396q-12 -184 193 -237q86 -24 177 19q26 11 13 25q-189 196 -236 427q-5 28 -27 5q-115 -121 -120 -239zM917 895q6 -21 27 -8q44 30 93 67t73 59q116 97 97 181t-117 92 q-86 3 -137 -60q-101 -129 -36 -331z" />
<glyph unicode="'" horiz-adv-x="469" d="M490.5 924q-19.5 8 2.5 24q104 78 156.5 173.5t8.5 128.5q-20 14 -45 -1t-44 -13q-111 9 -8 94.5t209 119.5q52 16 83 -19t13 -89q-39 -115 -139 -223.5t-190 -181.5q-27 -21 -46.5 -13z" />
<glyph unicode="(" horiz-adv-x="1401" d="M216 9q-21 250 72.5 508t234.5 482.5t296.5 396t258.5 249.5q66 51 102.5 73.5t71.5 38.5q39 18 61 19t-33 -50q-15 -15 -29.5 -24t-38.5 -29q-225 -185 -368.5 -371t-250.5 -375q-46 -81 -101 -224t-76.5 -293.5t11 -282.5t161.5 -193q28 -12 7 -34q-22 -22 -63.5 -59.5 t-86.5 -73.5q-88 -69 -152.5 12t-76.5 230z" />
<glyph unicode=")" horiz-adv-x="912" d="M-248 -400q-22 -1 34 50q15 15 29 24t38 29q223 185 366.5 370.5t251.5 374.5q45 81 100 223.5t76.5 293.5t-10.5 283.5t-161 193.5q-27 13 -6 34q21 22 62.5 59.5t86.5 73.5q87 68 152 -12.5t77 -230.5q21 -251 -73 -508.5t-235 -482t-296 -395.5t-257 -249 q-66 -51 -102.5 -73.5t-71.5 -38.5q-39 -18 -61 -19z" />
<glyph unicode="*" horiz-adv-x="1121" d="M267.5 870q7.5 12 23.5 7q72 -26 144 -26.5t126 -8.5q39 -7 41 -8.5t18 42.5q49 139 116 283q5 10 17.5 9t6.5 -19q-25 -82 -24.5 -151t-7.5 -124q-5 -35 -10.5 -41.5t35.5 0.5q84 13 158.5 19t145.5 10q11 0 10 -12.5t-19 -15.5q-87 -18 -158.5 -53.5t-128.5 -54.5 q-41 -15 -42 -16t8 -47q13 -70 19 -134.5t10 -126.5q0 -11 -12.5 -16.5t-16.5 11.5q-17 63 -49 108.5t-56 86.5q-23 38 -23.5 40t-35.5 -34q-57 -59 -109 -107t-106 -93q-9 -9 -18 -1.5t6 22.5q60 68 96 138t71 121q25 37 31.5 40.5t-39.5 23.5q-124 51 -226 112 q-9 4 -1.5 16z" />
<glyph unicode="+" horiz-adv-x="1228" d="M173 637q21 20 70.5 63.5t141.5 51.5q14 1 194 -2q35 -1 64 -2q14 51 39 134q50 172 61 199q17 53 25 72q19 60 43 25q14 -23 42 -77t6 -145q-3 -14 -62 -188q-4 -12 -7 -22q117 0 231 6t188 25q110 29 120 26.5t-84 -56.5q-105 -63 -256 -95q-122 -26 -244 -38 q-13 -38 -17 -51q-35 -115 -64.5 -227.5t-33.5 -187.5q-5 -110 -10.5 -119t-29.5 88q-31 111 -15 262q11 114 34 226q-50 -2 -129 -3q-175 -4 -202 -2q-55 0 -75 3q-61 0 -30 34z" />
<glyph unicode="," horiz-adv-x="554" d="M134.5 -309q-19.5 8 2.5 24q104 78 156.5 173t8.5 128q-20 14 -44.5 -1t-44.5 -14q-111 9 -7.5 94.5t208.5 119.5q52 16 83 -19t13 -89q-39 -114 -139 -222t-190 -181q-27 -21 -46.5 -13z" />
<glyph unicode="-" horiz-adv-x="859" d="M326.5 637.5q-11.5 22.5 32.5 46.5q37 21 106 69.5t108 69.5q118 63 229.5 6.5t169.5 7.5q20 22 41.5 12.5t-29.5 -45.5q-134 -93 -191.5 -132t-127.5 -48q-61 -8 -153.5 26.5t-144.5 -10.5q-29 -25 -40.5 -2.5z" />
<glyph unicode="." horiz-adv-x="496" d="M185 15q-33 24 48 120t166 83q74 -12 66 -67.5t-110 -105.5q-127 -61 -170 -30z" />
<glyph unicode="/" horiz-adv-x="1939" d="M-45 -294q-33 1 45 124q78 125 230 335.5t333 422.5q192 225 365 412.5t248 246.5q48 39 154.5 88t217 90t197 65t95.5 14q7 -9 -26.5 -27t-53.5 -29q-282 -159 -597 -433t-588 -577q-154 -170 -282 -337t-236 -319q-69 -77 -102 -76z" />
<glyph unicode="0" horiz-adv-x="1674" d="M346.5 544.5q44.5 294.5 265.5 539.5q165 201 413 307q189 82 399 79q201 -5 312 -99.5t145 -243.5q31 -136 8.5 -275.5t-74.5 -254.5q-144 -295 -407 -486.5t-563 -197.5q-294 -4 -418.5 166.5t-80 465zM630 514.5q22 -249.5 176 -365.5q117 -93 303 -69.5t346 204.5 q170 217 153 554q-10 221 -102 359q-104 151 -291 144q-181 -6 -313 -116q-118 -98 -185 -244q-109 -217 -87 -466.5z" />
<glyph unicode="1" horiz-adv-x="792" d="M208 -128q71 128 171 325t196 395q113 233 196 416q8 18 -7 24t-22 2q-62 -40 -124.5 -88t-107.5 -87q-55 -47 -75.5 -14.5t15.5 55.5q218 137 383 280q103 87 194.5 179t195.5 197q27 28 39 18.5t6 -18.5q-63 -102 -188.5 -350.5t-245.5 -511.5q-118 -256 -201 -464 t-71 -246q4 -14 -7 -21q-4 -1 -56.5 -18t-114.5 -36t-114 -35t-55 -17q-17 -1 -7 15z" />
<glyph unicode="2" horiz-adv-x="1320" d="M61 3.5q22 34.5 64 56.5q151 81 257 145.5t251 157.5q123 79 268 186t202 171q77 88 99 213.5t-10.5 229t-118.5 154t-224 -12.5q-145 -67 -160.5 -190.5t27.5 -201.5q41 -78 138.5 -78t185.5 119q21 39 44 18.5t-6 -50.5q-82 -90 -221.5 -158t-267.5 -61 q-75 3 -127 46.5t-43 148.5q8 103 102 218.5t223 193.5q183 111 428.5 140t357.5 -84q91 -89 43.5 -260.5t-234.5 -324.5q-193 -158 -369 -286.5t-390 -250.5q-54 -31 11 -15q123 27 239 -20.5t230 -88.5q99 -37 221 -40t191 90q20 27 36 7.5t-16 -45.5q-233 -188 -408 -255 q-90 -33 -152.5 -36t-104.5 6q-43 10 -123 47.5t-177.5 72t-203 50t-198.5 -16.5q-86 -30 -64 4.5z" />
<glyph unicode="3" horiz-adv-x="1323" d="M139.5 69q-10.5 160 196.5 380q55 59 35 -11q-15 -48 4 -113.5t82 -110.5q80 -60 216 -79t280 53q87 44 161 126.5t98.5 169.5t-18.5 162t-189 105q-123 25 -251 19t-131 -5q-15 2 -15.5 17.5t14.5 25.5q177 121 287 208.5t188 135.5q18 11 11.5 15.5t-16.5 4.5 q-31 -3 -196 16q-225 26 -297 -11t-119 -82q-19 -19 -30 2t15 37q57 34 141.5 166.5t215.5 171.5q81 24 186.5 12t220.5 -27t232.5 -17t224.5 44q43 18 40.5 -4.5t-20.5 -41.5q-54 -58 -123.5 -100.5t-168.5 -93.5q-129 -68 -226.5 -126.5t-181.5 -133.5q-27 -24 -2 -21.5 t57 13.5q145 50 291 11q121 -34 153 -100t8.5 -145.5t-84 -162t-123.5 -148.5q-167 -177 -397.5 -357.5t-485.5 -173.5q-273 9 -283.5 169z" />
<glyph unicode="4" horiz-adv-x="1368" d="M110.5 392.5q21.5 20.5 39.5 30.5q197 112 378.5 272t330.5 328q196 221 318 411.5t128 256.5q5 57 86 78t69 -28q-42 -166 -196 -372.5t-326 -386.5q-111 -116 -213 -209t-171 -146q-31 -24 -35 -29.5t41 7.5q61 17 177 29.5t178 7.5q21 -2 33 18q37 71 147.5 293.5 t180.5 350.5q2 4 40 29t81 50t74.5 38.5t21.5 -5.5q-93 -171 -182.5 -380.5t-155.5 -389.5q-8 -24 11 -26q91 -12 189 -38t186 -9q118 31 172 111q21 36 37.5 6t-37.5 -72q-89 -69 -234 -188t-424 -113q-21 0 -29 -26q-6 -17 -49 -140t-34 -146q4 -11 -18 -20 q-9 -3 -155.5 -49.5t-201.5 -64.5q-30 -9 -26 3.5t10 25.5q51 106 106.5 212t112.5 212q13 24 -14 29q-216 34 -327 40t-165 -1t-75.5 -20t-58.5 -24q-42 24 -20.5 44.5z" />
<glyph unicode="5" horiz-adv-x="1297" d="M53.5 38q-5.5 160 207.5 379q23 24 33 19t2 -30q-47 -138 48.5 -220.5t251.5 -83.5q194 -13 315 38q85 35 151.5 95t100 139.5t22 161.5t-141.5 157q-161 62 -359.5 36.5t-252.5 -45.5q-12 -5 -21 6t-3 24q119 249 169.5 366.5t133.5 309.5q24 54 77.5 56t134.5 45 q44 23 24 -7q-9 -13 -21 -30t-25 -40q-19 -32 22 -8q135 80 313 80q102 -1 232.5 -35.5t210.5 40.5q34 33 45 4t-45 -64q-129 -81 -247 -197t-289 -74q-63 15 -203.5 35t-180.5 -59q-49 -93 -66 -126.5t-55 -117.5q-19 -41 31 -12q79 46 194 71.5t227 22.5q233 3 296.5 -175 t-104.5 -437q-139 -197 -416 -349t-533 -144q-273 9 -278.5 169z" />
<glyph unicode="6" horiz-adv-x="1250" d="M255 205q-26 117 12 270.5t159 332.5q94 140 217 258t255 210q305 211 562 254q46 7 67 -22.5t-68 -39.5q-102 0 -230.5 -59.5t-251.5 -162.5q-96 -80 -180.5 -183t-141.5 -220q-15 -30 -19.5 -47.5t29.5 13.5q186 168 406 189.5t341 -152.5q87 -160 27 -352t-245 -360 q-141 -127 -282.5 -184t-264.5 -54q-149 4 -255.5 85t-136.5 224zM671 708q-124 -190 25 -446q169 -210 374 -146q93 48 130.5 139.5t24.5 188.5q-45 273 -309 332q-176 28 -245 -68z" />
<glyph unicode="7" horiz-adv-x="1014" d="M332 1134q-21 16 25 43q25 15 89 69.5t145.5 110.5t170 94t163.5 20q63 -17 154.5 -36.5t186.5 -28.5q111 -12 212 6.5t157 54.5q44 27 49.5 5t-23.5 -37q-95 -48 -207 -126.5t-215 -161.5q-69 -57 -167 -156t-179 -213q-10 -13 6 -15q68 -12 121 -17t74 22 q14 18 42.5 10t-14.5 -37q-114 -77 -163 -109t-126 -40h-12h-12q-23 0 -30 -20q-40 -108 -17.5 -201.5t145.5 -150.5q51 -24 30.5 -36.5t-50.5 -32.5q-65 -42 -190 -157t-202 -95q-166 42 -100.5 233t215.5 407q7 11 15 21.5t16 22.5q21 29 -3 33q-49 6 -90 6.5t-61 -16.5 q-23 -21 -45 -3t18 39q33 17 91.5 57.5t94.5 57.5q49 22 126 21q16 -1 34 20q74 91 139.5 164t107.5 115q2 3 34 38.5t-40 6.5q-77 -32 -143.5 -28.5t-125.5 22.5q-114 35 -209 75.5t-190 -48.5q-26 -25 -47 -9z" />
<glyph unicode="8" horiz-adv-x="1300" d="M140 234q27 142 157 280q138 149 363 247q31 13 12 29q-172 131 -140.5 252.5t131.5 206.5q92 77 229 148q166 87 356 87q173 0 270 -77q102 -87 55 -229q-30 -94 -139 -183q-104 -85 -243 -139q-44 -17 -5 -38q370 -210 146 -495q-106 -135 -263.5 -227t-356.5 -148 q-143 -42 -262 -41q-174 2 -259 98q-80 88 -51 229zM424 499q-35 -102 2 -193q34 -94 121 -162q84 -70 186 -91q49 -12 108 -4q115 17 175 81q108 117 29 285q-49 102 -143.5 192.5t-169.5 121.5q-25 10 -64 -7t-73 -37q-138 -86 -171 -186zM832 1164q7 -71 76 -149 q58 -67 146 -122q53 -38 137 7q99 54 122 138q23 83 -7 164q-33 77 -106 133q-73 54 -166 50q-45 -4 -79 -17q-76 -29 -102 -92q-29 -63 -21 -112z" />
<glyph unicode="9" horiz-adv-x="1254" d="M396.5 935q37.5 174 192.5 318q136 121 269 170q146 59 353.5 44.5t319.5 -192.5q57 -109 50 -222.5t-34 -211.5q-72 -252 -375 -508q-141 -120 -325 -227.5t-401 -194.5q-26 -10 -40 2.5t-8 26.5q9 28 100 50q152 54 318.5 180.5t267.5 254t146 229.5q20 48 -22 13 q-109 -91 -263.5 -145.5t-295.5 -29.5q-142 24 -216 146.5t-36.5 296.5zM649.5 1122.5q-22.5 -156.5 48.5 -288.5q63 -117 186.5 -161t254.5 20q132 81 148.5 229.5t-50.5 270.5q-57 102 -163 148t-239 4q-163 -66 -185.5 -222.5z" />
<glyph unicode=":" horiz-adv-x="732" d="M192 14q-33 24 48 120t166 83q74 -12 66 -67.5t-110 -105.5q-126 -61 -170 -30zM470 503q-33 24 48 120t166 83q74 -12 66 -67.5t-110 -104.5q-127 -64 -170 -31z" />
<glyph unicode=";" horiz-adv-x="698" d="M156.5 -309.5q-19.5 8.5 2.5 23.5q103 78 156 173.5t8 127.5q-19 14 -44 -0.5t-44 -13.5q-111 9 -8 94.5t209 119.5q51 16 82.5 -19.5t13.5 -88.5q-40 -114 -139.5 -222t-189.5 -182q-27 -21 -46.5 -12.5zM442 503q-33 24 48 120t166 83q74 -12 66 -67.5t-110 -104.5 q-128 -64 -170 -31z" />
<glyph unicode="&#x3c;" horiz-adv-x="1253" d="M-100.5 109q10.5 40 65.5 61q54 -2 118 60t118 143q93 140 114 234q1 10 -8 7q-33 -9 -46.5 4t20.5 45q34 33 75 49q57 24 167 43.5t188 22.5q107 3 71 -30q-79 -70 -137.5 -201t-70.5 -263q-13 -150 53.5 -259.5t252.5 -93.5q133 12 227 115t178 264q33 65 34 61.5 t22 -93.5q15 -66 -44 -142t-161 -140t-230 -106.5t-250 -40.5q-183 5 -259.5 113.5t-64.5 251.5q18 213 174 368q40 39 13 49t-79 7q-15 -2 -21 -14q-34 -63 -81 -138t-101 -147q-75 -99 -153 -175.5t-143 -88.5q-52 -6 -41.5 34z" />
<glyph unicode="=" horiz-adv-x="1228" d="M170 367q19 21 64.5 64.5t136.5 51.5q14 1 194 -3t210 -4q118 0 232 6.5t186 25.5q107 29 117 26.5t-78 -56.5q-100 -64 -247.5 -95.5t-295.5 -42.5q-33 -4 -208.5 -8t-202.5 -1q-55 0 -75 2q-61 0 -33 34zM170 740q19 20 64.5 63.5t136.5 51.5q14 1 194 -2.5t210 -3.5 q118 0 232 6t186 25q107 29 117 26.5t-78 -56.5q-100 -63 -247.5 -95t-295.5 -43q-33 -4 -208.5 -7.5t-202.5 -1.5q-55 0 -75 3q-61 0 -33 34z" />
<glyph unicode="&#x3e;" horiz-adv-x="1245" d="M-104.5 107.5q10.5 40.5 65.5 61.5q86 -4 192.5 132.5t149.5 244.5q38 96 132 159t186 102q104 44 106.5 30.5t-36.5 -50.5q-116 -107 -122 -179q-14 -140 21.5 -269.5t-126.5 -225.5q-32 -20 17 -14q123 11 205 3t207 -42q164 -45 274 -83.5t263 85.5q42 35 47 7 t-45 -52q-144 -66 -285.5 -137.5t-313.5 -13.5q-66 23 -171.5 57t-217.5 58.5t-214.5 30.5t-160.5 -28q-37 -21 -33 11.5t30 44.5q85 39 174 55q47 15 57 49t12 55q3 46 -1 100.5t-7 101.5q-2 33 -24 2q-38 -52 -80.5 -107.5t-85.5 -100.5q-103 -109 -174 -122 q-52 -6 -41.5 34.5z" />
<glyph unicode="?" horiz-adv-x="1008" d="M247 993q-12 120 114 274t318 250q73 36 175 65t198.5 28t172 -43t95.5 -147q22 -120 -44 -228.5t-180 -206.5q-98 -84 -217 -161t-236 -147q-54 -33 18.5 -51t134.5 -12q26 2 18.5 -17t-58.5 -48q-42 -24 -81 -66.5t-72 -67.5q-124 -98 -171.5 -28.5t25.5 187.5 q24 39 73.5 80.5t100.5 77.5q132 93 215.5 171.5t129.5 146.5q63 92 70 165t-9 135q-34 123 -148 150t-232 -41q-115 -68 -148 -161.5t-3 -154.5q36 -77 148 -73t198 160q23 44 34 17t-22 -69q-38 -50 -113 -112t-160 -110q-120 -69 -226 -79t-118 116zM338 94.5 q103 85.5 209 119.5q75 24 65 -49.5t-112 -123.5q-29 -15 -74 -29t-81 -12q-110 9 -7 94.5z" />
<glyph unicode="@" horiz-adv-x="1635" d="M326 446q9 130 45 225q80 216 256 419q175 202 426 307q193 82 402 79q214 -7 316 -105q101 -102 127 -239q25 -138 -6 -285q-33 -147 -82 -245q-155 -294 -492 -500q-57 -34 -115 -65q-62 -33 -121 -57q-147 -61 -269 -61q-201 -3 -306 79q-107 81 -149 200 q-43 119 -32 248zM647 548q0 -34 28 -17q53 36 107 101q38 94 115 201q24 33 61 77q158 183 305 219.5t130 -197.5q-2 -22 75 20t57 5q-21 -33 -42.5 -68.5t-38.5 -71.5q-7 -15 -20 -59.5t-16.5 -86.5t10 -66t59.5 2q17 9 45.5 31.5t48.5 52.5q30 43 33 104.5t0 112.5 q-11 177 -89 295q-104 150 -292 144q-183 -8 -313 -116q-120 -100 -183 -260q-76 -182 -80 -367v-29.5v-26.5zM657 418q8 -50 24 -83q49 -114 140 -180q91 -69 213 -66q134 2 243 72q106 70 180 180q69 103 107 235q4 17 -3.5 18.5t-16.5 -10.5q-116 -147 -240 -229 q-111 -73 -152.5 32t30.5 321q9 30 -19 -3q-72 -81 -133.5 -172.5t-97.5 -128.5q-85 -88 -147.5 -51.5t-37.5 165.5q4 22 -12 6q-41 -39 -61 -54q-23 -18 -17 -52zM1078 689q16 -14 95 96q96 135 91 225t-83 3q-20 -22 -53 -101.5t-49.5 -144t-0.5 -78.5z" />
<glyph unicode="A" d="M-113 -149q-3 4 -3 10q0 17 29 44q72 69 192 163.5t278 252.5q125 122 125 141q0 22 14 51q29 61 84 100.5t127 70.5q124 129 219 242.5t131 188.5q12 73 33 118.5t152 113t222 101.5q79 30 101 31q3 0 5 -1q42 -16 10 -35q-60 -37 -100 -132.5t-60 -218.5 q-20 -125 -20 -260q0 -61 4 -123q1 -33 21 -33q71 -6 139 -6q66 0 130 6q128 13 204 89q22 22 33 10q4 -5 4 -10q0 -8 -11 -18q-244 -219 -453 -278q-29 -9 -18 -45q45 -135 112 -195q48 -35 97 -35q39 0 78 22q90 50 153 148q24 38 31.5 16.5t-9.5 -44.5 q-111 -161 -244 -264t-267 -125q-14 -1 -27 -1q-118 0 -186 111q-45 74 -77.5 182.5t-50.5 231.5q-6 32 -30 43q-73 33 -140.5 62t-133.5 32h-3q-46 0 -77 -34l-261 -295q-225 -262 -261 -336q-39 -14 -115.5 -49t-151.5 -57q-4 -1 -7 -1q-13 0 -22 15zM865 747 q-11 -13 -11 -19q0 -7 13 -7h8q30 3 71.5 3t93.5 -3h3q19 0 19 27l-2 94l2 89q0 13 -6 13q-4 0 -11 -7q-95 -98 -180 -190z" />
<glyph unicode="B" horiz-adv-x="1665" d="M124 632q-31 23 -30 68q0 51 40 131q55 109 204.5 225.5t294.5 199.5q123 71 208 103q209 79 437 101q111 11 214 11q107 0 205 -12q190 -25 314.5 -90t127.5 -162q3 -160 -308 -337q-156 -91 -368 -162q-29 -11 -40 -19.5t31 -12.5q192 -19 282.5 -68.5t102.5 -115.5 q2 -10 2 -20q-1 -58 -49 -124q-56 -76 -158 -148q-102 -73 -237 -134t-281 -97q-166 -38 -311 -38h-15q-127 4 -230 38q-59 21 -59 90q-1 54 35 138q82 191 192 402q73 141 129 266q48 108 48 173q0 11 -1 20q-3 15 156 68.5t227 71.5q31 8 28 20t-51 14q-35 1 -69 1 q-135 0 -253 -13q-146 -16 -258 -46q-154 -43 -237 -103q-100 -71 -106 -161q-1 -10 -1 -19q0 -77 44 -129q49 -58 136 -57.5t174 108.5q29 34 41.5 7t-5.5 -47q-48 -56 -176 -110t-246 -67q-25 -3 -47 -3q-85 0 -137 39zM880 196q3 -44 51.5 -75t112.5 -48q55 -10 108 -10 q16 0 32 1q68 4 151 36q139 67 145 144q0 5 1 10q0 71 -72 130q-78 62 -200.5 101.5t-214.5 42.5q-14 0 -36 -41q-36 -66 -59 -162q-19 -82 -19 -120v-9zM1028 633v-5q0 -12 10 -12q3 0 6 1q156 36 324 121q169 86 281 188q99 90 99 146q0 7 -2 14q-15 53 -91.5 81.5 t-208.5 39.5h-2q-19 0 -32 -15q-118 -138 -189.5 -242t-126.5 -192.5t-68 -124.5z" />
<glyph unicode="C" horiz-adv-x="1264" d="M249 623q56 195 235.5 385.5t486.5 326.5q215 89 355 113q72 13 129 12q53 0 92 -11q81 -24 109 -85q19 -42 19 -93q0 -24 -4 -49q-29 -169 -187 -340q-75 -80 -168.5 -139.5t-193.5 -79.5q-33 -7 -63 -7q-67 0 -113 38q-57 46 -57 124q0 12 1 24q10 95 108.5 214.5 t314.5 229.5q14 6 1 14q-49 25 -117 25q-6 -1 -13 -1q-77 -2 -183 -50q-173 -83 -303 -278q-140 -227 -140 -396q0 -10 1 -20q-1 -20 -1 -40q0 -158 78 -274q88 -132 264 -152q43 -5 85 -5q129 0 249 48q194 80 332 279q28 44 40 28q4 -5 4 -12q0 -18 -21 -49 q-116 -210 -348.5 -373t-435.5 -182q-60 -9 -114 -9q-260 -1 -391 199q-95 143 -95 324q0 122 44 261zM1078 762q6 -42 43 -42q17 0 42 10q51 20 113 85.5t105.5 147t49.5 165.5q1 10 1 21q0 70 -38 114q-6 5 -13 5q-5 0 -11 -3q-86 -48 -157 -148.5t-107 -196.5 q-29 -76 -29 -131q-1 -14 1 -27z" />
<glyph unicode="D" horiz-adv-x="1788" d="M141 981q19 92 122 186q157 143 365 222q205 78 415 78h5q213 -2 410 -93t334 -288q17 -28 46 -9q35 24 81.5 66t80.5 87q24 32 34 -6q2 -7 1 -14q0 -30 -34 -55q-34 -30 -67 -64t-68 -61q-25 -20 -12 -51q56 -147 56 -285q0 -68 -14 -134q-42 -199 -164 -345 q-123 -145 -307 -221q-137 -56 -282 -57q-50 0 -101 7q-221 30 -362 136q-9 7 -21 7q-25 -1 -69 -29q-64 -42 -183 -115q-11 -7 -19 -7q-20 0 -20 45q0 43 18 126q46 205 185 463q15 28 -19 34q-288 43 -385 209q-32 53 -32 115q0 26 6 53zM276 1120q-18 -22 -18 -46 q0 -49 74 -107q51 -41 138.5 -76t210.5 -53q41 -6 55 18q31 51 36 95t12 104q0 15 114 50t200 61q43 13 -4 29q-92 29 -210 47q-102 16 -202 16h-32q-117 -4 -217 -36t-157 -102zM709 248q-2 -9 -2 -14q0 -15 16 2q27 27 62 52q13 9 26 9q21 0 42 -25q88 -114 202 -174 t225 -64q11 -1 23 -1q98 -1 182 47q94 52 145 164q45 110 45 216q1 43 -7 85q-26 147 -103 272q-9 14 -27 5q-94 -57 -158 -88t-151 -60q-182 -57 -316 -73q-33 -4 -38 -6t-20 -27q-60 -94 -98 -181t-48 -139zM1023 847q-6 -10 -6 -16q0 -12 23 -12h25q87 0 189 18 q116 21 222 63q16 6 16 16q0 7 -8 17q-106 123 -212 184q-10 6 -19 6q-13 0 -24 -12q-53 -60 -97 -116q-56 -70 -109 -148z" />
<glyph unicode="E" horiz-adv-x="1243" d="M130 55q-10 34 -10 70q0 81 48 177q70 139 232 273q166 138 407 216q45 14 -2 21q-117 12 -206.5 32.5t-116.5 43.5q-21 16 -21 44q0 49 64 135q48 65 141 141.5t239 151.5q111 57 285 81q107 15 203 15q60 0 116 -6q143 -16 213 -74q29 -24 30 -56q0 -45 -56 -106 q-49 -54 -125 -102t-109 -62q-11 -5 -16.5 1t-1.5 10q30 36 30 65q0 38 -54 62q-94 42 -242 50q-37 2 -74 2q-88 0 -178 -10q-126 -14 -184 -45q-45 -25 -45 -43q1 -13 23 -23q54 -24 165 -39q110 -15 237 -27t195 -27q6 -2 -22.5 -38.5t-67.5 -80t-77.5 -79t-53.5 -35.5 q-104 0 -201.5 -34t-187.5 -80q-198 -101 -205 -242v-17q0 -130 100 -219q89 -67 266 -73q20 -1 39 0q153 0 270 38q132 44 215 119t138 171q23 36 41.5 28.5t-2.5 -40.5q-135 -232 -353 -401q-307 -219 -605 -219h-21h-6q-207 0 -316 68q-111 68 -138 163z" />
<glyph unicode="F" horiz-adv-x="1983" d="M254 964q12 90 180 209q84 59 175 104.5t195 87.5q251 97 509 97h37q277 -8 568 -70q267 -57 506 -80q46 -4 88 -4q173 0 264 77q36 31 44 5q3 -8 3 -14q0 -15 -14 -21q-216 -99 -396 -159q-171 -57 -301 -80q-23 -4 -27 -28q-19 -88 -70 -203q-10 -22 19 -25 q66 -8 137 -8h17q80 1 126 48q27 26 28.5 3.5t-19.5 -37.5q-127 -85 -228 -131t-173 -64q-27 -7 -41 -29q-53 -84 -105 -156t-91 -120q-171 -211 -395 -332q-170 -92 -375 -92q-66 0 -135 10q-160 22 -250 106q-81 75 -80 187q0 13 1 27q6 88 124.5 134.5t334.5 151.5 q26 12 38.5 -10t-14.5 -25q-121 -19 -157 -118q-20 -54 -19 -107q0 -44 13 -86q27 -96 115 -153q60 -39 145 -40q38 0 82 9q97 18 178.5 81.5t147.5 153.5q62 86 111.5 189.5t86.5 211.5q6 21 -21 28q-124 25 -204 25q-35 -1 -61 -5q-88 -16 -146 -48q-16 -7 -21.5 3.5 t12.5 22.5q52 44 165.5 103t305.5 81q32 2 39 30q20 85 34 176q4 28 -23 34q-137 27 -279.5 74.5t-285.5 80.5q-132 29 -262 29h-36q-148 -4 -288 -91q-97 -61 -99 -139v-5q0 -75 56 -121q50 -43 130 -44q13 0 25 2q98 8 207 113q32 30 27.5 -4.5t-28.5 -49.5 q-174 -102 -326 -129q-65 -12 -118 -12q-70 0 -117 21q-70 31 -70 103q-1 10 1 22z" />
<glyph unicode="G" horiz-adv-x="1582" d="M18 -282q34 78 109 121.5t279 135.5q29 14 38.5 -12t-20.5 -27q-99 -23 -99 -122v-6q3 -103 84 -187q80 -82 235 -82q1 0 2 1q156 0 317 126q195 165 285 378q83 194 83 364q0 17 -1 34q-9 56 -18 56q-2 0 -4 -2q-10 -12 -28 -35q-88 -111 -235 -217t-279 -150 q-115 -37 -208 -37q-57 0 -105 14q-127 37 -177 136q-45 88 -45 184q0 151 113 323q184 281 504 479q340 211 706 235q28 2 54 2q118 0 192 -37q20 -11 37 -4q150 51 263 51q27 0 52 -3q78 -9 78 -56q0 -30 -33 -76l-72 -92q-22 -25 -22 3q0 47 -59 78q-53 29 -131 29h-15 q-18 0 -12 -11q15 -28 15 -64q0 -50 -30 -115q-52 -111 -143 -201.5t-203 -161t-218 -87.5q-27 -5 -50 -5q-93 0 -131 84q-11 27 -11 57q0 87 99 200q101 116 291 216q12 7 1 27q-47 72 -165 72q-32 0 -69 -5q-175 -25 -380 -181q-143 -109 -226 -266.5t-92 -296.5 q-1 -15 -1 -30q0 -119 65 -196q53 -64 159 -64q38 0 84 9q104 19 219 83.5t177 157.5q13 20 20 22q116 25 253 107q92 55 120 55q13 0 11 -13q-19 -270 -225.5 -588t-485.5 -525q-218 -165 -412 -209q-107 -24 -197 -24q-73 0 -135 16q-136 36 -196 130q-34 51 -34 108 q0 45 22 94zM1248 762q16 -28 47 -28q26 0 61 18q83 45 137 147q53 103 53 197q0 34 -7 67q-3 11 -10 11q-3 0 -7 -3q-96 -62 -145.5 -117t-78.5 -106q-57 -99 -57 -153q0 -19 7 -33z" />
<glyph unicode="H" horiz-adv-x="2265" d="M212 112q-11 29 -11 57q0 58 47 111q37 42 97.5 78.5t120.5 60.5q32 12 20 -18q-4 -10 -4 -25q0 -30 16 -80q24 -74 82 -132q56 -58 174 -84q64 -14 139 -14q62 0 131 10q212 31 352 169t220 304q7 16 -15 19q-143 19 -227 19q-68 0 -98 -12q-68 -28 -94 -43 q-23 -12 -34 -5t13 28q83 69 221.5 100t240.5 38q36 2 45 30q35 115 35 207q0 67 -19 122q-44 130 -137 196q-94 66 -211 71h-21q-103 0 -180 -44q-165 -99 -173 -207q-1 -12 -1 -22q0 -93 63 -149q59 -53 148 -53q16 0 33 2q111 12 186 155q21 39 41 19q7 -7 7 -19 q0 -19 -23 -47q-24 -30 -99 -93.5t-175 -115.5q-68 -36 -144 -58q-59 -17 -118 -17q-16 0 -32 1q-134 11 -174 98q-15 32 -14 69q0 63 43 140q102 184 352.5 322t492.5 160q43 4 82 4q164 0 260 -64q118 -80 131 -268q1 -16 2 -33q0 -175 -126 -390q-13 -20 12 -20 q68 -3 95 -3h18q10 2 21 19q59 93 155.5 193t210.5 196q112 95 231.5 179.5t224.5 148.5q47 33 66 33q14 0 14 -17q0 -37 -41 -58q-105 -39 -210 -114t-200 -168q-199 -197 -305 -404q-12 -23 13 -24q39 -2 74 -2q78 0 144 9q96 13 142 67q22 25 28.5 3t-23.5 -49 q-128 -112 -234.5 -157.5t-201.5 -51.5q-20 -3 -23 -26q-9 -50 -9 -93q0 -48 11 -87q20 -75 72 -97q21 -9 48 -9q42 1 100 23q94 38 194 193q14 18 23.5 5.5t-5.5 -33.5q-41 -65 -110 -142.5t-156 -148.5q-88 -70 -182 -114q-73 -34 -135 -35q-18 0 -35 3q-96 17 -118 91 q-13 43 -14 92q0 35 7 73q16 90 52 175.5t58 125.5q11 21 -10 27l-94 21q-22 4 -35 -13q-123 -158 -272 -281q-170 -140 -376 -229t-426 -100q-26 -1 -50 -1q-183 0 -298 66q-83 47 -116 137z" />
<glyph unicode="I" horiz-adv-x="1548" d="M157 188q5 81 91.5 132t149.5 79q30 13 28.5 -9t1.5 -49q10 -111 90.5 -198t199.5 -120q59 -16 123 -16q66 0 137 17q141 34 273 165q283 283 324 578q20 146 20 246q0 103 -21 158q-52 131 -170 165q-37 10 -73 11q-83 0 -167 -52q-120 -73 -153 -177q-16 -49 -16 -90 q0 -46 20 -81q44 -81 158 -81h9q122 4 201 175q22 47 36 18q4 -9 4 -19q0 -24 -22 -56q-44 -65 -144 -148q-101 -83 -207 -134q-93 -44 -171 -44h-23q-88 8 -109 125q-4 20 -4 40q-1 73 47 161q60 112 172 213.5t263.5 173.5t318.5 80q19 1 37 1q144 0 206 -58 q70 -64 89 -147q8 -37 8 -81q0 -84 -28 -192q-43 -168 -145 -347q-102 -180 -260 -347t-363 -270q-168 -84 -337 -111q-89 -14 -169 -14q-71 0 -135 11q-135 24 -216 98q-75 68 -75 175q0 9 1 19z" />
<glyph unicode="J" horiz-adv-x="1497" d="M-348 -527q26 195 235 360q210 167 543 243q150 33 304 33h26q168 -3 326 -22q17 -3 28 17q72 130 140 285t99 283q41 170 41 312q0 18 -1 36q-6 157 -83 223q-53 45 -135 45q-34 0 -74 -8q-134 -27 -256 -123q-190 -149 -239 -353q-21 -92 -21 -159q0 -81 32 -124 q52 -71 137 -71q54 0 121 28q173 73 261 319q4 10 21 -10.5t8 -53.5q-15 -49 -76 -122.5t-146 -144.5q-97 -81 -210.5 -141t-209.5 -60q-112 0 -169 88q-32 49 -32 113q0 46 16 101q41 130 133.5 265.5t214.5 256.5t230 186q127 77 241 119.5t205 55.5q4 2 5 3q49 8 91 8 q183 0 226 -157q20 -71 20 -155q0 -146 -59 -333q-54 -171 -156 -371t-225 -375q-11 -16 2 -19q102 -27 193.5 -73.5t139.5 -117.5q5 -7 5 -19q0 -43 -62 -146q-79 -132 -137 -205q-21 -25 -28 -16t-3 23q6 25 6 49q0 78 -58 148q-77 93 -212 161q-18 9 -31 -7 q-145 -161 -294 -273q-261 -193 -496 -271q-191 -62 -331 -62q-32 0 -62 3q-246 30 -246 195q0 16 2 33zM-105 -344q-1 -10 -1 -20q0 -133 128 -191q79 -22 161 -22q266 0 560 232q115 100 223 242q3 5 3 9q0 7 -10 11q-168 73 -357 81q-40 2 -77 2q-139 0 -242 -25 q-130 -32 -217 -87q-78 -50 -123 -116.5t-48 -115.5z" />
<glyph unicode="K" horiz-adv-x="2431" d="M202 874q42 160 280 337q101 79 262.5 144t347.5 87q73 9 148 9q115 0 233 -21q194 -34 362 -151q23 -16 5 -47q-19 -33 -100 -175.5t-168 -312.5q-4 -9 0 -11.5t10 6.5q108 130 288.5 281t373.5 266q211 126 399 172q57 14 105 15q109 0 167 -74q14 -18 14 -39 q0 -48 -69 -112q-100 -94 -186 -155q-52 -37 -42 -11q3 7 3 14q0 22 -22 50q-41 50 -128 50q-27 0 -61 -6q-136 -22 -285 -88q-132 -60 -247.5 -140.5t-168.5 -152.5q-22 -30 -22 -60q0 -25 16 -51q132 -189 297 -404t331 -338q191 -143 320 -143q17 1 33 3q138 22 270 137 q28 26 44 0q3 -4 3 -9q0 -25 -74 -68q-118 -66 -266 -186q-128 -104 -286 -104q-25 0 -51 3q-223 36 -411.5 257t-305.5 433.5t-129 269.5q-5 25 -16 2q-81 -169 -121 -289q-17 -51 -17 -80q0 -34 25 -34h5q23 2 62.5 14t47.5 11q41 -4 -8 -31t-133.5 -61.5t-177 -66.5 t-137.5 -46q-17 -6 -53 14q-25 14 -25 36q0 9 4 19q24 54 112.5 209.5t182.5 334.5q97 186 166 351q50 119 50 179q0 24 -8 38q-43 78 -135.5 119.5t-200.5 55.5q-64 8 -126 8q-57 0 -115 -7q-118 -14 -182 -42q-180 -86 -218 -206q-15 -48 -16 -92q0 -67 35 -126 q65 -113 227 -121h13q156 0 307 191q29 37 33 -1q1 -6 1 -10q0 -31 -21 -48q-187 -157 -348 -223q-154 -63 -268 -63h-10q-108 3 -170 52q-68 54 -68 148q0 42 13 90z" />
<glyph unicode="L" horiz-adv-x="1752" d="M118 131q-31 60 -31 118q0 79 57 156q100 134 268 200q140 55 260 55q14 0 27 -1q97 -6 193 -47t209 -116q19 -14 27 8q23 78 45.5 160.5t49.5 163.5q6 18 -23 17q-20 -1 -40 -1q-122 0 -200 34q-90 38 -123 101q-23 42 -23 88q0 81 70 175q110 148 350 203q44 9 42 -21 q-2 -28 -53 -28h-10h-11q-134 0 -202 -120q-36 -63 -35 -123q0 -59 35 -114q60 -98 229 -133q19 -4 29 20q24 63 54 123q82 160 243.5 257t323.5 160q89 34 143 34q39 0 60 -18q39 -32 39 -91q0 -17 -3 -37q-22 -129 -171.5 -250.5t-353.5 -190.5q-20 -8 -27 -28 q-50 -144 -106.5 -288.5t-148.5 -266.5q-10 -12 8 -29q89 -82 181 -165.5t184 -153.5q103 -81 204 -136.5t194 -67.5q48 -6 92 -6q34 0 68 4q74 8 146 100q23 31 35 31q9 0 12 -18q1 -6 1 -12q0 -32 -28 -52q-202 -137 -324 -210q-118 -70 -219 -70h-8q-105 3 -223.5 78.5 t-242.5 188.5q-72 66 -145 139.5t-145 149.5q-18 18 -36 4q-88 -66 -223.5 -113.5t-274.5 -56.5q-24 -2 -48 -2q-114 0 -216 36q-123 43 -185 162zM294 426q-9 -29 -8 -59q0 -45 20 -93q32 -79 107.5 -147.5t169.5 -96.5q45 -14 91 -14q57 0 116 20q108 36 193 156 q11 14 -10 36q-38 36 -105.5 97.5t-146.5 115.5t-159 85q-47 18 -89 18q-29 0 -56 -9q-101 -36 -123 -109zM1604 991q-3 -8 -3 -14q0 -9 8 -8q8 0 23 7q137 65 226 169q47 53 62 161q2 15 2 28q0 60 -49 59q-14 0 -32 -5q-78 -21 -146 -177.5t-91 -219.5z" />
<glyph unicode="M" horiz-adv-x="2909" d="M232 832q40 184 278 365q135 103 318 168t380 76q29 1 58 1q166 0 330 -44q192 -52 348 -181q12 -11 12 -28q0 -19 -14 -46q-57 -110 -175 -312t-208 -402q-13 -29 -8.5 -33.5t22.5 23.5q67 106 165.5 245t208.5 272q109 132 220 240t206 153q33 15 152.5 54.5 t184.5 51.5q25 4 35.5 -3.5t-4.5 -19.5q-87 -71 -225 -328q-67 -126 -134.5 -270t-121.5 -278q-12 -30 -6 -34t23 23q69 110 153.5 224t167.5 213q83 97 155.5 168t117.5 95q35 19 164 59t202 46q31 2 43 -7q4 -3 4 -7q0 -8 -15 -20q-135 -101 -237 -259.5t-161 -324.5 q-60 -168 -75 -310q-4 -42 -5 -76q0 -83 26 -125q21 -36 58 -36q35 0 85 32q102 66 180 182q24 38 35.5 26t-3.5 -41q-21 -40 -76 -111t-129.5 -142t-160.5 -125.5t-170 -62.5q-12 -1 -23 -1q-117 0 -137 118q-8 48 -9 103q0 92 24 201q37 173 118.5 360t163.5 304 q16 23 6 21t-19 -9q-81 -65 -175 -176.5t-180 -241.5q-87 -131 -161 -280.5t-105 -258.5q0 -1 1 -1v0q1 -1 1 -2h-1v0q-1 0 -2 -1v-1v0v0v-1q-1 0 -1 1h-1q-72 -30 -248 -104q-123 -52 -156 -52q-14 0 -12 10q61 149 126 311t136.5 328.5t142.5 311t107 198.5q26 39 11 39.5 t-38 -15.5q-76 -54 -204.5 -197.5t-245.5 -308.5q-117 -166 -210 -333t-139 -225q-30 -36 -131.5 -59t-217.5 -54q-19 -5 -30 -5q-21 0 -13 18q12 27 53 86q93 133 196 329t181 367t129 307q35 93 35 136q0 20 -7 29q-62 82 -192.5 120t-270.5 46q-25 1 -51 1 q-113 0 -221 -26q-132 -32 -220 -97q-165 -126 -165 -255q1 -9 1 -18q12 -138 123 -216q98 -71 241 -71q18 -1 36 1q166 10 305 163q36 40 36 -4q0 -35 -26 -53q-200 -144 -374 -202q-153 -50 -272 -50q-17 0 -32 1q-129 7 -225 85q-71 58 -71 157q0 35 9 75z" />
<glyph unicode="N" horiz-adv-x="2381" d="M214 898q14 96 76 183t151.5 156t165.5 102q161 69 339 91q114 14 208 13q52 0 97 -4q181 -18 346 -67t267 -158q26 -28 26 -58q0 -18 -9 -36q-49 -98 -151 -283t-189 -371q-5 -11 1 -12t9 4q90 122 205.5 257t231.5 257q129 134 240.5 234t171.5 130q28 13 121 37 t184 41q91 16 148 18q33 1 33 -8q0 -7 -18 -20q-90 -63 -221 -232t-231 -361q-64 -121 -96 -286q-18 -92 -17 -161q0 -56 11 -98q20 -76 83 -76q7 0 13 1q74 9 198 195q25 38 39 33t0 -49q-6 -19 -59.5 -85t-130.5 -140t-165 -136t-163 -74q-17 -3 -32 -3q-109 0 -129 132 q-10 66 -9 137q0 93 16 196q27 182 94.5 368t129.5 279q25 39 -10 17q-114 -72 -247 -223t-249 -310q-117 -159 -208 -312.5t-99 -186.5v-1v-2v0q-43 -20 -150 -55t-223 -65q-19 -5 -30 -5q-20 0 -13 17q11 26 51 83q28 40 108 182t160 292q78 150 148.5 305.5t97.5 267.5 q10 40 10 70q0 38 -16 60q-73 96 -230 148q-146 49 -304 48h-24q-112 -3 -227 -41t-191.5 -104.5t-93.5 -157.5q-3 -15 -3 -31q0 -78 72 -169q94 -119 287 -129q10 0 20 -1q181 0 323 162q32 36 42 9.5t-14 -44.5q-302 -234 -558 -251q-32 -2 -62 -2q-206 0 -294 102 q-61 71 -61 149q1 16 3 32z" />
<glyph unicode="O" horiz-adv-x="1632" d="M231 198q-38 106 -38 218q0 207 133 431q93 157 243.5 295.5t345.5 228.5q65 30 147 58q57 20 115 19q25 0 50 -3q114 69 239 69h14q138 -3 258 -85.5t180 -218.5q44 -100 43 -220q0 -92 -25 -198q-59 -242 -340 -496q-189 -197 -421 -292.5t-434 -99.5h-23 q-380 -1 -487 294zM500 786q-4 -43 -4 -85q0 -211 103 -374q75 -119 189 -191q113 -72 245 -71h4q118 1 245 69.5t248 224.5q88 136 109 305q6 51 6 99q0 113 -34 214q-67 195 -209 277q-109 63 -216 63q-32 0 -63 -5q-130 -24 -223 -136q-85 -103 -85 -273q0 -16 1 -34 q6 -149 91.5 -278t205.5 -130q120 0 228 146q15 20 28 -7t-9 -45q-84 -69 -219.5 -160t-266.5 -97q-10 -1 -19 -1q-151 0 -217 136q-52 107 -52 217q0 38 6 77q27 168 133 326t220 240q31 21 29 27q-1 1 -3 2q-8 0 -35 -12q-79 -36 -164 -93q-248 -167 -272 -431z" />
<glyph unicode="P" horiz-adv-x="1751" d="M230 832q32 117 197 239t341.5 202.5t314.5 116.5q146 38 388 59q113 10 222 10q125 0 245 -13q224 -24 373 -106q117 -64 117 -181q0 -32 -9 -69q-37 -151 -200 -258t-371 -179t-421 -111.5t-351 -54.5q-15 -2 -22 -15q-68 -148 -100 -260q-13 -46 -13 -71q0 -36 24 -36 h4q24 3 63.5 14.5t47.5 10.5q41 -3 -8 -30t-133.5 -61t-177 -66t-138.5 -47q-3 -1 -7 -1q-16 0 -46 16q-25 14 -25 35q0 9 5 19q26 57 132 259t202 400q74 153 124 286q39 105 40 166q0 16 -3 28q-2 3 -2 7q0 21 62 43q72 26 151 45q22 5 18 12t-19 6q-180 -15 -349 -41.5 t-280 -77.5q-164 -76 -184 -180q-5 -24 -4 -45q0 -70 49 -110q39 -32 101 -32q16 0 34 2q85 11 177 111q41 30 41 -9t-31 -52q-170 -109 -306 -138q-67 -14 -119 -14q-54 0 -91 15q-70 29 -70 102q-1 25 7 54zM1092 558q-2 -4 -2 -7q0 -5 9 -5q207 6 386.5 55.5t303.5 123.5 q123 73 178 159q32 49 32 96q0 35 -18 68q-45 84 -174 130t-298 61q-5 1 -10 1q-42 0 -64 -38q-14 -24 -59.5 -105t-104.5 -192q-44 -81 -90.5 -170.5t-88.5 -176.5z" />
<glyph unicode="Q" horiz-adv-x="1483" d="M197 291q-30 92 -30 184q0 102 36 205q69 197 213 364q168 194 398 321.5t431 130.5h21q200 0 332 -72q138 -75 196 -201q38 -86 38 -188q0 -49 -8 -102q-28 -163 -145 -334q-135 -198 -302.5 -327.5t-373.5 -243.5q-43 -25 -2 -30q103 -17 241.5 -101t288.5 -177 q225 -138 446 -208q57 -18 109 -18q148 0 250 149q25 38 40 9q3 -7 3 -14q0 -26 -39 -60q-357 -305 -657 -305q-19 0 -37 1q-90 6 -198 62t-221 133q-120 82 -237 171t-213 149q-69 44 -119 66q-31 14 -74 14q-26 0 -55 -5q-13 -2 -24 -2q-30 0 -40 15q-13 20 21 38 q86 49 133.5 64.5t141.5 42.5q222 67 348 131t236 195q159 191 163 412v15q0 211 -107 357q-77 103 -197 156q-90 41 -188 41q-31 0 -63 -4q-179 -23 -299 -146.5t-154 -297.5q-15 -76 -15 -149q0 -146 59 -281q82 -193 254 -257q43 -15 86 -15q129 0 257 143q24 26 35 -8 q3 -8 3 -16q0 -24 -28 -43q-114 -78 -283 -147q-163 -67 -314 -67h-13q-114 2 -207 58.5t-137 191.5z" />
<glyph unicode="R" horiz-adv-x="2053" d="M172 688q-6 20 -5 40q0 56 39 122q99 162 303.5 295.5t454.5 211.5q176 55 358 79q168 22 326 22h26q378 -5 605 -113q107 -51 153 -121q24 -37 23 -78q0 -36 -19 -75q-52 -104 -175 -189t-280 -151q-148 -62 -311 -105t-311 -66q-34 -7 -8 -37q108 -135 289 -312 t299 -251q216 -137 353 -137q14 0 28 2q142 16 282 132q30 27 47 1q3 -4 3 -9q0 -25 -79 -68q-78 -42 -168.5 -111t-195.5 -120q-89 -42 -187 -56q-25 -3 -50 -3q-76 0 -159 30q-111 41 -251.5 185t-257.5 304q-79 108 -137 207.5t-79 163.5q-9 24 -15 32t-20 -20 q-57 -116 -92 -211q-27 -74 -27 -124q0 -14 2 -26q3 -23 -21 -31q-53 -18 -147.5 -58.5t-196.5 -99.5q-20 -11 -16.5 37.5t34.5 102.5q66 117 137 251.5t133 261.5q79 164 129 292q42 107 42 154q0 10 -2 17q-1 5 -1 9q0 34 60 66q68 36 146 63q23 8 13.5 11.5t-24.5 3.5 q-520 -28 -724 -145q-138 -78 -138 -166.5t74 -130.5q40 -24 94 -24q26 0 56 6q90 18 182 107q39 38 39 -10q0 -37 -29 -54q-313 -185 -468 -185h-13q-103 6 -123 78zM1132 648q-9 -18 -9 -27q0 -12 13 -12h21q80 0 157 13q181 27 327 85q168 66 249 150q62 64 62 118 q0 17 -6 32q-42 108 -199 159.5t-280 51.5q-48 0 -57 -4t-21 -48q-23 -81 -99.5 -223t-157.5 -295z" />
<glyph unicode="S" horiz-adv-x="1802" d="M165 212q-2 13 -2 26q0 140 206 276q212 139 515 139q18 0 37 -1q42 -1 35 -36.5t-45 -23.5q-62 9 -116 9q-185 -1 -269 -105q-57 -71 -57 -149q0 -69 45 -145q82 -97 206 -130q120 -32 270 -32h10q156 1 307.5 49.5t245.5 148.5q86 92 86 175q-1 32 -13 63 q-46 111 -193 186q-149 73 -370 99q-83 10 -168 10q-140 0 -285 -27q-5 -1 -9 -1q-28 0 -29 45q0 58 60 149q57 89 176.5 195.5t316.5 199.5q149 70 369 102q152 22 284 22q59 0 113 -4q178 -14 260 -77q32 -25 32 -58q0 -51 -75 -122q-64 -60 -159.5 -113.5t-137.5 -69.5 q-14 -6 -20.5 1t-1.5 11q57 53 57 90q0 30 -36 50q-82 45 -242 54q-43 2 -88 2q-120 0 -254 -16q-184 -22 -283 -60q-90 -36 -121 -76q-7 -9 -7 -16q0 -13 31 -12q18 0 48 4q110 17 227 17q102 0 209 -13q229 -28 389 -112q159 -86 205 -228q10 -32 10 -66q0 -120 -124 -273 q-187 -231 -461 -332t-531 -106h-31q-238 0 -416 72q-189 77 -206 209z" />
<glyph unicode="T" horiz-adv-x="1564" d="M208 832q-24 47 -24 104q0 69 35 152q64 153 243 252q309 170 531 169q19 -1 35 -1q232 -14 567 -105q360 -108 586 -139q75 -10 148 -10q146 0 282 41q60 21 125.5 46.5t120.5 66.5q48 37 68 37q14 0 15 -18q0 -37 -90 -75q-301 -129 -496 -195t-326 -88 q-92 -16 -163 -16q-31 0 -58 3q-89 10 -179 34q-25 5 -39 -17q-39 -64 -130.5 -233t-174.5 -344q-84 -176 -130 -310q-21 -62 -21 -94q0 -34 24 -33h4q21 2 59 13t45 10q39 -3 -7.5 -29t-126 -58.5t-166.5 -63.5t-130 -45q-3 -1 -6 -1q-15 0 -43 16q-34 19 -20 52 q21 48 101 194.5t164 315.5t146 324q50 125 50 193q0 16 -3 29q-2 3 -2 7q0 23 73 53q72 30 164 45q26 3 26 10q0 8 -35 20q-102 35 -236.5 81.5t-272.5 78.5t-266 36h-19q-115 0 -196 -44q-129 -72 -129 -167q0 -9 1 -19q14 -108 107 -180t227 -76h7q130 0 227 128 q28 38 36 5t-17 -54q-153 -104 -273 -152t-208 -54q-16 -1 -31 -1q-145 0 -199 106z" />
<glyph unicode="U" horiz-adv-x="1906" d="M246 685q-22 40 -22 90q0 69 43 155q58 114 188.5 234t321.5 199q248 102 427 101q96 0 172 -28q166 -63 166 -184q0 -38 -17 -81q-26 -68 -94 -178t-145 -232.5t-145.5 -242.5t-94.5 -207q-19 -63 -19 -103q0 -70 57 -70h1q90 0 204 93q94 76 192.5 191t191.5 247 q103 148 190 301.5t141 279.5v0l1 -1q31 81 149.5 101.5t204.5 48.5q80 25 106 25q14 0 14 -6q0 -5 -8 -14q-94 -102 -215 -292t-222 -387q-124 -243 -176 -403q-17 -54 -17 -89q0 -65 60 -64h8q69 4 150.5 79t99.5 84q27 16 24 -2t-30 -54q-72 -90 -167.5 -182.5 t-228.5 -167.5q-54 -21 -95 -21q-36 1 -60 17q-54 34 -58 113q-1 10 -1 21q0 71 26 160q30 102 64 180q34 81 83 188q20 44 16 54t-37 -32q-50 -64 -141 -182.5t-199.5 -234t-223.5 -199.5q-107 -78 -200 -77h-13q-126 7 -162 157q-6 24 -6 53q0 147 157 403 q92 144 202.5 333t137.5 273q8 26 8 50q1 51 -37 88q-54 54 -148 72q-44 8 -92 8q-54 0 -113 -10q-111 -20 -197 -84q-128 -94 -166 -218q-14 -47 -14 -86q0 -65 39 -108q40 -45 129 -44q24 0 52 2q130 16 204 138q24 41 33.5 4t-10.5 -57q-51 -50 -174.5 -130t-253.5 -114 q-75 -19 -129 -19q-98 0 -132 61z" />
<glyph unicode="V" horiz-adv-x="1593" d="M250 764q-12 29 -12 62q0 110 129 266q112 135 323.5 236.5t413.5 121.5q41 4 78 3q188 0 262 -102q79 -112 79 -272q0 -16 -1 -33q-9 -177 -75 -369.5t-125 -321.5q-15 -33 0 -26t25 24q109 179 184.5 330.5t144.5 277.5q85 155 184.5 268t266.5 182q36 15 229.5 62.5 t289.5 59.5h8q24 0 28 -15q1 -4 0 -7q0 -11 -13 -9h-6q-73 0 -203 -72q-134 -76 -292.5 -211t-321 -319t-291.5 -397q-99 -163 -169.5 -312.5t-116.5 -254.5q-9 -19 -169 -61t-218 -69q-4 -2 -9 -2q-8 0 -18 6q-15 8 2 23q84 85 168 303q84 216 124 456q24 144 24 276 q-1 87 -11 169q-26 205 -162 263q-58 24 -119 24q-45 0 -89 -12q-108 -30 -188 -101t-112 -167q-12 -36 -12 -71q0 -59 34 -116q36 -62 152 -62q18 0 38 1q148 11 232 196q21 17 35 -15.5t-11 -56.5q-137 -127 -262.5 -190t-222.5 -73q-22 -2 -42 -2q-138 0 -183 109z" />
<glyph unicode="W" horiz-adv-x="2096" d="M53 609q-17 42 -17 91q0 93 59 214q31 64 117.5 155.5t205.5 177t260 147.5t283 69q19 1 38 1q286 0 349 -206q30 -96 29 -201q0 -133 -47 -279q-21 -65 -51.5 -152t-62.5 -156q-6 -12 -1.5 -13t10.5 10q51 88 136.5 232.5t180.5 271.5q100 135 209.5 247t211.5 151 q23 9 88 27.5t128.5 32.5t105 17.5t19.5 -16.5q-60 -30 -141.5 -163t-160.5 -308q-63 -137 -105 -253t-76 -241q-4 -13 1 -13t10 9q150 251 386.5 534.5t412.5 409.5t309 159q62 12 115 12q150 0 213 -100q7 -12 7 -25q-1 -15 -9 -29q-16 -28 -100 -117.5t-111 -108.5 t-23 17q-18 117 -136 117q-33 0 -73 -9q-186 -41 -356 -196q-157 -142 -280.5 -302t-159.5 -215q-106 -161 -174.5 -303.5t-93.5 -256.5q-29 -23 -123 -65t-169.5 -67.5t-114.5 -41.5q-7 -3 -11 -3q-7 0 -6 7q0 15 28 61q59 110 151 410t186 615q18 31 -14 8 q-65 -42 -155.5 -178.5t-168.5 -285.5q-81 -152 -158.5 -313t-95.5 -189q-20 -30 -104.5 -67.5t-172.5 -66t-148 -38.5q-18 -3 -28 -4q-23 0 -1 18q105 87 195 221.5t154 282.5q63 148 95 291q23 104 23 186q0 31 -3 59q-23 183 -142.5 269t-266.5 89h-8q-121 0 -253 -57 q-136 -59 -194 -178q-33 -67 -34 -134q0 -53 22 -107q48 -120 166 -148q35 -8 73 -8q72 0 154 30q126 46 198 162q15 34 39 2q9 -12 9 -23q0 -21 -27 -42q-116 -95 -282 -185q-148 -81 -287 -80q-17 0 -34 1q-150 10 -198 130z" />
<glyph unicode="X" horiz-adv-x="1877" d="M-5 -325q-3 2 -3 5q0 14 72 54q114 63 236 152q282 204 539.5 438.5t343.5 326.5q17 17 17 49q0 13 -3 28q-18 91 -29 202.5t-38 198.5q-30 89 -110 129q-40 19 -97 19q-59 0 -137 -21q-181 -56 -234 -197q-17 -46 -18 -91q0 -92 74 -179q65 -73 170 -73h18 q118 6 192 160q11 24 35 -8q9 -12 9 -25q0 -22 -26 -47q-47 -46 -179.5 -123t-300.5 -79q-178 0 -224 114q-15 38 -15 80q0 85 62 186q101 159 313 278.5t401 127.5q21 1 41 0q157 0 229 -53q81 -60 103 -168q6 -38 19 -140q3 -31 7.5 -42t32.5 20q147 163 309.5 306 t312.5 229q148 85 269 95q11 1 21 1q106 0 165 -92q5 -9 5 -21q0 -21 -18 -51q-28 -46 -70 -89.5t-83 -70t-51 -10.5q-52 77 -161 77q-18 0 -38 -2q-138 -15 -247 -87q-105 -69 -208.5 -174.5t-197.5 -225.5q-24 -30 -24 -62q0 -7 1 -14q8 -65 23.5 -174.5t50.5 -213.5 t95 -179q58 -72 151 -72h7q60 1 133 38t160 131q40 45 46 17q1 -3 1 -6q0 -27 -40 -67q-69 -93 -222 -227q-142 -125 -298 -125q-12 0 -23 1q-155 10 -230 199t-111 417q-5 29 -25 4q-343 -353 -500.5 -549.5t-191.5 -241.5q-13 -9 -89.5 -26t-165.5 -31.5t-165 -22.5 q-45 -5 -69 -5q-16 0 -22 2z" />
<glyph unicode="Y" horiz-adv-x="1921" d="M307 734q-6 27 -6 55q0 66 33 145q49 114 174 231t318 194q182 64 354 64q90 0 178 -17q209 -43 209 -174q0 -27 -9 -58q-51 -131 -188.5 -365t-188.5 -404q-15 -51 -15 -94q0 -34 10 -63q8 -23 30 -23q41 0 130 79q228 201 402 435q191 258 301 540q31 81 140 86t194 32 q76 24 102 24q14 0 14 -7q0 -4 -7 -12q-194 -217 -320.5 -473t-219.5 -474q-139 -327 -340 -552t-397 -369q-171 -124 -318 -170q-121 -39 -219 -39q-21 0 -41 2q-176 16 -253 133q-44 68 -44 141q0 53 24 110q34 78 106 136.5t276 150.5q30 12 39 -10t-21 -29 q-78 -16 -103 -93q-13 -41 -13 -85q0 -38 10 -77q21 -87 86 -157.5t166 -76.5h12q133 0 285 128q117 99 201.5 244.5t153.5 310.5q33 81 81 195t105 238q9 22 -1.5 30.5t-18.5 -2.5q-43 -54 -125 -154.5t-181 -197.5t-202 -166q-92 -61 -169 -61q-10 0 -20 1 q-100 10 -119 152q-2 15 -2 32q0 143 146 425q70 135 140 272t100 220q13 38 13 69q0 50 -35 83q-57 53 -235 53q-80 0 -163 -23.5t-148 -71.5q-125 -92 -142 -209q-5 -36 -5 -65q0 -71 28 -112q43 -63 125 -63q16 0 34 3q109 15 199 127q30 30 41 10q2 -5 2 -10 q0 -19 -32 -50q-117 -105 -244 -181q-107 -64 -239 -64q-25 0 -50 2q-107 13 -128 99z" />
<glyph unicode="Z" horiz-adv-x="1638" d="M-60 -48q-7 8 -7 17q0 16 17 38q44 59 141 111.5t208 84.5t182 62q202 92 387.5 203t340.5 222q154 110 269.5 211.5t178.5 174.5q30 37 -13 36h-14q-98 0 -192 14q-101 14 -195 33q-109 21 -217 39q-80 13 -159 14q-27 0 -53 -2q-104 -7 -201.5 -47t-186.5 -133 q-22 -24 -46 -4.5t4 40.5q123 94 306.5 231.5t314.5 162.5q107 20 216 20q121 0 245 -24q236 -46 437 -76q76 -12 196 -17h20q106 0 169 48q30 23 35.5 0.5t-7.5 -31.5q-203 -151 -441 -314.5t-478 -336.5q-159 -114 -317 -225.5t-303 -223.5q-38 -30 -31 -39.5t52 -14.5 q198 -21 340 -89t467 -287q195 -144 388 -228q184 -81 383 -80h19q214 14 419 199q40 22 40 -11q0 -44 -28 -52q-206 -142 -418 -260q-193 -107 -420 -106q-23 0 -47 1q-201 10 -366 102t-320 210q-198 152 -404 295.5t-476 166.5q-28 2 -55 2q-88 0 -172 -24 q-110 -32 -169 -103q-22 -30 -39 -10z" />
<glyph unicode="[" horiz-adv-x="1199" d="M-86.5 110.5q10.5 40.5 65.5 61.5q40 -6 86 26.5t91 85.5q54 66 80 144q48 145 94 260q49 123 99 219t90 134q26 23 104 56.5t163.5 62.5t155 47t78.5 11q6 -6 -12.5 -17.5t-28.5 -19.5q-66 -54 -142 -155t-150 -223q-71 -117 -134.5 -239.5t-112.5 -248.5 q-7 -16 -0.5 -19t17.5 12q50 68 114.5 161.5t136.5 138.5q220 141 277.5 127.5t21.5 -62.5q-138 -188 -155 -434q-15 -215 72.5 -289.5t190.5 -69.5q134 7 257.5 130t189.5 285q26 64 26.5 60.5t33.5 -93.5q22 -65 -35.5 -147t-161 -152.5t-235 -117.5t-254.5 -43 q-105 4 -198.5 59.5t-129.5 168.5q-45 140 -5 258t77 196q10 21 -3.5 16t-34.5 -30q-11 -13 -47.5 -65t-80 -112t-85.5 -112.5t-64 -65.5q-106 -66 -228 -113q-19 -6 1 82q12 58 35 136q7 32 -15 7q-54 -60 -106 -101t-97 -50q-52 -6 -41.5 34.5z" />
<glyph unicode="\" horiz-adv-x="832" d="M-47 1483h205l723 -1694h-202z" />
<glyph unicode="]" horiz-adv-x="1181" d="M-97.5 107q10.5 40 65.5 61q69 -9 153.5 93t140.5 207q19 54 41 119t49 133q38 98 76 172.5t73 107.5q22 20 87 51t143 61q102 41 193.5 69.5t101.5 20.5q6 -6 -12.5 -17.5t-28.5 -20.5q-105 -84 -233.5 -282t-225.5 -396q-13 -27 -1.5 -22.5t24.5 16.5q67 61 151 120 q181 128 297 137q72 5 86 -41t-38 -118q-61 -83 -158 -132.5t-146 -67.5q-15 -8 -13 -20q3 -218 67.5 -341.5t250.5 -129.5q76 -2 159.5 40.5t158.5 114.5q103 100 183 258q36 63 35 60t21 -93q16 -70 -63.5 -159t-206.5 -161q-109 -63 -235 -102.5t-240 -36.5 q-197 2 -290 142q-75 156 -62 322q1 39 29 54q86 49 120.5 83t37.5 59q3 36 -37.5 20t-82.5 -50q-72 -59 -119 -153.5t-63 -145.5q-13 -36 -37 -48q-38 -20 -97 -54.5t-122 -58.5q-18 -6 -14 23.5t19 74.5q12 39 27.5 88.5t30.5 98.5q11 35 -11 8q-63 -75 -126.5 -132 t-116.5 -66q-52 -6 -41.5 34z" />
<glyph unicode="^" horiz-adv-x="1191" d="M-91.5 102.5q8.5 40.5 62.5 61.5q69 -3 145.5 77t124.5 185q15 34 12.5 37t15.5 20q48 46 177 108t145 47q9 -9 -6.5 -32.5t-21.5 -33.5q-42 -62 -63 -97.5t-57 -135.5q-11 -30 -1 -21.5t19 22.5q37 51 97.5 130.5t117.5 118.5q192 132 278.5 123t44.5 -47 q-93 -98 -137 -232t-42 -267q1 -122 57.5 -218t199.5 -89q135 7 256.5 134t187.5 289q27 64 27.5 60.5t32.5 -93.5q22 -65 -32 -145.5t-153 -149.5t-226.5 -114.5t-250.5 -41.5q-166 6 -254 89.5t-109 198.5q-41 224 115 414q21 30 -9 12t-38 -25q-63 -54 -130 -181.5 t-111 -175.5q-48 -52 -134 -96.5t-151 -56.5q-15 -2 -15 8t24 52q24 47 44 105t33 98q3 9 5 21.5t-11 -4.5q-58 -74 -116.5 -126.5t-109.5 -62.5q-52 -6 -43.5 34.5z" />
<glyph unicode="_" horiz-adv-x="1453" d="M-87 -606q-28 68 5 167q43 120 157 239q69 70 175.5 134t283.5 64q19 2 24 17q10 36 17 73.5t16 75.5q16 80 36 146q6 26 -10 10q-27 -39 -76.5 -97t-106.5 -110q-53 -48 -106.5 -80.5t-97.5 -30.5q-58 -1 -77.5 55.5t-2.5 138.5q3 29 -15 9q-46 -48 -90 -86.5t-83 -45.5 q-53 -7 -42.5 34.5t67.5 63.5q45 -6 98.5 40t101.5 108q67 174 221 312q117 102 243 129q86 18 117.5 -34t44.5 -151q1 -18 16 -10q36 19 117 57t67 -1q-102 -144 -146 -305t-91 -324q-6 -18 10 -23q105 -28 224 -50t230 -23q138 0 249 42.5t156 155.5q15 38 21 14.5 t-18 -76.5q-22 -46 -68.5 -102.5t-84.5 -89.5q-80 -66 -171 -91.5t-182 -25.5q-132 2 -248.5 37.5t-176.5 57.5q-19 8 -28 -11q-118 -209 -350 -367q-189 -128 -314 -120q-84 6 -112 74zM68 -283q-40 -112 1 -198q38 -81 119 -85q79 -3 138.5 65t92.5 129q27 53 50 112.5 t45 120.5q8 20 -12 22q-137 21 -249 -14q-149 -45 -185 -152zM469 272.5q2 -39.5 42.5 -13.5t131.5 163q49 84 64 172q13 123 -40.5 93.5t-99.5 -122.5q-43 -86 -71.5 -169.5t-26.5 -123z" />
<glyph unicode="`" horiz-adv-x="835" d="M-93.5 109q15.5 40 72.5 61q42 -6 85.5 30.5t97.5 95.5q59 153 227 296q74 63 157 103t161 37q90 -13 73 -71.5t-88 -125.5q-125 -118 -271 -179q-19 -9 -21 -25q-36 -240 52 -325t188 -89q133 -3 275.5 124t224.5 289q36 63 35.5 60t20.5 -93q14 -60 -46 -134.5 t-161 -142.5q-120 -78 -272 -132.5t-285 -50.5q-100 3 -181.5 59t-112.5 160q-20 62 -10 130q4 25 -15 9q-101 -108 -169 -120q-53 -6 -37.5 34zM410 414q-2 -14 8 -7q47 28 79 61q25 25 41.5 59.5t-1.5 67.5q-11 19 -32.5 3.5t-42.5 -51.5q-44 -73 -52 -133z" />
<glyph unicode="a" horiz-adv-x="758" d="M-91 110q10 37 63 60q6 -1 12 -1q57 0 138 83q35 36 57 81q51 110 157 243q93 108 185 164q82 49 143 48h15q94 -11 94 -162q0 -17 -1 -37q-1 -8 7 -8q16 0 67 28q41 22 54 22q7 0 7 -5q0 -4 -4 -12q-51 -77 -93 -168q-35 -75 -34 -139q0 -13 1 -26q11 -36 42 -36 q18 0 43 13q35 17 116 122q32 38 44 24q2 -2 1 -5q0 -20 -58 -93q-99 -134 -195 -235q-82 -86 -157 -86q-13 0 -26 2q-65 15 -73 115q-1 13 -1 28q0 92 42 219q9 28 1 24.5t-15 -11.5q-76 -91 -135.5 -177.5t-95.5 -123.5q-59 -61 -114 -61h-2q-74 5 -74 104q0 34 9 80 q4 22 -12 6q-48 -48 -90 -81t-86 -34q-34 -2 -34 22q0 6 2 13zM441 390q-1 -7 -1 -13q0 -32 17 -32q2 0 5 1q38 9 91 96.5t68 125.5q26 66 26 101q0 36 -27 40h-7q-41 0 -75 -53q-38 -58 -67 -141q-26 -75 -30 -125z" />
<glyph unicode="b" horiz-adv-x="851" d="M-94 110q10 40 65 62q7 -1 14 -1q39 0 82 34q51 40 99 102q18 22 24 60q16 105 49 217.5t74 210.5q41 97 86.5 168.5t87.5 96.5q31 18 106.5 49t153.5 58.5t137 43.5q34 9 48 9q10 0 9 -5q-4 -17 -54 -57q-24 -19 -82.5 -92.5t-126.5 -175.5q-69 -103 -134 -224.5 t-102 -235.5q-3 -10 9.5 -7t22.5 14q121 146 261 234q101 63 203 64q39 0 79 -10q70 -22 70 -87q0 -71 -82 -192q-117 -168 -297 -318q-170 -142 -301 -143q-8 0 -16 1h-14q-97 0 -149 64q-51 64 -51 165v19q0 23 -18 3q-56 -63 -110 -107.5t-102 -53.5q-7 -1 -12 -1 q-31 0 -31 23q0 5 2 12zM453 244q-12 -47 -12 -87q0 -45 16 -80q9 -20 23 -20q17 0 42 29q45 53 91 139t82 174t39 115q1 8 1 14q0 35 -21 35q-10 0 -22 -7q-48 -25 -131 -119q-82 -91 -108 -193z" />
<glyph unicode="c" horiz-adv-x="597" d="M-84 108q11 42 63 62h7q67 0 156 114q7 8 17 36q42 126 180 258q93 82 213 132q64 27 135 30q7 0 14 1q63 0 116 -29q26 -15 22 -23.5t-18 -35.5q-37 -69 -114 -171q-60 -80 -88 -79q-8 0 -13 6q-3 3 -3 9q1 22 37 89q32 60 32 105q0 19 -6 35q-21 23 -46 23 q-47 0 -107 -81q-75 -106 -75 -218q0 -23 4 -45q18 -136 100 -153q8 -1 16 -1q66 0 146 74q90 82 136 172q28 38 32 12q1 -5 1 -11q0 -21 -12 -41q-74 -123 -238 -266q-151 -132 -297 -132q-12 0 -25 1q-79 5 -121 63q-39 54 -38 150v14q0 18 -11 6q-110 -130 -175 -139 q-8 -1 -15 -1q-27 0 -27 21q0 6 2 13z" />
<glyph unicode="d" horiz-adv-x="744" d="M-84 112q18 42 64 58h4q26 0 81 32q59 36 96 97q24 39 43.5 83t57.5 94q70 92 153 136t202 61q14 1 18 13q25 77 54 139t59 92q24 23 99 56t157 61q83 28 151 46q49 12 67 13q7 0 10 -2q2 -2 2 -4q0 -5 -12 -13q-18 -12 -27 -20q-51 -43 -104.5 -111.5t-103.5 -148.5 q-60 -93 -109 -191.5t-79 -178.5q-9 -20 -25 -92q-6 -25 -6 -44q0 -35 20 -47q7 -2 14 -2q55 0 149 123q39 50 57 50q4 0 6 -2q4 -2 3 -8q0 -21 -48 -85q-41 -62 -162 -203q-110 -128 -196 -128q-9 0 -17 1q-58 10 -74 103q-4 25 -4 54q0 81 32 198q10 37 -16 6 q-39 -44 -73.5 -94t-63.5 -94q-27 -42 -73 -103q-41 -56 -95 -56q-5 0 -10 1q-83 7 -83 133q0 24 3 53q1 25 -14 10q-49 -57 -94.5 -90t-78.5 -34h-7q-31 0 -31 20q0 7 4 18zM417 338q0 -25 14 -24h3q27 3 104 114q40 59 52 107q8 30 8 46q0 8 -2 12q-9 17 -24 17 q-16 0 -39 -19q-44 -35 -68 -83.5t-37 -99.5q-11 -41 -11 -70z" />
<glyph unicode="e" horiz-adv-x="517" d="M-83 116q22 45 64 54h5q76 0 176 109q13 14 29 48q35 81 93.5 168.5t169.5 177.5t232 90q83 -10 82 -61q0 -49 -47 -110q-48 -62 -127 -122t-155 -91q-13 -5 -14 -24q5 -55 29 -93q21 -33 70 -34h12q58 4 114 54t109 133q21 29 33 15q5 -5 5 -13q0 -12 -13 -30 q-82 -149 -224 -276q-128 -114 -251 -114q-14 0 -27 1q-57 0 -94.5 45.5t-37.5 153.5q3 22 -12 7q-51 -53 -98.5 -91t-91.5 -39h-6q-31 0 -31 20q0 9 6 22zM422 429q0 -8 4 -8q2 0 6 3q67 46 97 108q20 38 20 78q0 33 -29 33q-4 0 -9 -1q-30 -9 -47.5 -41t-24.5 -54 q-17 -52 -17 -107v-11z" />
<glyph unicode="f" horiz-adv-x="669" d="M-86 113q16 40 51 58q106 27 176.5 106.5t151.5 223.5q11 22 -7 22q-30 -1 -55 -1q-21 -2 2 29q17 22 68.5 61.5t59.5 57.5q43 94 104 236t97 182q22 25 101 60.5t166.5 67t160.5 50.5q52 14 72 14q7 0 9 -2t2 -4q0 -5 -13 -14q-17 -12 -28 -19q-78 -53 -189 -195 q-110 -136 -228 -330q-15 -21 14 -21q93 3 177 3t159 6q28 2 74 4h3q12 0 12 -4q0 -9 -62 -36q-29 -12 -132.5 -78t-208.5 -71q-13 -2 4 -26q54 -79 54 -186q0 -34 -5 -70q-16 -117 -80.5 -238.5t-151.5 -230.5q-121 -151 -258 -252q-135 -100 -218 -100h-2q-64 1 -64 52 q0 45 13 107q15 64 42.5 144t58.5 167q31 86 66 175.5t76 179.5q3 8 -0.5 11.5t-9.5 -3.5q-74 -90 -131.5 -132.5t-101.5 -42.5q-33 -1 -33 21q0 8 4 18zM262 -95q-3 -23 -3 -43q0 -43 17 -75q12 -14 31 -14q34 0 89 43q88 68 158 191q45 81 66 176q12 49 12 94q0 41 -10 79 q-27 99 -121 131q-2 1 -4 1q-12 0 -23 -19q-48 -91 -94 -198.5t-81 -215.5q-25 -78 -37 -150z" />
<glyph unicode="g" horiz-adv-x="792" d="M-166 -506q8 148 174 297.5t519 200.5q19 3 25 24q15 73 30 149t37 148q9 34 -10 9q-25 -35 -70 -87.5t-97 -102.5q-56 -53 -114 -91q-58 -37 -105 -37h-2q-59 1 -77 58q-9 28 -9 63t9 77q5 26 -16 3q-46 -49 -90 -86.5t-83 -43.5q-9 -2 -17 -2q-28 0 -28 23q0 5 2 12 q9 41 66 62q5 -1 10 -1q37 0 80 37q50 41 95 96q18 21 32 51.5t28 55.5q43 78 78.5 123.5t98.5 100.5q115 102 243 129q22 5 40 5q53 0 77 -39q32 -52 44 -151q3 -16 16 -9q36 18 122 54q43 19 58 19q9 0 9 -6q0 -4 -5 -12q-96 -150 -141 -291.5t-87 -303.5 q-49 -187 -171 -359t-310 -279q-151 -88 -267 -88q-34 0 -66 8q-128 33 -128 167v17zM20 -398q-9 -43 -9 -78q0 -78 44 -115q31 -27 76.5 -27t104.5 27q99 57 150 136t91 191q21 53 47 163q7 29 -17 30h-8q-195 0 -322 -99q-130 -101 -157 -228zM472 250q2 -1 5 -1 q39 0 164 172q18 26 48 141q13 49 13 79q0 43 -25 51q-3 1 -7 1q-20 0 -48 -31q-35 -36 -64 -95q-53 -107 -83 -207q-16 -53 -16 -80q0 -25 13 -30z" />
<glyph unicode="h" horiz-adv-x="909" d="M-92 107q10 42 64 63q6 -1 13 -1q44 0 94 42q57 48 108 120q20 29 33 67q48 149 104 288q49 123 98.5 219.5t90.5 132.5q43 39 206 97.5t248 77.5q27 6 38 6q12 -1 6 -7q-11 -12 -38 -33q-66 -54 -142.5 -155t-150.5 -223q-71 -117 -134 -239.5t-113 -248.5 q-6 -17 0 -19.5t18 12.5q50 68 114.5 161.5t135.5 138.5q202 128 268 128q6 0 11 -2q35 -8 35 -29q0 -13 -14 -32q-59 -77 -81 -167q-20 -83 -20 -147v-11q2 -69 28 -103q13 -17 32 -17t42 18q28 22 78 80q41 48 52 47q2 0 4 -2q7 -4 7 -13q1 -22 -43 -76q-60 -74 -128 -136 q-68 -63 -156 -112q-78 -44 -162 -44q-10 0 -21 1q-44 5 -57 59q-8 35 -8 73q0 20 2 41q6 60 27.5 127t47.5 121q31 65 31 83q0 4 -2 5q-9 7 -39 -30q-11 -13 -47.5 -67t-81 -116t-87 -116t-64.5 -67q-109 -68 -227 -112q-1 -1 -3 -1q-7 0 -6 17q0 20 10 65q12 58 38 153 q9 28 -8 9q-56 -63 -110 -107.5t-101 -51.5q-9 -2 -16 -2q-26 0 -26 22q0 6 2 13z" />
<glyph unicode="i" horiz-adv-x="397" d="M-90 114q10 40 65 61q7 -1 13 -1q61 0 128 74q45 46 61 90q19 54 41 96t37 67q31 51 159 95q77 27 117 27q27 0 36 -12q6 -9 -11 -19.5t-29 -22.5q-42 -42 -76 -110q-34 -69 -43 -131q-4 -27 -4 -46q0 -27 7 -42q7 -16 28 -16q13 0 31 6q39 11 146 144q26 28 26 0 q0 -22 -74 -118q-80 -103 -159 -180.5t-172 -77.5q-93 4 -101 104v13q0 45 6 86q2 20 -13 5q-106 -113 -178 -126q-8 -1 -14 -1q-29 0 -29 22q0 6 2 13zM380 741q32 54 103 111q87 69 167 96q14 5 25 5q31 0 32 -40q-1 -17 -7 -41q-24 -100 -126 -150q-30 -15 -74 -30 q-35 -12 -65 -12q-8 0 -16 1q-49 4 -49 31q0 12 10 29z" />
<glyph unicode="j" horiz-adv-x="399" d="M-293 -588q-2 7 -2 12q0 19 38 13q16 -2 32 -2q38 0 72 14q87 60 144 164.5t96 224.5q33 106 55.5 211t40.5 190q5 24 -11 7q-59 -66 -110.5 -110.5t-99.5 -53.5q-8 -1 -15 -1q-32 0 -32 27v6q5 39 61 60q6 -1 13 -1q47 0 103 49q64 56 119 135q28 101 53 148 q31 63 154 119.5t188 74.5q33 8 12 -16.5t-31 -36.5q-69 -82 -110.5 -235t-91.5 -301q-29 -89 -61.5 -173t-73.5 -161q-68 -123 -199 -242.5t-279 -144.5q-11 -2 -21 -2q-35 0 -44 25zM380 806q40 51 120 99q63 37 127 59q19 6 32 6q34 0 34 -37q0 -9 -1 -19 q-13 -74 -118 -123q-30 -15 -75 -29q-37 -13 -68 -13q-7 0 -13 1q-52 4 -52 27q0 12 14 29z" />
<glyph unicode="k" horiz-adv-x="849" d="M-98 107q10 42 64 63q65 2 148 83.5t137 193.5q32 72 54 148t49 144q38 98 76 172.5t73 106.5q22 21 87 52t142 61q102 40 194 69q72 23 94 23q6 0 8 -2q6 -7 -12.5 -18.5t-28.5 -19.5q-62 -51 -134.5 -145t-143.5 -208q-97 -155 -181 -325q-13 -27 -2 -23t25 16 q63 59 150 121q196 137 311 137h2q63 -1 73 -46q2 -8 2 -16q0 -41 -42 -97q-61 -83 -163 -133.5t-151 -68.5q-20 -7 -1 -46q35 -90 87 -111q29 -10 56 -10q42 0 79 24q61 40 113 122q25 42 40 42q3 0 5 -2q6 -3 6 -10q0 -12 -16 -37q-63 -105 -193 -243q-121 -129 -216 -130 q-7 0 -13 1q-88 3 -132 104q-40 93 -40 177v15q1 39 28 54q87 49 121.5 83t37.5 59q3 36 -37.5 20t-82.5 -50q-72 -59 -120.5 -159t-64.5 -151q-13 -36 -36 -48q-39 -20 -98 -54.5t-122 -58.5q-3 -1 -5 -1q-8 0 -8 15q0 20 14 67q12 42 26.5 89.5t31.5 101.5q4 18 -10 1 q-64 -78 -125 -127t-115 -58q-9 -2 -16 -2q-27 0 -27 22q0 6 2 13z" />
<glyph unicode="l" horiz-adv-x="431" d="M-94 108q10 40 65 62q6 -1 12 -1q47 -1 103 53q63 60 115 138q24 35 32 61.5t22 68.5q48 150 112 294q38 84 74 149t66 93q37 37 189.5 98.5t239.5 85.5q32 8 44 8q4 0 6 -1q1 -1 1 -2q0 -7 -33 -36q-66 -57 -144.5 -165t-166 -262t-128.5 -244t-61 -166q-7 -26 -6 -44 q0 -36 25 -44q9 -3 18 -3q65 0 154 129q36 54 54 54q3 0 5 -2q4 -2 4 -8q0 -21 -47 -85q-70 -98 -140.5 -178.5t-148.5 -129.5q-50 -31 -93 -31q-88 0 -91 96q-1 19 -1 38q0 72 10 125q6 34 -15 10q-60 -72 -122 -129t-113 -66q-7 -1 -12 -1q-31 0 -31 23q0 5 2 12z" />
<glyph unicode="m" horiz-adv-x="1250" d="M-92 110q10 42 66 63q7 -1 14 -1q54 0 114 61q68 69 123 159q18 30 27 57.5t24 59.5q20 45 53 81q36 38 138 83t172 69q35 12 49 12q9 0 8 -5q0 -3 -1 -5q-10 -20 -28 -43q-43 -57 -83.5 -124.5t-73.5 -156.5q-9 -25 -9 -32q0 -4 2 -4q5 0 25 27q39 54 88 109t103 93 q97 66 169 96.5t114 36.5q21 3 35 3q31 0 31 -13q0 -11 -21 -31q-51 -48 -91.5 -119.5t-67.5 -148.5q-17 -49 15 -9q41 54 85 102t101 87q109 75 208 93q25 4 46 6q20 2 35 2q38 0 38 -13q0 -8 -13 -20q-22 -21 -61.5 -87t-64.5 -139q-20 -59 -20 -110q0 -12 1 -24 q6 -59 61 -59h4h6q63 0 157 144q17 26 30 12q5 -6 5 -14q0 -11 -10 -25q-56 -92 -174.5 -235t-240.5 -155q-7 -1 -13 -1q-88 0 -116 102q-14 52 -14 104q0 57 17 114q22 74 44 118.5t35 65.5q21 38 -10 14q-87 -58 -130.5 -163t-56.5 -163q-6 -27 -6.5 -30.5t-23.5 -20.5 q-60 -43 -130 -82t-106 -51q-25 -8 -26 2t-3 36q8 142 44 244q30 96 59.5 150.5t49.5 84.5q8 12 -7 7.5t-39 -27.5q-74 -69 -139.5 -196t-107.5 -161q-61 -49 -147.5 -98.5t-162.5 -64.5q-3 -1 -6 -1q-10 0 -9 9q1 11 26 58q35 66 57 126t37 111q7 29 -10 7 q-66 -81 -131 -141t-121 -68q-9 -2 -17 -2q-27 0 -26 22q-1 5 1 12z" />
<glyph unicode="n" horiz-adv-x="814" d="M-100 108q10 40 64 61h2q74 1 154 93q80 94 121 199q17 45 23 50q36 35 128.5 84.5t154.5 70.5t55 6.5t-35 -47.5q-51 -59 -122 -250q-11 -30 -1.5 -22t19.5 22q38 51 100.5 131t119.5 119q97 66 167.5 93.5t112.5 30.5h13q30 0 40 -13q12 -16 -8 -36 q-142 -140 -168 -310q-8 -50 -7 -85q0 -73 36 -73q4 0 8 1q43 7 88 62t64 82q17 21 29 9q4 -4 3 -10q0 -14 -21 -42q-49 -72 -163.5 -197.5t-211.5 -136.5q-8 -1 -15 -1q-86 0 -114 77q-17 46 -17 95q0 40 11 81q24 87 67 160.5t68 109.5q21 30 2 21t-27 -16 q-64 -54 -149 -195.5t-130 -189.5q-49 -52 -135.5 -97t-151.5 -56h-5q-11 -1 -11 7q0 10 25 53q25 47 53 102t43 94q3 9 5 21.5t-11 -4.5q-60 -74 -119.5 -126.5t-110.5 -62.5q-7 -1 -12 -1q-32 0 -32 24q0 6 1 12z" />
<glyph unicode="o" horiz-adv-x="689" d="M-96 110q10 40 65 61h5q57 0 124 70q70 73 126 163q55 129 194 251t298 130q142 -3 147 -131q0 -12 1 -25q0 -116 -43 -236q-61 -173 -185 -292q-133 -122 -258 -122h-10q-92 5 -147 75q-43 54 -43 141q0 25 4 53q2 20 -12 4q-60 -69 -117.5 -118t-107.5 -58 q-8 -1 -14 -1q-29 0 -29 22q0 6 2 13zM527 295q-1 -10 -1 -19q0 -78 39 -82h5q40 0 93 78q37 54 65.5 122.5t42.5 126.5q17 65 17 116v9q-2 55 -34 55q-32 -2 -88 -62q-72 -73 -107 -171q-22 -63 -27 -108.5t-5 -64.5z" />
<glyph unicode="p" horiz-adv-x="903" d="M-204 -568h-3q-8 0 -8 4t14 15q59 47 131 178.5t141 289.5q41 93 78.5 188.5t68.5 179.5q3 7 -1.5 7.5t-7.5 -3.5q-66 -83 -133 -143t-123 -71q-7 -1 -12 -1q-31 0 -31 23q0 6 2 13q10 40 65 61q8 -2 17 -2q66 0 155 116q101 131 145 228t109 201q23 25 115.5 63.5 t201.5 66.5q88 22 111 22q6 0 8 -1q6 -6 -11.5 -17.5t-28.5 -18.5q-98 -67 -181 -174.5t-153 -228.5q-6 -9 -4 -15.5t10 3.5q117 154 247 239q89 58 182 58q44 0 88 -13q73 -28 73 -110q0 -65 -45 -163q-90 -187 -232 -327q-123 -121 -294 -121q-27 0 -55 3q-76 13 -103 85 q-7 23 -22 -12q-29 -70 -69 -209.5t-57 -204.5q-8 -29 -139 -104.5t-210 -98.5q-17 -5 -39 -6zM427 164q-1 -11 -1 -21q0 -88 58 -89q40 1 91.5 73t104 189.5t56.5 179.5v12q0 38 -22 38q-9 0 -22 -6q-48 -23 -131 -117q-127 -151 -134 -259z" />
<glyph unicode="q" horiz-adv-x="755" d="M-94 110q11 41 66 62h5q50 0 109 56q62 59 115 138q84 123 214 262q123 130 283 130h19q132 -6 132 -183l-1 -37q0 -8 11 -8q15 0 48 12q25 10 36 10q9 0 9 -6q0 -5 -6 -14q-8 -12 -64 -112t-116 -225q-75 -151 -121 -286q-20 -59 -20 -94q0 -45 33 -49h4q41 0 137 71 q47 37 63 37q7 0 7 -8q0 -22 -54 -81q-29 -31 -99.5 -103t-150 -145.5t-151.5 -128.5q-71 -55 -104 -55h-1q-38 2 -38 65q0 23 5 54q19 116 50 195q20 53 45 114.5t88 184.5q24 48 56.5 108.5t74.5 138.5q6 10 4 18.5t-20 -11.5q-57 -65 -146 -139.5t-172 -79.5h-6 q-69 0 -87 63q-8 28 -8 63q0 46 14 102q5 26 -10 8q-56 -64 -110 -108t-101 -53q-7 -1 -12 -1q-31 0 -31 23q0 6 1 12zM473 270q-2 -12 -2 -22q0 -28 16 -33q2 -1 5 -1q34 0 124 134q47 71 74.5 128.5t36.5 121.5q3 22 3 39q0 59 -32 64h-6q-25 0 -58 -31q-38 -35 -64 -92 q-59 -124 -85 -239q-5 -20 -12 -69z" />
<glyph unicode="r" horiz-adv-x="574" d="M-106 108q10 40 66 62h5q52 0 112 59q63 62 117 143q95 143 116 235q1 9 -8 7q-33 -10 -47 3t21 46q34 32 74 49q46 18 122 36.5t145 27.5q41 5 73 5q21 0 39 -2q43 -6 23 -35q-51 -51 -80.5 -97t-56.5 -99q-16 -32 -28 -92q-9 -44 -9 -84q0 -16 2 -30q4 -54 30 -82 q13 -15 32 -15q18 0 40 14q46 28 117 128q26 41 37 25q2 -3 2 -9q0 -19 -30 -60q-96 -153 -184.5 -245t-186.5 -98h-5q-78 0 -106 88q-12 38 -13 83q1 63 25 139q42 130 163 271q44 36 15 48q-23 10 -61 10q-9 0 -20 -1q-14 -2 -21 -14q-34 -63 -81.5 -138t-101.5 -147 q-75 -99 -152.5 -175.5t-142.5 -88.5q-8 -1 -14 -1q-29 0 -29 22q-1 5 1 12z" />
<glyph unicode="s" horiz-adv-x="507" d="M-98 108q10 40 66 62h4q83 0 194 145q113 149 156 257q39 93 133 146t182 92q80 34 101 34q7 0 7 -5q0 -14 -38 -49q-105 -100 -124 -167q-4 -48 -4 -112q-1 -75 5 -169q2 -27 3 -50q0 -134 -51 -182q-59 -56 -164.5 -86t-168.5 -36q-28 -5 -48 -5q-37 -1 -47 17 q-3 5 -3 10q0 19 52 24q97 22 127 78t30 157q0 81 -2 159q0 19 -11 4q-75 -114 -180 -230.5t-177 -127.5q-7 -1 -12 -1q-31 0 -31 23q-1 5 1 12z" />
<glyph unicode="t" horiz-adv-x="501" d="M-94 108q11 40 65 61q5 -1 10 -1q39 0 83 36q50 40 97 103q73 95 125 206q36 80 73 156.5t93 179.5q8 16 -10 16l-63 1q-44 2 -18 23q16 12 38 33.5t82 30.5q16 4 19 12q13 34 49 55q83 48 247 101q133 43 167 44q8 0 11 -3q7 -6 -10.5 -17.5t-27.5 -19.5 q-48 -37 -78 -65.5t-55 -67.5q-14 -21 3 -20q312 25 472 41t204 22q16 5 16 -4q0 -8 -15 -21q-84 -96 -170 -120q-80 -23 -267 -23h-31q-136 -1 -209 -1h-58q-23 0 -34 -20q-62 -102 -111.5 -200.5t-77.5 -166.5q-38 -94 -38 -151q-1 -11 1 -20q8 -59 48 -71q8 -2 17 -2 q67 0 156 135q20 28 25 11t-16 -49q-48 -82 -122 -165.5t-144 -129.5q-59 -38 -124 -38q-13 0 -25 1q-69 5 -81 111q-3 31 -3 61q0 74 20 145q8 35 -11 8q-72 -93 -145.5 -166.5t-134.5 -85.5q-7 -1 -13 -1q-31 0 -31 23q0 6 2 13z" />
<glyph unicode="u" horiz-adv-x="873" d="M-98 110q10 40 65 61q7 -1 13 -1q46 0 100 48q60 54 113 131q18 27 28.5 51.5t23.5 54.5q47 109 84 145q27 27 132.5 66.5t168.5 45.5q8 1 15 1q24 0 24 -10t-26 -30q-61 -48 -141 -217q-67 -142 -68 -198q0 -11 3 -18q6 -12 17 -12q26 0 80 68q76 98 155 221 q22 34 37.5 61.5t51.5 48.5q112 61 271 95q16 3 27 3q10 0 17 -2q15 -5 -10 -25q-68 -58 -113.5 -140t-61.5 -196q-4 -26 -4 -46q0 -69 43 -76h5q57 0 144 157q16 29 32 19q5 -3 5 -11q0 -17 -25 -57q-72 -124 -167.5 -231t-194.5 -115h-2q-104 0 -126 94q-8 36 -8 81 q0 76 24 177q4 25 -9 6q-51 -67 -138.5 -215t-186.5 -148q-79 2 -106 70q-16 40 -16 96q0 40 8 88q3 26 -12 8q-60 -72 -120 -123.5t-111 -60.5q-7 -1 -12 -1q-31 0 -31 23q0 6 2 13z" />
<glyph unicode="v" horiz-adv-x="598" d="M164 316q4 89 17.5 160t19.5 92q9 41 129.5 106.5t197.5 83.5q48 12 46.5 1.5t-25.5 -37.5q-33 -38 -68.5 -121t-61.5 -169q-23 -75 -35.5 -136.5t-14.5 -84.5q-5 -48 25 -28t73.5 74t91 125t78.5 125q66 116 87 211q7 30 7 54q0 51 -31 74q-30 21 -23.5 33t47.5 37 q78 46 171 57q5 1 10 1q38 0 39 -41q0 -42 -41 -126q-51 -105 -145.5 -248t-187.5 -269q-31 -41 -132 -170q-94 -120 -159 -120q-5 0 -10 1q-75 11 -91 97q-14 72 -14 178v40z" />
<glyph unicode="w" horiz-adv-x="1051" d="M172 76q-6 43 -6 86q0 122 44 250q59 174 97 210q30 29 148 73t186 49h7q23 0 23 -11q0 -9 -17 -26q-74 -71 -164 -230q-70 -122 -70 -190q0 -20 7 -36q8 -20 21 -20q20 0 54 46q56 76 122 175q16 24 57 83.5t64 74.5q39 27 90.5 53t87.5 27q48 0 14 -33 q-77 -72 -108 -224q-19 -94 -19 -155q0 -37 7 -61q12 -40 39 -40q24 1 62 33q80 68 154 193t110 262q13 50 13 89q0 70 -41 109q-27 26 -22 36t47 36q78 47 151 65q6 2 12 2q35 0 35 -64q0 -43 -16 -114q-10 -43 -79 -175.5t-166 -275.5t-205 -256.5t-194 -116.5h-7 q-47 0 -78 37q-37 45 -38 121v9q0 72 17 145q11 52 -19 9q-45 -66 -90.5 -130t-84.5 -105q-61 -65 -135 -91q-14 -5 -28 -5q-53 0 -82 86z" />
<glyph unicode="x" horiz-adv-x="756" d="M-71 -227q0 20 43 80q33 48 139 161.5t236 245.5q14 15 16 38q1 57 8 99q3 24 3 39q0 28 -11 28q-13 0 -43 -38q-68 -88 -154 -167q-47 -43 -61 -43q-3 0 -5 3q-1 2 -2 5q0 16 35 56q57 66 127.5 171.5t101.5 142.5q64 78 115 109t87 33q39 0 52 -21t12 -57 q-6 -36 -12 -104q0 -24 21 -3q98 96 167.5 161t88.5 76q30 17 80.5 35t99.5 22h15q41 0 41 -15v-1q-2 -19 -31 -27q-39 -11 -158.5 -113t-293.5 -252q-20 -16 -16 -37q13 -73 50.5 -123t80.5 -53h5q82 0 171 117q26 32 36.5 21.5t-4.5 -29.5q-107 -149 -215 -253 q-94 -91 -199 -90q-16 0 -33 2q-52 3 -95 57.5t-55 124.5q-2 18 -15 7q-39 -42 -162.5 -169t-200.5 -203q-46 -44 -59 -44q-6 0 -6 8z" />
<glyph unicode="y" horiz-adv-x="836" d="M-164 -479q13 81 81.5 171t198.5 164q174 97 420 130q10 2 13 13q11 41 21.5 84t21.5 86q24 101 47 169q5 16 0.5 20t-14.5 -11q-75 -104 -190 -229q-110 -118 -190 -118h-8q-65 3 -81 63q-7 28 -7 61q0 39 10 86q5 26 -13 6q-115 -126 -194 -141q-7 -1 -13 -1 q-30 0 -30 23q0 5 1 12q11 40 66 61h3q54 0 119 62q68 63 119 150q28 47 60.5 113.5t72.5 104.5q26 24 122.5 60.5t162.5 45.5q13 2 21 2q18 0 18 -8q0 -10 -28 -32q-63 -50 -142 -194q-70 -124 -70 -193q0 -10 2 -19q4 -25 18 -25q16 0 46 33q55 63 118 155q48 70 91 135 t63 84q30 28 141.5 63t160.5 37q31 0 31 -12q0 -8 -13 -21q-78 -54 -147 -211t-120 -319q-73 -226 -150.5 -421.5t-322.5 -348.5q-73 -45 -174 -80q-76 -26 -143 -26q-22 0 -44 3q-87 13 -127 72q-31 46 -31 105q0 17 3 36zM23 -447q-2 -17 -2 -32q0 -55 22 -97 q28 -54 89 -57q103 2 184.5 89t127.5 200q29 61 48.5 123t35.5 128q1 3 1 5q0 8 -8 9q-22 1 -44 1q-126 0 -227 -50q-108 -47 -163.5 -139.5t-63.5 -179.5z" />
<glyph unicode="z" horiz-adv-x="665" d="M-34 -556q-6 19 -5 41q0 27 8 55q15 54 44.5 105.5t47.5 75.5q63 85 159.5 171t222.5 151q16 8 0 16q-32 17 -70 17q-25 0 -53 -8q-69 -20 -103 -77q-1 -3 -7 -3q-16 0 -74 31q-30 16 -31 45q0 44 69 116q63 68 147.5 130.5t141.5 100.5q33 23 9 32q-34 11 -65 11 q-21 0 -40 -5q-60 -15 -102 -61t-54 -65q-17 -23 -26 -11q-2 2 -2 6q0 17 32 63q31 45 71 112.5t94 122.5t126 80q28 10 59 10q50 0 108 -25q55 -23 91 -29q7 -1 14 -1q33 0 77 20q13 5 19 -5q2 -3 1 -7q0 -9 -8 -23q-104 -160 -279.5 -228t-273.5 -224q-21 -33 16 -6 q54 39 115.5 57.5t114.5 19.5q109 0 146.5 -44t40.5 -98v-11q0 -115 -116 -262q-122 -154 -182 -213q-42 -45 -172 -141q-122 -90 -220 -89h-12q-67 5 -79 47zM134 -377q-1 -9 0 -17q0 -81 62 -85h6q66 0 149 79q89 90 127 185q27 72 27 138q0 34 -7 65q-4 12 -12 12h-3 q-86 -25 -150.5 -72t-107.5 -103q-84 -104 -91 -202z" />
<glyph unicode="{" horiz-adv-x="804" d="M-100.5 107q10.5 40 65.5 61q60 -9 129.5 61t124.5 161q55 196 143 393q83 186 139 242q24 23 99 58t158 66.5t151 52t77 13.5q6 -6 -11 -17.5t-27 -19.5q-66 -58 -144 -165.5t-151 -233.5q-76 -128 -132 -250q-38 -81 -71 -185t-39 -201h1q-8 -111 32 -191.5t166 -71.5 q130 9 281 132.5t217 295.5q27 63 27 60t30 -93q31 -92 -100.5 -210.5t-311.5 -189t-350.5 -55.5t-217.5 192q-11 44 -11 95q-4 57 10 138q5 31 -13 10q-60 -72 -119.5 -122.5t-110.5 -59.5q-52 -6 -41.5 34z" />
<glyph unicode="|" horiz-adv-x="827" d="M-101.5 108.5q10.5 40.5 65.5 61.5q69 -3 150.5 88.5t129.5 190.5q29 72 54.5 143t52.5 132q9 20 -13 22q-43 0 -59 2q-48 0 -26 27q15 16 51 50.5t108 40.5q11 1 21 15q25 41 47 60q24 23 95.5 56t149.5 61.5t142 46.5t73 11q6 -6 -11.5 -17.5t-27.5 -19.5 q-87 -68 -178 -197q-16 -21 8 -21q93 0 183 5t147 20q84 23 92 21t-61 -45q-79 -50 -195.5 -75t-233.5 -34q-26 -3 -39 -26q-62 -106 -114 -223t-76 -236q-59 -275 13 -358.5t205 -61.5t267 133.5t194 271.5q27 63 27 60t30 -93q33 -98 -133 -236t-328.5 -183.5t-307 -10.5 t-187 186t-13.5 299q6 28 -16 0q-58 -73 -123.5 -132t-121.5 -69q-52 -6 -41.5 34.5z" />
<glyph unicode="}" horiz-adv-x="1515" d="M-99.5 111q10.5 40 65.5 61q66 -9 143.5 76t133.5 187q26 99 78 154q37 39 141.5 86.5t174.5 67.5q73 20 53 4.5t-35 -38.5q-43 -64 -85.5 -141t-76.5 -175q-17 -46 12 -4q40 58 101 132.5t121 116.5q71 50 145.5 73.5t122.5 26.5q83 3 44 -34q-52 -49 -93 -122t-67 -151 q-3 -9 -4.5 -20.5t15.5 10.5q44 59 83.5 101t46.5 48q88 72 143 100.5t173 38.5q77 6 53 -18q-52 -50 -101 -143.5t-79 -200.5q-33 -123 -30 -240t67 -184q101 -106 288.5 -31.5t345.5 404.5q30 62 27.5 59t29.5 -92q30 -87 -78 -205.5t-277 -190.5q-166 -70 -330.5 -68.5 t-250.5 109.5q-49 61 -60 151t6 184q31 179 125 280q5 6 0 11t-7 4q-85 -61 -141.5 -169.5t-75.5 -174.5q-10 -36 -8.5 -39t-25.5 -23q-51 -37 -116.5 -75t-104.5 -55q-37 -14 -37 -7q-5 75 6 145.5t30 132.5q24 84 56.5 147t53.5 96q8 12 -7 7.5t-39 -27.5 q-74 -69 -139.5 -196t-107.5 -161q-60 -49 -147 -98.5t-163 -64.5q-16 -2 -15 8.5t27 57.5q62 120 93 237q8 28 -15 2q-65 -81 -128.5 -137.5t-118.5 -66.5q-52 -6 -41.5 34z" />
<glyph unicode="~" horiz-adv-x="1028" d="M-97 108.5q12 40.5 68 61.5q103 -15 195 128q27 42 71 125t102 150q161 185 308.5 221.5t130.5 -197.5q-3 -22 74.5 19.5t56.5 5.5q-38 -62 -76.5 -140t-56.5 -159q-44 -155 2.5 -292t220.5 -117q129 15 264 136.5t195 283.5q27 63 27 60.5t30 -92.5q25 -78 -60.5 -174.5 t-220.5 -169.5q-100 -54 -212 -86.5t-212 -27.5q-127 -2 -201 81.5t-74 259.5q-1 108 31 188q10 28 -19 -3q-72 -81 -140 -180t-95 -126q-97 -97 -151 -52t-30 173q7 25 -8 10q-107 -107 -180 -120q-52 -7 -40 33.5zM462.5 354q15.5 -14 94.5 96q96 135 91 225.5t-83 2.5 q-20 -22 -53 -101t-49 -144t-0.5 -79z" />
<glyph unicode="&#xa8;" horiz-adv-x="1024" />
<glyph unicode="&#xa9;" horiz-adv-x="750" />
<glyph unicode="&#xad;" horiz-adv-x="859" d="M326.5 637.5q-11.5 22.5 32.5 46.5q37 21 106 69.5t108 69.5q118 63 229.5 6.5t169.5 7.5q20 22 41.5 12.5t-29.5 -45.5q-134 -93 -191.5 -132t-127.5 -48q-61 -8 -153.5 26.5t-144.5 -10.5q-29 -25 -40.5 -2.5z" />
<glyph unicode="&#xae;" horiz-adv-x="750" />
<glyph unicode="&#xb4;" horiz-adv-x="1024" />
<glyph unicode="&#xb6;" horiz-adv-x="1024" d="M93 1086q0 157 107.5 253t285.5 96h443v-70h-127v-1365h-82v1365h-166v-1365h-84v738q-174 8 -275.5 102.5t-101.5 245.5z" />
<glyph unicode="&#xbc;" horiz-adv-x="1780" />
<glyph unicode="&#xbd;" horiz-adv-x="1780" />
<glyph unicode="&#xbe;" horiz-adv-x="1780" />
<glyph unicode="&#xc0;" d="M-113 -149q-11 19 26 54q72 69 192 163.5t278 252.5q126 123 124.5 141t14.5 51q29 61 84 100.5t127 70.5q124 129 219 242.5t131 188.5q12 73 33 118.5t152 113t222 102t106 29.5q42 -16 10 -35q-60 -37 -100 -132.5t-60 -218.5q-29 -181 -16 -383q1 -33 21 -33 q142 -13 269.5 0t203.5 89q22 22 33 10t-7 -28q-244 -219 -453 -278q-29 -9 -18 -45q45 -135 112 -195q85 -63 175 -13.5t153 148.5q24 38 31.5 16.5t-9.5 -44.5q-111 -161 -244 -264t-267 -125q-138 -14 -213 110q-45 74 -77.5 182.5t-50.5 231.5q-6 32 -30 43 q-73 33 -140.5 62t-133.5 32q-48 1 -80 -34l-261 -295q-225 -262 -261 -336q-39 -14 -115.5 -49t-151.5 -57q-18 -5 -29 14zM865 747q-27 -30 10 -26q60 6 165 0q23 -2 22 30q-5 93 0 177q1 27 -17 9q-95 -98 -180 -190zM935 2086q1 7 12 -4.5t17 -18.5q41 -46 130 -102 t196.5 -107.5t218 -90t193.5 -47.5q16 -6 40 -23t34 -35t-5.5 -33t-77.5 -17q-47 -1 -124 8.5t-155.5 25.5t-146 36.5t-95.5 39.5q-18 12 -57.5 68t-80 120t-70.5 118t-29 62z" />
<glyph unicode="&#xc1;" d="M-113 -149q-11 19 26 54q72 69 192 163.5t278 252.5q126 123 124.5 141t14.5 51q29 61 84 100.5t127 70.5q124 129 219 242.5t131 188.5q12 73 33 118.5t152 113t222 102t106 29.5q42 -16 10 -35q-60 -37 -100 -132.5t-60 -218.5q-29 -181 -16 -383q1 -33 21 -33 q142 -13 269.5 0t203.5 89q22 22 33 10t-7 -28q-244 -219 -453 -278q-29 -9 -18 -45q45 -135 112 -195q85 -63 175 -13.5t153 148.5q24 38 31.5 16.5t-9.5 -44.5q-111 -161 -244 -264t-267 -125q-138 -14 -213 110q-45 74 -77.5 182.5t-50.5 231.5q-6 32 -30 43 q-73 33 -140.5 62t-133.5 32q-48 1 -80 -34l-261 -295q-225 -262 -261 -336q-39 -14 -115.5 -49t-151.5 -57q-18 -5 -29 14zM865 747q-27 -30 10 -26q60 6 165 0q23 -2 22 30q-5 93 0 177q1 27 -17 9q-95 -98 -180 -190zM1264 1648q10 18 34 35t40 23q84 9 194 47.5 t217.5 90t196.5 107.5t131 102q5 7 16 18.5t12 4.5q1 -8 -29 -62t-70 -118t-80 -120t-58 -68q-28 -19 -95.5 -39.5t-146 -36.5t-155.5 -25.5t-124 -8.5q-62 2 -77.5 17t-5.5 33z" />
<glyph unicode="&#xc2;" d="M-113 -149q-11 19 26 54q72 69 192 163.5t278 252.5q126 123 124.5 141t14.5 51q29 61 84 100.5t127 70.5q124 129 219 242.5t131 188.5q12 73 33 118.5t152 113t222 102t106 29.5q42 -16 10 -35q-60 -37 -100 -132.5t-60 -218.5q-29 -181 -16 -383q1 -33 21 -33 q142 -13 269.5 0t203.5 89q22 22 33 10t-7 -28q-244 -219 -453 -278q-29 -9 -18 -45q45 -135 112 -195q85 -63 175 -13.5t153 148.5q24 38 31.5 16.5t-9.5 -44.5q-111 -161 -244 -264t-267 -125q-138 -14 -213 110q-45 74 -77.5 182.5t-50.5 231.5q-6 32 -30 43 q-73 33 -140.5 62t-133.5 32q-48 1 -80 -34l-261 -295q-225 -262 -261 -336q-39 -14 -115.5 -49t-151.5 -57q-18 -5 -29 14zM865 747q-27 -30 10 -26q60 6 165 0q23 -2 22 30q-5 93 0 177q1 27 -17 9q-95 -98 -180 -190zM1008.5 1424.5q-6.5 41.5 37.5 55.5q52 16 169 110 q94 75 191 175q12 14 23 27q71 85 114 196q3 10 14.5 23.5t41.5 -3.5q0 -19 -5 -31t3 -39t37 -82t73 -113t112 -110l31 34l25 -15l-153 -176q-111 110 -168 205q-40 78 -54 97q-92 -109 -207 -216q-121 -111 -241 -164q-37 -15 -43.5 26.5z" />
<glyph unicode="&#xc3;" d="M-113 -149q-11 19 26 54q72 69 192 163.5t278 252.5q126 123 124.5 141t14.5 51q29 61 84 100.5t127 70.5q124 129 219 242.5t131 188.5q12 73 33 118.5t152 113t222 102t106 29.5q42 -16 10 -35q-60 -37 -100 -132.5t-60 -218.5q-29 -181 -16 -383q1 -33 21 -33 q142 -13 269.5 0t203.5 89q22 22 33 10t-7 -28q-244 -219 -453 -278q-29 -9 -18 -45q45 -135 112 -195q85 -63 175 -13.5t153 148.5q24 38 31.5 16.5t-9.5 -44.5q-111 -161 -244 -264t-267 -125q-138 -14 -213 110q-45 74 -77.5 182.5t-50.5 231.5q-6 32 -30 43 q-73 33 -140.5 62t-133.5 32q-48 1 -80 -34l-261 -295q-225 -262 -261 -336q-39 -14 -115.5 -49t-151.5 -57q-18 -5 -29 14zM865 747q-27 -30 10 -26q60 6 165 0q23 -2 22 30q-5 93 0 177q1 27 -17 9q-95 -98 -180 -190zM1153.5 1613.5q-1.5 21.5 27.5 40.5 q70 60 134.5 93.5t133.5 37t143.5 -32.5t135.5 -52t136 -8.5t80 58t-100 41.5q79 21 111 -14.5t5 -88t-121.5 -76.5t-149 -18.5t-99.5 10t-113 28.5q-89 31 -145.5 54.5t-151.5 -66.5q-25 -28 -26.5 -6.5z" />
<glyph unicode="&#xc8;" horiz-adv-x="1243" d="M130 55q-32 108 38.5 247t231.5 273q166 138 407 216q45 14 -2 21q-117 12 -206.5 32.5t-116.5 43.5q-58 44 43 179q48 65 141 141.5t239 151.5q111 57 285 81t319 9q144 -16 213.5 -73.5t-26.5 -162.5q-49 -54 -125 -102t-109 -62q-11 -5 -16.5 1t-1.5 10 q70 85 -24.5 127t-241.5 50q-126 6 -252.5 -8.5t-183.5 -44.5q-77 -42 -22.5 -66t165.5 -39q110 -15 237 -27t195 -27q6 -2 -22.5 -38.5t-67.5 -80t-77.5 -79t-53.5 -35.5q-104 0 -201.5 -34t-187.5 -80q-198 -101 -205 -242t100 -236q89 -67 266 -72.5t309 38t215 118.5 t138 171q23 36 41.5 28.5t-2.5 -40.5q-135 -232 -353 -401q-318 -227 -626 -219q-211 -1 -322 67.5t-138 163.5zM715 2064q1 7 12 -4.5t17 -18.5q41 -46 130 -102t196.5 -107.5t218 -90t193.5 -47.5q16 -6 40 -23t34 -35t-5.5 -33t-77.5 -17q-47 -1 -124 8.5t-155.5 25.5 t-146 36.5t-95.5 39.5q-18 12 -57.5 68t-80 120t-70.5 118t-29 62z" />
<glyph unicode="&#xc9;" horiz-adv-x="1243" d="M130 55q-32 108 38.5 247t231.5 273q166 138 407 216q45 14 -2 21q-117 12 -206.5 32.5t-116.5 43.5q-58 44 43 179q48 65 141 141.5t239 151.5q111 57 285 81t319 9q144 -16 213.5 -73.5t-26.5 -162.5q-49 -54 -125 -102t-109 -62q-11 -5 -16.5 1t-1.5 10 q70 85 -24.5 127t-241.5 50q-126 6 -252.5 -8.5t-183.5 -44.5q-77 -42 -22.5 -66t165.5 -39q110 -15 237 -27t195 -27q6 -2 -22.5 -38.5t-67.5 -80t-77.5 -79t-53.5 -35.5q-104 0 -201.5 -34t-187.5 -80q-198 -101 -205 -242t100 -236q89 -67 266 -72.5t309 38t215 118.5 t138 171q23 36 41.5 28.5t-2.5 -40.5q-135 -232 -353 -401q-318 -227 -626 -219q-211 -1 -322 67.5t-138 163.5zM1285 1648q10 18 34 35t40 23q84 9 194 47.5t217.5 90t196.5 107.5t131 102q5 7 16 18.5t12 4.5q1 -8 -29 -62t-70 -118t-80 -120t-58 -68q-28 -19 -95.5 -39.5 t-146 -36.5t-155.5 -25.5t-124 -8.5q-62 2 -77.5 17t-5.5 33z" />
<glyph unicode="&#xca;" horiz-adv-x="1243" d="M130 55q-32 108 38.5 247t231.5 273q166 138 407 216q45 14 -2 21q-117 12 -206.5 32.5t-116.5 43.5q-58 44 43 179q48 65 141 141.5t239 151.5q111 57 285 81t319 9q144 -16 213.5 -73.5t-26.5 -162.5q-49 -54 -125 -102t-109 -62q-11 -5 -16.5 1t-1.5 10 q70 85 -24.5 127t-241.5 50q-126 6 -252.5 -8.5t-183.5 -44.5q-77 -42 -22.5 -66t165.5 -39q110 -15 237 -27t195 -27q6 -2 -22.5 -38.5t-67.5 -80t-77.5 -79t-53.5 -35.5q-104 0 -201.5 -34t-187.5 -80q-198 -101 -205 -242t100 -236q89 -67 266 -72.5t309 38t215 118.5 t138 171q23 36 41.5 28.5t-2.5 -40.5q-135 -232 -353 -401q-318 -227 -626 -219q-211 -1 -322 67.5t-138 163.5zM952.5 1544.5q-6.5 41.5 37.5 55.5q52 16 169 110q94 75 191 175q12 14 23 27q71 85 114 196q3 10 14.5 23.5t41.5 -3.5q0 -19 -5 -31t3 -39t37 -82t73 -113 t112 -110l31 34l25 -15l-153 -176q-111 110 -168 205q-40 78 -54 97q-92 -109 -207 -216q-121 -111 -241 -164q-37 -15 -43.5 26.5z" />
<glyph unicode="&#xcc;" horiz-adv-x="1548" d="M157 188q5 81 91.5 132t149.5 79q30 13 28.5 -9t1.5 -49q10 -111 90.5 -198t199.5 -120t260 1t273 165q283 283 324 578t-1 404q-51 132 -169.5 165.5t-240.5 -41.5q-120 -73 -153 -177.5t4 -170.5q46 -84 167.5 -80.5t200.5 174.5q22 47 36 18t-18 -75 q-44 -65 -144 -148t-206.5 -134t-194.5 -43.5t-109 124.5q-17 89 43.5 201.5t172 213.5t263 173t318.5 80q173 8 243 -56.5t89 -147.5q23 -105 -20 -272.5t-145 -347.5t-260 -347t-363 -270q-168 -84 -337 -111t-304 -3q-135 25 -216 98.5t-74 193.5zM993 2064q1 7 12 -4.5 t17 -18.5q41 -46 130 -102t196.5 -107.5t218 -90t193.5 -47.5q16 -6 40 -23t34 -35t-5.5 -33t-77.5 -17q-47 -1 -124 8.5t-155.5 25.5t-146 36.5t-95.5 39.5q-18 12 -57.5 68t-80 120t-70.5 118t-29 62z" />
<glyph unicode="&#xcd;" horiz-adv-x="1548" d="M157 188q5 81 91.5 132t149.5 79q30 13 28.5 -9t1.5 -49q10 -111 90.5 -198t199.5 -120t260 1t273 165q283 283 324 578t-1 404q-51 132 -169.5 165.5t-240.5 -41.5q-120 -73 -153 -177.5t4 -170.5q46 -84 167.5 -80.5t200.5 174.5q22 47 36 18t-18 -75 q-44 -65 -144 -148t-206.5 -134t-194.5 -43.5t-109 124.5q-17 89 43.5 201.5t172 213.5t263 173t318.5 80q173 8 243 -56.5t89 -147.5q23 -105 -20 -272.5t-145 -347.5t-260 -347t-363 -270q-168 -84 -337 -111t-304 -3q-135 25 -216 98.5t-74 193.5zM1443 1648q10 18 34 35 t40 23q84 9 194 47.5t217.5 90t196.5 107.5t131 102q5 7 16 18.5t12 4.5q1 -8 -29 -62t-70 -118t-80 -120t-58 -68q-28 -19 -95.5 -39.5t-146 -36.5t-155.5 -25.5t-124 -8.5q-62 2 -77.5 17t-5.5 33z" />
<glyph unicode="&#xd2;" horiz-adv-x="1632" d="M231 198.5q-110 303.5 95 648.5q93 157 243.5 295.5t345.5 228.5q65 30 147 58t165 16q120 73 253 69q138 -3 258 -85.5t180 -218.5q77 -176 18 -417.5t-340 -496.5q-189 -197 -421 -292.5t-434 -99.5q-400 -9 -510 294.5zM500 785.5q-24 -263.5 99 -458.5 q74 -118 188.5 -190.5t249.5 -71.5q118 1 245 69.5t248 224.5q88 136 109 305t-28 313q-67 196 -208.5 277.5t-279.5 57.5q-130 -24 -223 -136.5t-84 -306.5q6 -149 91.5 -278t205.5 -130q120 0 228 146q15 20 28 -7t-9 -45q-84 -69 -219.5 -160t-266.5 -97 q-167 -9 -236.5 135t-45.5 294q27 168 133 326t220 240q31 22 29 27.5t-38 -10.5q-79 -36 -164 -93q-248 -168 -272 -431.5zM1005 2086q1 7 12 -4.5t17 -18.5q41 -46 130 -102t196.5 -107.5t218 -90t193.5 -47.5q16 -6 40 -23t34 -35t-5.5 -33t-77.5 -17q-47 -1 -124 8.5 t-155.5 25.5t-146 36.5t-95.5 39.5q-18 12 -57.5 68t-80 120t-70.5 118t-29 62z" />
<glyph unicode="&#xd3;" horiz-adv-x="1632" d="M231 198.5q-110 303.5 95 648.5q93 157 243.5 295.5t345.5 228.5q65 30 147 58t165 16q120 73 253 69q138 -3 258 -85.5t180 -218.5q77 -176 18 -417.5t-340 -496.5q-189 -197 -421 -292.5t-434 -99.5q-400 -9 -510 294.5zM500 785.5q-24 -263.5 99 -458.5 q74 -118 188.5 -190.5t249.5 -71.5q118 1 245 69.5t248 224.5q88 136 109 305t-28 313q-67 196 -208.5 277.5t-279.5 57.5q-130 -24 -223 -136.5t-84 -306.5q6 -149 91.5 -278t205.5 -130q120 0 228 146q15 20 28 -7t-9 -45q-84 -69 -219.5 -160t-266.5 -97 q-167 -9 -236.5 135t-45.5 294q27 168 133 326t220 240q31 22 29 27.5t-38 -10.5q-79 -36 -164 -93q-248 -168 -272 -431.5zM1334 1648q10 18 34 35t40 23q84 9 194 47.5t217.5 90t196.5 107.5t131 102q5 7 16 18.5t12 4.5q1 -8 -29 -62t-70 -118t-80 -120t-58 -68 q-28 -19 -95.5 -39.5t-146 -36.5t-155.5 -25.5t-124 -8.5q-62 2 -77.5 17t-5.5 33z" />
<glyph unicode="&#xd4;" horiz-adv-x="1632" d="M231 198.5q-110 303.5 95 648.5q93 157 243.5 295.5t345.5 228.5q65 30 147 58t165 16q120 73 253 69q138 -3 258 -85.5t180 -218.5q77 -176 18 -417.5t-340 -496.5q-189 -197 -421 -292.5t-434 -99.5q-400 -9 -510 294.5zM500 785.5q-24 -263.5 99 -458.5 q74 -118 188.5 -190.5t249.5 -71.5q118 1 245 69.5t248 224.5q88 136 109 305t-28 313q-67 196 -208.5 277.5t-279.5 57.5q-130 -24 -223 -136.5t-84 -306.5q6 -149 91.5 -278t205.5 -130q120 0 228 146q15 20 28 -7t-9 -45q-84 -69 -219.5 -160t-266.5 -97 q-167 -9 -236.5 135t-45.5 294q27 168 133 326t220 240q31 22 29 27.5t-38 -10.5q-79 -36 -164 -93q-248 -168 -272 -431.5zM1001.5 1544.5q-6.5 41.5 37.5 55.5q52 16 169 110q94 75 191 175q12 14 23 27q71 85 114 196q3 10 14.5 23.5t41.5 -3.5q0 -19 -5 -31t3 -39 t37 -82t73 -113t112 -110l31 34l25 -15l-153 -176q-111 110 -168 205q-40 78 -54 97q-92 -109 -207 -216q-121 -111 -241 -164q-37 -15 -43.5 26.5z" />
<glyph unicode="&#xd5;" horiz-adv-x="1632" d="M231 198.5q-110 303.5 95 648.5q93 157 243.5 295.5t345.5 228.5q65 30 147 58t165 16q120 73 253 69q138 -3 258 -85.5t180 -218.5q77 -176 18 -417.5t-340 -496.5q-189 -197 -421 -292.5t-434 -99.5q-400 -9 -510 294.5zM500 785.5q-24 -263.5 99 -458.5 q74 -118 188.5 -190.5t249.5 -71.5q118 1 245 69.5t248 224.5q88 136 109 305t-28 313q-67 196 -208.5 277.5t-279.5 57.5q-130 -24 -223 -136.5t-84 -306.5q6 -149 91.5 -278t205.5 -130q120 0 228 146q15 20 28 -7t-9 -45q-84 -69 -219.5 -160t-266.5 -97 q-167 -9 -236.5 135t-45.5 294q27 168 133 326t220 240q31 22 29 27.5t-38 -10.5q-79 -36 -164 -93q-248 -168 -272 -431.5zM1244.5 1613.5q-1.5 21.5 27.5 40.5q70 60 134.5 93.5t133.5 37t143.5 -32.5t135.5 -52t136 -8.5t80 58t-100 41.5q79 21 111 -14.5t5 -88 t-121.5 -76.5t-149 -18.5t-99.5 10t-113 28.5q-89 31 -145.5 54.5t-151.5 -66.5q-25 -28 -26.5 -6.5z" />
<glyph unicode="&#xd9;" horiz-adv-x="1906" d="M246.5 685q-53.5 96 20.5 245q58 114 188.5 234t321.5 199q380 156 598.5 72.5t149.5 -264.5q-26 -68 -94 -178t-145 -232.5t-145.5 -242.5t-94.5 -207q-52 -172 38 -172.5t205 92.5q94 76 192.5 191t191.5 247q103 148 190 301.5t141 279.5l0.5 -0.5l0.5 -0.5 q31 81 149.5 101.5t204.5 48.5q151 48 112 5q-94 -102 -215 -292t-222 -387q-124 -243 -175.5 -403t50.5 -153q69 4 150.5 79t99.5 84q27 16 24 -2t-30 -54q-72 -90 -167.5 -182.5t-228.5 -167.5q-102 -39 -155.5 -4.5t-58 113.5t25.5 181t64 180q34 81 83 188q20 44 16 54 t-37 -32q-50 -64 -141 -182.5t-199.5 -234t-223.5 -199t-213 -77.5q-126 8 -162.5 157.5t151.5 455.5q92 144 202.5 333t137.5 273q25 84 -29.5 138t-148 72t-204.5 -2.5t-197 -83.5q-128 -94 -165.5 -218.5t24.5 -193.5q51 -57 181 -41.5t204 137.5q24 41 33.5 4t-10.5 -57 q-51 -50 -174.5 -130t-253.5 -114q-207 -54 -260.5 42zM1307 2086q1 7 12 -4.5t17 -18.5q41 -46 130 -102t196.5 -107.5t218 -90t193.5 -47.5q16 -6 40 -23t34 -35t-5.5 -33t-77.5 -17q-47 -1 -124 8.5t-155.5 25.5t-146 36.5t-95.5 39.5q-18 12 -57.5 68t-80 120t-70.5 118 t-29 62z" />
<glyph unicode="&#xda;" horiz-adv-x="1906" d="M246.5 685q-53.5 96 20.5 245q58 114 188.5 234t321.5 199q380 156 598.5 72.5t149.5 -264.5q-26 -68 -94 -178t-145 -232.5t-145.5 -242.5t-94.5 -207q-52 -172 38 -172.5t205 92.5q94 76 192.5 191t191.5 247q103 148 190 301.5t141 279.5l0.5 -0.5l0.5 -0.5 q31 81 149.5 101.5t204.5 48.5q151 48 112 5q-94 -102 -215 -292t-222 -387q-124 -243 -175.5 -403t50.5 -153q69 4 150.5 79t99.5 84q27 16 24 -2t-30 -54q-72 -90 -167.5 -182.5t-228.5 -167.5q-102 -39 -155.5 -4.5t-58 113.5t25.5 181t64 180q34 81 83 188q20 44 16 54 t-37 -32q-50 -64 -141 -182.5t-199.5 -234t-223.5 -199t-213 -77.5q-126 8 -162.5 157.5t151.5 455.5q92 144 202.5 333t137.5 273q25 84 -29.5 138t-148 72t-204.5 -2.5t-197 -83.5q-128 -94 -165.5 -218.5t24.5 -193.5q51 -57 181 -41.5t204 137.5q24 41 33.5 4t-10.5 -57 q-51 -50 -174.5 -130t-253.5 -114q-207 -54 -260.5 42zM1734 1648q10 18 34 35t40 23q84 9 194 47.5t217.5 90t196.5 107.5t131 102q5 7 16 18.5t12 4.5q1 -8 -29 -62t-70 -118t-80 -120t-58 -68q-28 -19 -95.5 -39.5t-146 -36.5t-155.5 -25.5t-124 -8.5q-62 2 -77.5 17 t-5.5 33z" />
<glyph unicode="&#xdd;" horiz-adv-x="1921" d="M307 734.5q-21 86.5 27.5 200t173.5 230.5t318 194q278 98 531.5 46.5t200.5 -231.5q-51 -131 -188.5 -365t-188.5 -404q-28 -93 -5 -157.5t160 56.5q228 201 402 435q191 258 301 540q31 81 140 86t194 32q144 45 109 5q-194 -217 -320.5 -473t-219.5 -474 q-139 -327 -340 -552t-397 -369q-171 -124 -318 -170.5t-260 -36.5q-176 16 -253 133.5t-20 250.5q34 78 106 136.5t276 150.5q30 12 39 -10t-21 -29q-78 -16 -103 -92.5t-3.5 -163t86.5 -157t166 -76.5q138 -6 297 128q117 99 201.5 244.5t153.5 310.5q33 81 81 195 t105 238q9 22 -1.5 30.5t-18.5 -2.5q-43 -54 -125 -154.5t-181 -197.5t-202.5 -166t-188.5 -60q-100 10 -119 152t144 457q70 135 140 272t100 220q35 99 -22 152t-235 53q-80 0 -163 -23.5t-148 -71.5q-125 -92 -142 -209.5t23 -176.5q51 -75 159.5 -60t198.5 127 q30 30 41 9.5t-30 -59.5q-117 -105 -244 -181t-289 -62q-107 13 -128 99.5zM1725 1572q10 18 34 35t40 23q84 9 194 47.5t217.5 90t196.5 107.5t131 102q5 7 16 18.5t12 4.5q1 -8 -29 -62t-70 -118t-80 -120t-58 -68q-28 -19 -95.5 -39.5t-146 -36.5t-155.5 -25.5t-124 -8.5 q-62 2 -77.5 17t-5.5 33z" />
<glyph unicode="&#xe0;" horiz-adv-x="758" d="M-91 110q10 37 63 60q60 -10 150 82q35 36 57 81q51 110 157 243q93 108 185 163.5t158 48.5q105 -12 93 -199q-3 -22 74 20t57 5q-50 -77 -92.5 -168t-33.5 -165q18 -57 85 -23q35 17 116 122q32 38 43.5 24.5t-56.5 -98.5q-99 -134 -194.5 -235t-183.5 -84 q-66 15 -73.5 115.5t41.5 246.5q9 28 1 24.5t-15 -11.5q-76 -91 -135.5 -177.5t-95.5 -123.5q-60 -62 -116 -61q-100 7 -65 184q4 22 -12 6q-48 -48 -90 -81t-86 -34q-42 -2 -32 35zM441 390q-4 -50 21 -44q38 9 91 96.5t68 125.5q52 133 -1 141q-44 5 -81.5 -53t-67.5 -141 q-26 -75 -30 -125zM487 1083.5q-4 50.5 5.5 66t50 -35.5t93 -101.5t110.5 -92t97.5 -68.5t41 -41t-12 -22t-52.5 -2q-29 6 -74 22.5t-89 38.5t-80.5 45.5t-48.5 40.5q-8 11 -22.5 55t-18.5 94.5z" />
<glyph unicode="&#xe1;" horiz-adv-x="758" d="M-91 110q10 37 63 60q60 -10 150 82q35 36 57 81q51 110 157 243q93 108 185 163.5t158 48.5q105 -12 93 -199q-3 -22 74 20t57 5q-50 -77 -92.5 -168t-33.5 -165q18 -57 85 -23q35 17 116 122q32 38 43.5 24.5t-56.5 -98.5q-99 -134 -194.5 -235t-183.5 -84 q-66 15 -73.5 115.5t41.5 246.5q9 28 1 24.5t-15 -11.5q-76 -91 -135.5 -177.5t-95.5 -123.5q-60 -62 -116 -61q-100 7 -65 184q4 22 -12 6q-48 -48 -90 -81t-86 -34q-42 -2 -32 35zM441 390q-4 -50 21 -44q38 9 91 96.5t68 125.5q52 133 -1 141q-44 5 -81.5 -53t-67.5 -141 q-26 -75 -30 -125zM515 875q5 13 50.5 27.5t113 38t132.5 56.5t118.5 70t58 19.5t-14 -65t-45 -85.5t-37.5 -46q-16 -13 -57.5 -24.5t-90 -20t-96.5 -11.5t-78 0q-39 4 -49 16t-5 25z" />
<glyph unicode="&#xe2;" horiz-adv-x="758" d="M-91 110q10 37 63 60q60 -10 150 82q35 36 57 81q51 110 157 243q93 108 185 163.5t158 48.5q105 -12 93 -199q-3 -22 74 20t57 5q-50 -77 -92.5 -168t-33.5 -165q18 -57 85 -23q35 17 116 122q32 38 43.5 24.5t-56.5 -98.5q-99 -134 -194.5 -235t-183.5 -84 q-66 15 -73.5 115.5t41.5 246.5q9 28 1 24.5t-15 -11.5q-76 -91 -135.5 -177.5t-95.5 -123.5q-60 -62 -116 -61q-100 7 -65 184q4 22 -12 6q-48 -48 -90 -81t-86 -34q-42 -2 -32 35zM428.5 831q-4.5 24 25.5 31q36 9 117 63q65 42 132 99q9 8 17 15q49 48 79 111 q2 6 10 13.5t29 -2.5q0 -11 -3.5 -17.5t2 -22t25.5 -46.5t50.5 -64t77.5 -62l22 19l17 -8l-118 -120q-67 36 -107 89l-38 55q-57 -37 -137 -97q-84 -63 -171 -85q-25 5 -29.5 29zM441 390q-4 -50 21 -44q38 9 91 96.5t68 125.5q52 133 -1 141q-44 5 -81.5 -53t-67.5 -141 q-26 -75 -30 -125z" />
<glyph unicode="&#xe3;" horiz-adv-x="758" d="M-91 110q10 37 63 60q60 -10 150 82q35 36 57 81q51 110 157 243q93 108 185 163.5t158 48.5q105 -12 93 -199q-3 -22 74 20t57 5q-50 -77 -92.5 -168t-33.5 -165q18 -57 85 -23q35 17 116 122q32 38 43.5 24.5t-56.5 -98.5q-99 -134 -194.5 -235t-183.5 -84 q-66 15 -73.5 115.5t41.5 246.5q9 28 1 24.5t-15 -11.5q-76 -91 -135.5 -177.5t-95.5 -123.5q-60 -62 -116 -61q-100 7 -65 184q4 22 -12 6q-48 -48 -90 -81t-86 -34q-42 -2 -32 35zM441 390q-4 -50 21 -44q38 9 91 96.5t68 125.5q52 133 -1 141q-44 5 -81.5 -53t-67.5 -141 q-26 -75 -30 -125zM473 862.5q-1 17.5 18 32.5q48 49 92.5 76.5t92 30.5t99 -26.5t93 -42.5t93 -6.5t55 47t-68.5 33.5q55 18 77 -11t3 -72t-83.5 -62.5t-102.5 -15t-69 8t-77 22.5q-61 26 -100 45t-104 -54q-17 -23 -18 -5.5z" />
<glyph unicode="&#xe8;" horiz-adv-x="517" d="M-83 116q22 45 64 54q78 -4 181 109q13 14 29 48q35 81 93.5 168.5t169.5 177.5t232 90q82 -10 82.5 -59.5t-47.5 -111.5t-127 -122t-155 -91q-13 -5 -14 -24q5 -56 29 -93.5t81.5 -33t114 54t109.5 132.5q21 29 33.5 14.5t-8.5 -42.5q-81 -149 -223.5 -276t-278.5 -113 q-57 0 -94.5 45.5t-37.5 153.5q3 22 -12 7q-51 -53 -98.5 -91t-91.5 -39q-53 -3 -31 42zM422 429q0 -13 10 -5q67 46 97 108q19 36 20 76t-38 34q-30 -9 -47.5 -41t-24.5 -54q-19 -58 -17 -118zM487 1083.5q-4 50.5 5.5 66t50 -35.5t93 -101.5t110.5 -92t97.5 -68.5t41 -41 t-12 -22t-52.5 -2q-29 6 -74 22.5t-89 38.5t-80.5 45.5t-48.5 40.5q-8 11 -22.5 55t-18.5 94.5z" />
<glyph unicode="&#xe9;" horiz-adv-x="517" d="M-83 116q22 45 64 54q78 -4 181 109q13 14 29 48q35 81 93.5 168.5t169.5 177.5t232 90q82 -10 82.5 -59.5t-47.5 -111.5t-127 -122t-155 -91q-13 -5 -14 -24q5 -56 29 -93.5t81.5 -33t114 54t109.5 132.5q21 29 33.5 14.5t-8.5 -42.5q-81 -149 -223.5 -276t-278.5 -113 q-57 0 -94.5 45.5t-37.5 153.5q3 22 -12 7q-51 -53 -98.5 -91t-91.5 -39q-53 -3 -31 42zM422 429q0 -13 10 -5q67 46 97 108q19 36 20 76t-38 34q-30 -9 -47.5 -41t-24.5 -54q-19 -58 -17 -118zM515 875q5 13 50.5 27.5t113 38t132.5 56.5t118.5 70t58 19.5t-14 -65 t-45 -85.5t-37.5 -46q-16 -13 -57.5 -24.5t-90 -20t-96.5 -11.5t-78 0q-39 4 -49 16t-5 25z" />
<glyph unicode="&#xea;" horiz-adv-x="517" d="M-83 116q22 45 64 54q78 -4 181 109q13 14 29 48q35 81 93.5 168.5t169.5 177.5t232 90q82 -10 82.5 -59.5t-47.5 -111.5t-127 -122t-155 -91q-13 -5 -14 -24q5 -56 29 -93.5t81.5 -33t114 54t109.5 132.5q21 29 33.5 14.5t-8.5 -42.5q-81 -149 -223.5 -276t-278.5 -113 q-57 0 -94.5 45.5t-37.5 153.5q3 22 -12 7q-51 -53 -98.5 -91t-91.5 -39q-53 -3 -31 42zM388.5 831q-4.5 24 25.5 31q36 9 117 63q65 42 132 99q9 8 17 15q49 48 79 111q2 6 10 13.5t29 -2.5q0 -11 -3.5 -17.5t2 -22t25.5 -46.5t50.5 -64t77.5 -62l22 19l17 -8l-118 -120 q-67 36 -107 89l-38 55q-57 -37 -137 -97q-84 -63 -171 -85q-25 5 -29.5 29zM422 429q0 -13 10 -5q67 46 97 108q19 36 20 76t-38 34q-30 -9 -47.5 -41t-24.5 -54q-19 -58 -17 -118z" />
<glyph unicode="&#xec;" horiz-adv-x="397" d="M-90.5 113.5q10.5 40.5 65.5 61.5q67 -9 141 73q45 46 61 90q19 54 41 96t37 67q31 51 159.5 95.5t152.5 14.5q6 -9 -11 -19.5t-29 -22.5q-42 -42 -76 -110t-43 -130.5t3 -88.5t59 -10q39 11 146 144q20 21 26 3t-74.5 -121t-159 -180.5t-171.5 -77.5q-93 4 -101 104 q-1 52 6 99q2 20 -13 5q-106 -113 -178 -126q-52 -7 -41.5 33.5zM279 1083.5q-4 50.5 5.5 66t50 -35.5t93 -101.5t110.5 -92t97.5 -68.5t41 -41t-12 -22t-52.5 -2q-29 6 -74 22.5t-89 38.5t-80.5 45.5t-48.5 40.5q-8 11 -22.5 55t-18.5 94.5z" />
<glyph unicode="&#xed;" horiz-adv-x="397" d="M-90.5 113.5q10.5 40.5 65.5 61.5q67 -9 141 73q45 46 61 90q19 54 41 96t37 67q31 51 159.5 95.5t152.5 14.5q6 -9 -11 -19.5t-29 -22.5q-42 -42 -76 -110t-43 -130.5t3 -88.5t59 -10q39 11 146 144q20 21 26 3t-74.5 -121t-159 -180.5t-171.5 -77.5q-93 4 -101 104 q-1 52 6 99q2 20 -13 5q-106 -113 -178 -126q-52 -7 -41.5 33.5zM351 832q5 13 50.5 27.5t113 38t132.5 56.5t118.5 70t58 19.5t-14 -65t-45 -85.5t-37.5 -46q-16 -13 -57.5 -24.5t-90 -20t-96.5 -11.5t-78 0q-39 4 -49 16t-5 25z" />
<glyph unicode="&#xf2;" horiz-adv-x="689" d="M-96.5 109.5q10.5 40.5 65.5 61.5q59 -3 129 70t126 163q55 129 194 251t298 130q142 -4 147 -131.5t-42 -260.5q-61 -173 -185 -292q-138 -127 -268 -122q-92 5 -147 75t-39 194q2 20 -12 4q-60 -69 -117.5 -118t-107.5 -58q-52 -7 -41.5 33.5zM487 1148.5 q-4 50.5 5.5 66t50 -35.5t93 -101.5t110.5 -92t97.5 -68.5t41 -41t-12 -22t-52.5 -2q-29 6 -74 22.5t-89 38.5t-80.5 45.5t-48.5 40.5q-8 11 -22.5 55t-18.5 94.5zM527 295q-5 -96 38 -101q42 -5 98 78q37 54 65.5 122.5t42.5 126.5q18 70 16.5 125t-33.5 55q-32 -2 -88 -62 q-72 -73 -107 -171q-22 -63 -27 -108.5t-5 -64.5z" />
<glyph unicode="&#xf3;" horiz-adv-x="689" d="M-96.5 109.5q10.5 40.5 65.5 61.5q59 -3 129 70t126 163q55 129 194 251t298 130q142 -4 147 -131.5t-42 -260.5q-61 -173 -185 -292q-138 -127 -268 -122q-92 5 -147 75t-39 194q2 20 -12 4q-60 -69 -117.5 -118t-107.5 -58q-52 -7 -41.5 33.5zM515 929q5 13 50.5 27.5 t113 38t132.5 56.5t118.5 70t58 19.5t-14 -65t-45 -85.5t-37.5 -46q-16 -13 -57.5 -24.5t-90 -20t-96.5 -11.5t-78 0q-39 4 -49 16t-5 25zM527 295q-5 -96 38 -101q42 -5 98 78q37 54 65.5 122.5t42.5 126.5q18 70 16.5 125t-33.5 55q-32 -2 -88 -62q-72 -73 -107 -171 q-22 -63 -27 -108.5t-5 -64.5z" />
<glyph unicode="&#xf4;" horiz-adv-x="689" d="M-96.5 109.5q10.5 40.5 65.5 61.5q59 -3 129 70t126 163q55 129 194 251t298 130q142 -4 147 -131.5t-42 -260.5q-61 -173 -185 -292q-138 -127 -268 -122q-92 5 -147 75t-39 194q2 20 -12 4q-60 -69 -117.5 -118t-107.5 -58q-52 -7 -41.5 33.5zM432.5 831 q-4.5 24 25.5 31q36 9 117 63q65 42 132 99q9 8 17 15q49 48 79 111q2 6 10 13.5t29 -2.5q0 -11 -3.5 -17.5t2 -22t25.5 -46.5t50.5 -64t77.5 -62l22 19l17 -8l-118 -120q-67 36 -107 89l-38 55q-57 -37 -137 -97q-84 -63 -171 -85q-25 5 -29.5 29zM527 295q-5 -96 38 -101 q42 -5 98 78q37 54 65.5 122.5t42.5 126.5q18 70 16.5 125t-33.5 55q-32 -2 -88 -62q-72 -73 -107 -171q-22 -63 -27 -108.5t-5 -64.5z" />
<glyph unicode="&#xf5;" horiz-adv-x="689" d="M-96.5 109.5q10.5 40.5 65.5 61.5q59 -3 129 70t126 163q55 129 194 251t298 130q142 -4 147 -131.5t-42 -260.5q-61 -173 -185 -292q-138 -127 -268 -122q-92 5 -147 75t-39 194q2 20 -12 4q-60 -69 -117.5 -118t-107.5 -58q-52 -7 -41.5 33.5zM484 883.5 q-1 17.5 18 32.5q48 49 92.5 76.5t92 30.5t99 -26.5t93 -42.5t93 -6.5t55 47t-68.5 33.5q55 18 77 -11t3 -72t-83.5 -62.5t-102.5 -15t-69 8t-77 22.5q-61 26 -100 45t-104 -54q-17 -23 -18 -5.5zM527 295q-5 -96 38 -101q42 -5 98 78q37 54 65.5 122.5t42.5 126.5 q18 70 16.5 125t-33.5 55q-32 -2 -88 -62q-72 -73 -107 -171q-22 -63 -27 -108.5t-5 -64.5z" />
<glyph unicode="&#xf7;" horiz-adv-x="1706" />
<glyph unicode="&#xf9;" horiz-adv-x="582" />
<glyph unicode="&#xfa;" horiz-adv-x="580" />
<glyph unicode="&#xfd;" horiz-adv-x="629" />
<glyph unicode="&#x2000;" horiz-adv-x="1068" />
<glyph unicode="&#x2001;" horiz-adv-x="2137" />
<glyph unicode="&#x2002;" horiz-adv-x="1068" />
<glyph unicode="&#x2003;" horiz-adv-x="2137" />
<glyph unicode="&#x2004;" horiz-adv-x="712" />
<glyph unicode="&#x2005;" horiz-adv-x="534" />
<glyph unicode="&#x2006;" horiz-adv-x="356" />
<glyph unicode="&#x2007;" horiz-adv-x="356" />
<glyph unicode="&#x2008;" horiz-adv-x="267" />
<glyph unicode="&#x2009;" horiz-adv-x="427" />
<glyph unicode="&#x200a;" horiz-adv-x="118" />
<glyph unicode="&#x2010;" horiz-adv-x="859" d="M326.5 637.5q-11.5 22.5 32.5 46.5q37 21 106 69.5t108 69.5q118 63 229.5 6.5t169.5 7.5q20 22 41.5 12.5t-29.5 -45.5q-134 -93 -191.5 -132t-127.5 -48q-61 -8 -153.5 26.5t-144.5 -10.5q-29 -25 -40.5 -2.5z" />
<glyph unicode="&#x2011;" horiz-adv-x="859" d="M326.5 637.5q-11.5 22.5 32.5 46.5q37 21 106 69.5t108 69.5q118 63 229.5 6.5t169.5 7.5q20 22 41.5 12.5t-29.5 -45.5q-134 -93 -191.5 -132t-127.5 -48q-61 -8 -153.5 26.5t-144.5 -10.5q-29 -25 -40.5 -2.5z" />
<glyph unicode="&#x2012;" horiz-adv-x="859" d="M326.5 637.5q-11.5 22.5 32.5 46.5q37 21 106 69.5t108 69.5q118 63 229.5 6.5t169.5 7.5q20 22 41.5 12.5t-29.5 -45.5q-134 -93 -191.5 -132t-127.5 -48q-61 -8 -153.5 26.5t-144.5 -10.5q-29 -25 -40.5 -2.5z" />
<glyph unicode="&#x2013;" horiz-adv-x="1187" d="M327.5 637.5q-16.5 22.5 47.5 46.5q55 21 156.5 69.5t158.5 69.5q174 63 338 6.5t250 7.5q29 22 60.5 12.5t-43.5 -45.5q-197 -93 -281.5 -132t-187.5 -48q-90 -8 -226 26.5t-213 -10.5q-43 -25 -59.5 -2.5z" />
<glyph unicode="&#x2014;" horiz-adv-x="2211" d="M331 637.5q-34 22.5 96 46.5q109 21 312 69.5t318 69.5q347 63 675 6.5t499 7.5q59 22 122.5 12.5t-87.5 -45.5q-394 -93 -563.5 -132t-375.5 -48q-179 -8 -451.5 26.5t-425.5 -10.5q-85 -25 -119 -2.5z" />
<glyph unicode="&#x2018;" horiz-adv-x="198" d="M217 1038q39 114 139 222.5t190 181.5q27 21 46.5 13t-1.5 -24q-105 -78 -157.5 -173.5t-7.5 -128.5q18 -15 43 0.5t46 14.5q109 -10 6.5 -95.5t-207.5 -118.5q-53 -17 -84 18.5t-13 89.5z" />
<glyph unicode="&#x2019;" horiz-adv-x="346" d="M362.5 926q-19.5 8 2.5 25q104 77 156.5 173t7.5 129q-19 14 -44 -1.5t-44 -13.5q-111 9 -8 95t209 119q52 17 83 -18.5t13 -88.5q-39 -116 -139 -224.5t-190 -180.5q-27 -22 -46.5 -14z" />
<glyph unicode="&#x201c;" horiz-adv-x="593" d="M222 1039q39 114 138.5 222.5t190.5 182.5q26 21 45.5 12.5t-1.5 -23.5q-105 -78 -157.5 -174t-7.5 -129q19 -14 43.5 1t45.5 14q81 -8 30.5 -66.5t-136 -104.5t-157.5 -46t-34 111zM581 1039q39 114 139 222.5t190 182.5q26 21 45.5 12.5t-1.5 -23.5 q-104 -78 -156.5 -174t-7.5 -129q18 -14 43 1t45 14q81 -8 30.5 -66.5t-136 -104.5t-157.5 -46t-34 111z" />
<glyph unicode="&#x201d;" horiz-adv-x="224" d="M209.5 923.5q-19.5 7.5 2.5 24.5q102 79 153 175.5t6 129.5q-20 13 -44.5 -2.5t-43.5 -13.5q-82 5 -32.5 64.5t134 107t156.5 49t37 -109.5q-38 -116 -135.5 -226t-186.5 -184q-27 -22 -46.5 -14.5zM569.5 929.5q-19.5 7.5 1.5 25.5q102 78 153.5 174.5t6.5 129.5 q-20 14 -44.5 -2t-43.5 -14q-82 5 -32.5 65t134 107t156.5 48.5t37 -109.5q-38 -116 -135.5 -225.5t-186.5 -184.5q-27 -22 -46.5 -14.5z" />
<glyph unicode="&#x2026;" horiz-adv-x="1211" d="M185 15q-33 24 48 120t166 83q74 -12 66 -67.5t-110 -105.5q-127 -61 -170 -30zM486 15q-33 24 48 120t166 83q74 -12 66 -67.5t-110 -105.5q-127 -61 -170 -30zM825 15q-33 24 48 120t166 83q74 -12 66 -67.5t-110 -105.5q-127 -61 -170 -30z" />
<glyph unicode="&#x202f;" horiz-adv-x="427" />
<glyph unicode="&#x205f;" horiz-adv-x="534" />
<glyph unicode="&#x25fc;" horiz-adv-x="845" d="M0 0v845h845v-845h-845z" />
</font>
</defs>
</svg>
