<?xml version="1.0" standalone="no"?>
<!DOCTYPE svg PUBLIC "-//W3C//DTD SVG 1.1//EN" "http://www.w3.org/Graphics/SVG/1.1/DTD/svg11.dtd" >
<svg xmlns="http://www.w3.org/2000/svg">
<metadata></metadata>
<defs>
<font id="sfu_dinmitalt" horiz-adv-x="1024" >
<font-face units-per-em="2048" ascent="1638" descent="-410" />
<missing-glyph horiz-adv-x="491" />
<glyph horiz-adv-x="2048" />
<glyph horiz-adv-x="2048" />
<glyph unicode="&#xd;" horiz-adv-x="491" />
<glyph unicode=" "  horiz-adv-x="491" />
<glyph unicode="&#x09;" horiz-adv-x="491" />
<glyph unicode="&#xa0;" horiz-adv-x="491" />
<glyph unicode="!" horiz-adv-x="528" d="M133 1458h262l-80 -1098h-104zM160 0v209h209v-209h-209z" />
<glyph unicode="&#x22;" horiz-adv-x="681" d="M127 1098v360h160v-360h-160zM395 1098v360h160v-360h-160z" />
<glyph unicode="#" horiz-adv-x="983" d="M6 446v136h203l45 295h-188v135h202l64 446h160l-64 -446h201l63 446h160l-64 -446h189v-135h-203l-45 -295h189v-136h-203l-64 -446h-159l63 446h-201l-63 -446h-160l64 446h-189zM369 582h200l45 295h-200z" />
<glyph unicode="$" horiz-adv-x="983" d="M16 182l144 152q117 -133 278 -150v457q-356 82 -356 410q0 176 95 287.5t261 131.5v144h105v-144q184 -2 346 -137l-119 -155q-96 86 -227 96v-436q375 -74 375 -422q0 -170 -102.5 -287t-272.5 -141v-221h-105v221q-227 -3 -422 194zM291 1055q0 -144 147 -193v412 q-147 -23 -147 -219zM543 184q166 41 166 234q0 167 -166 198v-432z" />
<glyph unicode="%" horiz-adv-x="1062" d="M104 1128v140q0 100 60 155q51 47 133 47t133 -47q59 -55 59 -155v-140q0 -100 -59 -155q-51 -47 -133 -47t-133 47q-60 55 -60 155zM119 0l690 1458h135l-690 -1458h-135zM221 1143q0 -100 76 -101q76 0 76 101v110q0 100 -76 101q-76 -1 -76 -101v-110zM573 190v140 q0 100 60 155q51 47 133 47t133 -47q59 -55 59 -155v-140q0 -100 -59 -155q-51 -47 -133 -47t-133 47q-60 55 -60 155zM690 205q0 -100 76 -101q76 0 76 101v110q0 100 -76 101q-76 -1 -76 -101v-110z" />
<glyph unicode="&#x26;" horiz-adv-x="1327" d="M80 436q0 131 72.5 245t205.5 181q-121 139 -120 277q0 137 92 234t235 97t235.5 -97t92.5 -234q0 -211 -244 -326l312 -375q76 96 126 244l187 -74q-82 -201 -191 -315l246 -293h-246l-135 147q-215 -160 -407 -159q-201 0 -334 135q-127 129 -127 313zM264 438 q0 -113 80 -189.5t191 -76.5q157 0 292 129l-352 422q-211 -115 -211 -285zM422 1147q0 -88 108 -186q178 68 179 186q0 57 -41 98t-103 41q-61 0 -102 -41t-41 -98z" />
<glyph unicode="'" horiz-adv-x="491" d="M166 1098v360h160v-360h-160z" />
<glyph unicode="(" horiz-adv-x="569" d="M123 625q0 217 82 432q84 225 241 401h82q-197 -414 -196 -833q-1 -420 196 -834h-82q-158 176 -241 402q-82 215 -82 432z" />
<glyph unicode=")" horiz-adv-x="569" d="M41 -209q197 414 197 834q0 419 -197 833h82q158 -176 242 -401q82 -215 81 -432q0 -217 -81 -432q-84 -225 -242 -402h-82z" />
<glyph unicode="*" horiz-adv-x="720" d="M74 1051l170 104l-170 105l61 94l164 -94v198h123v-198l164 94l61 -94l-170 -105l170 -104l-61 -95l-164 95v-199h-123v199l-164 -95z" />
<glyph unicode="+" horiz-adv-x="1228" d="M96 438v160h439v438h159v-438h439v-160h-439v-438h-159v438h-439z" />
<glyph unicode="," horiz-adv-x="491" d="M141 -152v361h209v-209z" />
<glyph unicode="-" horiz-adv-x="833" d="M109 463v209h616v-209h-616z" />
<glyph unicode="." horiz-adv-x="491" d="M141 0v209h209v-209h-209z" />
<glyph unicode="/" horiz-adv-x="681" d="M16 -12l490 1482h160l-490 -1482h-160z" />
<glyph unicode="0" horiz-adv-x="983" d="M78 408v643q0 193 127 311q117 109 287 108q170 0 286 -108q127 -119 127 -311v-643q0 -193 -127 -312q-117 -109 -286 -108q-170 0 -287 108q-127 119 -127 312zM287 420q0 -104 55 -163.5t150 -59.5q94 0 149 59.5t55 163.5v618q0 104 -55 164t-149 60t-149.5 -59.5 t-55.5 -164.5v-618z" />
<glyph unicode="1" horiz-adv-x="983" d="M190 1085v222l207 151h209v-1458h-209v1237z" />
<glyph unicode="2" horiz-adv-x="983" d="M66 0v197l569 712q53 68 53 146q0 82 -55 144.5t-146 62.5q-86 0 -145 -57.5t-68 -153.5h-208q2 176 120.5 297.5t284.5 121.5q182 0 304 -121.5t122 -295.5q0 -145 -88 -256l-469 -588h557v-209h-831z" />
<glyph unicode="3" horiz-adv-x="983" d="M27 362h209q63 -166 217 -165q92 0 156.5 63.5t64.5 167.5q0 106 -64.5 168.5t-160.5 62.5h-89v185h72q102 0 163.5 58.5t61.5 148.5q0 88 -62.5 149.5t-150.5 61.5q-72 0 -125 -43q-59 -49 -75 -134h-209q12 156 130 270.5t271 114.5q188 0 314 -127q117 -123 116 -288 q0 -201 -155 -301q172 -109 172 -320q0 -199 -126 -322.5t-317 -123.5q-154 0 -266 96q-119 102 -147 278z" />
<glyph unicode="4" horiz-adv-x="983" d="M25 217v197l487 1044h233l-493 -1044h381v420h209v-420h116v-197h-116v-217h-209v217h-608z" />
<glyph unicode="5" horiz-adv-x="983" d="M76 367h209q37 -170 209 -170q135 0 180 104q25 61 24 209q0 135 -41 201q-49 80 -170 80t-188 -121h-197v788h777v-209h-580v-329q100 80 233 79q162 0 261 -106q63 -70 88 -141q27 -86 26 -258q0 -141 -20.5 -214t-69.5 -137q-123 -156 -315 -155q-158 0 -273 88 q-133 100 -153 291z" />
<glyph unicode="6" horiz-adv-x="983" d="M78 408v643q0 193 127 311q117 109 287 108q150 0 260 -86q119 -92 145 -245h-215q-47 123 -190 123q-94 0 -149.5 -59.5t-55.5 -164.5v-137q119 45 278 45q147 0 240 -96q100 -109 100 -309v-133q0 -193 -127 -312q-117 -109 -286 -108q-170 0 -287 108 q-127 119 -127 312zM287 420q0 -104 55 -163.5t150 -59.5q94 0 149 59t55 164v119q0 104 -55 163.5t-149 59.5t-149.5 -59.5t-55.5 -163.5v-119z" />
<glyph unicode="7" horiz-adv-x="983" d="M104 1038v420h830v-209l-494 -1249h-233l493 1249h-387v-211h-209z" />
<glyph unicode="8" horiz-adv-x="983" d="M47 426q0 213 172 328q-145 131 -145 295q0 176 120.5 298.5t297.5 122.5q176 0 296.5 -122.5t120.5 -298.5q0 -164 -145 -295q172 -115 172 -328q0 -190 -130 -314t-314 -124t-314.5 124t-130.5 314zM256 428q0 -98 69.5 -164.5t166.5 -66.5q96 0 165.5 66.5t69.5 164.5 t-69.5 164.5t-165.5 66.5t-166 -66.5t-70 -164.5zM283 1053q0 -98 65 -156q57 -53 144 -53q86 0 147 55t61 154q0 98 -61 153.5t-147 55.5t-144 -54q-65 -57 -65 -155z" />
<glyph unicode="9" horiz-adv-x="983" d="M78 918v133q0 193 127 311q117 109 287 108q170 0 286 -108q127 -119 127 -311v-643q0 -193 -127 -312q-117 -109 -286 -108q-150 0 -261 86q-119 92 -145 245h215q47 -123 191 -122q94 0 149 59t55 164v137q-119 -45 -278 -45q-147 0 -240 96q-100 109 -100 310z M287 920q0 -104 55 -164t150 -60q94 0 149 59.5t55 164.5v118q0 104 -55 164t-149 60t-149.5 -60t-55.5 -164v-118z" />
<glyph unicode=":" horiz-adv-x="491" d="M141 0v209h209v-209h-209zM141 465v209h209v-209h-209z" />
<glyph unicode=";" horiz-adv-x="491" d="M141 -152v361h209v-209zM141 465v209h209v-209h-209z" />
<glyph unicode="&#x3c;" horiz-adv-x="1228" d="M96 444v148l1037 461v-172l-852 -363l852 -362v-172z" />
<glyph unicode="=" horiz-adv-x="1228" d="M96 233v160h1037v-160h-1037zM96 643v160h1037v-160h-1037z" />
<glyph unicode="&#x3e;" horiz-adv-x="1228" d="M96 -16v172l852 362l-852 363v172l1037 -461v-148z" />
<glyph unicode="?" horiz-adv-x="948" d="M59 1038v41q0 162 115 276.5t272 114.5q160 0 275 -106q121 -113 121 -287q0 -125 -66 -215l-186 -256q-35 -47 -35 -129v-117h-209v134q0 123 53 196l183 254q51 72 51 135q0 80 -55.5 131.5t-120.5 51.5q-188 0 -189 -224h-209zM346 0v209h209v-209h-209z" />
<glyph unicode="@" horiz-adv-x="1638" d="M78 737q0 319 219 526t547 207q299 0 508 -174t209 -438q0 -238 -168 -416q-150 -158 -299 -157q-143 0 -164 131h-4q-111 -131 -258 -131q-125 0 -208 91t-83 220q0 215 135 383q143 178 354 178q164 0 232 -160h4l24 105h136l-164 -531q-20 -66 -21 -104q0 -59 47 -59 q88 0 182.5 147t94.5 293q0 203 -152.5 333t-394.5 130q-281 0 -455 -174q-162 -162 -161 -404q0 -252 170 -416q174 -170 456 -170q336 0 516 191h136q-102 -164 -281.5 -257t-394.5 -93q-328 0 -545 211t-217 538zM537 610q0 -84 50 -137t126 -53q125 0 227 149 q92 137 92 271q0 72 -48 127t-118 55q-135 0 -237 -143q-92 -130 -92 -269z" />
<glyph unicode="A" horiz-adv-x="1249" d="M2 0l530 1458h185l530 -1458h-233l-113 326h-553l-112 -326h-234zM412 522h426l-211 637h-4z" />
<glyph unicode="B" horiz-adv-x="1249" d="M154 0v1458h565q209 0 323 -108q109 -104 109 -283q0 -217 -215 -313v-4q115 -27 178 -127q59 -90 60 -209q0 -184 -118 -299t-288 -115h-614zM375 209h340q117 0 180 67q57 59 57 152q0 92 -57 154q-63 65 -180 65h-340v-438zM375 844h319q115 0 178 61q57 57 58 148 q0 90 -58 147q-63 62 -178 62h-319v-418z" />
<glyph unicode="C" horiz-adv-x="1138" d="M104 729q0 246 15 338q10 70 49 141q59 109 168 178q129 84 289 84q201 0 342 -127q135 -119 170 -305h-234q-27 90 -102.5 150.5t-175.5 60.5q-141 0 -226 -106q-57 -74 -69 -199q-4 -33 -4 -215t4 -215q12 -125 69 -199q84 -106 226 -106q186 0 278 199h234 q-43 -201 -181.5 -310.5t-330.5 -109.5q-160 0 -289 84q-109 70 -168 178q-39 72 -49 141q-14 92 -15 338z" />
<glyph unicode="D" horiz-adv-x="1290" d="M154 0v1458h510q301 0 444 -246q53 -90 66 -174q12 -76 12 -309q0 -197 -6 -252q-14 -139 -76 -235q-154 -242 -455 -242h-495zM375 209h264q184 0 270 127q37 55 46.5 118.5t9.5 266.5t-11 270q-12 76 -55 135q-90 123 -260 123h-264v-1040z" />
<glyph unicode="E" horiz-adv-x="1138" d="M154 0v1458h931v-209h-710v-415h606v-197h-606v-428h710v-209h-931z" />
<glyph unicode="F" horiz-adv-x="1099" d="M154 0v1458h931v-209h-710v-430h606v-196h-606v-623h-221z" />
<glyph unicode="G" horiz-adv-x="1249" d="M104 729q0 246 15 338q10 70 49 141q59 109 168 178q129 84 289 84q201 0 342 -127q135 -119 170 -305h-234q-27 90 -102.5 150.5t-175.5 60.5q-141 0 -226 -106q-57 -74 -69 -199q-4 -33 -4 -215t4 -215q12 -125 69 -199q84 -106 226 -106q127 0 213 87t86 222v76h-297 v209h518v-297q0 -217 -151.5 -367.5t-368.5 -150.5q-160 0 -289 84q-109 70 -168 178q-39 72 -49 141q-14 92 -15 338z" />
<glyph unicode="H" horiz-adv-x="1327" d="M154 0v1458h221v-624h577v624h222v-1458h-222v637h-577v-637h-221z" />
<glyph unicode="I" horiz-adv-x="528" d="M154 0v1458h221v-1458h-221z" />
<glyph unicode="J" horiz-adv-x="985" d="M2 178l178 129q70 -98 195 -98q98 0 168 59q84 72 84 207v983h221v-1005q0 -209 -146 -342q-135 -123 -321 -123q-240 0 -379 190z" />
<glyph unicode="K" horiz-adv-x="1290" d="M154 0v1458h221v-751h4l600 751h262l-467 -575l516 -883h-262l-397 713l-256 -269v-444h-221z" />
<glyph unicode="L" horiz-adv-x="1138" d="M154 0v1458h221v-1249h710v-209h-931z" />
<glyph unicode="M" horiz-adv-x="1552" d="M154 0v1458h208l418 -950l410 950h209v-1458h-221v909h-4l-306 -700h-184l-305 700h-4v-909h-221z" />
<glyph unicode="N" horiz-adv-x="1400" d="M154 0v1458h208l660 -1036h4v1036h221v-1458h-209l-659 1036h-4v-1036h-221z" />
<glyph unicode="O" horiz-adv-x="1249" d="M104 729q0 246 15 338q10 70 49 141q59 109 168 178q129 84 289 84t288 -84q109 -70 168 -178q39 -72 49 -141q14 -92 15 -338q0 -246 -15 -338q-10 -70 -49 -141q-59 -109 -168 -178q-129 -84 -288 -84q-160 0 -289 84q-109 70 -168 178q-39 72 -49 141q-15 92 -15 338z M326 729q0 -182 4 -215q12 -125 69 -199q84 -106 226 -106q141 0 225 106q57 74 70 199q4 33 4 215t-4 215q-12 125 -70 199q-84 106 -225 106t-226 -106q-57 -74 -69 -199q-4 -33 -4 -215z" />
<glyph unicode="P" horiz-adv-x="1214" d="M154 0v1458h528q197 0 328 -102q157 -122 157 -345q0 -173 -116 -300q-129 -141 -340 -142h-336v-569h-221zM375 778h327q115 0 185 76q59 66 59 160q0 178 -158 225q-37 10 -94 10h-319v-471z" />
<glyph unicode="Q" horiz-adv-x="1249" d="M104 729q0 246 15 338q10 70 49 141q59 109 168 178q129 84 289 84t288 -84q109 -70 168 -178q39 -72 49 -141q14 -92 15 -338q0 -190 -2 -231q-10 -150 -51 -226l192 -153l-131 -152l-184 148q-147 -127 -344 -127q-160 0 -289 84q-109 70 -168 178q-39 72 -49 141 q-14 92 -15 338zM326 729q0 -182 4 -215q12 -125 69 -199q84 -106 226 -106q95 0 163 51l-186 148l131 151l170 -135q20 70 21 305q0 182 -4 215q-12 125 -70 199q-84 106 -225 106t-226 -106q-57 -74 -69 -199q-4 -33 -4 -215z" />
<glyph unicode="R" horiz-adv-x="1249" d="M154 0v1458h569q184 0 297 -96q145 -125 145 -311q0 -141 -75.5 -250t-206.5 -154l338 -647h-263l-301 623h-282v-623h-221zM375 819h334q119 0 186 70q61 63 61 162q0 111 -73 166q-61 45 -162 45h-346v-443z" />
<glyph unicode="S" horiz-adv-x="1175" d="M27 188l145 166q182 -145 414 -145q133 0 210.5 55t77.5 148q0 172 -190 196q-59 8 -192 27q-184 25 -289 139q-98 109 -99 270q0 190 127 308t349 118q244 0 473 -151l-123 -182q-176 112 -358 112h-3q-106 0 -172 -51q-72 -57 -71 -158q0 -154 206 -186q86 -12 164 -23 q195 -23 301 -147q98 -113 99 -272q0 -199 -137.5 -311.5t-374.5 -112.5h-3q-328 0 -554 200z" />
<glyph unicode="T" d="M2 1262v196h1020v-196h-399v-1262h-222v1262h-399z" />
<glyph unicode="U" horiz-adv-x="1290" d="M127 494v964h221v-940q0 -145 86 -229q80 -80 211 -80t214 82t83 227v940h221v-964q0 -223 -148.5 -364.5t-369.5 -141.5t-366 139q-152 144 -152 367z" />
<glyph unicode="V" horiz-adv-x="1138" d="M2 1458h234l331 -1110h4l332 1110h234l-482 -1458h-172z" />
<glyph unicode="W" horiz-adv-x="1703" d="M23 1458h233l229 -1036h4l283 1036h160l282 -1036h5l229 1036h233l-364 -1458h-184l-279 1051h-4l-279 -1051h-184z" />
<glyph unicode="X" horiz-adv-x="1097" d="M-20 0l446 748l-418 710h250l291 -506l291 506h250l-418 -710l446 -748h-250l-319 543l-320 -543h-249z" />
<glyph unicode="Y" d="M-31 1458h234l309 -647l309 647h234l-439 -858v-600h-208v600z" />
<glyph unicode="Z" horiz-adv-x="1062" d="M66 0v184l661 1078h-635v196h905v-166l-663 -1083h663v-209h-931z" />
<glyph unicode="[" horiz-adv-x="569" d="M147 -209v1667h379v-135h-194v-1397h194v-135h-379z" />
<glyph unicode="\" horiz-adv-x="681" d="M16 1470h160l490 -1482h-160z" />
<glyph unicode="]" horiz-adv-x="569" d="M43 -74h195v1397h-195v135h379v-1667h-379v135z" />
<glyph unicode="^" horiz-adv-x="1228" d="M102 580l445 878h135l444 -878h-172l-340 706l-340 -706h-172z" />
<glyph unicode="_" d="M0 -154h1024v-102h-1024v102z" />
<glyph unicode="`" horiz-adv-x="491" d="M-59 1470h274l188 -299h-172z" />
<glyph unicode="a" d="M53 305q0 131 86 215q92 92 252 92h289v109q0 74 -49 103.5t-164 29.5q-147 0 -197 -80l-164 125q109 152 351 152q432 0 432 -342v-709h-209v92h-4q-63 -104 -256 -104q-170 0 -270 92q-96 86 -97 225zM250 315q0 -131 196 -131q131 0 170 23q64 35 64 158v75h-250 q-180 0 -180 -125z" />
<glyph unicode="b" horiz-adv-x="1062" d="M135 0v1458h209v-530q129 123 268 123q213 0 308 -181q45 -84 45 -350q0 -158 -7 -207q-12 -119 -67 -190q-104 -135 -279 -135q-158 0 -268 121v-109h-209zM344 520q0 -152 29 -219q47 -104 176 -104q131 0 178 100q29 68 29 223q0 154 -29 221q-47 101 -178 101 q-129 0 -176 -105q-29 -68 -29 -217z" />
<glyph unicode="c" horiz-adv-x="909" d="M55 518q0 266 146 410q127 123 325 123q217 0 373 -181l-154 -137q-88 109 -210 109q-270 0 -271 -324q0 -321 269 -321h2h2q121 0 208 108l154 -137q-156 -180 -373 -180q-199 0 -325 123q-145 141 -146 407z" />
<glyph unicode="d" horiz-adv-x="1062" d="M135 520q0 158 6 205q12 121 68 190q104 135 278 136q139 0 269 -123v530h209v-1458h-209v109q-111 -121 -269 -121q-213 0 -307 180q-45 84 -45 352zM344 520q0 -156 31 -223q45 -100 176 -100q129 0 176 104q29 68 29 219q0 150 -29 217q-47 105 -176 105 q-131 0 -176 -101q-31 -68 -31 -221z" />
<glyph unicode="e" d="M84 516q0 279 139 418q115 117 289 117q178 0 301 -119q127 -125 127 -320v-172h-647q0 -123 68.5 -189.5t179.5 -66.5q131 0 227 101l152 -129q-145 -168 -375 -168q-193 0 -309 104q-152 133 -152 424zM293 612h438q-4 115 -64.5 178.5t-154.5 63.5t-155.5 -63.5 t-63.5 -178.5z" />
<glyph unicode="f" horiz-adv-x="569" d="M63 879v159h105v138q0 139 80 215q75 67 199 67h4h135v-196h-119q-90 0 -90 -86v-138h209v-159h-209v-879h-209v879h-105z" />
<glyph unicode="g" horiz-adv-x="1062" d="M98 518q0 168 6 211q12 119 72 195q98 127 275 127q152 0 268 -123v110h209v-1013q0 -223 -135 -347q-122 -110 -313 -110h-3q-207 0 -360 174l162 129q94 -94 202 -94q106 0 172 59.5t66 165.5v107q-111 -121 -268 -121q-176 0 -275 127q-59 76 -72 192q-6 45 -6 211z M307 518q0 -125 7.5 -166t33.5 -76q60 -79 163 -79h3q102 0 164 79q27 35 34 76t7 166q0 127 -7 168t-34 76q-61 80 -164 80q-104 0 -166 -80q-27 -35 -34 -76t-7 -168z" />
<glyph unicode="h" horiz-adv-x="1099" d="M135 0v1458h209v-530h4q98 123 270 123q133 0 234 -93q113 -102 113 -268v-690h-209v618q0 104 -57.5 164t-147.5 60q-92 0 -149.5 -59.5t-57.5 -164.5v-618h-209z" />
<glyph unicode="i" horiz-adv-x="491" d="M141 0v1038h209v-1038h-209zM141 1249v209h209v-209h-209z" />
<glyph unicode="j" horiz-adv-x="528" d="M-14 -223h59h2q115 0 115 110v1151h209v-1167q0 -129 -85 -210t-218 -81h-82v197zM162 1249v209h209v-209h-209z" />
<glyph unicode="k" horiz-adv-x="1062" d="M135 0v1458h209v-907h4l400 487h249l-358 -405l408 -633h-263l-276 485l-164 -186v-299h-209z" />
<glyph unicode="l" horiz-adv-x="528" d="M135 252v1206h209v-1190q0 -71 76 -71h2h72v-197h-93q-266 0 -266 252z" />
<glyph unicode="m" horiz-adv-x="1744" d="M147 0v1038h209v-110h4q98 123 271 123q162 0 293 -136q123 135 327 136q133 0 234 -93q113 -102 112 -268v-690h-208v618q0 104 -57.5 164t-147.5 60q-92 0 -149.5 -59.5t-57.5 -164.5v-618h-209v618q0 104 -57.5 164t-147.5 60q-92 0 -149.5 -59.5t-57.5 -164.5v-618 h-209z" />
<glyph unicode="n" horiz-adv-x="1099" d="M135 0v1038h209v-110h4q98 123 270 123q133 0 234 -93q113 -102 113 -268v-690h-209v618q0 104 -57.5 164t-147.5 60q-92 0 -149.5 -59.5t-57.5 -164.5v-618h-209z" />
<glyph unicode="o" d="M84 520q0 162 27 250q25 78 86 148q121 133 315 133q195 0 315 -133q61 -70 86 -148q27 -88 27 -250q0 -164 -27 -252q-23 -78 -86 -147q-121 -133 -315 -133q-195 0 -315 133q-63 70 -86 147q-27 88 -27 252zM293 520q0 -176 52 -249.5t167 -73.5q119 0 176 88 q43 65 43 233q0 176 -52 250t-167 74q-119 0 -176 -88q-43 -66 -43 -234z" />
<glyph unicode="p" horiz-adv-x="1062" d="M135 -420v1458h209v-108q111 121 268 121q213 0 308 -181q45 -84 45 -352q0 -158 -7 -205q-12 -121 -67 -190q-104 -135 -279 -135q-139 0 -268 123v-531h-209zM344 518q0 -150 29 -217q47 -104 176 -104q131 0 178 100q29 68 29 221q0 156 -29 223q-47 100 -178 101 q-129 0 -176 -105q-29 -68 -29 -219z" />
<glyph unicode="q" horiz-adv-x="1062" d="M98 518q0 158 6 207q12 119 68 190q104 135 279 136q158 0 268 -121v108h209v-1458h-209v531q-129 -123 -268 -123q-213 0 -308 180q-45 84 -45 350zM307 518q0 -154 31 -221q45 -100 176 -100q129 0 176 104q29 68 29 217q0 152 -29 219q-47 104 -176 105 q-131 0 -176 -101q-31 -68 -31 -223z" />
<glyph unicode="r" horiz-adv-x="796" d="M135 0v1038h209v-110h4q98 123 270 123q115 0 218 -80l-152 -180q-68 51 -137 51q-84 0 -139 -51q-63 -59 -64 -166v-625h-209z" />
<glyph unicode="s" horiz-adv-x="983" d="M20 174l146 143q137 -133 328 -133q204 0 204 132q0 91 -127 104l-184 16q-133 12 -213 86q-86 80 -86 209q0 154 111 240q104 80 276 80q240 0 408 -142l-129 -151q-137 96 -279 96q-178 0 -178 -125q0 -88 137 -98l172 -13q301 -20 301 -311q0 -147 -121.5 -233 t-308.5 -86q-258 0 -457 186z" />
<glyph unicode="t" horiz-adv-x="569" d="M43 879v159h104v316h209v-316h152v-159h-152v-605q0 -77 72 -77h2h78v-197h-109q-113 0 -182.5 67.5t-69.5 188.5v623h-104z" />
<glyph unicode="u" horiz-adv-x="1099" d="M135 348v690h209v-618q0 -104 57.5 -163.5t149.5 -59.5q90 0 147.5 59t57.5 164v618h209v-1038h-209v111h-4q-98 -123 -269 -123q-135 0 -235 92q-113 102 -113 268z" />
<glyph unicode="v" horiz-adv-x="909" d="M-12 1038h221l244 -727h4l243 727h222l-381 -1038h-172z" />
<glyph unicode="w" horiz-adv-x="1478" d="M4 1038h221l199 -727h4l236 727h151l236 -727h4l198 727h222l-332 -1038h-185l-217 727h-4l-217 -727h-184z" />
<glyph unicode="x" horiz-adv-x="983" d="M20 0l355 530l-340 508h250l207 -336l206 336h250l-340 -508l355 -530h-250l-221 346l-222 -346h-250z" />
<glyph unicode="y" horiz-adv-x="909" d="M-14 1038h221l246 -727h4l245 727h222l-447 -1253q-74 -205 -293 -205h-69v197h61q96 0 125 90l57 174z" />
<glyph unicode="z" horiz-adv-x="909" d="M68 0v166l520 688h-492v184h746v-166l-520 -675h520v-197h-774z" />
<glyph unicode="{" horiz-adv-x="569" d="M29 557v135q76 0 118 74q41 68 41 172v293q0 104 58.5 165.5t142.5 61.5h174v-135h-100q-90 0 -90 -170v-264q0 -117 -68 -195q-45 -53 -92 -67v-4q49 -14 92 -66q68 -78 68 -199v-262q0 -170 90 -170h100v-135h-174q-84 0 -142.5 61.5t-58.5 165.5v289q0 106 -41.5 177 t-117.5 73z" />
<glyph unicode="|" horiz-adv-x="454" d="M147 -12v1482h160v-1482h-160z" />
<glyph unicode="}" horiz-adv-x="569" d="M6 -74h100q90 0 91 170v264q0 117 67 195q45 53 92 68v4q-49 14 -92 65q-68 78 -67 199v262q0 170 -91 170h-100v135h174q84 0 142.5 -61.5t58.5 -165.5v-289q0 -106 42 -177t118 -73v-135q-76 0 -118 -70.5t-42 -175.5v-293q0 -104 -58.5 -165.5t-142.5 -61.5h-174v135z " />
<glyph unicode="~" horiz-adv-x="1228" d="M141 489q94 178 256 179q84 0 228 -68q156 -74 209 -74q84 0 180 148l73 -129q-94 -178 -256 -178q-72 0 -227 67q-170 74 -209 74q-82 -1 -180 -146z" />
<glyph horiz-adv-x="1019" d="M-84 535l43 96h115q6 51 24 149h-135l43 99h121q84 229 221 374q170 180 383 181q193 -1 338 -138l-47 -319l-98 12q0 322 -193 322q-211 0 -330 -432h353l-43 -99h-336q-12 -49 -33 -149h301l-43 -96h-274q-12 -84 -13 -152q0 -115 43 -186q53 -88 160 -88 q119 0 207 139q49 78 104 244l113 -21l-111 -385q-158 -109 -325 -109q-227 0 -340 173q-96 145 -96 385h-152z" />
<glyph unicode="&#xa1;" horiz-adv-x="528" d="M133 -420l80 1098h104l78 -1098h-262zM160 829v209h209v-209h-209z" />
<glyph unicode="&#xa2;" horiz-adv-x="983" d="M70 518q0 252 131 393q115 125 297 140v186h82v-186q201 -23 333 -181l-153 -137q-70 86 -180 109v-645q111 23 180 108l153 -137q-133 -158 -333 -180v-187h-82v187q-182 14 -297 139q-131 141 -131 391zM279 518q0 -288 219 -321v645q-219 -33 -219 -324z" />
<glyph unicode="&#xa3;" horiz-adv-x="983" d="M59 614v136h113q-72 152 -72 307q0 190 107.5 301.5t273.5 111.5q199 0 305 -116q100 -111 101 -303h-209q-6 223 -182 223q-84 0 -135.5 -59.5t-51.5 -161.5q0 -152 72 -303h330v-136h-279q37 -123 37 -180q0 -100 -63 -221q8 0 112 -16q78 -12 117 -13q115 0 199 68 l129 -162q-125 -102 -297 -102q-37 0 -194 20.5t-206 20.5q-90 0 -180 -41v196q63 37 150 41q37 100 36 174q0 59 -49 215h-164z" />
<glyph unicode="&#xa4;" horiz-adv-x="983" d="M31 375l100 102q-78 96 -78 252t78 254l-100 100l108 107l101 -100q102 80 254 79q145 0 251 -77l101 98l106 -107l-98 -100q80 -104 80 -254q0 -152 -80 -254l98 -100l-106 -107l-101 101q-104 -80 -251 -80t-254 80l-101 -101zM213 729q0 -135 77 -214t204 -79 t203.5 79t76.5 214t-76.5 214t-203.5 79t-204 -79t-77 -214z" />
<glyph unicode="&#xa5;" horiz-adv-x="983" d="M-29 1458h222l299 -647l299 647h221l-328 -667h213v-136h-279l-28 -55v-137h307v-135h-307v-328h-197v328h-307v135h307v137l-28 55h-279v136h213z" />
<glyph unicode="&#xa6;" horiz-adv-x="454" d="M147 -12v555h160v-555h-160zM147 915v555h160v-555h-160z" />
<glyph unicode="&#xa7;" horiz-adv-x="983" d="M94 551q0 145 37 213q43 78 164 131q-135 76 -135 244q0 143 95 236t237 93q145 0 237 -86q102 -94 102 -266h-184q0 76 -41 122t-114 46q-72 0 -113 -43q-35 -35 -35 -86q0 -66 45 -98q39 -29 166 -70q184 -59 250 -129q84 -90 84 -283q0 -133 -33 -196 q-39 -78 -160 -141q158 -66 158 -263q0 -164 -108.5 -266t-264.5 -102q-143 0 -241 100q-105 105 -105 273h184q10 -176 177 -177q72 0 116.5 42t44.5 118t-36.5 107.5t-169.5 76.5l-78 27q-166 57 -222.5 137t-56.5 240zM303 567q0 -111 35 -159q52 -74 154 -74t153 74 q35 49 35 159q0 113 -43 168q-49 61 -145 62q-98 0 -152 -70q-37 -49 -37 -160z" />
<glyph unicode="&#xa8;" horiz-adv-x="491" d="M-45 1200v221h221v-221h-221zM315 1200v221h222v-221h-222z" />
<glyph unicode="&#xa9;" horiz-adv-x="1638" d="M78 729q0 307 217 524t524 217t524.5 -217t217.5 -524t-217.5 -524t-524.5 -217t-524 217t-217 524zM238 729q0 -258 164.5 -426t416.5 -168t417 168t165 426t-165 426t-417 168t-416.5 -168t-164.5 -426zM395 729q0 211 118 342t327 131q154 0 258 -86t123 -248h-148 q-16 82 -80.5 134.5t-150.5 52.5q-133 0 -210 -92.5t-77 -229.5q0 -133 82 -231.5t209 -98.5q88 0 150.5 55.5t76.5 141.5h148q-27 -162 -128.5 -253t-246.5 -91q-205 0 -328 133t-123 340z" />
<glyph unicode="&#xaa;" horiz-adv-x="665" d="M12 1016q0 88 56.5 145.5t154.5 57.5h230v36q0 80 -140 80q-121 0 -151 -47l-107 90q70 92 252 92q305 0 305 -204v-426h-159v59h-4q-41 -68 -164 -68q-137 0 -209 58q-63 49 -64 127zM172 1028q0 -61 127 -61q84 0 109 10q45 19 45 82v37h-164q-117 0 -117 -68z" />
<glyph unicode="&#xab;" horiz-adv-x="983" d="M96 567l418 414v-209l-209 -205l209 -205v-208zM469 567l418 414v-209l-209 -205l209 -205v-208z" />
<glyph unicode="&#xac;" horiz-adv-x="1228" d="M96 643v160h1037v-582h-160v422h-877z" />
<glyph unicode="&#xad;" horiz-adv-x="692" d="M16 356l68 250h504l-68 -250h-504z" />
<glyph unicode="&#xae;" horiz-adv-x="1638" d="M78 729q0 307 217 524t524 217t524.5 -217t217.5 -524t-217.5 -524t-524.5 -217t-524 217t-217 524zM238 729q0 -258 164.5 -426t416.5 -168t417 168t165 426t-165 426t-417 168t-416.5 -168t-164.5 -426zM539 317v865h327q297 0 297 -258q0 -225 -221 -252l248 -355 h-172l-248 351h-84v-351h-147zM686 803h102q111 0 158 18q70 27 70 103q0 123 -195 123h-135v-244z" />
<glyph unicode="&#xaf;" horiz-adv-x="491" d="M-49 1243v135h590v-135h-590z" />
<glyph unicode="&#xb0;" horiz-adv-x="819" d="M117 1178q0 121 86 206.5t207 85.5t206.5 -86t85.5 -206q0 -121 -86 -207t-206 -86q-121 0 -207 86t-86 207zM221 1178q0 -78 55.5 -133.5t133.5 -55.5t133 55.5t55 133.5t-55.5 133t-132.5 55q-78 0 -133.5 -55t-55.5 -133z" />
<glyph unicode="&#xb1;" horiz-adv-x="1228" d="M96 0v160h1037v-160h-1037zM96 580v159h439v297h159v-297h439v-159h-439v-297h-159v297h-439z" />
<glyph unicode="&#xb2;" horiz-adv-x="638" d="M31 588v147l360 385q45 49 45 99q0 104 -112 104q-104 0 -115 -127h-172q0 121 80 197.5t200 76.5q127 0 209 -72.5t82 -178.5q0 -94 -65 -164l-303 -320h368v-147h-577z" />
<glyph unicode="&#xb3;" horiz-adv-x="638" d="M10 825h172q35 -98 140 -98q59 0 97 32t38 85q0 55 -42 91t-106 36h-76v135h66q147 0 147 113q0 43 -34.5 73.5t-85.5 30.5q-113 0 -138 -106h-172q8 111 88 182t203 71q143 0 232 -77q80 -70 79 -172q0 -121 -104 -181q115 -63 115 -192q0 -121 -87 -194.5t-231 -73.5 q-262 0 -301 245z" />
<glyph unicode="&#xb4;" horiz-adv-x="491" d="M88 1171l188 299h275l-291 -299h-172z" />
<glyph unicode="&#xb6;" horiz-adv-x="1228" d="M98 1065q0 195 127 297q119 96 340 96h430v-1837h-159v1702h-148v-1702h-160v1063q-186 0 -308 109.5t-122 271.5z" />
<glyph unicode="&#xb7;" horiz-adv-x="491" d="M109 598q0 57 39.5 97t97.5 40q57 0 97 -40t40 -97t-40 -97t-97 -40t-97 40t-40 97z" />
<glyph unicode="&#xb8;" horiz-adv-x="491" d="M10 -414l37 86q84 -31 143 -30q119 0 119 86q0 76 -100 75q-41 0 -78 -22l-45 39l129 180h104l-90 -123h4q25 8 56 8q82 0 131 -45t49 -110q0 -94 -72.5 -143.5t-179.5 -49.5q-82 0 -207 49z" />
<glyph unicode="&#xb9;" horiz-adv-x="638" d="M104 1200v172l136 90h172v-874h-172v702z" />
<glyph unicode="&#xba;" horiz-adv-x="665" d="M31 1151q0 86 8 123q14 59 57 106q82 90 238 90q154 0 235 -90q43 -47 58 -106q8 -37 8 -123t-8 -123q-14 -59 -58 -106q-82 -90 -237 -91q-154 0 -236 91q-43 47 -57 106q-8 37 -8 123zM190 1151q0 -98 31 -135q39 -49 111 -49q74 0 112 49q31 37 31 135t-31 135 q-39 49 -110 49q-74 0 -113 -49q-31 -37 -31 -135z" />
<glyph unicode="&#xbb;" horiz-adv-x="983" d="M96 154v208l209 205l-209 205v209l418 -414zM469 154v208l209 205l-209 205v209l418 -414z" />
<glyph unicode="&#xbc;" horiz-adv-x="1476" d="M104 1200v172l136 90h172v-874h-172v702zM199 -35l882 1528h136l-883 -1528h-135zM770 127v147l317 596h173l-312 -596h223v226h172v-226h68v-147h-68v-127h-172v127h-401z" />
<glyph unicode="&#xbd;" horiz-adv-x="1476" d="M104 1200v172l136 90h172v-874h-172v702zM147 -35l883 1528h135l-882 -1528h-136zM834 0v147l360 385q45 49 45 99q0 104 -113 104q-104 0 -114 -127h-172q0 121 79.5 198t200.5 77q127 0 209 -73t82 -179q0 -94 -65 -164l-304 -320h369v-147h-577z" />
<glyph unicode="&#xbe;" horiz-adv-x="1476" d="M10 825h172q35 -98 140 -98q59 0 97 32t38 85q0 55 -42 91t-106 36h-76v135h66q147 0 147 113q0 43 -34.5 73.5t-85.5 30.5q-113 0 -138 -106h-172q8 111 88 182t203 71q143 0 232 -77q80 -70 79 -172q0 -121 -104 -181q115 -63 115 -192q0 -121 -87 -194.5t-231 -73.5 q-262 0 -301 245zM260 -35l883 1528h135l-883 -1528h-135zM770 127v147l317 596h173l-312 -596h223v226h172v-226h68v-147h-68v-127h-172v127h-401z" />
<glyph unicode="&#xbf;" horiz-adv-x="948" d="M106 -39q0 125 66 215l186 256q35 47 35 129v117h209v-133q0 -123 -53 -197l-182 -254q-51 -72 -52 -135q0 -80 55.5 -131t121.5 -51q188 0 188 223h209v-41q0 -162 -115 -276.5t-272 -114.5q-160 0 -275 106q-121 113 -121 287zM393 829v209h209v-209h-209z" />
<glyph unicode="&#xc0;" horiz-adv-x="1249" d="M2 0l530 1458h185l530 -1458h-233l-113 326h-553l-112 -326h-234zM213 1876h254l158 -299l-90 20zM412 522h426l-211 637h-4z" />
<glyph unicode="&#xc1;" horiz-adv-x="1249" d="M2 0l530 1458h185l530 -1458h-233l-113 326h-553l-112 -326h-234zM412 522h426l-211 637h-4zM625 1577l157 299h254l-321 -279z" />
<glyph unicode="&#xc2;" horiz-adv-x="1249" d="M2 0l530 1458h185l530 -1458h-233l-113 326h-553l-112 -326h-234zM340 1495l186 254h197l186 -254h-168l-116 150l-117 -150h-168zM412 522h426l-211 637h-4z" />
<glyph unicode="&#xc3;" horiz-adv-x="1249" d="M2 0l530 1458h185l530 -1458h-233l-113 326h-553l-112 -326h-234zM313 1577q35 76 97 125q70 53 145 53q37 0 98.5 -29.5t89.5 -29.5q61 0 101 69h96q-94 -176 -238 -176q-39 0 -108.5 26.5t-97.5 26.5q-68 -2 -88 -65h-95zM412 522h426l-211 637h-4z" />
<glyph unicode="&#xc4;" horiz-adv-x="1249" d="M2 0l530 1458h185l530 -1458h-233l-113 326h-553l-112 -326h-234zM334 1558v221h221v-221h-221zM412 522h426l-211 637h-4zM694 1558v221h222v-221h-222z" />
<glyph unicode="&#xc5;" horiz-adv-x="1249" d="M2 0l530 1458h185l530 -1458h-233l-113 326h-553l-112 -326h-234zM412 522h426l-211 637h-4zM414 1710q0 88 61.5 149.5t149.5 61.5t149.5 -61.5t61.5 -149.5t-61.5 -149.5t-149.5 -61.5t-149.5 61.5t-61.5 149.5zM496 1710q0 -53 38 -91t91 -38t91 37.5t38 91.5 q0 53 -38 91t-91 38t-91 -38t-38 -91z" />
<glyph unicode="&#xc6;" horiz-adv-x="1857" d="M-23 0l793 1458h1034v-209h-710v-415h606v-197h-606v-428h710v-209h-932v326h-485l-176 -326h-234zM492 522h380v740h-4z" />
<glyph unicode="&#xc7;" horiz-adv-x="1138" d="M104 729q0 246 15 338q10 70 49 141q59 109 168 178q129 84 289 84q201 0 342 -127q135 -119 170 -305h-234q-27 90 -102.5 150.5t-175.5 60.5q-141 0 -226 -106q-57 -74 -69 -199q-4 -33 -4 -215t4 -215q12 -125 69 -199q84 -106 226 -106q186 0 278 199h234 q-37 -178 -154 -286t-283 -130l-86 -115h4q25 8 56 8q82 0 131 -45t49 -110q0 -94 -72.5 -143.5t-179.5 -49.5q-82 0 -207 49l37 86q84 -31 143 -30q119 0 119 86q0 76 -100 75q-41 0 -78 -22l-45 39l123 168q-147 8 -268 90q-100 70 -158 172q-39 70 -49 141 q-14 90 -15 338z" />
<glyph unicode="&#xc8;" horiz-adv-x="1138" d="M154 0v1458h931v-209h-710v-415h606v-197h-606v-428h710v-209h-931zM199 1876h254l157 -299l-90 20z" />
<glyph unicode="&#xc9;" horiz-adv-x="1138" d="M154 0v1458h931v-209h-710v-415h606v-197h-606v-428h710v-209h-931zM612 1579l158 299h254l-322 -279z" />
<glyph unicode="&#xca;" horiz-adv-x="1138" d="M154 0v1458h931v-209h-710v-415h606v-197h-606v-428h710v-209h-931zM326 1536l186 254h197l186 -254h-168l-117 150l-116 -150h-168z" />
<glyph unicode="&#xcb;" horiz-adv-x="1138" d="M154 0v1458h931v-209h-710v-415h606v-197h-606v-428h710v-209h-931zM340 1558v221h221v-221h-221zM700 1558v221h222v-221h-222z" />
<glyph unicode="&#xcc;" horiz-adv-x="528" d="M-150 1876h254l158 -299l-90 20zM154 0v1458h221v-1458h-221z" />
<glyph unicode="&#xcd;" horiz-adv-x="528" d="M154 0v1458h221v-1458h-221zM262 1577l158 299h254l-322 -279z" />
<glyph unicode="&#xce;" horiz-adv-x="528" d="M-70 1529l217 299h233l218 -299h-197l-137 177l-137 -177h-197zM154 0v1458h221v-1458h-221z" />
<glyph unicode="&#xcf;" horiz-adv-x="528" d="M-27 1558v221h221v-221h-221zM154 0v1458h221v-1458h-221zM333 1558v221h222v-221h-222z" />
<glyph unicode="&#xd0;" horiz-adv-x="1290" d="M0 637v197h154v624h510q301 0 444 -246q53 -90 66 -174q12 -76 12 -309q0 -197 -6 -252q-14 -139 -76 -235q-154 -242 -455 -242h-495v637h-154zM375 209h264q184 0 270 127q37 55 46.5 118.5t9.5 266.5t-11 270q-12 76 -55 135q-90 123 -260 123h-264v-415h278v-197 h-278v-428z" />
<glyph unicode="&#xd1;" horiz-adv-x="1400" d="M154 0v1458h208l660 -1036h4v1036h221v-1458h-209l-659 1036h-4v-1036h-221zM336 1550q14 106 76.5 172t155.5 66q53 0 146 -39t132 -39q80 0 96 90h123q-43 -238 -225 -238q-55 0 -155.5 38t-139.5 38q-37 0 -61.5 -25.5t-24.5 -62.5h-123z" />
<glyph unicode="&#xd2;" horiz-adv-x="1249" d="M104 729q0 244 15 338q31 199 217 319q129 84 289 84q141 0 265 -69.5t191 -192.5q39 -70 49 -141q14 -94 15 -338q0 -244 -15 -338q-31 -199 -217 -319q-129 -84 -288 -84q-141 0 -265 69.5t-192 192.5q-39 70 -49 141q-15 94 -15 338zM213 1886h254l158 -299l-90 21z M326 729q0 -176 4 -215q14 -137 84 -217q78 -88 211 -88t211 88q70 80 84 217q4 39 4 215t-4 215q-14 137 -84 217q-78 88 -211 88t-211 -88q-70 -80 -84 -217q-4 -39 -4 -215z" />
<glyph unicode="&#xd3;" horiz-adv-x="1249" d="M104 729q0 244 15 338q31 199 217 319q129 84 289 84q141 0 265 -69.5t191 -192.5q39 -70 49 -141q14 -94 15 -338q0 -244 -15 -338q-31 -199 -217 -319q-129 -84 -288 -84q-141 0 -265 69.5t-192 192.5q-39 70 -49 141q-15 94 -15 338zM326 729q0 -176 4 -215 q14 -137 84 -217q78 -88 211 -88t211 88q70 80 84 217q4 39 4 215t-4 215q-14 137 -84 217q-78 88 -211 88t-211 -88q-70 -80 -84 -217q-4 -39 -4 -215zM627 1589l157 299h254l-321 -278z" />
<glyph unicode="&#xd4;" horiz-adv-x="1249" d="M104 729q0 244 15 338q31 199 217 319q129 84 289 84q141 0 265 -69.5t191 -192.5q39 -70 49 -141q14 -94 15 -338q0 -244 -15 -338q-31 -199 -217 -319q-129 -84 -288 -84q-141 0 -265 69.5t-192 192.5q-39 70 -49 141q-15 94 -15 338zM326 729q0 -176 4 -215 q14 -137 84 -217q78 -88 211 -88t211 88q70 80 84 217q4 39 4 215t-4 215q-14 137 -84 217q-78 88 -211 88t-211 -88q-70 -80 -84 -217q-4 -39 -4 -215zM340 1536l186 254h197l186 -254h-168l-116 150l-117 -150h-168z" />
<glyph unicode="&#xd5;" horiz-adv-x="1249" d="M104 729q0 244 15 338q31 199 217 319q129 84 289 84q141 0 265 -69.5t191 -192.5q39 -70 49 -141q14 -94 15 -338q0 -244 -15 -338q-31 -199 -217 -319q-129 -84 -288 -84q-141 0 -265 69.5t-192 192.5q-39 70 -49 141q-15 94 -15 338zM313 1587q35 76 97 125 q70 53 145 53q37 0 98.5 -29.5t89.5 -29.5q61 0 101 70h96q-94 -176 -238 -177q-39 0 -108.5 27t-97.5 27q-68 -3 -88 -66h-95zM326 729q0 -176 4 -215q14 -137 84 -217q78 -88 211 -88t211 88q70 80 84 217q4 39 4 215t-4 215q-14 137 -84 217q-78 88 -211 88t-211 -88 q-70 -80 -84 -217q-4 -39 -4 -215z" />
<glyph unicode="&#xd6;" horiz-adv-x="1249" d="M104 729q0 246 15 338q10 70 49 141q59 109 168 178q129 84 289 84t288 -84q109 -70 168 -178q39 -72 49 -141q14 -92 15 -338q0 -246 -15 -338q-10 -70 -49 -141q-59 -109 -168 -178q-129 -84 -288 -84q-160 0 -289 84q-109 70 -168 178q-39 72 -49 141q-15 92 -15 338z M326 729q0 -182 4 -215q12 -125 69 -199q84 -106 226 -106q141 0 225 106q57 74 70 199q4 33 4 215t-4 215q-12 125 -70 199q-84 106 -225 106t-226 -106q-57 -74 -69 -199q-4 -33 -4 -215zM334 1558v221h221v-221h-221zM694 1558v221h222v-221h-222z" />
<glyph unicode="&#xd7;" horiz-adv-x="1228" d="M137 156l367 362l-367 365l113 114l364 -366l363 366l115 -114l-367 -365l367 -362l-115 -113l-363 367l-364 -367z" />
<glyph unicode="&#xd8;" horiz-adv-x="1249" d="M104 729q0 246 15 338q10 70 49 141q59 109 168 178q129 84 289 84q164 0 299 -90l100 181l94 -52l-110 -200q45 -47 73 -101q39 -70 49 -141q14 -90 15 -338q0 -246 -15 -338q-10 -70 -49 -141q-59 -109 -168 -178q-129 -84 -288 -84q-170 0 -301 94l-103 -184l-94 51 l113 203q-45 51 -72 98q-39 70 -49 141q-14 90 -15 338zM326 729q-1 -284 36 -356l451 809q-78 68 -188 67q-141 0 -226 -106q-57 -74 -69 -199q-4 -33 -4 -215zM434 281q76 -72 191 -72q141 0 225 106q57 74 70 199q4 33 4 215q0 289 -39 361z" />
<glyph unicode="&#xd9;" horiz-adv-x="1290" d="M127 494v964h221v-940q0 -139 80 -224t217 -85t217 85t80 224v940h221v-964q0 -223 -147.5 -364.5t-370.5 -141.5t-370.5 142.5t-147.5 363.5zM227 1815h254l158 -299l-90 20z" />
<glyph unicode="&#xda;" horiz-adv-x="1290" d="M127 494v964h221v-940q0 -139 80 -224t217 -85t217 85t80 224v940h221v-964q0 -223 -147.5 -364.5t-370.5 -141.5t-370.5 142.5t-147.5 363.5zM641 1516l158 299h254l-322 -279z" />
<glyph unicode="&#xdb;" horiz-adv-x="1290" d="M127 494v964h221v-940q0 -145 86 -229q80 -80 211 -80t214 82t83 227v940h221v-964q0 -223 -148.5 -364.5t-369.5 -141.5t-366 139q-152 144 -152 367zM311 1529l217 299h233l218 -299h-197l-137 177l-137 -177h-197z" />
<glyph unicode="&#xdc;" horiz-adv-x="1290" d="M127 494v964h221v-940q0 -145 86 -229q80 -80 211 -80t214 82t83 227v940h221v-964q0 -223 -148.5 -364.5t-369.5 -141.5t-366 139q-152 144 -152 367zM354 1558v221h221v-221h-221zM714 1558v221h222v-221h-222z" />
<glyph unicode="&#xdd;" d="M-31 1458h234l309 -647l309 647h234l-439 -858v-600h-208v600zM512 1516l158 299h254l-322 -279z" />
<glyph unicode="&#xde;" horiz-adv-x="1214" d="M154 0v1458h221v-254h336q211 0 340 -141q117 -129 116 -303q0 -174 -116 -301q-129 -143 -340 -144h-336v-315h-221zM375 524h332q106 0 176 76q63 70 63 160t-63 160q-72 76 -178 75h-330v-471z" />
<glyph unicode="&#xdf;" horiz-adv-x="1099" d="M131 0v1130q0 166 123 256q117 84 313 84q180 0 291 -94t111 -252q0 -168 -150 -231q150 -59 150 -227v-371q0 -125 -81 -210t-208 -85h-129v197h74q76 0 105.5 23.5t29.5 84.5v365q0 121 -115 121h-121v196h125q111 0 111 121q0 82 -33 111q-53 47 -180 43 q-207 -6 -207 -132v-1130h-209z" />
<glyph unicode="&#xe0;" d="M53 305q0 143 96.5 225t241.5 82h289v109q0 84 -70 113q-45 20 -143 20q-147 0 -197 -80l-164 125q109 152 351 152q432 0 432 -342v-709h-209v92h-4q-63 -104 -256 -104q-156 0 -256 80q-111 86 -111 237zM96 1497h228l143 -268l-82 18zM250 315q0 -131 196 -131 q129 0 170 23q64 35 64 158v75h-250q-180 0 -180 -125z" />
<glyph unicode="&#xe1;" d="M53 305q0 143 96.5 225t241.5 82h289v109q0 84 -70 113q-45 20 -143 20q-147 0 -197 -80l-164 125q109 152 351 152q432 0 432 -342v-709h-209v92h-4q-63 -104 -256 -104q-156 0 -256 80q-111 86 -111 237zM250 315q0 -131 196 -131q129 0 170 23q64 35 64 158v75h-250 q-180 0 -180 -125zM467 1227l141 268h230l-289 -250z" />
<glyph unicode="&#xe2;" d="M53 305q0 143 96.5 225t241.5 82h289v109q0 84 -70 113q-45 20 -143 20q-147 0 -197 -80l-164 125q109 152 351 152q432 0 432 -342v-709h-209v92h-4q-63 -104 -256 -104q-156 0 -256 80q-111 86 -111 237zM211 1130l168 230h176l168 -230h-152l-104 136l-107 -136h-149z M250 315q0 -131 196 -131q129 0 170 23q64 35 64 158v75h-250q-180 0 -180 -125z" />
<glyph unicode="&#xe3;" d="M53 305q0 143 96.5 225t241.5 82h289v109q0 84 -70 113q-45 20 -143 20q-147 0 -197 -80l-164 125q109 152 351 152q432 0 432 -342v-709h-209v92h-4q-63 -104 -256 -104q-156 0 -256 80q-111 86 -111 237zM186 1229q31 68 86 110q63 49 131 50q33 0 88.5 -27t81.5 -27 q55 0 91 64h88q-84 -158 -215 -158q-35 0 -98.5 23.5t-88.5 23.5q-60 -2 -78 -59h-86zM250 315q0 -131 196 -131q129 0 170 23q64 35 64 158v75h-250q-180 0 -180 -125z" />
<glyph unicode="&#xe4;" d="M53 305q0 131 86 215q92 92 252 92h289v109q0 74 -49 103.5t-164 29.5q-147 0 -197 -80l-164 125q109 152 351 152q432 0 432 -342v-709h-209v92h-4q-63 -104 -256 -104q-170 0 -270 92q-96 86 -97 225zM221 1200v221h221v-221h-221zM250 315q0 -131 196 -131 q131 0 170 23q64 35 64 158v75h-250q-180 0 -180 -125zM581 1200v221h222v-221h-222z" />
<glyph unicode="&#xe5;" d="M53 305q0 131 86 215q92 92 252 92h289v109q0 74 -49 103.5t-164 29.5q-147 0 -197 -80l-164 125q109 152 351 152q432 0 432 -342v-709h-209v92h-4q-63 -104 -256 -104q-170 0 -270 92q-96 86 -97 225zM250 315q0 -131 196 -131q131 0 170 23q64 35 64 158v75h-250 q-180 0 -180 -125zM301 1352q0 88 61.5 149.5t149.5 61.5t149.5 -61.5t61.5 -149.5t-61.5 -149.5t-149.5 -61.5t-149.5 61.5t-61.5 149.5zM383 1352q0 -53 38 -91t91 -38t91 37.5t38 91.5q0 53 -38 91t-91 38t-91 -38t-38 -91z" />
<glyph unicode="&#xe6;" horiz-adv-x="1593" d="M39 305q0 125 83 216t228 91h316v109q0 74 -49.5 103.5t-163.5 29.5q-148 0 -197 -80l-164 125q109 152 350 152q250 0 338 -131q43 59 131 96q82 35 170 35q178 0 301 -119q127 -125 127 -320v-172h-647q0 -123 68.5 -189.5t179.5 -66.5q131 0 227 101l152 -129 q-145 -168 -375 -168q-240 0 -362 159q-104 -160 -330 -159q-170 0 -276.5 83t-106.5 234zM236 315q0 -131 196 -131q131 0 170 23q63 35 64 158v75h-250q-180 0 -180 -125zM862 612h438q-4 115 -64 178.5t-155 63.5q-94 0 -155.5 -63.5t-63.5 -178.5z" />
<glyph unicode="&#xe7;" horiz-adv-x="909" d="M55 518q0 266 146 410q127 123 325 123q217 0 373 -181l-154 -137q-88 109 -210 109q-270 0 -271 -324q0 -322 271 -321q123 0 210 108l154 -137q-129 -150 -303 -178l-86 -113h4q25 8 55 8q82 0 131.5 -45t49.5 -110q0 -94 -73 -143.5t-179 -49.5q-82 0 -207 49l37 86 q84 -31 143 -30q119 0 119 86q0 76 -101 75q-41 0 -77 -22l-45 39l122 168q-186 14 -301 137q-133 139 -133 393z" />
<glyph unicode="&#xe8;" d="M84 516q0 225 98 369q115 166 330 166q188 0 308 -125t120 -314v-172h-647q0 -117 65.5 -186.5t182.5 -69.5q131 0 227 101l152 -129q-145 -168 -375 -168q-233 0 -352 149q-109 137 -109 379zM141 1497h228l143 -268l-82 18zM293 612h438q-4 106 -57 170q-59 72 -162 72 q-102 0 -159.5 -69t-59.5 -173z" />
<glyph unicode="&#xe9;" d="M84 516q0 225 98 369q115 166 330 166q188 0 308 -125t120 -314v-172h-647q0 -117 65.5 -186.5t182.5 -69.5q131 0 227 101l152 -129q-145 -168 -375 -168q-233 0 -352 149q-109 137 -109 379zM293 612h438q-4 106 -57 170q-59 72 -162 72q-102 0 -159.5 -69t-59.5 -173z M514 1227l141 268h230l-289 -250z" />
<glyph unicode="&#xea;" d="M84 516q0 225 98 369q115 166 330 166q188 0 308 -125t120 -314v-172h-647q0 -117 65.5 -186.5t182.5 -69.5q131 0 227 101l152 -129q-145 -168 -375 -168q-233 0 -352 149q-109 137 -109 379zM256 1130l168 230h176l168 -230h-152l-104 136l-106 -136h-150zM293 612h438 q-4 106 -57 170q-59 72 -162 72q-102 0 -159.5 -69t-59.5 -173z" />
<glyph unicode="&#xeb;" d="M84 516q0 279 139 418q115 117 289 117q178 0 301 -119q127 -125 127 -320v-172h-647q0 -123 68.5 -189.5t179.5 -66.5q131 0 227 101l152 -129q-145 -168 -375 -168q-193 0 -309 104q-152 133 -152 424zM221 1200v221h221v-221h-221zM293 612h438q-4 115 -64.5 178.5 t-154.5 63.5t-155.5 -63.5t-63.5 -178.5zM581 1200v221h222v-221h-222z" />
<glyph unicode="&#xec;" horiz-adv-x="491" d="M-125 1477h227l144 -269l-82 19zM141 0v1038h209v-1038h-209z" />
<glyph unicode="&#xed;" horiz-adv-x="491" d="M141 0v1038h209v-1038h-209zM246 1208l141 269h229l-288 -250z" />
<glyph unicode="&#xee;" horiz-adv-x="491" d="M-88 1171l217 299h233l218 -299h-197l-137 177l-137 -177h-197zM141 0v1038h209v-1038h-209z" />
<glyph unicode="&#xef;" horiz-adv-x="491" d="M-45 1200v221h221v-221h-221zM141 0v1038h209v-1038h-209zM315 1200v221h222v-221h-222z" />
<glyph unicode="&#xf0;" d="M84 520q0 162 27 250q25 78 86 148q121 133 297 133q141 0 223 -93l4 5q-31 152 -129 249l-207 -106l-78 113l170 88q-72 47 -182 84l65 153q176 -53 299 -143l213 110l78 -112l-184 -96q115 -139 147 -289q27 -127 27 -461q0 -170 -10 -227q-23 -115 -103 -205 q-121 -133 -315 -133q-195 0 -315 133q-63 70 -86 147q-27 88 -27 252zM293 520q0 -176 52 -249.5t167 -73.5q119 0 176 88q43 65 43 233q0 176 -52 250t-167 74q-119 0 -176 -88q-43 -66 -43 -234z" />
<glyph unicode="&#xf1;" horiz-adv-x="1099" d="M135 0v1038h209v-110h4q98 123 270 123q133 0 234 -93q113 -102 113 -268v-690h-209v618q0 104 -57.5 164t-147.5 60q-92 0 -149.5 -59.5t-57.5 -164.5v-618h-209zM186 1192q14 106 76.5 172t155.5 66q53 0 146 -39t132 -39q80 0 96 90h123q-43 -238 -225 -238 q-55 0 -155.5 38t-139.5 38q-37 0 -61.5 -25.5t-24.5 -62.5h-123z" />
<glyph unicode="&#xf2;" d="M84 520q0 137 16 211q25 106 97 187q119 133 315 133q197 0 315 -133q72 -80 97 -187q16 -74 16 -211q0 -139 -16 -213q-25 -109 -97 -186q-121 -133 -315 -133q-195 0 -315 133q-72 78 -97 186q-16 74 -16 213zM141 1497h228l143 -268l-82 18zM293 520q0 -150 37 -221 q49 -102 182 -102q119 0 176 88q43 65 43 233q0 150 -37 221q-49 102 -182 103q-119 0 -176 -88q-43 -66 -43 -234z" />
<glyph unicode="&#xf3;" d="M84 520q0 137 16 211q25 106 97 187q119 133 315 133q197 0 315 -133q72 -80 97 -187q16 -74 16 -211q0 -139 -16 -213q-25 -109 -97 -186q-121 -133 -315 -133q-195 0 -315 133q-72 78 -97 186q-16 74 -16 213zM293 520q0 -150 37 -221q49 -102 182 -102q119 0 176 88 q43 65 43 233q0 150 -37 221q-49 102 -182 103q-119 0 -176 -88q-43 -66 -43 -234zM514 1227l141 268h230l-289 -250z" />
<glyph unicode="&#xf4;" d="M84 520q0 137 16 211q25 106 97 187q119 133 315 133q197 0 315 -133q72 -80 97 -187q16 -74 16 -211q0 -139 -16 -213q-25 -109 -97 -186q-121 -133 -315 -133q-195 0 -315 133q-72 78 -97 186q-16 74 -16 213zM256 1130l168 230h176l168 -230h-152l-104 136l-106 -136 h-150zM293 520q0 -150 37 -221q49 -102 182 -102q119 0 176 88q43 65 43 233q0 150 -37 221q-49 102 -182 103q-119 0 -176 -88q-43 -66 -43 -234z" />
<glyph unicode="&#xf5;" d="M84 520q0 137 16 211q25 106 97 187q119 133 315 133q197 0 315 -133q72 -80 97 -187q16 -74 16 -211q0 -139 -16 -213q-25 -109 -97 -186q-121 -133 -315 -133q-195 0 -315 133q-72 78 -97 186q-16 74 -16 213zM231 1229q31 68 86 110q63 49 132 50q33 0 88 -27t81 -27 q55 0 91 64h88q-84 -158 -215 -158q-35 0 -98.5 23.5t-88.5 23.5q-60 -2 -78 -59h-86zM293 520q0 -150 37 -221q49 -102 182 -102q119 0 176 88q43 65 43 233q0 150 -37 221q-49 102 -182 103q-119 0 -176 -88q-43 -66 -43 -234z" />
<glyph unicode="&#xf6;" d="M84 520q0 162 27 250q25 78 86 148q121 133 315 133q195 0 315 -133q61 -70 86 -148q27 -88 27 -250q0 -164 -27 -252q-23 -78 -86 -147q-121 -133 -315 -133q-195 0 -315 133q-63 70 -86 147q-27 88 -27 252zM221 1200v221h221v-221h-221zM293 520q0 -176 52 -249.5 t167 -73.5q119 0 176 88q43 65 43 233q0 176 -52 250t-167 74q-119 0 -176 -88q-43 -66 -43 -234zM581 1200v221h222v-221h-222z" />
<glyph unicode="&#xf7;" horiz-adv-x="1228" d="M96 438v160h1037v-160h-1037zM477 94q0 57 40 97t97 40t97.5 -39.5t40.5 -97.5q0 -57 -40 -97t-98 -40q-57 0 -97 40t-40 97zM477 942q0 57 40 97t97 40t97.5 -40t40.5 -97t-40 -97t-98 -40q-57 0 -97 40t-40 97z" />
<glyph unicode="&#xf8;" d="M84 520q0 162 27 250q25 78 86 148q121 133 315 133q119 0 215 -54l90 156l90 -53l-96 -166q72 -72 98 -154q31 -90 31 -260q0 -164 -27 -252q-23 -78 -86 -147q-121 -133 -315 -133q-123 0 -213 55l-92 -158l-90 54l96 167q-82 74 -111 191q-18 78 -18 223zM293 520 q0 -160 33 -217l295 512q-49 27 -109 27q-119 0 -176 -88q-43 -66 -43 -234zM403 225q47 -29 109 -28q119 0 176 88q43 66 43 233q0 160 -33 219z" />
<glyph unicode="&#xf9;" horiz-adv-x="1099" d="M135 348v690h209v-618q0 -98 54.5 -160.5t152.5 -62.5q96 0 150.5 62.5t54.5 160.5v618h209v-1038h-209v111h-4q-98 -123 -269 -123q-150 0 -249 104t-99 256zM178 1427h228l143 -268l-82 19z" />
<glyph unicode="&#xfa;" horiz-adv-x="1099" d="M135 348v690h209v-618q0 -98 54.5 -160.5t152.5 -62.5q96 0 150.5 62.5t54.5 160.5v618h209v-1038h-209v111h-4q-98 -123 -269 -123q-150 0 -249 104t-99 256zM551 1159l141 268h230l-289 -249z" />
<glyph unicode="&#xfb;" horiz-adv-x="1099" d="M135 348v690h209v-618q0 -104 57.5 -163.5t149.5 -59.5q90 0 147.5 59t57.5 164v618h209v-1038h-209v111h-4q-98 -123 -269 -123q-135 0 -235 92q-113 102 -113 268zM205 1171l217 299h233l218 -299h-197l-137 177l-137 -177h-197z" />
<glyph unicode="&#xfc;" horiz-adv-x="1099" d="M135 348v690h209v-618q0 -104 57.5 -163.5t149.5 -59.5q90 0 147.5 59t57.5 164v618h209v-1038h-209v111h-4q-98 -123 -269 -123q-135 0 -235 92q-113 102 -113 268zM248 1200v221h221v-221h-221zM608 1200v221h222v-221h-222z" />
<glyph unicode="&#xfd;" horiz-adv-x="909" d="M-14 1038h221l246 -727h4l245 727h222l-447 -1253q-74 -205 -293 -205h-69v197h61q96 0 125 90l57 174zM457 1159l141 268h229l-288 -249z" />
<glyph unicode="&#xfe;" horiz-adv-x="1062" d="M135 -420v1878h209v-528q111 121 268 121q213 0 308 -181q45 -84 45 -352q0 -158 -7 -205q-12 -121 -67 -190q-104 -135 -279 -135q-139 0 -268 123v-531h-209zM344 518q0 -150 29 -217q47 -104 176 -104q131 0 178 100q29 68 29 221q0 156 -29 223q-47 100 -178 101 q-129 0 -176 -105q-29 -68 -29 -219z" />
<glyph unicode="&#xff;" horiz-adv-x="909" d="M-14 1038h221l246 -727h4l245 727h222l-447 -1253q-74 -205 -293 -205h-69v197h61q96 0 125 90l57 174zM164 1200v221h221v-221h-221zM524 1200v221h222v-221h-222z" />
<glyph unicode="&#x152;" horiz-adv-x="1896" d="M104 729q0 246 15 338q10 70 49 141q59 109 168 178q129 84 289 84q193 0 299 -124v112h915v-209h-694v-415h590v-197h-590v-428h698v-209h-919v115q-49 -57 -134 -92t-165 -35q-160 0 -289 84q-109 70 -168 178q-39 72 -49 141q-14 92 -15 338zM326 729q0 -182 4 -215 q12 -125 69 -199q84 -106 226 -106q141 0 225 106q57 74 70 199q4 33 4 215t-4 215q-12 125 -70 199q-84 106 -225 106t-226 -106q-57 -74 -69 -199q-4 -33 -4 -215z" />
<glyph unicode="&#x153;" horiz-adv-x="1671" d="M84 520q0 162 27 250q25 78 86 148q121 133 315 133q190 0 326 -162q135 162 321 162q178 0 301 -119q127 -125 127 -320v-172h-647q0 -123 68.5 -189.5t179.5 -66.5q131 0 227 101l152 -129q-145 -168 -375 -168q-246 0 -354 166q-119 -166 -326 -166q-195 0 -315 133 q-63 70 -86 147q-27 88 -27 252zM293 520q0 -188 52 -262t167 -74q119 0 176 88q43 66 43 246q0 188 -52 262t-167 74q-119 0 -176 -88q-43 -66 -43 -246zM940 612h438q-4 115 -64.5 178.5t-154.5 63.5t-155.5 -63.5t-63.5 -178.5z" />
<glyph unicode="&#x178;" d="M-31 1458h234l309 -647l309 647h234l-439 -858v-600h-208v600zM221 1558v221h221v-221h-221zM581 1558v221h222v-221h-222z" />
<glyph unicode="&#x2c6;" horiz-adv-x="491" d="M-88 1171l217 299h233l218 -299h-197l-137 177l-137 -177h-197z" />
<glyph unicode="&#x2dc;" horiz-adv-x="491" d="M-119 1192q14 106 76.5 172t155.5 66q53 0 146 -39t132 -39q80 0 96 90h123q-43 -238 -225 -238q-55 0 -155.5 38t-139.5 38q-37 0 -61.5 -25.5t-24.5 -62.5h-123z" />
<glyph unicode="&#x2000;" horiz-adv-x="960" />
<glyph unicode="&#x2001;" horiz-adv-x="1921" />
<glyph unicode="&#x2002;" horiz-adv-x="960" />
<glyph unicode="&#x2003;" horiz-adv-x="1921" />
<glyph unicode="&#x2004;" horiz-adv-x="640" />
<glyph unicode="&#x2005;" horiz-adv-x="480" />
<glyph unicode="&#x2006;" horiz-adv-x="320" />
<glyph unicode="&#x2007;" horiz-adv-x="320" />
<glyph unicode="&#x2008;" horiz-adv-x="240" />
<glyph unicode="&#x2009;" horiz-adv-x="384" />
<glyph unicode="&#x200a;" horiz-adv-x="106" />
<glyph unicode="&#x2010;" horiz-adv-x="833" d="M109 463v209h616v-209h-616z" />
<glyph unicode="&#x2011;" horiz-adv-x="833" d="M109 463v209h616v-209h-616z" />
<glyph unicode="&#x2012;" horiz-adv-x="833" d="M109 463v209h616v-209h-616z" />
<glyph unicode="&#x2013;" d="M0 469v197h1024v-197h-1024z" />
<glyph unicode="&#x2014;" horiz-adv-x="2048" d="M0 469v197h2048v-197h-2048z" />
<glyph unicode="&#x2018;" horiz-adv-x="491" d="M141 1098v209l209 151v-360h-209z" />
<glyph unicode="&#x2019;" horiz-adv-x="491" d="M141 1098v360h209v-209z" />
<glyph unicode="&#x201a;" horiz-adv-x="491" d="M141 -152v361h209v-209z" />
<glyph unicode="&#x201c;" horiz-adv-x="681" d="M78 1098v209l209 151v-360h-209zM395 1098v209l209 151v-360h-209z" />
<glyph unicode="&#x201d;" horiz-adv-x="681" d="M78 1098v360h209v-209zM395 1098v360h209v-209z" />
<glyph unicode="&#x201e;" horiz-adv-x="681" d="M78 -152v361h209v-209zM395 -152v361h209v-209z" />
<glyph unicode="&#x2022;" d="M147 729q0 152 107.5 258.5t257.5 106.5q152 0 258.5 -106.5t106.5 -258.5q0 -150 -106.5 -257t-258.5 -107q-150 0 -257.5 107t-107.5 257z" />
<glyph unicode="&#x2026;" horiz-adv-x="2048" d="M238 0v209h208v-209h-208zM920 0v209h208v-209h-208zM1602 0v209h208v-209h-208z" />
<glyph unicode="&#x202f;" horiz-adv-x="384" />
<glyph unicode="&#x2039;" horiz-adv-x="606" d="M94 567l418 414v-209l-209 -205l209 -205v-208z" />
<glyph unicode="&#x203a;" horiz-adv-x="606" d="M94 154v208l209 205l-209 205v209l418 -414z" />
<glyph unicode="&#x205f;" horiz-adv-x="480" />
<glyph unicode="&#x2122;" horiz-adv-x="2027" d="M82 1311v147h668v-147h-254v-697h-160v697h-254zM901 614v844h250l235 -622l236 622h250v-844h-160v684h-4l-270 -684h-105l-268 684h-4v-684h-160z" />
<glyph unicode="&#x25fc;" horiz-adv-x="1034" d="M0 0v1034h1034v-1034h-1034z" />
</font>
</defs>
</svg>
