<?xml version="1.0" standalone="no"?>
<!DOCTYPE svg PUBLIC "-//W3C//DTD SVG 1.1//EN" "http://www.w3.org/Graphics/SVG/1.1/DTD/svg11.dtd" >
<svg xmlns="http://www.w3.org/2000/svg">
<metadata></metadata>
<defs>
<font id="sfu_dinyyneugroboldcondensed" horiz-adv-x="835" >
<font-face units-per-em="2048" ascent="1638" descent="-410" />
<missing-glyph horiz-adv-x="491" />
<glyph horiz-adv-x="2048" />
<glyph horiz-adv-x="2048" />
<glyph unicode="&#xd;" horiz-adv-x="491" />
<glyph unicode=" "  horiz-adv-x="491" />
<glyph unicode="&#x09;" horiz-adv-x="491" />
<glyph unicode="&#xa0;" horiz-adv-x="491" />
<glyph unicode="!" horiz-adv-x="491" d="M123 111q0 51 36 86.5t87 35.5t87 -35.5t36 -86.5t-36 -87t-87 -36t-87 36t-36 87zM131 1507h229l-38 -1118h-152z" />
<glyph unicode="&#x22;" horiz-adv-x="720" d="M145 1090v417h152v-417h-152zM424 1090v417h151v-417h-151z" />
<glyph unicode="#" d="M0 442v129h174l35 297h-160v129h174l51 443h127l-51 -443h197l51 443h127l-49 -443h160v-129h-174l-35 -297h159v-129h-174l-51 -442h-127l51 442h-196l-51 -442h-127l49 442h-160zM303 571h197l32 297h-196z" />
<glyph unicode="$" d="M6 299l191 45q35 -186 174 -201v498q-162 94 -240 184q-102 121 -102 277q0 158 93 259t249 103v117h96v-117q293 -6 354 -286l-180 -64q-25 174 -174 182v-465q170 -104 250 -192q113 -127 112 -285q0 -160 -102 -267t-260 -112v-143h-96v143q-326 6 -365 324zM217 1128 q0 -124 154 -241v409q-154 -20 -154 -168zM467 143q174 37 174 195q0 74 -57 141q-33 41 -117 107v-443z" />
<glyph unicode="%" horiz-adv-x="1593" d="M168 1133q0 331 256 331t256 -331q0 -332 -256 -332t-256 332zM291 -41l883 1522h131l-883 -1522h-131zM336 1133q0 -193 88 -193t88 193q0 192 -88 192t-88 -192zM913 307q0 332 256 332t256 -332t-256 -332t-256 332zM1081 307q0 -193 88 -192q88 0 88 192 q0 193 -88 193t-88 -193z" />
<glyph unicode="&#x26;" horiz-adv-x="1062" d="M82 350q0 227 287 443q-100 195 -101 327q0 121 75 198t196 77q119 0 196.5 -77t77.5 -198q0 -210 -211 -370l186 -365l99 141l143 -116l-149 -201l108 -209h-209l-43 94q-106 -113 -295 -112q-162 0 -261 102t-99 266zM281 365q0 -84 52 -144.5t134 -60.5q106 0 176 80 l-188 389q-174 -117 -174 -264zM457 1108q0 -98 71 -201q96 102 97 201q0 109 -84 109t-84 -109z" />
<glyph unicode="'" horiz-adv-x="491" d="M170 1090v417h152v-417h-152z" />
<glyph unicode="(" horiz-adv-x="606" d="M150 623q0 542 231 972l176 -88q-209 -399 -209 -884t209 -885l-176 -88q-231 430 -231 973z" />
<glyph unicode=")" horiz-adv-x="606" d="M49 -262q209 399 209 885q0 485 -209 884l176 88q231 -430 232 -972q-1 -543 -232 -973z" />
<glyph unicode="*" horiz-adv-x="720" d="M72 1255l34 111l205 -76l-8 217h115l-8 -217l204 76l35 -111l-209 -59l133 -170l-92 -68l-121 181l-120 -181l-93 68l134 170z" />
<glyph unicode="+" horiz-adv-x="1228" d="M96 442v152h443v442h151v-442h443v-152h-443v-442h-151v442h-443z" />
<glyph unicode="," horiz-adv-x="491" d="M29 -176l129 436h219l-180 -436h-168z" />
<glyph unicode="-" horiz-adv-x="606" d="M104 492v178h398v-178h-398z" />
<glyph unicode="." horiz-adv-x="491" d="M123 111q0 51 36 86.5t87 35.5t87 -35.5t36 -86.5t-36 -87t-87 -36t-87 36t-36 87z" />
<glyph unicode="/" horiz-adv-x="606" d="M33 -31l389 1569h151l-389 -1569h-151z" />
<glyph unicode="0" d="M74 743q0 346 51 498q76 223 293 223t293 -223q51 -152 51 -498q0 -387 -60 -553q-77 -215 -284 -215t-285 215q-59 166 -59 553zM283 743q0 -254 6 -323q27 -256 129 -256q88 0 112 123q23 111 23 456q0 256 -6 314q-23 219 -129 219t-129 -219q-6 -57 -6 -314z" />
<glyph unicode="1" horiz-adv-x="606" d="M41 1036v189q190 86 358 239h39v-1464h-209v1153q-70 -74 -188 -117z" />
<glyph unicode="2" d="M57 0l344 668q158 305 158 438q0 66 -32.5 118t-96.5 52q-131 0 -143 -256h-209q0 444 360 444q154 0 247 -97t93 -251q0 -117 -71 -282q-45 -104 -146 -289l-194 -357h393v-188h-703z" />
<glyph unicode="3" d="M74 395h209q0 -231 133 -231q137 0 137 293q0 285 -162 284q-76 0 -125 -69l-123 94l303 485h-342v189h652v-25l-332 -528q25 6 72 6q266 0 266 -463q0 -188 -86 -311q-96 -143 -277 -144q-326 0 -325 420z" />
<glyph unicode="4" d="M25 272v144l428 1024h188v-989h154v-179h-154v-272h-199v272h-417zM190 451h252v616h-4z" />
<glyph unicode="5" d="M74 367v49h198q0 -262 131 -262q150 0 150 356q0 307 -143 307q-117 0 -125 -153h-179l9 776h600v-189h-412l-8 -356l4 -4q66 104 197 104q147 0 217 -172q49 -123 49 -295q0 -553 -344 -553q-172 0 -262 113q-82 102 -82 279z" />
<glyph unicode="6" d="M61 469q0 233 119 508q70 160 250 463h246q-115 -162 -297 -508h4q49 27 111 26q154 0 221 -184q47 -127 47 -311q0 -197 -76 -328q-92 -160 -274 -160q-350 0 -351 494zM270 473q0 -109 25 -194q39 -125 123 -125q135 0 135 319q0 307 -131 307q-152 0 -152 -307z" />
<glyph unicode="7" d="M94 1251v189h690l-471 -1440h-209l412 1251h-422z" />
<glyph unicode="8" d="M74 403q0 293 186 377q-94 45 -129 123q-31 66 -31 180q0 164 76 267q84 115 242 114q158 0 241 -114q76 -102 76 -267q0 -115 -28 -180q-37 -78 -132 -123q186 -84 187 -377q0 -184 -78 -297q-90 -131 -266 -131t-266 131q-78 113 -78 297zM283 424q0 -260 135 -260 t135 260q0 254 -135 254t-135 -254zM299 1077q0 -221 119 -221t119 221q0 209 -119 209t-119 -209z" />
<glyph unicode="9" d="M74 977q0 195 76 326q94 162 274 161q350 0 350 -493q0 -233 -119 -508q-69 -160 -249 -463h-246q115 162 297 508h-4q-49 -27 -111 -27q-154 0 -221 185q-47 127 -47 311zM283 967q0 -308 131 -308q152 0 151 308q0 109 -24 194q-39 125 -123 125q-135 0 -135 -319z" />
<glyph unicode=":" horiz-adv-x="491" d="M123 111q0 51 36 86.5t87 35.5t87 -35.5t36 -86.5t-36 -87t-87 -36t-87 36t-36 87zM123 967q0 51 36 87t87 36t87 -36t36 -87t-36 -87t-87 -36t-87 36t-36 87z" />
<glyph unicode=";" horiz-adv-x="491" d="M29 -176l129 436h219l-180 -436h-168zM123 967q0 51 36 87t87 36t87 -36t36 -87t-36 -87t-87 -36t-87 36t-36 87z" />
<glyph unicode="&#x3c;" horiz-adv-x="1228" d="M96 449v139l1037 465v-152l-848 -383l848 -383v-151z" />
<glyph unicode="=" horiz-adv-x="1228" d="M96 233v152h1037v-152h-1037zM96 651v152h1037v-152h-1037z" />
<glyph unicode="&#x3e;" horiz-adv-x="1228" d="M96 -16v151l848 383l-848 383v152l1037 -465v-139z" />
<glyph unicode="?" horiz-adv-x="720" d="M41 1102v33q0 180 76 284q86 119 258 119q152 0 231 -100q74 -92 74 -250q0 -164 -96 -307l-90 -136q-49 -74 -66 -151q-12 -58 -16 -205h-179q4 147 15 207q16 115 65 195l86 139q45 72 58.5 123t13.5 139q0 168 -106 168q-76 0 -101 -98q-12 -47 -14 -160h-209z M201 111q0 51 35.5 86.5t87.5 35.5q51 0 86.5 -35.5t35.5 -86.5t-35.5 -87t-86.5 -36t-87 36t-36 87z" />
<glyph unicode="@" horiz-adv-x="1638" d="M35 754q0 334 241.5 559t577.5 225q299 0 516 -170q233 -184 234 -477q0 -260 -189 -442q-164 -160 -334 -160q-127 0 -141 129h-4q-113 -129 -256 -129q-139 0 -229.5 97t-90.5 237q0 223 138 393q147 182 364 182q170 0 250 -162l41 127h152l-179 -581 q-18 -59 -18 -105q0 -49 41 -49q129 0 221 164q82 143 82 282q0 246 -182 396q-168 139 -420 139q-283 0 -473.5 -189.5t-190.5 -471.5q0 -283 197 -466.5t481 -183.5q336 0 533 236h151q-111 -174 -296 -269.5t-398 -95.5q-336 0 -577.5 225.5t-241.5 559.5zM528 639 q0 -86 51.5 -142.5t135.5 -56.5q133 0 235 144q94 131 94 270q0 78 -53 135.5t-131 57.5q-139 0 -239 -138q-92 -127 -93 -270z" />
<glyph unicode="A" horiz-adv-x="948" d="M41 0l317 1507h209l340 -1507h-219l-59 311h-330l-59 -311h-199zM332 479h266l-131 688h-4z" />
<glyph unicode="B" horiz-adv-x="948" d="M115 0v1507h293q190 0 301 -92q121 -100 120 -285q0 -233 -202 -323q235 -76 235 -367q0 -160 -76 -272q-113 -168 -368 -168h-303zM324 178q158 0 231 53q88 63 88 213q0 276 -289 277h-30v-543zM324 889h32q264 0 265 221q0 219 -256 219h-41v-440z" />
<glyph unicode="C" horiz-adv-x="948" d="M76 764q0 774 426 774q276 0 360 -344l-207 -70q-35 225 -155 226q-205 0 -205 -578q0 -614 199 -614q150 0 186 293l201 -72q-59 -410 -392 -410q-262 0 -356 289q-57 172 -57 506z" />
<glyph unicode="D" horiz-adv-x="948" d="M115 0v1507h241q506 0 506 -766q0 -297 -98 -491q-127 -250 -391 -250h-258zM324 178q319 0 319 578q0 573 -319 573v-1151z" />
<glyph unicode="E" horiz-adv-x="720" d="M115 0v1507h549v-178h-340v-440h340v-178h-340v-533h340v-178h-549z" />
<glyph unicode="F" horiz-adv-x="720" d="M115 0v1507h549v-178h-340v-440h340v-178h-340v-711h-209z" />
<glyph unicode="G" horiz-adv-x="948" d="M76 754q0 784 399 784q276 0 356 -334l-202 -76q-29 221 -154 222q-180 0 -180 -629q0 -563 180 -563q117 0 158 219q18 94 22 303h-213v188h422v-174q0 -725 -389 -725q-244 0 -336 246q-63 170 -63 539z" />
<glyph unicode="H" horiz-adv-x="948" d="M115 0v1507h209v-618h301v618h209v-1507h-209v711h-301v-711h-209z" />
<glyph unicode="I" horiz-adv-x="491" d="M141 0v1507h209v-1507h-209z" />
<glyph unicode="J" horiz-adv-x="720" d="M35 104l141 144q45 -100 117 -101q104 0 104 123v1237h209v-1216q0 -147 -74 -232q-78 -90 -223 -90q-180 0 -274 135z" />
<glyph unicode="K" horiz-adv-x="948" d="M115 0v1507h209v-682h4l329 682h226l-361 -706l385 -801h-233l-346 752h-4v-752h-209z" />
<glyph unicode="L" horiz-adv-x="720" d="M141 0v1507h209v-1319h336v-188h-545z" />
<glyph unicode="M" horiz-adv-x="1290" d="M115 0v1507h225l303 -1005h4l303 1005h226v-1507h-199v1004h-4l-248 -857h-160l-248 857h-4v-1004h-198z" />
<glyph unicode="N" horiz-adv-x="948" d="M115 0v1507h209l307 -954h4v954h199v-1507h-209l-308 954h-4v-954h-198z" />
<glyph unicode="O" horiz-adv-x="948" d="M76 754q0 784 399 784q244 0 334 -246q63 -172 63 -538q0 -784 -397 -785q-244 0 -336 246q-63 170 -63 539zM295 721q0 -563 180 -563q125 0 164 278q14 109 14 365q0 215 -16 317q-39 231 -162 232q-180 0 -180 -629z" />
<glyph unicode="P" horiz-adv-x="833" d="M115 0v1507h211q450 0 450 -465q0 -217 -100 -340q-109 -133 -318 -133h-34v-569h-209zM324 748q233 0 233 296q0 285 -233 285v-581z" />
<glyph unicode="Q" horiz-adv-x="948" d="M76 754q0 784 399 784q244 0 334 -246q63 -172 63 -538q0 -473 -139 -658l92 -141l-157 -105l-76 140q-37 -12 -55 -17q-41 -4 -62 -4q-244 0 -336 246q-63 170 -63 539zM295 721q0 -563 180 -563q14 0 23 2l-76 139l131 76l55 -84q45 143 45 510q0 215 -16 317 q-39 231 -162 232q-180 0 -180 -629z" />
<glyph unicode="R" horiz-adv-x="948" d="M127 0v1507h338q178 0 287 -118q102 -115 102 -295q0 -129 -68 -232q-72 -109 -190 -141l305 -721h-239l-277 690h-49v-690h-209zM336 868q145 0 215 47q84 55 84 193q0 102 -61.5 161.5t-165.5 59.5h-72v-461z" />
<glyph unicode="S" horiz-adv-x="833" d="M53 330l199 63q23 -246 168 -246q72 0 115 58q37 53 36 127q0 141 -147 286l-164 162q-186 184 -186 400q0 150 94 254t242 104q156 0 248 -87t96 -243l-189 -67q-14 209 -151 209q-61 0 -96 -47.5t-35 -110.5q0 -131 141 -268l170 -166q98 -96 141 -185q45 -98 45 -227 q0 -168 -97 -272.5t-265 -104.5q-164 0 -258 101q-88 94 -107 260z" />
<glyph unicode="T" d="M47 1319v188h741v-188h-266v-1319h-209v1319h-266z" />
<glyph unicode="U" horiz-adv-x="946" d="M115 373v1134h209v-1132q0 -217 151 -217q147 0 148 217v1132h208v-1134q0 -403 -356 -404q-360 0 -360 404z" />
<glyph unicode="V" horiz-adv-x="833" d="M41 1507h219l164 -1061h4l156 1061h209l-271 -1507h-198z" />
<glyph unicode="W" horiz-adv-x="1290" d="M35 1507h219l141 -1061h4l136 1061h219l137 -1061h4l152 1061h208l-258 -1507h-198l-152 1065h-4l-151 -1065h-199z" />
<glyph unicode="X" horiz-adv-x="833" d="M41 0l270 782l-248 725h220l127 -483h4l137 483h219l-250 -725l273 -782h-220l-159 547h-4l-150 -547h-219z" />
<glyph unicode="Y" horiz-adv-x="833" d="M41 1507h219l164 -628h4l156 628h209l-267 -899v-608h-209v608z" />
<glyph unicode="Z" horiz-adv-x="833" d="M41 0l473 1329h-426v178h705l-471 -1329h432v-178h-713z" />
<glyph unicode="[" horiz-adv-x="606" d="M190 -315v1876h328v-179h-129v-1519h129v-178h-328z" />
<glyph unicode="\" horiz-adv-x="606" d="M33 1538h151l389 -1569h-151z" />
<glyph unicode="]" horiz-adv-x="606" d="M88 -137h129v1519h-129v179h328v-1876h-328v178z" />
<glyph unicode="^" horiz-adv-x="1228" d="M113 571l430 869h139l434 -869h-151l-355 701l-346 -701h-151z" />
<glyph unicode="_" horiz-adv-x="1024" d="M0 -154h1024v-102h-1024v102z" />
<glyph unicode="`" horiz-adv-x="417" d="M-55 1507h235l150 -278h-152z" />
<glyph unicode="a" horiz-adv-x="796" d="M55 293q0 211 88 300t297 89h74v141q0 129 -125 129q-113 0 -127 -139l-176 49q39 258 313 258q303 0 303 -289v-831h-188v162h-4q-80 -180 -229 -180q-119 0 -177 100q-49 84 -49 211zM254 317q0 -167 105 -167h1q74 0 119 86q35 68 35 149v145h-51q-113 0 -161 -50 t-48 -163z" />
<glyph unicode="b" d="M109 0v1507h188v-577h4q66 190 211 190q250 0 250 -567q0 -571 -256 -571q-147 0 -205 198l-4 2v-182h-188zM297 551q0 -391 129 -391q127 0 127 391t-127 391q-129 0 -129 -391z" />
<glyph unicode="c" horiz-adv-x="720" d="M74 532q0 248 47 379q74 209 274 209q127 0 199 -88q66 -80 70 -211l-189 -41q-4 162 -90 162q-80 0 -104 -170q-8 -63 -9 -223q0 -389 115 -389q88 0 109 188l178 -61q-43 -305 -287 -305q-313 0 -313 550z" />
<glyph unicode="d" d="M74 553q0 567 250 567q145 0 211 -190h4v577h188v-1507h-188v182l-4 -2q-57 -198 -204 -198h-1q-256 0 -256 571zM283 551q0 -391 127 -391q129 0 129 391t-129 391q-127 0 -127 -391z" />
<glyph unicode="e" horiz-adv-x="833" d="M86 580q0 540 339 540h1q168 0 252 -137q70 -115 70 -295v-158h-463q2 -190 22 -264q33 -116 118 -116h1q115 0 125 194h178q-2 -154 -76 -252q-81 -110 -228 -110h-3q-213 0 -289 208q-47 129 -47 390zM285 682h274q0 270 -139 270q-135 0 -135 -270z" />
<glyph unicode="f" horiz-adv-x="493" d="M41 924v178h106v164q0 131 39 188q47 72 172 72q57 0 95 -6v-189q-12 6 -37 6q-70 0 -70 -86v-149h107v-178h-107v-924h-199v924h-106z" />
<glyph unicode="g" d="M74 553q0 567 250 567q147 0 221 -198h4v180h178v-1170q0 -156 -90 -245.5t-246 -89.5q-211 0 -307 149l160 111q51 -92 147 -93q98 0 131 121q16 63 17 201v94h-4q-57 -198 -204 -198h-1q-256 0 -256 571zM283 551q0 -391 127 -391q129 0 129 391t-129 391 q-127 0 -127 -391z" />
<glyph unicode="h" horiz-adv-x="833" d="M109 0v1507h198v-530h4q68 143 207 143q92 0 152 -78q55 -70 55 -165v-877h-199v797q0 135 -96 135q-59 0 -91 -47t-32 -109v-776h-198z" />
<glyph unicode="i" horiz-adv-x="415" d="M80 1356q0 53 37 90t90 37t91 -37t38 -90t-38 -91t-91 -38t-90 38t-37 91zM109 0v1102h198v-1102h-198z" />
<glyph unicode="j" horiz-adv-x="415" d="M-16 -188q23 -14 41 -15q84 0 84 142v1163h198v-1192q0 -301 -239 -301q-41 0 -84 14v189zM80 1356q0 53 37 90t90 37t91 -37t38 -90t-38 -91t-91 -38t-90 38t-37 91z" />
<glyph unicode="k" horiz-adv-x="720" d="M109 0v1507h198v-858h4l172 453h199l-193 -465l195 -637h-199l-174 569h-4v-569h-198z" />
<glyph unicode="l" horiz-adv-x="454" d="M109 260v1247h198v-1204q0 -133 129 -133h21v-188h-74h-2q-272 0 -272 278z" />
<glyph unicode="m" horiz-adv-x="1288" d="M109 0v1102h188v-166h4q76 184 219 184q137 0 197 -182h4q66 182 237 182q104 0 163 -66.5t59 -172.5v-881h-199v772q0 160 -107 160q-131 0 -131 -197v-735h-198v772q0 160 -107 160q-131 0 -131 -197v-735h-198z" />
<glyph unicode="n" horiz-adv-x="833" d="M109 0v1102h188v-150h4q68 168 219 168q92 0 152 -78q53 -70 53 -165v-877h-199v797q0 135 -96 135q-59 0 -91 -47t-32 -109v-776h-198z" />
<glyph unicode="o" d="M74 551q0 569 344 569t344 -569t-344 -569t-344 569zM283 604q0 -454 135 -454t135 454q0 348 -135 348t-135 -348z" />
<glyph unicode="p" d="M109 -391v1493h178v-180h4q74 198 220 198h1q250 0 250 -567q0 -571 -256 -571q-147 0 -205 198l-4 2v-573h-188zM297 551q0 -391 129 -391q127 0 127 391t-127 391q-129 0 -129 -391z" />
<glyph unicode="q" d="M74 553q0 567 250 567q147 0 221 -198h4v180h178v-1493h-188v573l-4 -2q-57 -198 -204 -198h-1q-256 0 -256 571zM283 551q0 -391 127 -391q129 0 129 391t-129 391q-127 0 -127 -391z" />
<glyph unicode="r" horiz-adv-x="606" d="M109 0v1102h188v-201h4q45 219 238 219h2v-229q-27 10 -60 10q-94 0 -139 -86q-35 -68 -35 -172v-643h-198z" />
<glyph unicode="s" horiz-adv-x="720" d="M51 195l172 108q2 -61 39 -107t96 -46q47 0 80 31.5t33 78.5q0 88 -123 184l-104 82q-90 72 -129 129q-51 78 -52 174q0 131 81 211t212 80q217 0 301 -215l-170 -102q-10 149 -131 149h-2q-102 0 -102 -100q0 -70 123 -164l125 -96q170 -131 170 -309q0 -135 -89 -218 t-227 -83q-217 0 -303 213z" />
<glyph unicode="t" horiz-adv-x="493" d="M41 924v178h106v274h199v-274h107v-178h-107v-650q0 -86 82 -86h25v-178q-55 -10 -95 -10q-211 0 -211 199v725h-106z" />
<glyph unicode="u" horiz-adv-x="833" d="M109 225v877h198v-797q0 -135 96 -135q59 0 91 47t32 109v776h199v-1102h-188v150h-5q-68 -168 -219 -168q-92 0 -151 77q-53 70 -53 166z" />
<glyph unicode="v" horiz-adv-x="720" d="M41 1102h209l117 -721h4l110 721h199l-225 -1102h-189z" />
<glyph unicode="w" horiz-adv-x="1062" d="M41 1102h199l96 -721h4l92 721h199l100 -721h4l88 721h199l-193 -1102h-188l-109 836h-4l-106 -836h-189z" />
<glyph unicode="x" horiz-adv-x="720" d="M47 0l219 575l-215 527h209l105 -354h4l100 354h188l-202 -524l219 -578h-199l-119 401h-4l-106 -401h-199z" />
<glyph unicode="y" horiz-adv-x="720" d="M41 1102h199l133 -723h4l104 723h199l-307 -1493h-199l98 442z" />
<glyph unicode="z" horiz-adv-x="720" d="M53 924v178h611v-25l-347 -889h351v-188h-611v25l351 899h-355z" />
<glyph unicode="{" horiz-adv-x="606" d="M82 553v139q66 0 104 94q31 72 31 150v346q0 121 68.5 200t187.5 79h92v-129h-45q-104 0 -104 -156v-330q0 -115 -51 -205q-59 -102 -166 -116v-4q106 -14 166 -117q51 -90 51 -205v-330q0 -78 14 -108q23 -47 90 -47h45v-129h-92q-125 0 -192 77q-63 72 -64 201v346 q0 78 -31 150q-39 94 -104 94z" />
<glyph unicode="|" horiz-adv-x="454" d="M152 -31v1569h151v-1569h-151z" />
<glyph unicode="}" horiz-adv-x="606" d="M41 -186h45q104 0 104 155v330q0 115 52 205q59 102 166 117v4q-106 14 -166 116q-51 90 -52 205v330q0 78 -14 108q-23 47 -90 48h-45v129h92q125 0 190.5 -75t65.5 -204v-346q0 -78 31 -150q39 -94 104 -94v-139q-66 0 -104 -94q-31 -72 -31 -150v-346 q0 -121 -68.5 -199.5t-187.5 -78.5h-92v129z" />
<glyph unicode="~" horiz-adv-x="1228" d="M141 492q92 172 256 172q96 0 252 -76q129 -63 185 -64q82 0 180 152l73 -131q-113 -172 -256 -172q-80 0 -219 69.5t-219 69.5q-113 0 -178 -152z" />
<glyph horiz-adv-x="1019" d="M-84 535l43 96h115q6 51 24 149h-135l43 99h121q84 229 221 374q170 180 383 181q193 -1 338 -138l-47 -319l-98 12q0 322 -193 322q-211 0 -330 -432h353l-43 -99h-336q-12 -49 -33 -149h301l-43 -96h-274q-12 -84 -13 -152q0 -115 43 -186q53 -88 160 -88 q119 0 207 139q49 78 104 244l113 -21l-111 -385q-158 -109 -325 -109q-227 0 -340 173q-96 145 -96 385h-152z" />
<glyph unicode="&#xa1;" horiz-adv-x="491" d="M123 1024q0 51 36 87t87 36t87 -36t36 -87t-36 -87t-87 -36t-87 36t-36 87zM131 -373l39 1118h152l38 -1118h-229z" />
<glyph unicode="&#xa2;" d="M129 532q0 537 262 588v144h107v-144q104 -18 164 -106q53 -80 57 -193l-189 -41q-4 162 -90 162q-80 0 -104 -170q-8 -63 -8 -223q0 -389 114 -389q89 0 109 188l178 -61q-37 -270 -231 -305v-158h-107v158q-262 49 -262 550z" />
<glyph unicode="&#xa3;" d="M8 0q4 131 47 197q39 57 158 131q113 70 113 194q0 76 -39 166h-236v107h187q-109 166 -109 335q0 156 107 248q98 86 258 86q164 0 251 -104q82 -98 82 -266v-50h-209q0 242 -147 242q-63 0 -98 -43t-35 -108q0 -123 129 -340h283v-107h-236q20 -57 21 -119 q0 -168 -199 -282l-2 -8q68 0 170 -57.5t143 -57.5q88 0 180 94v-215q-115 -68 -211 -68q-92 0 -201.5 76t-146.5 76q-92 0 -92 -127h-168z" />
<glyph unicode="&#xa4;" d="M12 389l86 86q-86 104 -86 244q0 135 84 246l-84 84l76 75l82 -84q111 84 248 84q131 0 246 -84l84 84l75 -75l-84 -84q84 -111 84 -246q0 -139 -86 -244l86 -86l-75 -76l-84 86q-106 -86 -246 -86q-139 0 -246 86l-84 -86zM164 719q0 -104 74.5 -179t179.5 -75 q104 0 179 74.5t75 179.5q0 104 -75 179t-179 75t-179 -75t-75 -179z" />
<glyph unicode="&#xa5;" d="M41 1440h209l174 -629h4l168 629h199l-242 -690h215v-107h-252v-156h252v-106h-252v-381h-188v381h-262v106h262v156h-262v107h223z" />
<glyph unicode="&#xa6;" horiz-adv-x="454" d="M152 -31v586h151v-586h-151zM152 952v586h151v-586h-151z" />
<glyph unicode="&#xa7;" horiz-adv-x="948" d="M70 731q0 115 67.5 189.5t181.5 83.5l-4 4q-121 80 -120 247q0 125 88 204t215 79q178 0 284 -139l-143 -137q-55 98 -137 98q-47 0 -78 -28.5t-31 -76.5q0 -70 72 -141q31 -31 129 -100q135 -96 190 -160q94 -104 95 -223q0 -109 -62.5 -189t-169.5 -98 q135 -86 135 -258q0 -131 -95 -209t-228 -78q-168 0 -293 146l137 149q66 -117 164 -117q47 0 82 32t35 79q0 63 -68 127q-29 25 -121 90q-158 111 -219 176q-106 117 -106 250zM268 748q0 -66 82 -150q106 -111 195 -111q51 0 88 37t37 88q0 111 -158 211q-63 41 -125 41 q-47 0 -83 -34.5t-36 -81.5z" />
<glyph unicode="&#xa8;" horiz-adv-x="417" d="M-86 1372q0 51 36 87t87 36t87 -36t36 -87t-36 -87t-87 -36t-87 36t-36 87zM258 1372q0 51 36 87t87 36t87 -36t36 -87t-36 -87t-87 -36t-87 36t-36 87z" />
<glyph unicode="&#xa9;" horiz-adv-x="1638" d="M35 754q0 328 228.5 556t555.5 228q328 0 556.5 -228.5t228.5 -555.5q0 -328 -228.5 -556.5t-556.5 -228.5t-556 228.5t-228 556.5zM186 754q0 -264 184.5 -448.5t448.5 -184.5t448.5 184t184.5 449q0 264 -184.5 448t-448.5 184t-448.5 -184t-184.5 -448zM385 756 q0 211 124 345t333 134q156 0 262.5 -87t126.5 -239h-139q-18 90 -88 143.5t-164 53.5q-145 0 -228 -105q-76 -96 -75 -245q0 -143 79 -244q88 -111 228 -111q96 0 164.5 56.5t83.5 150.5h139q-29 -152 -130.5 -244t-252.5 -92q-207 0 -335 138.5t-128 345.5z" />
<glyph unicode="&#xaa;" horiz-adv-x="518" d="M31 973q0 131 57 183t191 52h69v60q0 78 -92 78q-86 0 -94 -84l-131 30q14 96 73 138q53 35 156 34q227 0 227 -172v-499h-139v96l-4 2q-49 -111 -170 -111q-143 0 -143 193zM182 987q0 -88 66 -88q47 0 73.5 41t26.5 90v72h-33q-133 0 -133 -115z" />
<glyph unicode="&#xab;" horiz-adv-x="833" d="M53 573l189 318h198l-198 -318l198 -305h-198zM393 573l189 318h198l-198 -318l198 -305h-198z" />
<glyph unicode="&#xac;" horiz-adv-x="1228" d="M96 651v152h1037v-582h-152v430h-885z" />
<glyph unicode="&#xad;" horiz-adv-x="692" d="M16 356l68 250h504l-68 -250h-504z" />
<glyph unicode="&#xae;" horiz-adv-x="1638" d="M35 754q0 328 228.5 556t555.5 228q328 0 556.5 -228.5t228.5 -555.5q0 -328 -228.5 -556.5t-556.5 -228.5t-556 228.5t-228 556.5zM186 754q0 -264 184.5 -448.5t448.5 -184.5t448.5 184t184.5 449q0 264 -184.5 448t-448.5 184t-448.5 -184t-184.5 -448zM516 301v907 h346q317 0 318 -258q0 -217 -234 -250l256 -399h-164l-243 395h-140v-395h-139zM655 815h162q111 0 156 21q68 31 67 122q0 131 -198 132h-187v-275z" />
<glyph unicode="&#xaf;" horiz-adv-x="417" d="M-68 1262v139h553v-139h-553z" />
<glyph unicode="&#xb0;" horiz-adv-x="819" d="M117 1171q0 121 86 207t207 86t206.5 -86t85.5 -207t-86 -206.5t-206 -85.5q-121 0 -207 85.5t-86 206.5zM236 1171q0 -72 51 -123t123 -51t123 51.5t51 122.5q0 72 -51.5 123.5t-122.5 51.5q-72 0 -123 -51.5t-51 -123.5z" />
<glyph unicode="&#xb1;" horiz-adv-x="1228" d="M96 0v152h1037v-152h-1037zM96 555v152h443v329h151v-329h443v-152h-443v-330h-151v330h-443z" />
<glyph unicode="&#xb2;" horiz-adv-x="542" d="M23 1182q0 283 253 282q104 0 170 -51q74 -57 74 -158q0 -119 -174 -405l-82 -135h234v-129h-471l213 385q113 203 112 272q0 92 -71 92q-80 0 -91 -153h-167z" />
<glyph unicode="&#xb3;" horiz-adv-x="542" d="M33 838h151q0 -139 84 -140q90 0 90 166t-106 166q-43 0 -76 -41l-94 66l186 280h-213v129h449v-16l-213 -315h4q10 4 41 4q174 0 174 -285q0 -125 -61 -201q-66 -82 -187 -82q-229 0 -229 269z" />
<glyph unicode="&#xb4;" horiz-adv-x="417" d="M88 1229l150 278h235l-233 -278h-152z" />
<glyph unicode="&#xb6;" horiz-adv-x="948" d="M29 1141q0 367 358 366h387v-1677h-151v1548h-142v-1548h-151v963q-135 0 -221 108q-80 100 -80 240z" />
<glyph unicode="&#xb7;" horiz-adv-x="491" d="M100 653q0 59 43 102.5t103 43.5q59 0 102 -43t43 -103q0 -59 -43 -102t-102 -43t-102.5 43t-43.5 102z" />
<glyph unicode="&#xb8;" horiz-adv-x="417" d="M31 -319q78 121 88 266h178q-15 -147 -115 -266h-151z" />
<glyph unicode="&#xb9;" horiz-adv-x="499" d="M68 1188v133q127 57 225 143h49v-878h-152v671q-43 -45 -122 -69z" />
<glyph unicode="&#xba;" horiz-adv-x="544" d="M31 1120q0 344 241 344q242 0 242 -344q0 -340 -242 -340q-241 0 -241 340zM199 1133q0 -233 73 -234q74 0 74 234q0 115 -10 153q-16 59 -64 60q-47 0 -63 -60q-10 -38 -10 -153z" />
<glyph unicode="&#xbb;" horiz-adv-x="833" d="M53 268l199 318l-199 305h199l188 -305l-188 -318h-199zM393 268l199 318l-199 305h199l188 -305l-188 -318h-199z" />
<glyph unicode="&#xbc;" horiz-adv-x="1249" d="M68 1188v133q127 57 225 143h49v-878h-152v671q-43 -45 -122 -69zM84 -41l883 1522h131l-883 -1522h-131zM688 141v109l279 612h149v-592h101v-129h-101v-141h-139v141h-289zM813 270h164v373h-4z" />
<glyph unicode="&#xbd;" horiz-adv-x="1249" d="M68 1188v133q127 57 225 143h49v-878h-152v671q-43 -45 -122 -69zM84 -41l883 1522h131l-883 -1522h-131zM719 596q0 283 254 283q104 0 170 -52q74 -57 74 -157q0 -119 -175 -406l-81 -135h233v-129h-471l213 385q113 203 113 272q0 92 -72 93q-80 0 -90 -154h-168z" />
<glyph unicode="&#xbe;" horiz-adv-x="1249" d="M33 838h151q0 -139 84 -140q90 0 90 166t-106 166q-43 0 -76 -41l-94 66l186 280h-213v129h449v-16l-213 -315h4q10 4 41 4q174 0 174 -285q0 -125 -61 -201q-66 -82 -187 -82q-229 0 -229 269zM147 -41l883 1522h131l-882 -1522h-132zM688 141v109l279 612h149v-592h101 v-129h-101v-141h-139v141h-289zM813 270h164v373h-4z" />
<glyph unicode="&#xbf;" horiz-adv-x="720" d="M41 -53q0 164 96 307l90 135q49 74 66 152q12 57 16 204h178q-4 -152 -12 -206q-18 -113 -67 -195l-86 -139q-72 -117 -72 -262q0 -168 106 -168q76 0 101 98q12 47 14 160h209v-33q0 -180 -76 -285q-84 -119 -258 -118q-150 0 -231 102q-74 92 -74 248zM274 1024 q0 51 36 87t87 36t87 -36t36 -87t-35.5 -87t-87.5 -36q-51 0 -87 36t-36 87z" />
<glyph unicode="&#xc0;" horiz-adv-x="948" d="M41 0l317 1507h209l340 -1507h-219l-59 311h-330l-59 -311h-199zM197 1894l100 27l100 -27l111 -237l-47 -27l-49 27zM332 479h266l-131 688h-4z" />
<glyph unicode="&#xc1;" horiz-adv-x="948" d="M41 0l317 1507h209l340 -1507h-219l-59 311h-330l-59 -311h-199zM332 479h266l-131 688h-4zM414 1657l110 237l101 27l100 -27l-215 -237l-49 -27z" />
<glyph unicode="&#xc2;" horiz-adv-x="948" d="M41 0l317 1507h209l340 -1507h-219l-59 311h-330l-59 -311h-199zM248 1567l131 215h178l133 -215l-65 -21l-78 21l-86 114l-84 -114l-76 -21zM332 479h266l-131 688h-4z" />
<glyph unicode="&#xc3;" horiz-adv-x="948" d="M41 0l317 1507h209l340 -1507h-219l-59 311h-330l-59 -311h-199zM211 1661q68 160 188 160q33 -4 84 -23q63 -25 82 -29q39 -1 76 52l39 30l39 -30q-25 -66 -82 -115t-123 -49q-31 0 -88 29q-43 27 -66 24q-43 0 -73 -49l-37 -31zM332 479h266l-131 688h-4z" />
<glyph unicode="&#xc4;" horiz-adv-x="948" d="M41 0l317 1507h209l340 -1507h-219l-59 311h-330l-59 -311h-199zM168 1726q0 51 36 87t87 36t87 -36t36 -87t-36 -87t-87 -36t-87 36t-36 87zM332 479h266l-131 688h-4zM512 1726q0 51 36 87t87 36t87 -36t36 -87t-36 -87t-87 -36t-87 36t-36 87z" />
<glyph unicode="&#xc5;" horiz-adv-x="948" d="M41 0l317 1507h209l340 -1507h-219l-59 311h-330l-59 -311h-199zM283 1733q0 76 52 128t128 52t128 -52t52 -128t-52 -128t-128 -52t-128 52t-52 128zM332 479h266l-131 688h-4zM369 1733q0 -39 27.5 -66.5t66.5 -27.5t66.5 27.5t27.5 66.5t-27.5 66.5t-66.5 27.5 t-66.5 -27.5t-27.5 -66.5z" />
<glyph unicode="&#xc6;" horiz-adv-x="1290" d="M41 0l465 1507h711v-178h-375v-440h375v-178h-375v-523h375v-188h-584v311h-293l-90 -311h-209zM387 479h246v889h-4z" />
<glyph unicode="&#xc7;" horiz-adv-x="948" d="M76 764q0 774 426 774q276 0 360 -344l-207 -70q-35 225 -155 226q-205 0 -205 -578q0 -614 199 -614q150 0 186 293l201 -72q-59 -410 -392 -410q-262 0 -356 289q-57 172 -57 506zM317 -319q78 121 89 266h178q-15 -147 -115 -266h-152z" />
<glyph unicode="&#xc8;" horiz-adv-x="720" d="M115 0v1507h549v-178h-340v-440h340v-178h-340v-533h340v-178h-549zM125 1892l100 27l101 -27l110 -237l-47 -27l-49 27z" />
<glyph unicode="&#xc9;" horiz-adv-x="720" d="M115 0v1507h549v-178h-340v-440h340v-178h-340v-533h340v-178h-549zM342 1657l111 237l100 27l100 -27l-215 -237l-49 -27z" />
<glyph unicode="&#xca;" horiz-adv-x="720" d="M115 0v1507h549v-178h-340v-440h340v-178h-340v-533h340v-178h-549zM176 1608l131 215h178l133 -215l-65 -21l-78 21l-86 114l-84 -114l-76 -21z" />
<glyph unicode="&#xcb;" horiz-adv-x="720" d="M78 1726q0 51 36 87t87 36t87 -36t36 -87t-36 -87t-87 -36t-87 36t-36 87zM115 0v1507h549v-178h-340v-440h340v-178h-340v-533h340v-178h-549zM422 1726q0 51 36 87t87 36t87 -36t36 -87t-36 -87t-87 -36t-87 36t-36 87z" />
<glyph unicode="&#xcc;" horiz-adv-x="491" d="M-18 1892l100 27l100 -27l111 -237l-47 -27l-49 27zM141 0v1507h209v-1507h-209z" />
<glyph unicode="&#xcd;" horiz-adv-x="491" d="M141 0v1507h209v-1507h-209zM199 1655l110 237l101 27l100 -27l-215 -237l-49 -27z" />
<glyph unicode="&#xce;" horiz-adv-x="491" d="M-26 1583l155 278h209l156 -278h-168l-100 160l-101 -160h-151zM141 0v1507h209v-1507h-209z" />
<glyph unicode="&#xcf;" horiz-adv-x="491" d="M-61 1726q0 51 36 87t87 36t87 -36t36 -87t-36 -87t-87 -36t-87 36t-36 87zM141 0v1507h209v-1507h-209zM283 1726q0 51 36 87t87 36t87 -36t36 -87t-36 -87t-87 -36t-87 36t-36 87z" />
<glyph unicode="&#xd0;" horiz-adv-x="948" d="M4 721v168h113v618h243q506 0 506 -766q0 -297 -98 -491q-127 -250 -391 -250h-260v721h-113zM326 178q322 0 321 578q1 573 -321 573v-440h170v-168h-170v-543z" />
<glyph unicode="&#xd1;" horiz-adv-x="948" d="M115 0v1507h209l307 -954h4v954h199v-1507h-209l-308 954h-4v-954h-198zM198 1603q18 207 162 207q41 0 129 -31q70 -25 96 -24q52 -1 70 67h96q0 -84 -45 -147q-49 -72 -131 -72q-35 0 -119 39q-61 29 -94 29q-53 0 -67 -68h-97z" />
<glyph unicode="&#xd2;" horiz-adv-x="948" d="M76 754q0 784 399 784q244 0 334 -246q63 -172 63 -538q0 -784 -397 -785q-244 0 -336 246q-63 170 -63 539zM211 1923l100 27l101 -27l110 -237l-47 -27l-49 27zM295 721q0 -563 180 -563q125 0 164 278q14 104 14 365q0 219 -16 317q-39 231 -162 232q-180 0 -180 -629 z" />
<glyph unicode="&#xd3;" horiz-adv-x="948" d="M76 754q0 784 399 784q244 0 334 -246q63 -172 63 -538q0 -784 -397 -785q-244 0 -336 246q-63 170 -63 539zM295 721q0 -563 180 -563q125 0 164 278q14 104 14 365q0 219 -16 317q-39 231 -162 232q-180 0 -180 -629zM428 1688l111 237l100 27l100 -27l-215 -237 l-49 -27z" />
<glyph unicode="&#xd4;" horiz-adv-x="948" d="M76 754q0 784 399 784q244 0 334 -246q63 -172 63 -538q0 -784 -397 -785q-244 0 -336 246q-63 170 -63 539zM262 1608l131 215h178l134 -215l-66 -21l-78 21l-86 114l-84 -114l-76 -21zM295 721q0 -563 180 -563q125 0 164 278q14 104 14 365q0 219 -16 317 q-39 231 -162 232q-180 0 -180 -629z" />
<glyph unicode="&#xd5;" horiz-adv-x="948" d="M76 754q0 784 399 784q244 0 334 -246q63 -172 63 -538q0 -784 -397 -785q-244 0 -336 246q-63 170 -63 539zM225 1692q68 160 189 159q33 -4 84 -22q63 -25 82 -29q38 -2 75 51l39 31l39 -31q-25 -66 -82 -114.5t-123 -48.5q-31 0 -88 28q-43 27 -65 25q-43 0 -74 -49 l-37 -31zM295 721q0 -563 180 -563q125 0 164 278q14 104 14 365q0 219 -16 317q-39 231 -162 232q-180 0 -180 -629z" />
<glyph unicode="&#xd6;" horiz-adv-x="948" d="M76 754q0 784 399 784q244 0 334 -246q63 -172 63 -538q0 -784 -397 -785q-244 0 -336 246q-63 170 -63 539zM180 1726q0 51 36 87t87 36t87 -36t36 -87t-36 -87t-87 -36t-87 36t-36 87zM295 721q0 -563 180 -563q125 0 164 278q14 109 14 365q0 215 -16 317 q-39 231 -162 232q-180 0 -180 -629zM524 1726q0 51 36 87t87 36t87 -36t36 -87t-36 -87t-87 -36t-87 36t-36 87z" />
<glyph unicode="&#xd7;" horiz-adv-x="1228" d="M145 154l365 364l-365 365l105 104l364 -364l365 364l104 -104l-364 -365l364 -364l-104 -105l-365 365l-364 -365z" />
<glyph unicode="&#xd8;" horiz-adv-x="948" d="M49 -14l101 207q-74 172 -74 561q0 784 399 784q168 0 264 -119l70 146l90 -43l-100 -207q74 -174 73 -561q0 -784 -397 -785q-172 0 -264 121l-72 -147zM295 721q0 -82 4 -213h4l320 670q-41 172 -148 172q-180 0 -180 -629zM328 332q39 -174 147 -174q125 0 164 278 q14 109 14 365q0 115 -6 194h-4z" />
<glyph unicode="&#xd9;" horiz-adv-x="946" d="M115 373v1134h209v-1132q0 -217 151 -217q147 0 148 217v1132h208v-1134q0 -403 -356 -404q-360 0 -360 404zM211 1851l100 27l101 -27l110 -237l-47 -27l-49 27z" />
<glyph unicode="&#xda;" horiz-adv-x="946" d="M115 373v1134h209v-1132q0 -217 151 -217q147 0 148 217v1132h208v-1134q0 -403 -356 -404q-360 0 -360 404zM428 1614l111 237l100 27l100 -27l-215 -237l-49 -27z" />
<glyph unicode="&#xdb;" horiz-adv-x="946" d="M115 373v1134h209v-1132q0 -217 151 -217q147 0 148 217v1132h208v-1134q0 -403 -356 -404q-360 0 -360 404zM201 1583l155 278h209l156 -278h-168l-100 160l-101 -160h-151z" />
<glyph unicode="&#xdc;" horiz-adv-x="946" d="M115 373v1134h209v-1132q0 -217 151 -217q147 0 148 217v1132h208v-1134q0 -403 -356 -404q-360 0 -360 404zM166 1726q0 51 36 87t87 36t87 -36t36 -87t-36 -87t-87 -36t-87 36t-36 87zM510 1726q0 51 36 87t87 36t87 -36t36 -87t-36 -87t-87 -36t-87 36t-36 87z" />
<glyph unicode="&#xdd;" horiz-adv-x="833" d="M41 1507h219l164 -628h4l156 628h209l-267 -899v-608h-209v608zM373 1593l110 238l101 27l100 -27l-215 -238l-49 -26z" />
<glyph unicode="&#xde;" horiz-adv-x="833" d="M115 0v1507h209v-243q453 0 452 -467q0 -215 -100 -338q-109 -133 -318 -133h-34v-326h-209zM324 504q233 0 233 297q0 284 -233 284v-581z" />
<glyph unicode="&#xdf;" horiz-adv-x="833" d="M109 0v1174q0 154 65 245q76 106 225 107q162 0 244 -107q74 -96 74 -264q0 -260 -170 -305v-4q137 -23 188 -154q35 -86 35 -254q0 -176 -61 -299q-78 -158 -236 -157q-23 0 -51 8l-33 188q14 -8 39 -8q74 0 109 102q25 72 24 164q0 137 -26 205q-41 109 -156 111v168 q139 0 139 200q0 104 -12 146q-25 82 -100 82q-98 0 -99 -144v-1204h-198z" />
<glyph unicode="&#xe0;" horiz-adv-x="796" d="M55 293q0 209 88 299t297 90h74v141q0 129 -125 129q-113 0 -127 -139l-176 49q39 258 313 258q303 0 303 -289v-831h-188v162h-4q-80 -180 -229 -180q-119 0 -179 102q-47 82 -47 209zM147 1479l97 24l94 -24l106 -226l-45 -24l-47 24zM254 317q0 -168 106 -167 q76 0 119 83q35 70 35 152v145h-51q-113 0 -161 -50t-48 -163z" />
<glyph unicode="&#xe1;" horiz-adv-x="796" d="M55 293q0 209 88 299t297 90h74v141q0 129 -125 129q-113 0 -127 -139l-176 49q39 258 313 258q303 0 303 -289v-831h-188v162h-4q-80 -180 -229 -180q-119 0 -179 102q-47 82 -47 209zM254 317q0 -168 106 -167q76 0 119 83q35 70 35 152v145h-51q-113 0 -161 -50 t-48 -163zM354 1255l107 226l94 24l96 -24l-205 -226l-47 -24z" />
<glyph unicode="&#xe2;" horiz-adv-x="796" d="M55 293q0 209 88 299t297 90h74v141q0 129 -125 129q-113 0 -127 -139l-176 49q39 258 313 258q303 0 303 -289v-831h-188v162h-4q-80 -180 -229 -180q-119 0 -179 102q-47 82 -47 209zM199 1186l123 205h170l126 -205l-63 -19l-74 19l-82 110l-80 -110l-71 -19zM254 317 q0 -168 106 -167q76 0 119 83q35 70 35 152v145h-51q-113 0 -161 -50t-48 -163z" />
<glyph unicode="&#xe3;" horiz-adv-x="796" d="M55 293q0 209 88 299t297 90h74v141q0 129 -125 129q-113 0 -127 -139l-176 49q39 258 313 258q303 0 303 -289v-831h-188v162h-4q-80 -180 -229 -180q-119 0 -179 102q-47 82 -47 209zM162 1260q68 154 178 151q27 0 78 -20q59 -23 80 -29q36 -2 71 49l37 29l39 -29 q-23 -61 -78 -108.5t-116 -47.5q-31 0 -84 27q-39 27 -64 23q-39 0 -70 -45l-34 -31zM254 317q0 -168 106 -167q76 0 119 83q35 70 35 152v145h-51q-113 0 -161 -50t-48 -163z" />
<glyph unicode="&#xe4;" horiz-adv-x="796" d="M55 293q0 211 88 300t297 89h74v141q0 129 -125 129q-113 0 -127 -139l-176 49q39 258 313 258q303 0 303 -289v-831h-188v162h-4q-80 -180 -229 -180q-119 0 -177 100q-49 84 -49 211zM104 1372q0 51 36 87t87 36t87 -36t36 -87t-36 -87t-87 -36t-87 36t-36 87zM254 317 q0 -168 106 -167q74 0 119 86q35 68 35 149v145h-51q-113 0 -161 -50t-48 -163zM448 1372q0 51 36 87t87 36t87 -36t36 -87t-36 -87t-87 -36t-87 36t-36 87z" />
<glyph unicode="&#xe5;" horiz-adv-x="796" d="M55 293q0 211 88 300t297 89h74v141q0 129 -125 129q-113 0 -127 -139l-176 49q39 258 313 258q303 0 303 -289v-831h-188v162h-4q-80 -180 -229 -180q-119 0 -177 100q-49 84 -49 211zM219 1358q0 76 52 128t128 52t128 -52t52 -128t-52 -128t-128 -52t-128 52t-52 128z M254 317q0 -168 106 -167q74 0 119 86q35 68 35 149v145h-51q-113 0 -161 -50t-48 -163zM305 1358q0 -39 27.5 -66.5t66.5 -27.5t66.5 27.5t27.5 66.5t-27.5 66.5t-66.5 27.5t-66.5 -27.5t-27.5 -66.5z" />
<glyph unicode="&#xe6;" horiz-adv-x="1138" d="M49 293q0 211 88 300t297 89h53v90q0 180 -116 180q-102 0 -121 -139l-172 49q41 258 295 258q170 0 221 -119q82 119 194 119q168 0 246 -172q55 -125 56 -317v-101h-424v-163q0 -217 122 -217q98 0 113 198h178q-35 -367 -284 -366q-174 0 -234 188q-94 -188 -260 -188 q-129 0 -195 94q-57 82 -57 217zM238 319q0 -170 118 -169q59 0 99 65q32 56 32 119v196q-131 0 -184 -38q-66 -47 -65 -173zM666 682h235q-4 127 -22 184q-27 86 -97 86q-74 0 -98 -84q-16 -53 -18 -186z" />
<glyph unicode="&#xe7;" horiz-adv-x="720" d="M74 532q0 248 47 379q74 209 274 209q127 0 199 -88q66 -80 70 -211l-189 -41q-4 162 -90 162q-80 0 -104 -170q-8 -63 -9 -223q0 -389 115 -389q88 0 109 188l178 -61q-43 -305 -287 -305q-313 0 -313 550zM195 -309q78 121 88 266h178q-15 -147 -115 -266h-151z" />
<glyph unicode="&#xe8;" horiz-adv-x="833" d="M86 580q0 541 340 540q170 0 252 -139q70 -113 70 -293v-158h-463q2 -190 22 -264q33 -117 119 -116q115 0 125 194h178q-2 -154 -76 -252q-82 -111 -231 -110q-213 0 -289 208q-47 129 -47 390zM174 1479l96 24l95 -24l106 -226l-45 -24l-47 24zM285 682h274 q0 270 -139 270q-135 0 -135 -270z" />
<glyph unicode="&#xe9;" horiz-adv-x="833" d="M86 580q0 541 340 540q170 0 252 -139q70 -113 70 -293v-158h-463q2 -190 22 -264q33 -117 119 -116q115 0 125 194h178q-2 -154 -76 -252q-82 -111 -231 -110q-213 0 -289 208q-47 129 -47 390zM285 682h274q0 270 -139 270q-135 0 -135 -270zM381 1255l106 226l95 24 l96 -24l-205 -226l-47 -24z" />
<glyph unicode="&#xea;" horiz-adv-x="833" d="M86 580q0 541 340 540q170 0 252 -139q70 -113 70 -293v-158h-463q2 -190 22 -264q33 -117 119 -116q115 0 125 194h178q-2 -154 -76 -252q-82 -111 -231 -110q-213 0 -289 208q-47 129 -47 390zM225 1186l123 205h170l127 -205l-63 -19l-74 19l-82 110l-80 -110l-72 -19 zM285 682h274q0 270 -139 270q-135 0 -135 -270z" />
<glyph unicode="&#xeb;" horiz-adv-x="833" d="M86 580q0 541 340 540q168 0 252 -137q70 -115 70 -295v-158h-463q2 -190 22 -264q33 -117 119 -116q115 0 125 194h178q-2 -154 -76 -252q-82 -111 -231 -110q-213 0 -289 208q-47 129 -47 390zM123 1372q0 51 36 87t87 36t87 -36t36 -87t-36 -87t-87 -36t-87 36t-36 87 zM285 682h274q0 270 -139 270q-135 0 -135 -270zM467 1372q0 51 36 87t87 36t87 -36t36 -87t-36 -87t-87 -36t-87 36t-36 87z" />
<glyph unicode="&#xec;" horiz-adv-x="415" d="M-43 1458l96 25l94 -25l107 -225l-45 -25l-47 25zM109 0v1102h198v-1102h-198z" />
<glyph unicode="&#xed;" horiz-adv-x="415" d="M109 0v1102h198v-1102h-198zM164 1233l106 225l95 25l96 -25l-205 -225l-47 -25z" />
<glyph unicode="&#xee;" horiz-adv-x="415" d="M-51 1229l155 278h209l156 -278h-168l-100 160l-101 -160h-151zM109 0v1102h198v-1102h-198z" />
<glyph unicode="&#xef;" horiz-adv-x="415" d="M-86 1372q0 51 36 87t87 36t87 -36t36 -87t-36 -87t-87 -36t-87 36t-36 87zM109 0v1102h198v-1102h-198zM258 1372q0 51 36 87t87 36t87 -36t36 -87t-36 -87t-87 -36t-87 36t-36 87z" />
<glyph unicode="&#xf0;" d="M74 551q0 215 55 360q78 209 258 209q61 0 113 -51l4 4q-53 121 -146 221l-163 -94l-70 88l149 86q-57 51 -124 90l108 113q92 -47 170 -113l158 88l69 -88l-145 -84q252 -276 252 -725q0 -285 -45 -428q-78 -246 -299 -245q-344 0 -344 569zM283 604q0 -455 135 -454 q135 0 135 454q0 348 -135 348t-135 -348z" />
<glyph unicode="&#xf1;" horiz-adv-x="833" d="M109 0v1102h188v-150h4q68 168 219 168q92 0 152 -78q53 -70 53 -165v-877h-199v797q0 135 -96 135q-59 0 -91 -47t-32 -109v-776h-198zM141 1249q18 207 162 207q41 0 129 -31q70 -25 96 -24q52 -1 70 67h96q0 -84 -45 -147q-49 -72 -131 -72q-35 0 -119 39 q-61 29 -94 29q-53 0 -67 -68h-97z" />
<glyph unicode="&#xf2;" d="M74 551q0 569 344 569t344 -569t-344 -569t-344 569zM166 1479l96 24l94 -24l107 -226l-45 -24l-47 24zM283 604q0 -454 135 -454t135 454q0 348 -135 348t-135 -348z" />
<glyph unicode="&#xf3;" d="M74 551q0 569 344 569t344 -569t-344 -569t-344 569zM283 604q0 -454 135 -454t135 454q0 348 -135 348t-135 -348zM373 1255l106 226l94 24l97 -24l-205 -226l-47 -24z" />
<glyph unicode="&#xf4;" d="M74 551q0 569 344 569t344 -569t-344 -569t-344 569zM217 1186l123 205h170l127 -205l-64 -19l-73 19l-82 110l-80 -110l-72 -19zM283 604q0 -454 135 -454t135 454q0 348 -135 348t-135 -348z" />
<glyph unicode="&#xf5;" d="M74 551q0 569 344 569t344 -569t-344 -569t-344 569zM180 1260q68 154 178 151q27 0 78 -20q59 -23 80 -29q37 -2 72 49l37 29l39 -29q-23 -61 -78.5 -108.5t-116.5 -47.5q-31 0 -84 27q-39 27 -63 23q-39 0 -70 -45l-35 -31zM283 604q0 -454 135 -454t135 454 q0 348 -135 348t-135 -348z" />
<glyph unicode="&#xf6;" d="M74 551q0 569 344 569t344 -569t-344 -569t-344 569zM123 1372q0 51 36 87t87 36t87 -36t36 -87t-36 -87t-87 -36t-87 36t-36 87zM283 604q0 -454 135 -454t135 454q0 348 -135 348t-135 -348zM467 1372q0 51 36 87t87 36t87 -36t36 -87t-36 -87t-87 -36t-87 36t-36 87z " />
<glyph unicode="&#xf7;" horiz-adv-x="1228" d="M96 442v152h1037v-152h-1037zM475 94q0 59 40 99t99 40t99.5 -39.5t40.5 -99.5q0 -59 -40 -99t-100 -40q-57 0 -98 41t-41 98zM475 942q0 59 40 99t99 40t99.5 -40t40.5 -99t-40 -99t-100 -40q-57 0 -98 41t-41 98z" />
<glyph unicode="&#xf8;" d="M63 0l84 152q-74 139 -73 399q0 569 344 569q131 0 211 -86l61 113l82 -45l-84 -152q74 -141 74 -399q0 -569 -344 -569q-131 0 -211 86l-62 -113zM283 604q0 -106 6 -190h4l231 430q-29 109 -106 108q-135 0 -135 -348zM317 268q31 -119 101 -118q135 0 135 454 q0 63 -2 90h-4z" />
<glyph unicode="&#xf9;" horiz-adv-x="833" d="M109 225v877h198v-797q0 -135 96 -135q59 0 95 49q29 45 28 107v776h199v-1102h-188v150h-5q-68 -168 -219 -168q-92 0 -151 77q-53 70 -53 166zM166 1438l96 24l94 -24l107 -226l-45 -24l-47 24z" />
<glyph unicode="&#xfa;" horiz-adv-x="833" d="M109 225v877h198v-797q0 -135 96 -135q59 0 95 49q29 45 28 107v776h199v-1102h-188v150h-5q-68 -168 -219 -168q-92 0 -151 77q-53 70 -53 166zM373 1212l106 226l94 24l97 -24l-205 -226l-47 -24z" />
<glyph unicode="&#xfb;" horiz-adv-x="833" d="M109 225v877h198v-797q0 -135 96 -135q59 0 91 47t32 109v776h199v-1102h-188v150h-5q-68 -168 -219 -168q-92 0 -151 77q-53 70 -53 166zM146 1229l155 278h209l156 -278h-168l-100 160l-101 -160h-151z" />
<glyph unicode="&#xfc;" horiz-adv-x="833" d="M109 225v877h198v-797q0 -135 96 -135q59 0 91 47t32 109v776h199v-1102h-188v150h-5q-68 -168 -219 -168q-92 0 -151 77q-53 70 -53 166zM111 1372q0 51 36 87t87 36t87 -36t36 -87t-36 -87t-87 -36t-87 36t-36 87zM455 1372q0 51 36 87t87 36t87 -36t36 -87t-36 -87 t-87 -36t-87 36t-36 87z" />
<glyph unicode="&#xfd;" horiz-adv-x="720" d="M41 1102h199l133 -723h4l104 723h199l-307 -1493h-199l98 442zM315 1192l107 225l94 25l96 -25l-204 -225l-48 -25z" />
<glyph unicode="&#xfe;" d="M109 -391v1898h188v-577h4q66 190 211 190q250 0 250 -567q0 -571 -256 -571q-147 0 -205 198l-4 2v-573h-188zM297 551q0 -391 129 -391q127 0 127 391t-127 391q-129 0 -129 -391z" />
<glyph unicode="&#xff;" horiz-adv-x="720" d="M41 1102h199l133 -723h4l104 723h199l-307 -1493h-199l98 442zM66 1372q0 51 36 87t87 36t87 -36t36 -87t-36 -87t-87 -36t-87 36t-36 87zM410 1372q0 51 36 87t87 36t87 -36t36 -87t-36 -87t-87 -36t-87 36t-36 87z" />
<glyph unicode="&#x152;" horiz-adv-x="1290" d="M76 754q0 784 399 784q45 0 135 -15.5t138 -15.5h466v-178h-370v-440h370v-178h-370v-533h370v-178h-522q-37 0 -108.5 -15.5t-108.5 -15.5q-244 0 -336 246q-63 170 -63 539zM295 754q0 -229 18 -344q43 -252 174 -252q100 0 131 139q27 119 27 457t-27 456 q-31 139 -131 140q-131 0 -174 -252q-18 -115 -18 -344z" />
<glyph unicode="&#x153;" horiz-adv-x="1175" d="M61 573q0 205 62 351q84 197 262 196q154 0 213 -162h4q51 162 211 162q168 0 246 -172q55 -125 55 -317v-101h-424v-163q0 -217 123 -217q98 0 113 198h178q-35 -367 -285 -366q-168 0 -219 157q-66 -158 -215 -157q-193 0 -274 241q-49 147 -50 350zM260 571 q0 -421 135 -421q84 0 107 169q10 66 10 228q0 406 -119 405q-133 0 -133 -381zM690 682h236q-4 127 -23 184q-27 86 -96 86q-74 0 -98 -84q-17 -53 -19 -186z" />
<glyph unicode="&#x178;" horiz-adv-x="833" d="M41 1507h219l164 -628h4l156 628h209l-267 -899v-608h-209v608zM123 1726q0 51 36 87t87 36t87 -36t36 -87t-36 -87t-87 -36t-87 36t-36 87zM467 1726q0 51 36 87t87 36t87 -36t36 -87t-36 -87t-87 -36t-87 36t-36 87z" />
<glyph unicode="&#x2c6;" horiz-adv-x="417" d="M-51 1229l155 278h209l156 -278h-168l-100 160l-101 -160h-151z" />
<glyph unicode="&#x2dc;" horiz-adv-x="417" d="M-68 1249q18 207 162 207q41 0 129 -31q70 -25 96 -24q52 -1 70 67h96q0 -84 -45 -147q-49 -72 -131 -72q-35 0 -119 39q-61 29 -94 29q-53 0 -67 -68h-97z" />
<glyph unicode="&#x2000;" horiz-adv-x="976" />
<glyph unicode="&#x2001;" horiz-adv-x="1952" />
<glyph unicode="&#x2002;" horiz-adv-x="976" />
<glyph unicode="&#x2003;" horiz-adv-x="1952" />
<glyph unicode="&#x2004;" horiz-adv-x="650" />
<glyph unicode="&#x2005;" horiz-adv-x="488" />
<glyph unicode="&#x2006;" horiz-adv-x="325" />
<glyph unicode="&#x2007;" horiz-adv-x="325" />
<glyph unicode="&#x2008;" horiz-adv-x="244" />
<glyph unicode="&#x2009;" horiz-adv-x="390" />
<glyph unicode="&#x200a;" horiz-adv-x="108" />
<glyph unicode="&#x2010;" horiz-adv-x="606" d="M104 492v178h398v-178h-398z" />
<glyph unicode="&#x2011;" horiz-adv-x="606" d="M104 492v178h398v-178h-398z" />
<glyph unicode="&#x2012;" horiz-adv-x="606" d="M104 492v178h398v-178h-398z" />
<glyph unicode="&#x2013;" horiz-adv-x="1024" d="M0 496v168h1024v-168h-1024z" />
<glyph unicode="&#x2014;" horiz-adv-x="2048" d="M0 496v168h2048v-168h-2048z" />
<glyph unicode="&#x2018;" horiz-adv-x="491" d="M86 1090l168 417h152l-121 -417h-199z" />
<glyph unicode="&#x2019;" horiz-adv-x="491" d="M86 1090l121 417h199l-168 -417h-152z" />
<glyph unicode="&#x201a;" horiz-adv-x="491" d="M86 -158l121 418h199l-168 -418h-152z" />
<glyph unicode="&#x201c;" horiz-adv-x="720" d="M35 1090l170 417h151l-123 -417h-198zM365 1090l170 417h151l-123 -417h-198z" />
<glyph unicode="&#x201d;" horiz-adv-x="720" d="M35 1090l123 417h198l-170 -417h-151zM365 1090l122 417h199l-170 -417h-151z" />
<glyph unicode="&#x201e;" horiz-adv-x="720" d="M35 -158l123 418h198l-170 -418h-151zM365 -158l122 418h199l-170 -418h-151z" />
<glyph unicode="&#x2022;" horiz-adv-x="1024" d="M135 754q0 158 109.5 267t267.5 109t267.5 -109.5t109.5 -266.5q0 -158 -109.5 -267.5t-267.5 -109.5t-267.5 109.5t-109.5 267.5z" />
<glyph unicode="&#x2026;" horiz-adv-x="2048" d="M219 111q0 51 36 86.5t87 35.5t87 -35.5t36 -86.5t-36 -87t-87 -36t-87 36t-36 87zM901 111q0 51 36 86.5t87 35.5t87 -35.5t36 -86.5t-36 -87t-87 -36t-87 36t-36 87zM1583 111q0 51 36 86.5t87 35.5t87 -35.5t36 -86.5t-36 -87t-87 -36t-87 36t-36 87z" />
<glyph unicode="&#x202f;" horiz-adv-x="390" />
<glyph unicode="&#x2039;" horiz-adv-x="493" d="M53 573l189 318h198l-198 -318l198 -305h-198z" />
<glyph unicode="&#x203a;" horiz-adv-x="493" d="M53 268l199 318l-199 305h199l188 -305l-188 -318h-199z" />
<glyph unicode="&#x205f;" horiz-adv-x="488" />
<glyph unicode="&#x2122;" horiz-adv-x="2027" d="M53 1389v118h672v-118h-260v-725h-152v725h-260zM868 664v843h232l241 -620l238 620h231v-843h-151v692h-4l-264 -692h-103l-264 692h-4v-692h-152z" />
<glyph unicode="&#x25fc;" horiz-adv-x="1105" d="M0 0v1106h1106v-1106h-1106z" />
</font>
</defs>
</svg>
