<?xml version="1.0" standalone="no"?>
<!DOCTYPE svg PUBLIC "-//W3C//DTD SVG 1.1//EN" "http://www.w3.org/Graphics/SVG/1.1/DTD/svg11.dtd" >
<svg xmlns="http://www.w3.org/2000/svg">
<metadata></metadata>
<defs>
<font id="sfu_eurostileregular" horiz-adv-x="1167" >
<font-face units-per-em="2048" ascent="1638" descent="-410" />
<missing-glyph horiz-adv-x="706" />
<glyph horiz-adv-x="2048" />
<glyph horiz-adv-x="2048" />
<glyph unicode="&#xd;" horiz-adv-x="706" />
<glyph unicode=" "  horiz-adv-x="706" />
<glyph unicode="&#x09;" horiz-adv-x="706" />
<glyph unicode="&#xa0;" horiz-adv-x="706" />
<glyph unicode="!" horiz-adv-x="552" d="M190 0v209h183v-209h-183zM190 1536h183l-17 -1112h-149z" />
<glyph unicode="&#x22;" horiz-adv-x="727" d="M104 1309v227h193v-227l-55 -277h-82zM430 1309v227h193v-227l-56 -277h-82z" />
<glyph unicode="#" horiz-adv-x="1413" d="M166 457v164h235l56 333h-215v164h243l74 418h158l-74 -418h254l72 418h161l-71 -418h188v-164h-219l-55 -333h207v-164h-240l-78 -457h-155l75 457h-252l-81 -457h-154l76 457h-205zM561 621h252l55 333h-252z" />
<glyph unicode="$" horiz-adv-x="1413" d="M61 424v53h175v-53q0 -133 18 -178q23 -61 104.5 -82t282.5 -21v566q-303 2 -405 53q-162 80 -162 340q0 279 145 366q109 68 422 68v143h133v-143q313 0 412 -53q133 -76 133 -330v-47h-174v47q0 164 -70 205q-59 35 -301 35v-541q313 -6 414 -53q168 -80 168 -353 q0 -279 -139 -370q-115 -76 -443 -76v-174h-133v174q-324 0 -432 61q-147 84 -148 363zM248 1128q0 -193 106 -245q66 -33 287 -31v541q-233 0 -299 -33q-94 -49 -94 -232zM774 143q248 0 318 39q90 53 90 242q0 199 -101 248q-55 27 -307 37v-566z" />
<glyph unicode="%" horiz-adv-x="1810" d="M45 1044v226q0 176 74 231q63 47 252 47q195 0 260 -45q80 -57 80 -231v-225q0 -174 -80 -232q-66 -47 -258 -47q-190 0 -254 45q-74 55 -74 231zM168 1051q0 -121 39 -150q29 -20 164 -20q139 0 172 20q45 29 45 150v225q0 113 -41 139q-33 20 -176 21q-133 0 -164 -21 q-39 -27 -39 -139v-225zM317 -12l1037 1548h143l-1042 -1548h-138zM1100 264v225q0 176 74 232q63 47 251 47q195 0 261 -45q79 -57 79 -231v-226q0 -174 -79 -231q-66 -47 -259 -47q-190 0 -253 45q-74 55 -74 231zM1223 270q0 -121 39 -149q29 -20 163 -21q139 0 172 21 q45 28 45 149v226q0 113 -40 139q-33 20 -177 20q-133 0 -163 -20q-39 -27 -39 -139v-226z" />
<glyph unicode="&#x26;" horiz-adv-x="1613" d="M131 465q0 176 37 262q33 72 108 107q16 6 168 49q-82 68 -106 118q-33 63 -33 185q0 215 123 295q102 68 348 67q227 0 322 -71q113 -86 112 -316v-96h-174v96q0 147 -45 190.5t-215 43.5q-154 0 -211 -29q-86 -43 -86 -180q0 -78 21.5 -120t85.5 -95l598 -502l6 102 q2 18 -1 55.5t-3 51.5h160q4 -82 4 -121q0 -125 -19 -215l279 -221l-94 -121l-228 188q-59 -133 -227 -176q-102 -25 -346 -24q-317 0 -420 59q-164 94 -164 418zM305 463q0 -221 70 -273q63 -49 340 -49q201 0 268 15q145 30 170 139l-600 493q-168 -39 -208 -91t-40 -234z " />
<glyph unicode="'" horiz-adv-x="391" d="M100 1309v227h193v-227l-55 -277h-82z" />
<glyph unicode="(" horiz-adv-x="638" d="M113 174v893q0 229 59 336q78 145 285 145h55v-153h-55q-111 0 -150 -117q-20 -68 -20 -211v-893q0 -143 20 -211q39 -117 150 -117h55v-153h-55q-207 0 -285 145q-59 106 -59 336z" />
<glyph unicode=")" horiz-adv-x="638" d="M127 -154h55q111 0 150 117q20 68 20 211v893q0 143 -20 211q-39 117 -150 117h-55v153h55q207 0 287 -145q57 -106 57 -336v-893q0 -229 -57 -336q-80 -145 -287 -145h-55v153z" />
<glyph unicode="*" horiz-adv-x="1413" d="M297 1210l39 111l315 -117v332h113v-332l313 117l39 -115l-315 -114l188 -269l-90 -67l-190 276l-205 -276l-90 67l196 269z" />
<glyph unicode="+" horiz-adv-x="1196" d="M102 504v153h420v418h154v-418h418v-153h-418v-420h-154v420h-420z" />
<glyph unicode="," horiz-adv-x="706" d="M225 -137q55 2 78 22.5t23 75.5v39h-78v209h182v-248q0 -94 -29 -137q-35 -53 -129 -53h-47v92z" />
<glyph unicode="-" horiz-adv-x="534" d="M0 483v154h535v-154h-535z" />
<glyph unicode="." horiz-adv-x="706" d="M225 0v209h183v-209h-183z" />
<glyph unicode="/" horiz-adv-x="1488" d="M57 -231l1184 1767h191l-1188 -1767h-187z" />
<glyph unicode="0" horiz-adv-x="1413" d="M53 543v450q0 352 148 463q125 92 504 92q383 0 507 -92q147 -111 148 -463v-450q0 -352 -148 -463q-124 -92 -503 -92q-383 0 -508 92q-147 111 -148 463zM227 543q0 -199 40 -281t147 -106q72 -14 291 -15q221 0 294 15q106 25 146.5 106.5t40.5 280.5v450 q0 199 -40 281t-147 106q-73 15 -294 15q-219 0 -291 -15q-106 -25 -146.5 -106.5t-40.5 -280.5v-450z" />
<glyph unicode="1" horiz-adv-x="1413" d="M242 1075l424 461h252v-1536h-175v1403l-393 -432z" />
<glyph unicode="2" horiz-adv-x="1413" d="M147 0v260q0 276 132 369q92 63 407 96q207 20 248 31q88 23 118.5 85t30.5 222q0 227 -71 285q-57 47 -289 47q-276 0 -338.5 -47.5t-62.5 -257.5v-80h-175v80q0 188 31 268q39 102 161 146t384 44q309 0 421.5 -98t112.5 -387q0 -291 -120 -387q-98 -80 -410 -105 q-252 -20 -326 -69q-80 -53 -79 -217v-131h931v-154h-1106z" />
<glyph unicode="3" horiz-adv-x="1413" d="M119 395v103h174v-103q0 -176 61 -215q55 -35 310 -39q287 -4 355 42t68 270q0 178 -88 227q-57 31 -254 31h-182v153h182q190 0 238 29q74 45 74 225q0 190 -63.5 233.5t-336.5 43.5q-225 0 -284.5 -44t-59.5 -221v-65h-174v65q0 272 137 357q98 61 404 61 q301 0 399 -51q152 -78 152 -348q0 -172 -43 -246q-55 -100 -211 -112v-5q168 -12 229 -98q55 -76 56 -254q0 -219 -74 -321q-63 -88 -205 -113q-78 -12 -319 -12q-293 0 -404 69q-141 86 -141 338z" />
<glyph unicode="4" horiz-adv-x="1413" d="M61 350v207l773 979h266v-1032h223v-154h-223v-350h-174v350h-865zM205 504h721v919h-4z" />
<glyph unicode="5" horiz-adv-x="1413" d="M139 440h176v-51q0 -166 95 -213q68 -35 299 -35q264 0 331 70q59 63 60 321q0 242 -69.5 303.5t-321.5 61.5q-178 0 -222 -8q-129 -25 -147 -131h-174v778h1044v-154h-870v-458h4q76 127 414 127q328 0 438 -148q78 -106 78 -371q0 -354 -109 -452q-100 -92 -456 -92 q-328 0 -430 67q-123 80 -138 348z" />
<glyph unicode="6" horiz-adv-x="1413" d="M137 530v609q0 254 154 342q121 68 424 67q258 0 358 -43q168 -74 168 -309v-49h-174v43q0 141 -90 180q-59 25 -262 25q-244 0 -307 -31q-96 -45 -97 -225v-330h4q57 141 392 141q338 0 444 -78q125 -94 125 -403q0 -301 -121 -395q-111 -86 -448 -86q-338 0 -447 92 q-123 106 -123 450zM311 530q0 -256 62 -319q66 -70 334 -70q195 0 274.5 24.5t101.5 96.5q18 53 19 207q0 219 -57.5 273.5t-301.5 54.5q-268 0 -342 -41q-90 -47 -90 -226z" />
<glyph unicode="7" horiz-adv-x="1413" d="M129 1393v143h1120v-219l-745 -1317h-205l807 1393h-977z" />
<glyph unicode="8" horiz-adv-x="1413" d="M133 424q0 186 41 254q53 92 225 119v4q-152 27 -200 104q-45 68 -45 246q0 264 135 342q99 55 418 55q317 0 415 -53q139 -78 140 -344q0 -168 -39 -236q-49 -90 -205 -116v-2q154 -25 208 -105t54 -268q0 -283 -119 -365q-104 -72 -454 -71q-229 0 -312 14 q-135 27 -194 113q-68 98 -68 309zM307 424q0 -135 19 -182q25 -59 108 -80q74 -17 273 -21q252 -4 325.5 49.5t73.5 233.5q0 193 -67.5 242t-331.5 49t-328 -43q-72 -49 -72 -248zM328 1151q0 -182 57 -229q66 -54 322 -54q258 0 321 52q59 45 59 231q0 162 -57 201 q-63 43 -323 43q-262 0 -320.5 -39t-58.5 -205z" />
<glyph unicode="9" horiz-adv-x="1413" d="M129 334v57h174v-57q0 -129 78 -162q70 -31 334 -31q256 0 319 47q76 55 76 285v256l-4 4q-61 -137 -391 -137q-336 0 -443 80q-125 90 -125 385q0 307 117 401q106 86 451 86q338 0 448 -86q121 -96 121 -401v-588q0 -297 -100 -387q-109 -98 -469 -98q-322 0 -428 47 q-158 68 -158 299zM322 1061q0 -213 69 -264q64 -47 324 -47q268 0 331.5 48t63.5 263q0 231 -82 291q-63 43 -313 43q-270 0 -328 -45q-66 -51 -65 -289z" />
<glyph unicode=":" horiz-adv-x="706" d="M225 0v209h183v-209h-183zM225 866v209h183v-209h-183z" />
<glyph unicode=";" horiz-adv-x="706" d="M225 -137q55 2 78 22.5t23 75.5v39h-78v209h182v-248q0 -94 -29 -137q-35 -53 -129 -53h-47v92zM248 866v209h182v-209h-182z" />
<glyph unicode="&#x3c;" horiz-adv-x="1196" d="M102 424v143l992 424v-164l-809 -331l809 -332v-164z" />
<glyph unicode="=" horiz-adv-x="1196" d="M102 346v154h992v-154h-992zM102 664v153h992v-153h-992z" />
<glyph unicode="&#x3e;" horiz-adv-x="1196" d="M102 0v164l801 332l-801 331v164l992 -424v-143z" />
<glyph unicode="?" horiz-adv-x="1196" d="M117 1051v88q0 262 123 346q94 63 370 63q262 0 363 -80q109 -88 108 -329q0 -207 -41 -289q-53 -106 -227 -166q-135 -47 -164 -72q-37 -33 -37 -118v-56h-174v56q0 143 58 204q49 53 231 123q139 53 170 117q20 41 21 201q0 168 -60 215q-53 41 -248 41 q-205 0 -260 -37q-70 -45 -69 -219v-88h-164zM434 0v209h182v-209h-182z" />
<glyph unicode="@" horiz-adv-x="2027" d="M205 721q8 332 259 579.5t578 247.5q295 0 525 -157q256 -178 256 -455q0 -225 -125 -401q-139 -195 -352 -195q-182 0 -201 133q-125 -125 -244 -129q-135 -4 -221 102q-80 100 -74 238q8 182 135 327.5t308 155.5q74 4 142.5 -42t86.5 -115h4l37 116h145l-182 -573 q-4 -14 -4 -27q0 -63 115 -63q133 0 215 160q72 135 71 299q0 217 -206 362q-190 133 -429 131q-274 -2 -484 -219t-202 -491q8 -254 203 -422q188 -164 449 -162q150 0 344 61l51 -119q-199 -74 -391 -75q-330 -4 -568 196q-250 213 -241 537zM760 678q-4 -80 50 -149.5 t134 -69.5q123 0 209 174q76 153 64 278q-6 63 -50.5 98t-107.5 35q-127 0 -215 -122q-78 -111 -84 -244z" />
<glyph unicode="A" horiz-adv-x="1402" d="M12 0l559 1536h246l574 -1536h-181l-120 326h-777l-118 -326h-183zM360 469h680l-342 924z" />
<glyph unicode="B" horiz-adv-x="1421" d="M125 0v1536h778q207 0 287 -102q70 -90 70 -304q0 -133 -37 -202q-43 -84 -156 -121v-4q141 -25 197 -129q41 -82 41 -246q-1 -428 -363 -428h-817zM299 154h551q158 0 211 41q69 50 69 212q0 171 -43 232q-55 74 -217 74h-571v-559zM299 866h506q162 0 221 56.5 t59 230.5q0 145 -63 193q-48 36 -191 36h-8h-524v-516z" />
<glyph unicode="C" horiz-adv-x="1361" d="M92 471v594q0 299 180 405q135 78 461 78h144q236 0 327.5 -103.5t91.5 -338.5v-49h-174v43q0 168 -51 227q-55 68 -219 68h-98q-285 0 -379 -58q-109 -63 -109 -266v-422q0 -295 43 -385q59 -123 262 -123h207q215 0 290 49.5t75 208.5v123h174v-143q0 -242 -152 -328 q-111 -63 -381 -63h-245q-211 0 -329 127t-118 356z" />
<glyph unicode="D" horiz-adv-x="1503" d="M131 0v1536h748q217 0 333 -84q193 -137 193 -508v-366q0 -209 -70 -347q-119 -231 -415 -231h-789zM305 154h574q213 0 290 125q61 96 62 329v404q0 121 -51 217q-83 153 -271 153h-2h-602v-1228z" />
<glyph unicode="E" horiz-adv-x="1146" d="M84 0v1536h987v-154h-813v-522h778v-143h-778v-563h813v-154h-987z" />
<glyph unicode="F" horiz-adv-x="1124" d="M133 0v1536h942v-154h-768v-536h748v-144h-748v-702h-174z" />
<glyph unicode="G" horiz-adv-x="1425" d="M90 539v475q0 293 127 424q108 110 320 110h4h403q410 0 410 -342v-119h-174v89q0 131 -65.5 175t-254.5 44h-215q-246 0 -313.5 -74t-67.5 -328v-493q0 -215 86 -289q78 -70 299 -70h164q233 0 302 50.5t69 232.5v190h-490v154h664v-334q0 -260 -125 -358 q-111 -88 -385 -88h-168q-330 0 -449 98q-141 115 -141 453z" />
<glyph unicode="H" horiz-adv-x="1536" d="M145 0v1536h174v-676h900v676h174v-1536h-174v707h-900v-707h-174z" />
<glyph unicode="I" horiz-adv-x="466" d="M147 0v1536h175v-1536h-175z" />
<glyph unicode="J" horiz-adv-x="1157" d="M59 334v225h174v-174q0 -147 48 -192q53 -51 231 -52q160 0 221 27q102 43 103 178l2 1190h172v-1165q0 -215 -131 -308q-108 -75 -330 -75h-6q-236 0 -342 59q-141 78 -142 287z" />
<glyph unicode="K" horiz-adv-x="1388" d="M147 0v1536h175v-672h151l627 672h227l-702 -743l786 -793h-235l-703 711h-151v-711h-175z" />
<glyph unicode="L" horiz-adv-x="1142" d="M154 0v1536h174v-1382h782v-154h-956z" />
<glyph unicode="M" horiz-adv-x="1976" d="M143 0v1536h301l543 -1315l545 1315h301v-1536h-174v1405h-4l-580 -1405h-172l-581 1405h-5v-1405h-174z" />
<glyph unicode="N" horiz-adv-x="1603" d="M139 0v1536h287l860 -1403h4v1403h174v-1536h-284l-863 1393h-4v-1393h-174z" />
<glyph unicode="O" horiz-adv-x="1374" d="M84 485v547q0 291 107.5 403.5t392.5 112.5h207q285 0 392 -112.5t107 -403.5v-547q0 -272 -111.5 -384.5t-387.5 -112.5h-207q-276 0 -388 112.5t-112 384.5zM258 485q0 -215 78 -286q66 -57 248 -58h207q182 0 247 58q78 72 78 286v547q0 221 -64 292t-261 71h-207 q-197 0 -261.5 -71t-64.5 -292v-547z" />
<glyph unicode="P" horiz-adv-x="1353" d="M121 0v1536h782q207 0 295 -133q72 -111 72 -332q0 -186 -47 -289q-86 -184 -328 -184h-600v-598h-174zM295 752h450q205 0 263 36q88 55 88 261q0 215 -54 278q-49 55 -215 55h-532v-630z" />
<glyph unicode="Q" horiz-adv-x="1509" d="M102 575v435q0 287 122 412.5t409 125.5h239q295 0 415 -119.5t120 -418.5v-435q0 -205 -33 -301l129 -86l-71 -118l-115 77q-130 -159 -441 -159h-4h-239q-315 0 -428 139q-102 123 -103 448zM276 545q0 -250 72 -330q66 -74 266 -74h293q203 0 271 97l-480 311l80 119 l443 -291q12 33 12 121v571q0 160 -59 234q-74 92 -267 92h-293q-193 0 -265.5 -77t-72.5 -274v-499z" />
<glyph unicode="R" horiz-adv-x="1435" d="M141 0v1536h709q258 0 362 -90q115 -98 115 -352q0 -188 -43 -273q-57 -113 -225 -133v-4q248 -18 248 -276v-408h-174v326q0 156 -50 217q-56 71 -205 71h-4h-559v-614h-174zM315 768h537q193 0 252 78q49 63 49 266q0 160 -47 209q-59 61 -254 61h-537v-614z" />
<glyph unicode="S" horiz-adv-x="1288" d="M66 391q0 41 4 88h174v-13q0 -230 69 -282q57 -43 318 -43q268 0 332 37q86 51 86 264q0 139 -45 195q-37 47 -136 57q-116 9 -231 15q-281 23 -281 22q-139 23 -204 94q-78 88 -78 277q0 287 141 377q107 69 417 69h9q303 0 408 -59q146 -81 146 -331q0 -21 -1 -42h-174 q-6 195 -74 240q-57 39 -311 39q-252 0 -319.5 -47.5t-67.5 -208.5q0 -139 47 -199q41 -51 141 -66q18 -2 238 -12q233 -10 305 -24q127 -27 182 -111q61 -92 62 -291q0 -299 -152 -387q-104 -61 -440 -61q-305 0 -418 65q-147 84 -147 338z" />
<glyph unicode="T" horiz-adv-x="1185" d="M8 1382v154h1170v-154h-498v-1382h-174v1382h-498z" />
<glyph unicode="U" horiz-adv-x="1509" d="M147 430v1106h175v-1106q0 -186 76.5 -237.5t357.5 -51.5q262 0 334 37q100 53 100 252v1106h174v-1106q0 -283 -168 -375q-119 -67 -431 -67h-9q-315 0 -430 59q-178 90 -179 383z" />
<glyph unicode="V" horiz-adv-x="1316" d="M-12 1536h186l483 -1403h7l479 1403h186l-545 -1536h-247z" />
<glyph unicode="W" horiz-adv-x="2299" d="M4 1536h178l418 -1403h4l414 1403h256l409 -1403h5l428 1403h180l-484 -1536h-264l-401 1382h-4l-408 -1382h-260z" />
<glyph unicode="X" horiz-adv-x="1337" d="M-12 0l549 795l-504 741h209l436 -657l430 657h205l-492 -741l529 -795h-205l-467 707l-477 -707h-213z" />
<glyph unicode="Y" horiz-adv-x="1294" d="M-12 1536h202l455 -719l455 719h207l-582 -895v-641h-174v641z" />
<glyph unicode="Z" horiz-adv-x="1304" d="M53 0v152l965 1230h-936v154h1149v-162l-967 -1220h987v-154h-1198z" />
<glyph unicode="[" horiz-adv-x="636" d="M113 -307v1855h397v-153h-223v-1549h223v-153h-397z" />
<glyph unicode="\" horiz-adv-x="569" d="M-47 1536h160l505 -1536h-159z" />
<glyph unicode="]" horiz-adv-x="636" d="M127 -154h223v1549h-223v153h397v-1855h-397v153z" />
<glyph unicode="^" horiz-adv-x="1196" d="M102 535l424 1001h144l424 -1001h-164l-332 800l-332 -800h-164z" />
<glyph unicode="_" horiz-adv-x="1024" d="M0 -154h1024v-153h-1024v153z" />
<glyph unicode="`" horiz-adv-x="692" d="M154 1411l82 111l303 -232l-54 -84z" />
<glyph unicode="a" d="M100 313q0 207 111 281q86 57 309 57q313 0 338 -108h10v198q0 137 -75 183q-53 32 -202 32h-9q-133 0 -189 -18q-92 -31 -92 -129v-37h-168v23q0 188 125 249q86 43 305 43q240 0 336 -53q131 -78 131 -301v-733h-162v111l-4 4q-41 -82 -149 -109q-68 -18 -205 -18 q-205 0 -295 57q-115 74 -115 268zM268 334q0 -143 66 -184q47 -31 205 -31q160 0 223 26q102 43 102 174q0 137 -86 177q-53 24 -225 24h-14q-158 0 -207 -28q-63 -35 -64 -158z" />
<glyph unicode="b" horiz-adv-x="1175" d="M139 0v1536h162v-600h4q57 151 342 151h4q258 0 348 -149q72 -117 72 -401q0 -293 -70 -406q-90 -143 -350 -143q-272 0 -346 143l-4 -4v-127h-162zM305 537q0 -258 60.5 -338t240.5 -80q201 0 256 98q41 72 41 320q0 266 -52 342.5t-245 76.5q-199 0 -256 -94 q-45 -74 -45 -325z" />
<glyph unicode="c" horiz-adv-x="1118" d="M100 559q0 287 80 395q96 133 371 133q233 0 330 -53q135 -72 135 -280v-29h-162v33q0 133 -76 172q-51 26 -205 26h-12q-203 0 -254 -92q-39 -70 -39 -350q0 -246 45 -311q59 -84 283 -84q162 0 215 35q61 43 61 182v53h162v-59q0 -209 -133 -285q-98 -57 -323 -57 q-313 0 -406 135q-72 104 -72 436z" />
<glyph unicode="d" horiz-adv-x="1175" d="M100 537q0 285 68 397q89 153 351 153h3q293 0 346 -145h4v594h162v-1536h-162v135l-4 4q-74 -151 -342 -151h-4q-264 0 -354 151q-68 113 -68 398zM268 537q0 -268 66 -349q57 -69 239 -69q186 0 242.5 82t56.5 336q0 238 -51 321q-59 98 -248 98q-193 0 -245 -67 q-59 -78 -60 -352z" />
<glyph unicode="e" horiz-adv-x="1157" d="M106 537q0 334 96.5 442t387.5 108q268 0 360 -90q98 -96 99 -387v-108h-775q0 -258 50.5 -320.5t265.5 -62.5q176 0 229 26q63 31 64 140v41h166v-39q0 -193 -140 -256q-92 -43 -319 -43q-303 0 -400 121q-84 106 -84 428zM274 633h607q-6 223 -56 276q-47 47 -235 47 q-207 0 -262 -69q-44 -51 -54 -254z" />
<glyph unicode="f" horiz-adv-x="618" d="M16 944v131h164v129q0 197 74 270.5t272 73.5q35 0 101 -4v-131q-66 4 -101 4q-117 0 -153 -45q-31 -37 -31 -151v-146h285v-131h-285v-944h-162v944h-164z" />
<glyph unicode="g" horiz-adv-x="1173" d="M104 537q0 295 74 409q90 141 350 141q272 0 346 -149l5 2v135h161v-1202q0 -199 -139 -283q-111 -67 -328 -67h-6q-221 0 -315 57q-116 74 -116 262q0 15 1 31h162q0 -143 70 -186q51 -33 198 -33q166 0 228 37q84 49 84 194v248h-5q-49 -145 -346 -145q-250 0 -342 137 q-82 117 -82 412zM272 537q0 -244 31 -306q53 -112 264 -112t273 119q39 76 39 299q0 246 -48 321q-59 98 -264 98t-260 -104q-35 -68 -35 -315z" />
<glyph unicode="h" horiz-adv-x="1187" d="M141 0v1536h162v-592h4q57 143 332 143q217 0 307 -73q98 -84 98 -299v-715h-161v727q0 141 -62 188q-51 41 -196 41q-195 0 -258.5 -69.5t-63.5 -259.5v-627h-162z" />
<glyph unicode="i" horiz-adv-x="440" d="M139 0v1075h162v-1075h-162zM139 1358v178h162v-178h-162z" />
<glyph unicode="j" horiz-adv-x="428" d="M-10 -293q4 0 16 -2h17q86 0 108 72q8 31 8 147v1151h162v-1204q0 -145 -41 -211q-53 -88 -190 -88q-35 0 -80 10v125zM139 1358v178h162v-178h-162z" />
<glyph unicode="k" horiz-adv-x="997" d="M139 0v1536h162v-889h66l387 428h198l-460 -493l544 -582h-213l-456 516h-66v-516h-162z" />
<glyph unicode="l" horiz-adv-x="438" d="M139 0v1536h162v-1536h-162z" />
<glyph unicode="m" horiz-adv-x="1882" d="M135 0v1075h162v-166h4q74 178 358 178q285 0 332 -178q90 178 383 178q205 0 289 -88t84 -290v-709h-162v692q0 147 -39 201q-49 63 -196 63q-178 0 -250 -61q-78 -66 -78 -236v-659h-162v721q0 129 -33 172q-47 63 -206 63q-324 0 -324 -309v-647h-162z" />
<glyph unicode="n" horiz-adv-x="1187" d="M141 0v1075h162v-131h4q57 143 332 143q217 0 307 -73q98 -84 98 -299v-715h-161v727q0 141 -62 188q-51 41 -196 41q-195 0 -258.5 -69.5t-63.5 -259.5v-627h-162z" />
<glyph unicode="o" d="M106 537q0 342 89.5 446t388.5 104t388 -104t89 -446q0 -340 -89 -444.5t-388 -104.5t-388.5 104.5t-89.5 444.5zM274 537q0 -283 48.5 -350.5t261.5 -67.5t261 67.5t48 350.5q0 285 -48 352t-261 67t-261.5 -67t-48.5 -352z" />
<glyph unicode="p" horiz-adv-x="1173" d="M135 -465v1540h162v-131l4 -4q78 147 346 147t357 -155q63 -109 63 -395q0 -317 -90 -433t-330 -116q-279 0 -346 139h-4v-592h-162zM297 537q0 -223 45 -304q60 -114 257 -114h3q186 0 241.5 77.5t55.5 340.5q0 256 -45 329q-55 90 -252 90q-211 0 -266 -102 q-39 -70 -39 -317z" />
<glyph unicode="q" horiz-adv-x="1177" d="M106 537q0 297 74 407q94 143 379 143q240 0 315 -145l5 4v129h161v-1540h-161v588h-5q-59 -135 -315 -135t-348 100q-104 115 -105 449zM274 537q0 -252 41 -322q56 -96 267 -96q190 0 249 104q43 78 43 314q0 252 -43 323q-59 96 -274 96q-170 0 -223 -69 q-59 -80 -60 -350z" />
<glyph unicode="r" horiz-adv-x="905" d="M119 0v1075h157l-8 -133l4 -4q70 149 303 149h3q299 0 299 -303v-77h-154v71q0 100 -40 139t-140 39q-145 0 -203.5 -68.5t-58.5 -217.5v-670h-162z" />
<glyph unicode="s" horiz-adv-x="1099" d="M94 240v100h168v-84q0 -76 61.5 -100.5t247.5 -24.5q145 0 183 12q98 31 98 154q0 96 -26.5 130t-94.5 40q-80 2 -160 6q-211 14 -225 16q-117 16 -174 72q-70 68 -70 209q0 213 125 277q82 40 332 40h12q195 0 281 -34q139 -55 139 -217v-41h-168v41q0 74 -61 94 q-43 14 -191 14q-178 0 -227 -16q-74 -23 -74 -115q0 -133 47 -162q27 -16 175 -24q129 -6 260 -13q131 -16 192 -75q76 -74 76 -236q0 -205 -135 -270q-88 -45 -314 -45q-227 0 -325 37q-152 55 -152 215z" />
<glyph unicode="t" horiz-adv-x="749" d="M-12 944v131h143v260h162v-260h416v-131h-416v-682q0 -86 30.5 -114.5t120.5 -28.5q102 0 134 53q18 33 18 129v80h154v-80q0 -162 -73 -237.5t-237 -75.5q-186 0 -247.5 66.5t-61.5 256.5v633h-143z" />
<glyph unicode="u" d="M135 385v690h162v-690q0 -150 33 -199q42 -67 184 -67h4q186 0 258 51q86 61 86 242v663h162v-1075h-164v143h-4q-68 -155 -333 -155h-3q-211 0 -298 91t-87 306z" />
<glyph unicode="v" horiz-adv-x="927" d="M-8 1075h164l305 -952h4l295 952h176l-361 -1075h-227z" />
<glyph unicode="w" horiz-adv-x="1544" d="M8 1075h166l244 -962h4l235 962h232l233 -962h4l244 962h168l-301 -1075h-236l-229 963h-4l-231 -963h-238z" />
<glyph unicode="x" horiz-adv-x="929" d="M-8 0l389 561l-348 514h182l250 -393l244 393h188l-342 -514l383 -561h-195l-278 434l-279 -434h-194z" />
<glyph unicode="y" horiz-adv-x="894" d="M-8 1075h166l331 -956h5l241 956h168l-309 -1151q-55 -205 -105 -276q-86 -125 -258 -125q-16 0 -73 10v125q29 -6 57 -6q106 0 162 127q31 111 61 221h-57z" />
<glyph unicode="z" horiz-adv-x="929" d="M51 0v150l641 794h-588v131h777v-149l-641 -795h641v-131h-830z" />
<glyph unicode="{" horiz-adv-x="684" d="M98 545v153q104 12 140 97q20 51 20 174v336q0 98 64 176q55 68 104 67h170v-153h-90q-74 0 -74 -125v-334q0 -217 -147 -315q147 -115 147 -316v-332q0 -127 74 -127h90v-153h-170q-49 0 -104 65q-63 78 -64 179v335q0 123 -22 174q-34 85 -138 99z" />
<glyph unicode="|" horiz-adv-x="532" d="M190 0v1536h154v-1536h-154z" />
<glyph unicode="}" horiz-adv-x="684" d="M88 -154h90q74 0 74 125v334q0 217 147 316q-147 115 -147 315v332q0 127 -74 127h-90v153h170q49 0 104 -65q63 -78 64 -178v-336q0 -123 23 -174q33 -85 137 -99v-153q-104 -12 -140 -97q-20 -51 -20 -174v-335q0 -98 -64 -177q-55 -68 -104 -67h-170v153z" />
<glyph unicode="~" horiz-adv-x="1196" d="M102 440q12 317 226 336q78 6 137 -28l299 -181q45 -27 96 -26q53 2 78 57q18 49 12 117h144q10 -115 -54 -217q-72 -111 -184 -113q-92 0 -184 57l-246 156q-39 33 -82 33t-73.5 -58.5t-24.5 -132.5h-144z" />
<glyph horiz-adv-x="1019" d="M-84 535l43 96h115q6 51 24 149h-135l43 99h121q84 229 221 374q170 180 383 181q193 -1 338 -138l-47 -319l-98 12q0 322 -193 322q-211 0 -330 -432h353l-43 -99h-336q-12 -49 -33 -149h301l-43 -96h-274q-12 -84 -13 -152q0 -115 43 -186q53 -88 160 -88 q119 0 207 139q49 78 104 244l113 -21l-111 -385q-158 -109 -325 -109q-227 0 -340 173q-96 145 -96 385h-152z" />
<glyph unicode="&#xa1;" horiz-adv-x="552" d="M180 -461l17 1112h149l16 -1112h-182zM180 866v209h182v-209h-182z" />
<glyph unicode="&#xa2;" horiz-adv-x="1413" d="M203 713q0 274 65 385q88 154 346 159v150h134v-150q184 -4 274 -75q106 -88 100 -287h-164q8 129 -38 177t-172 52v-833q129 0 176 37q57 45 57 172v59h164v-59q0 -193 -97.5 -269.5t-299.5 -72.5v-170h-134v170q-254 -6 -346 161q-66 117 -65 394zM377 713 q0 -246 37 -322q44 -92 200 -100v833q-164 -6 -206 -106q-31 -68 -31 -305z" />
<glyph unicode="&#xa3;" horiz-adv-x="1413" d="M106 600v143h189v344q0 285 121 381q100 80 372 80q311 0 416 -85t105 -353v-33h-164v33q0 184 -57.5 234.5t-262.5 50.5q-248 0 -302 -47.5t-54 -260.5v-344h436v-143h-436v-127q0 -145 -12 -192q-23 -88 -115 -146l4 -4l991 19v-150h-1192v131q104 16 136 133 q14 55 14 209v127h-189z" />
<glyph unicode="&#xa4;" horiz-adv-x="1413" d="M274 1018l111 117l119 -121q100 47 190 49q100 4 209 -49l115 110l121 -125l-119 -112q39 -59 53 -174q4 -106 -61 -217l116 -117l-118 -113l-109 113q-100 -63 -205 -68q-74 -2 -190 51l-111 -104l-112 121l100 104q-61 78 -59 213q2 141 69 199zM457 690 q0 -117 82 -186q67 -60 155 -60q90 0 162 60q84 72 84 192q0 111 -84 178q-72 55 -162 56q-90 0 -157 -58q-80 -66 -80 -182z" />
<glyph unicode="&#xa5;" horiz-adv-x="1413" d="M78 1536h203l430 -719l424 719h200l-301 -487h209v-144h-297l-139 -229h436v-144h-457v-532h-174v532h-442v144h422l-137 229h-285v144h201z" />
<glyph unicode="&#xa6;" horiz-adv-x="532" d="M190 0v621h154v-621h-154zM190 915v621h154v-621h-154z" />
<glyph unicode="&#xa7;" horiz-adv-x="1413" d="M172 614q0 119 31 181q41 80 145 98v4q-113 57 -112 266q0 258 112 332q84 53 369 53q309 0 398 -71.5t91 -335.5h-153q0 178 -54.5 221t-281.5 43q-203 0 -250 -21q-78 -37 -78 -184q0 -131 39 -170q31 -29 188 -74l299 -84q188 -53 234 -86q88 -63 88 -223 q0 -258 -150 -301v-4q94 -33 130 -121q25 -61 24 -182q0 -268 -139 -348q-92 -53 -385 -53q-315 0 -412 63q-125 82 -125 365h154q2 -131 16 -172q23 -66 100.5 -89.5t266.5 -23.5q215 0 270 24q100 45 100 226q0 121 -55 164q-30 24 -180 63l-426 113q-156 41 -205 102.5 t-49 224.5zM326 623q0 -104 49 -144q26 -22 143 -55l299 -84q78 -23 127 -23q76 0 107.5 54.5t31.5 177.5q0 84 -65 123q-29 18 -137 51l-285 84q-88 27 -139 27q-131 0 -131 -211z" />
<glyph unicode="&#xa8;" horiz-adv-x="897" d="M154 1186v151h180v-151h-180zM563 1186v151h180v-151h-180z" />
<glyph unicode="&#xa9;" horiz-adv-x="1597" d="M16 768q0 324 229.5 552t555.5 228q324 0 552 -228t228 -552q0 -326 -228.5 -553t-551.5 -227q-326 0 -555.5 227t-229.5 553zM143 772q0 -274 192.5 -467.5t465.5 -193.5q272 0 462.5 193.5t190.5 467.5q0 270 -191.5 461.5t-461.5 191.5q-272 0 -465 -191.5 t-193 -461.5zM401 774q0 197 116 323t312 126q143 0 245 -79t124 -216h-123q-16 90 -81.5 140t-162.5 50q-150 0 -231 -98q-76 -90 -76 -244q0 -150 80 -246q86 -104 232 -104q94 0 160.5 52.5t78.5 146.5h123q-14 -137 -118.5 -220t-243.5 -83q-195 0 -315 129t-120 323z " />
<glyph unicode="&#xaa;" horiz-adv-x="901" d="M84 629v112h733v-112h-733zM139 1079q0 125 72 174q59 39 195 39q170 0 217 -51q0 129 -21 162q-31 47 -145 47q-104 0 -135 -16q-41 -18 -35 -84h-123q0 129 84 172q55 27 194 26q154 0 215 -32q88 -47 88 -185v-440h-108v49l-4 4q-53 -66 -225 -65q-129 0 -191 36 q-78 45 -78 164zM268 1092q0 -76 39 -99q29 -16 119 -16q98 0 135 14q61 23 62 92q0 72 -48 95q-35 16 -129 16q-106 0 -137 -14q-41 -20 -41 -88z" />
<glyph unicode="&#xab;" horiz-adv-x="1030" d="M115 592l276 586l119 -72l-242 -514l269 -518l-113 -74zM494 592l276 586l119 -72l-242 -514l268 -518l-112 -74z" />
<glyph unicode="&#xac;" horiz-adv-x="1196" d="M102 664v153h992v-553h-154v400h-838z" />
<glyph unicode="&#xad;" horiz-adv-x="692" d="M16 356l68 250h504l-68 -250h-504z" />
<glyph unicode="&#xae;" horiz-adv-x="1597" d="M16 768q0 324 229.5 552t555.5 228q324 0 552 -228t228 -552q0 -326 -228.5 -553t-551.5 -227q-326 0 -555.5 227t-229.5 553zM143 772q0 -274 192.5 -467.5t465.5 -193.5q272 0 462.5 193.5t190.5 467.5q0 270 -191.5 461.5t-461.5 191.5q-272 0 -465 -191.5 t-193 -461.5zM510 330v874h381q311 0 311 -231q0 -240 -272 -248l260 -395h-137l-250 383h-170v-383h-123zM633 817h229q217 0 217 158q0 125 -213 125h-233v-283z" />
<glyph unicode="&#xaf;" horiz-adv-x="888" d="M162 1196v131h565v-131h-565z" />
<glyph unicode="&#xb0;" horiz-adv-x="819" d="M102 1241q0 127 90.5 217t217.5 90t217 -90t90 -217t-90 -217t-217 -90t-217.5 90t-90.5 217zM205 1241q0 -86 60.5 -145.5t144.5 -59.5t144 59.5t60 145.5q0 84 -61 144.5t-145 60.5q-82 0 -142.5 -60.5t-60.5 -144.5z" />
<glyph unicode="&#xb1;" horiz-adv-x="1196" d="M102 20v154h992v-154h-992zM102 610v154h420v311h154v-311h418v-154h-418v-311h-154v311h-420z" />
<glyph unicode="&#xb2;" horiz-adv-x="847" d="M82 618v156q0 170 86 227q61 41 264 62q160 16 191 35q47 33 47 157q0 115 -43 146q-37 25 -172 24q-164 0 -202 -24.5t-38 -128.5v-47h-133v47q0 164 57 215q70 61 316 61q203 0 275.5 -59t72.5 -234q0 -178 -78 -243q-70 -57 -266 -72q-152 -10 -195 -35 q-49 -29 -49 -117v-47h586v-123h-719z" />
<glyph unicode="&#xb3;" horiz-adv-x="847" d="M78 856v62h133v-52q0 -98 36 -119.5t185 -23.5q170 -2 212 23.5t42 144.5q0 104 -51 131q-33 18 -150 18h-118v113h118q113 0 140 16q41 23 41 121t-38 122t-200 24q-117 0 -145 -13q-59 -25 -60 -127v-39h-133v39q0 164 90 215q66 37 262 37q197 0 258 -30 q98 -47 99 -209q0 -104 -27 -150q-37 -59 -137 -65v-4q109 -8 149 -60q35 -45 35 -151q0 -182 -104 -236q-66 -33 -283 -33q-190 0 -262 43q-92 51 -92 203z" />
<glyph unicode="&#xb4;" horiz-adv-x="692" d="M154 1290l305 232l80 -111l-330 -205z" />
<glyph unicode="&#xb6;" horiz-adv-x="1413" d="M70 1065q0 242 82 346q94 125 344 125h847v-1964h-153v1821h-182v-1821h-154v1030h-358q-215 0 -308 80q-119 102 -118 383zM244 1065q0 -197 69 -266q53 -53 183 -54h358v648h-358q-168 0 -215 -72q-37 -57 -37 -256z" />
<glyph unicode="&#xb7;" horiz-adv-x="706" d="M262 477v209h182v-209h-182z" />
<glyph unicode="&#xb8;" horiz-adv-x="552" d="M131 -315l135 233l111 -61l-158 -219z" />
<glyph unicode="&#xb9;" horiz-adv-x="847" d="M92 1272l275 276h184v-930h-133v832l-256 -262z" />
<glyph unicode="&#xba;" horiz-adv-x="901" d="M84 629v112h733v-112h-733zM147 1219q0 193 52 254q61 75 262 75q180 0 236.5 -65.5t56.5 -263.5q0 -201 -47 -265q-55 -76 -246 -75q-203 0 -258.5 63.5t-55.5 276.5zM270 1219q0 -176 27 -209t164 -33q117 0 145 45q25 39 25 197q0 152 -23 186q-28 45 -147 45 q-131 0 -161 -37t-30 -194z" />
<glyph unicode="&#xbb;" horiz-adv-x="1030" d="M115 74l268 518l-242 514l119 72l277 -586l-310 -592zM494 74l268 518l-242 514l119 72l276 -586l-309 -592z" />
<glyph unicode="&#xbc;" horiz-adv-x="2119" d="M113 1260l274 276h184v-922h-133v824l-256 -262zM465 0l1036 1536h144l-1043 -1536h-137zM1190 186v148l496 588h188v-613h135v-123h-135v-186h-133v186h-551zM1292 309h449v525h-6z" />
<glyph unicode="&#xbd;" horiz-adv-x="2119" d="M96 1260l275 276h184v-922h-133v824l-256 -262zM426 0l1036 1536h144l-1043 -1536h-137zM1303 0v156q0 170 86 227q61 41 264 61q160 16 190 35q47 33 47 158q0 115 -43 145q-37 25 -172 25q-164 0 -201.5 -24.5t-37.5 -129.5v-47h-133v47q0 164 57 215q70 61 315 62 q203 0 275.5 -59.5t72.5 -233.5q0 -178 -77 -244q-70 -57 -267 -71q-152 -10 -194 -35q-49 -29 -49 -117v-47h585v-123h-718z" />
<glyph unicode="&#xbe;" horiz-adv-x="2119" d="M92 856v62h133v-52q0 -98 36 -119.5t185 -23.5q170 -2 212 23.5t42 144.5q0 104 -51 131q-33 18 -149 18h-119v113h119q113 0 139 16q41 23 41 121t-38 122t-200 24q-117 0 -145 -13q-59 -25 -59 -127v-39h-134v39q0 164 91 215q66 37 262 37q197 0 258 -30 q98 -47 98 -209q0 -104 -27 -150q-37 -59 -137 -65v-4q109 -8 150 -60q35 -45 35 -151q0 -186 -105 -238q-61 -31 -283 -31q-190 0 -262 43q-92 51 -92 203zM561 0l1036 1536h144l-1043 -1536h-137zM1210 186v148l496 588h188v-613h136v-123h-136v-186h-133v186h-551z M1313 309h448v525h-6z" />
<glyph unicode="&#xbf;" horiz-adv-x="1196" d="M117 -68q0 207 41 289q53 106 227 166q135 47 164 72q37 33 37 119v55h174v-55q0 -143 -58 -205q-49 -53 -231 -123q-139 -53 -170 -117q-20 -41 -20 -201q0 -168 59 -215q53 -41 248 -41q205 0 260 37q70 45 70 219v88h163v-88q0 -262 -123 -346q-94 -63 -370 -63 q-262 0 -361 80q-111 88 -110 329zM580 866v209h182v-209h-182z" />
<glyph unicode="&#xc0;" horiz-adv-x="1402" d="M12 0l559 1536h246l574 -1536h-181l-120 326h-777l-118 -326h-183zM330 1931h217l180 -262h-59zM360 469h680l-342 924z" />
<glyph unicode="&#xc1;" horiz-adv-x="1402" d="M12 0l559 1536h246l574 -1536h-181l-120 326h-777l-118 -326h-183zM360 469h680l-342 924zM666 1669l180 262h217l-338 -262h-59z" />
<glyph unicode="&#xc2;" horiz-adv-x="1402" d="M12 0l559 1536h246l574 -1536h-181l-120 326h-777l-118 -326h-183zM360 469h680l-342 924zM371 1647l325 219l318 -219l-43 -58l-275 140l-286 -140z" />
<glyph unicode="&#xc3;" horiz-adv-x="1402" d="M12 0l559 1536h246l574 -1536h-181l-120 326h-777l-118 -326h-183zM326 1669q125 205 262 215q72 6 82 -6l131 -86q18 -18 55 -18q72 0 117 112h92q-31 -74 -109 -139q-84 -72 -157 -74q-78 -2 -103 17l-104 77q-10 23 -41 23q-35 0 -76 -45q-37 -37 -53 -76h-96z M360 469h680l-342 924z" />
<glyph unicode="&#xc4;" horiz-adv-x="1402" d="M12 0l559 1536h246l574 -1536h-181l-120 326h-777l-118 -326h-183zM360 469h680l-342 924zM408 1647v151h180v-151h-180zM817 1647v151h180v-151h-180z" />
<glyph unicode="&#xc5;" horiz-adv-x="1402" d="M12 0l559 1536h246l574 -1536h-181l-120 326h-777l-118 -326h-183zM360 469h680l-342 924zM525 1790q0 72 52 125t124 53q74 0 126 -53t52 -125q0 -74 -52.5 -126t-125.5 -52q-72 0 -124 52t-52 126zM602 1790q0 -41 29 -70.5t70 -29.5t70.5 29.5t29.5 70.5t-29.5 71 t-70.5 30t-70 -30t-29 -71z" />
<glyph unicode="&#xc6;" horiz-adv-x="2138" d="M-16 0l847 1536h1231v-154h-805v-522h768v-143h-768v-563h805v-154h-979v317h-716l-179 -317h-204zM446 471h637v911h-147z" />
<glyph unicode="&#xc7;" horiz-adv-x="1361" d="M92 471v594q0 299 180 405q135 78 461 78h144q236 0 327.5 -103.5t91.5 -338.5v-49h-174v43q0 168 -51 227q-55 68 -219 68h-98q-285 0 -379 -58q-109 -63 -109 -266v-422q0 -295 43 -385q59 -123 262 -123h207q215 0 290 49.5t75 208.5v123h174v-143q0 -242 -152 -328 q-111 -63 -381 -63h-245q-211 0 -329 127t-118 356zM537 -315l135 233l111 -61l-158 -219z" />
<glyph unicode="&#xc8;" horiz-adv-x="1146" d="M84 0v1536h987v-154h-813v-522h778v-143h-778v-563h813v-154h-987zM207 1931h217l180 -262h-59z" />
<glyph unicode="&#xc9;" horiz-adv-x="1146" d="M84 0v1536h987v-154h-813v-522h778v-143h-778v-563h813v-154h-987zM543 1669l180 262h217l-338 -262h-59z" />
<glyph unicode="&#xca;" horiz-adv-x="1146" d="M84 0v1536h987v-154h-813v-522h778v-143h-778v-563h813v-154h-987zM248 1686l325 219l318 -219l-43 -58l-275 139l-286 -139z" />
<glyph unicode="&#xcb;" horiz-adv-x="1146" d="M84 0v1536h987v-154h-813v-522h778v-143h-778v-563h813v-154h-987zM279 1647v151h180v-151h-180zM688 1647v151h180v-151h-180z" />
<glyph unicode="&#xcc;" horiz-adv-x="466" d="M-133 1931h217l180 -262h-59zM147 0v1536h175v-1536h-175z" />
<glyph unicode="&#xcd;" horiz-adv-x="466" d="M147 0v1536h175v-1536h-175zM203 1669l180 262h217l-338 -262h-59z" />
<glyph unicode="&#xce;" horiz-adv-x="466" d="M-122 1747l360 221l354 -221l-49 -86l-305 156l-317 -156zM147 0v1536h175v-1536h-175z" />
<glyph unicode="&#xcf;" horiz-adv-x="466" d="M-61 1647v151h180v-151h-180zM147 0v1536h175v-1536h-175zM348 1647v151h180v-151h-180z" />
<glyph unicode="&#xd0;" horiz-adv-x="1503" d="M-68 719v143h211v674h748q217 0 334 -84q193 -137 192 -508v-366q0 -209 -69 -347q-119 -231 -416 -231h-789v719h-211zM317 154h574q213 0 291 125q61 96 61 329v404q0 121 -51 217q-84 154 -272 153h-603v-520h342v-143h-342v-565z" />
<glyph unicode="&#xd1;" horiz-adv-x="1603" d="M139 0v1536h287l860 -1403h4v1403h174v-1536h-284l-863 1393h-4v-1393h-174zM455 1718q78 152 196 152q49 0 150.5 -44t140.5 -44q68 0 119 90l88 -57q-88 -154 -211 -154q-49 0 -146.5 44t-142.5 44q-39 0 -63 -24q-10 -12 -39 -60z" />
<glyph unicode="&#xd2;" horiz-adv-x="1374" d="M84 485v547q0 287 107.5 401.5t392.5 114.5h207q285 0 392 -114.5t107 -401.5v-547q0 -272 -113.5 -384.5t-385.5 -112.5h-207q-272 0 -386 112.5t-114 384.5zM258 485q0 -217 78 -286q63 -57 248 -58h207q184 0 247 58q78 70 78 286v547q0 211 -57 283q-65 80 -268 80 h-207q-203 0 -269 -80q-57 -72 -57 -283v-547zM319 1931h218l180 -262h-60z" />
<glyph unicode="&#xd3;" horiz-adv-x="1374" d="M84 485v547q0 287 107.5 401.5t392.5 114.5h207q285 0 392 -114.5t107 -401.5v-547q0 -272 -113.5 -384.5t-385.5 -112.5h-207q-272 0 -386 112.5t-114 384.5zM258 485q0 -217 78 -286q63 -57 248 -58h207q184 0 247 58q78 70 78 286v547q0 211 -57 283q-65 80 -268 80 h-207q-203 0 -269 -80q-57 -72 -57 -283v-547zM653 1669l181 262h217l-338 -262h-60z" />
<glyph unicode="&#xd4;" horiz-adv-x="1374" d="M84 485v547q0 287 107.5 401.5t392.5 114.5h207q285 0 392 -114.5t107 -401.5v-547q0 -272 -113.5 -384.5t-385.5 -112.5h-207q-272 0 -386 112.5t-114 384.5zM258 485q0 -217 78 -286q63 -57 248 -58h207q184 0 247 58q78 70 78 286v547q0 211 -57 283q-65 80 -268 80 h-207q-203 0 -269 -80q-57 -72 -57 -283v-547zM358 1686l326 219l317 -219l-43 -58l-274 139l-287 -139z" />
<glyph unicode="&#xd5;" horiz-adv-x="1374" d="M84 485v547q0 287 107.5 401.5t392.5 114.5h207q285 0 392 -114.5t107 -401.5v-547q0 -272 -113.5 -384.5t-385.5 -112.5h-207q-272 0 -386 112.5t-114 384.5zM258 485q0 -217 78 -286q63 -57 248 -58h207q184 0 247 58q78 70 78 286v547q0 211 -57 283q-65 80 -268 80 h-207q-203 0 -269 -80q-57 -72 -57 -283v-547zM313 1669q125 205 262 215q72 6 82 -6l131 -86q18 -18 56 -18q72 0 117 112h92q-31 -74 -109 -139q-84 -72 -158 -74q-78 -2 -102 17l-104 77q-10 23 -41 23q-35 0 -76 -45q-37 -37 -53 -76h-97z" />
<glyph unicode="&#xd6;" horiz-adv-x="1374" d="M84 485v547q0 291 107.5 403.5t392.5 112.5h207q285 0 392 -112.5t107 -403.5v-547q0 -272 -111.5 -384.5t-387.5 -112.5h-207q-276 0 -388 112.5t-112 384.5zM258 485q0 -215 78 -286q66 -57 248 -58h207q182 0 247 58q78 72 78 286v547q0 221 -64 292t-261 71h-207 q-197 0 -261.5 -71t-64.5 -292v-547zM394 1647v151h180v-151h-180zM803 1647v151h180v-151h-180z" />
<glyph unicode="&#xd7;" horiz-adv-x="1196" d="M102 102l396 396l-396 395l101 102l395 -397l395 397l101 -102l-396 -395l396 -396l-101 -102l-395 397l-395 -397z" />
<glyph unicode="&#xd8;" horiz-adv-x="1480" d="M33 2v166l92 90q-37 88 -37 225v504q0 328 145 455q121 106 394 106h278q276 0 391 -147l152 137v-176l-94 -78q41 -78 41 -297v-504q0 -272 -125 -389q-113 -106 -365 -106h-278q-158 0 -244 22q-129 35 -201 131zM262 391l914 893q-49 111 -271 111h-278 q-231 0 -303 -88q-61 -76 -62 -320v-596zM305 258q49 -117 322 -117h278q182 0 254 88q61 76 62 254v662z" />
<glyph unicode="&#xd9;" horiz-adv-x="1509" d="M147 430v1106h175v-1106q0 -207 118 -260q68 -29 316 -29q264 0 334 37q100 53 100 252v1106h174v-1106q0 -283 -168 -375q-123 -68 -440 -67q-313 0 -430 59q-178 90 -179 383zM383 1870h217l180 -262h-59z" />
<glyph unicode="&#xda;" horiz-adv-x="1509" d="M147 430v1106h175v-1106q0 -207 118 -260q68 -29 316 -29q264 0 334 37q100 53 100 252v1106h174v-1106q0 -283 -168 -375q-123 -68 -440 -67q-313 0 -430 59q-178 90 -179 383zM719 1608l180 262h217l-338 -262h-59z" />
<glyph unicode="&#xdb;" horiz-adv-x="1509" d="M147 430v1106h175v-1106q0 -186 76.5 -237.5t357.5 -51.5q262 0 334 37q100 53 100 252v1106h174v-1106q0 -283 -168 -375q-121 -68 -440 -67q-315 0 -430 59q-178 90 -179 383zM398 1747l360 221l354 -221l-49 -86l-305 156l-317 -156z" />
<glyph unicode="&#xdc;" horiz-adv-x="1509" d="M147 430v1106h175v-1106q0 -186 76.5 -237.5t357.5 -51.5q262 0 334 37q100 53 100 252v1106h174v-1106q0 -283 -168 -375q-121 -68 -440 -67q-315 0 -430 59q-178 90 -179 383zM461 1647v151h180v-151h-180zM870 1647v151h180v-151h-180z" />
<glyph unicode="&#xdd;" horiz-adv-x="1294" d="M-12 1536h202l455 -719l455 719h207l-582 -895v-641h-174v641zM618 1608l181 262h217l-338 -262h-60z" />
<glyph unicode="&#xde;" horiz-adv-x="1353" d="M121 0v1536h174v-299h608q207 0 295 -133q72 -111 72 -332q0 -186 -47 -289q-86 -184 -328 -184h-600v-299h-174zM295 453h450q205 0 263 36q88 55 88 261q0 215 -54 278q-49 55 -215 55h-532v-630z" />
<glyph unicode="&#xdf;" horiz-adv-x="1208" d="M170 0v1202q0 211 104 285q88 61 320 61q195 0 293 -51q135 -72 135 -250q0 -201 -205 -256v-4q184 -29 244 -166q41 -90 41 -309q0 -254 -53 -362q-80 -162 -310 -162q-135 0 -217 63q-90 70 -90 201v74h154v-37q0 -170 153 -170q113 0 150 65q45 76 45 328 q0 219 -45 299q-63 111 -258 111h-135v131h100q166 0 221 49q37 33 37 121q0 127 -66 166q-47 29 -194 28q-145 0 -199 -35q-63 -45 -63 -180v-1202h-162z" />
<glyph unicode="&#xe0;" d="M100 313q0 207 111 281q86 57 309 57q313 0 338 -108h10v198q0 137 -75 183q-55 33 -211 32q-133 0 -189 -18q-92 -31 -92 -129v-37h-168v23q0 188 125 249q86 43 305 43q244 0 336 -53q131 -76 131 -301v-733h-162v111l-4 4q-41 -80 -149 -109q-72 -18 -205 -18 q-205 0 -295 57q-115 74 -115 268zM215 1491h205l172 -250h-57zM268 334q0 -143 66 -184q49 -31 205 -31q160 0 223 26q102 43 102 174q0 137 -86 177q-55 25 -239 24q-156 0 -207 -28q-63 -35 -64 -158z" />
<glyph unicode="&#xe1;" d="M100 313q0 207 111 281q86 57 309 57q313 0 338 -108h10v198q0 137 -75 183q-55 33 -211 32q-133 0 -189 -18q-92 -31 -92 -129v-37h-168v23q0 188 125 249q86 43 305 43q244 0 336 -53q131 -76 131 -301v-733h-162v111l-4 4q-41 -80 -149 -109q-72 -18 -205 -18 q-205 0 -295 57q-115 74 -115 268zM268 334q0 -143 66 -184q49 -31 205 -31q160 0 223 26q102 43 102 174q0 137 -86 177q-55 25 -239 24q-156 0 -207 -28q-63 -35 -64 -158zM539 1241l172 250h204l-319 -250h-57z" />
<glyph unicode="&#xe2;" d="M100 313q0 207 111 281q86 57 309 57q313 0 338 -108h10v198q0 137 -75 183q-55 33 -211 32q-133 0 -189 -18q-92 -31 -92 -129v-37h-168v23q0 188 125 249q86 43 305 43q244 0 336 -53q131 -76 131 -301v-733h-162v111l-4 4q-41 -80 -149 -109q-72 -18 -205 -18 q-205 0 -295 57q-115 74 -115 268zM256 1198l309 209l303 -209l-41 -53l-262 131l-270 -131zM268 334q0 -143 66 -184q49 -31 205 -31q160 0 223 26q102 43 102 174q0 137 -86 177q-55 25 -239 24q-156 0 -207 -28q-63 -35 -64 -158z" />
<glyph unicode="&#xe3;" d="M100 313q0 207 111 281q86 57 309 57q313 0 338 -108h10v198q0 137 -75 183q-55 33 -211 32q-133 0 -189 -18q-92 -31 -92 -129v-37h-168v23q0 188 125 249q86 43 305 43q244 0 336 -53q131 -76 131 -301v-733h-162v111l-4 4q-41 -80 -149 -109q-72 -18 -205 -18 q-205 0 -295 57q-115 74 -115 268zM213 1241q123 195 250 203q70 4 78 -4l123 -82q18 -18 53 -19q70 0 110 107h88q-31 -70 -104 -131q-80 -68 -149 -70q-74 -2 -97 15l-100 73q-8 23 -39 23q-33 0 -72 -43q-33 -35 -49 -72h-92zM268 334q0 -143 66 -184q49 -31 205 -31 q160 0 223 26q102 43 102 174q0 137 -86 177q-55 25 -239 24q-156 0 -207 -28q-63 -35 -64 -158z" />
<glyph unicode="&#xe4;" d="M100 313q0 207 111 281q86 57 309 57q313 0 338 -108h10v198q0 137 -75 183q-55 33 -211 32q-133 0 -189 -18q-92 -31 -92 -129v-37h-168v23q0 188 125 249q86 43 305 43q240 0 336 -53q131 -78 131 -301v-733h-162v111l-4 4q-41 -82 -149 -109q-68 -18 -205 -18 q-205 0 -295 57q-115 74 -115 268zM268 334q0 -143 66 -184q47 -31 205 -31q160 0 223 26q102 43 102 174q0 137 -86 177q-55 25 -239 24q-158 0 -207 -28q-63 -35 -64 -158zM289 1186v151h180v-151h-180zM698 1186v151h180v-151h-180z" />
<glyph unicode="&#xe5;" d="M100 313q0 207 111 281q86 57 309 57q313 0 338 -108h10v198q0 137 -75 183q-55 33 -211 32q-133 0 -189 -18q-92 -31 -92 -129v-37h-168v23q0 188 125 249q86 43 305 43q240 0 336 -53q131 -78 131 -301v-733h-162v111l-4 4q-41 -82 -149 -109q-68 -18 -205 -18 q-205 0 -295 57q-115 74 -115 268zM268 334q0 -143 66 -184q47 -31 205 -31q160 0 223 26q102 43 102 174q0 137 -86 177q-55 25 -239 24q-158 0 -207 -28q-63 -35 -64 -158zM408 1329q0 72 52 125t124 53q74 0 126 -53t52 -125q0 -74 -52.5 -126t-125.5 -52q-72 0 -124 52 t-52 126zM485 1329q0 -41 29 -70.5t70 -29.5t70.5 29.5t29.5 70.5t-29.5 71t-70.5 30t-70 -30t-29 -71z" />
<glyph unicode="&#xe6;" horiz-adv-x="1908" d="M100 313q0 207 111 281q86 57 309 57q313 0 338 -108h10v198q0 137 -75 183q-55 33 -211 32q-133 0 -189 -18q-92 -31 -92 -129v-37h-168v23q0 188 125 249q88 45 305 43q152 0 219 -14q152 -29 176 -121q70 135 394 135q268 0 360 -90q98 -96 98 -387v-108h-774 q0 -258 50.5 -320.5t265.5 -62.5q176 0 229 26q63 31 64 140v41h165v-39q0 -193 -139 -256q-92 -43 -319 -43q-164 0 -246 24q-127 41 -162 154h-4q-37 -113 -178 -154q-88 -25 -252 -24q-205 0 -295 57q-115 74 -115 268zM268 334q0 -143 66 -184q47 -31 205 -31 q160 0 223 26q102 43 102 174q0 137 -86 177q-55 24 -239 24q-158 0 -207 -28q-63 -35 -64 -158zM1036 633h606q-6 223 -55 276q-47 47 -235 47q-207 0 -262 -69q-44 -51 -54 -254z" />
<glyph unicode="&#xe7;" horiz-adv-x="1118" d="M100 559q0 287 80 395q96 133 371 133q233 0 330 -53q135 -72 135 -280v-29h-162v33q0 133 -76 172q-53 27 -217 26q-203 0 -254 -92q-39 -70 -39 -350q0 -246 45 -311q59 -84 283 -84q162 0 215 35q61 43 61 182v53h162v-59q0 -209 -133 -285q-98 -57 -323 -57 q-313 0 -406 135q-72 104 -72 436zM414 -315l135 233l111 -61l-158 -219z" />
<glyph unicode="&#xe8;" horiz-adv-x="1157" d="M106 537q0 315 84 424q98 127 400 126q274 0 366.5 -98t92.5 -379v-108h-775q0 -244 39 -303q55 -80 277 -80q176 0 229 26q63 31 64 140v41h166v-39q0 -193 -140 -256q-94 -43 -319 -43q-303 0 -400 121q-84 106 -84 428zM240 1491h204l172 -250h-57zM274 633h607 q-6 225 -53.5 274t-237.5 49q-205 0 -262 -69q-44 -53 -54 -254z" />
<glyph unicode="&#xe9;" horiz-adv-x="1157" d="M106 537q0 315 84 424q98 127 400 126q274 0 366.5 -98t92.5 -379v-108h-775q0 -244 39 -303q55 -80 277 -80q176 0 229 26q63 31 64 140v41h166v-39q0 -193 -140 -256q-94 -43 -319 -43q-303 0 -400 121q-84 106 -84 428zM274 633h607q-6 225 -53.5 274t-237.5 49 q-205 0 -262 -69q-44 -53 -54 -254zM563 1241l172 250h205l-319 -250h-58z" />
<glyph unicode="&#xea;" horiz-adv-x="1157" d="M106 537q0 315 84 424q98 127 400 126q274 0 366.5 -98t92.5 -379v-108h-775q0 -244 39 -303q55 -80 277 -80q176 0 229 26q63 31 64 140v41h166v-39q0 -193 -140 -256q-94 -43 -319 -43q-303 0 -400 121q-84 106 -84 428zM274 633h607q-6 225 -53.5 274t-237.5 49 q-205 0 -262 -69q-44 -53 -54 -254zM281 1196l309 209l303 -209l-41 -53l-262 131l-271 -131z" />
<glyph unicode="&#xeb;" horiz-adv-x="1157" d="M106 537q0 334 96.5 442t387.5 108q268 0 360 -90q98 -96 99 -387v-108h-775q0 -258 50.5 -320.5t265.5 -62.5q176 0 229 26q63 31 64 140v41h166v-39q0 -193 -140 -256q-92 -43 -319 -43q-303 0 -400 121q-84 106 -84 428zM274 633h607q-6 223 -56 276q-47 47 -235 47 q-207 0 -262 -69q-44 -51 -54 -254zM285 1186v151h180v-151h-180zM694 1186v151h180v-151h-180z" />
<glyph unicode="&#xec;" horiz-adv-x="440" d="M-127 1470h205l172 -249h-57zM139 0v1075h162v-1075h-162z" />
<glyph unicode="&#xed;" horiz-adv-x="440" d="M139 0v1075h162v-1075h-162zM193 1221l172 249h204l-319 -249h-57z" />
<glyph unicode="&#xee;" horiz-adv-x="440" d="M-137 1286l360 221l354 -221l-49 -86l-305 156l-317 -156zM139 0v1075h162v-1075h-162z" />
<glyph unicode="&#xef;" horiz-adv-x="440" d="M-73 1186v151h180v-151h-180zM139 0v1075h162v-1075h-162zM336 1186v151h180v-151h-180z" />
<glyph unicode="&#xf0;" d="M106 537q0 342 89.5 446t388.5 104q20 0 155 -4q-127 137 -268 211l-139 -125l-88 86l108 97q-111 51 -211 78l35 118q139 -35 285 -100l112 100l93 -90l-86 -74q276 -164 411 -417q70 -131 70 -430q0 -340 -89 -444.5t-388 -104.5t-388.5 104.5t-89.5 444.5zM274 537 q0 -283 48.5 -350.5t261.5 -67.5t261 67.5t48 350.5q0 285 -48 352t-261 67t-261.5 -67t-48.5 -352z" />
<glyph unicode="&#xf1;" horiz-adv-x="1187" d="M141 0v1075h162v-131h4q57 143 332 143q217 0 307 -73q98 -84 98 -299v-715h-161v727q0 141 -62 188q-51 41 -196 41q-195 0 -258.5 -69.5t-63.5 -259.5v-627h-162zM248 1257q78 152 196 152q49 0 150.5 -44t140.5 -44q68 0 119 90l88 -57q-88 -154 -211 -154 q-49 0 -146.5 44t-142.5 44q-39 0 -63 -24q-10 -12 -39 -60z" />
<glyph unicode="&#xf2;" d="M106 537q0 326 78 428q92 123 400 122q307 0 399 -122q78 -102 78 -428q0 -324 -78 -426q-92 -123 -399 -123t-400 123q-78 102 -78 426zM233 1491h205l172 -250h-57zM274 537q0 -260 33 -320q51 -98 277 -98q225 0 276 98q33 59 33 320q0 193 -8 239q-14 98 -76 137 q-68 43 -225 43q-158 0 -222.5 -41t-78.5 -139q-9 -46 -9 -239z" />
<glyph unicode="&#xf3;" d="M106 537q0 326 78 428q92 123 400 122q307 0 399 -122q78 -102 78 -428q0 -324 -78 -426q-92 -123 -399 -123t-400 123q-78 102 -78 426zM274 537q0 -260 33 -320q51 -98 277 -98q225 0 276 98q33 59 33 320q0 193 -8 239q-14 98 -76 137q-68 43 -225 43 q-158 0 -222.5 -41t-78.5 -139q-9 -46 -9 -239zM555 1241l172 250h205l-320 -250h-57z" />
<glyph unicode="&#xf4;" d="M106 537q0 326 78 428q92 123 400 122q307 0 399 -122q78 -102 78 -428q0 -324 -78 -426q-92 -123 -399 -123t-400 123q-78 102 -78 426zM274 537q0 -260 33 -320q51 -98 277 -98q225 0 276 98q33 59 33 320q0 193 -8 239q-14 98 -76 137q-68 43 -225 43 q-158 0 -222.5 -41t-78.5 -139q-9 -46 -9 -239zM274 1196l310 209l303 -209l-41 -53l-262 131l-271 -131z" />
<glyph unicode="&#xf5;" d="M106 537q0 326 78 428q92 123 400 122q307 0 399 -122q78 -102 78 -428q0 -324 -78 -426q-92 -123 -399 -123t-400 123q-78 102 -78 426zM231 1241q123 195 250 203q70 4 78 -4l123 -82q18 -18 53 -19q70 0 111 107h88q-31 -70 -105 -131q-80 -68 -149 -70q-74 -2 -96 15 l-101 73q-8 23 -39 23q-33 0 -71 -43q-33 -35 -49 -72h-93zM274 537q0 -260 33 -320q51 -98 277 -98q225 0 276 98q33 59 33 320q0 193 -8 239q-14 98 -76 137q-68 43 -225 43q-158 0 -222.5 -41t-78.5 -139q-9 -46 -9 -239z" />
<glyph unicode="&#xf6;" d="M106 537q0 342 89.5 446t388.5 104t388 -104t89 -446q0 -340 -89 -444.5t-388 -104.5t-388.5 104.5t-89.5 444.5zM274 537q0 -283 48.5 -350.5t261.5 -67.5t261 67.5t48 350.5q0 285 -48 352t-261 67t-261.5 -67t-48.5 -352zM289 1186v151h180v-151h-180zM698 1186v151 h180v-151h-180z" />
<glyph unicode="&#xf7;" horiz-adv-x="1196" d="M102 504v153h992v-153h-992zM492 86v213h213v-213h-213zM492 862v213h213v-213h-213z" />
<glyph unicode="&#xf8;" d="M63 -33v135l84 82q-39 80 -41 353q-2 332 78 432q92 119 408 118q281 0 375 -100l123 119v-139l-70 -74q45 -104 41 -356q-4 -317 -80 -422q-94 -127 -389 -127q-305 0 -399 104zM274 537q3 -75 7 -220l575 555q-37 84 -264 84q-215 0 -268 -63q-57 -72 -50 -356z M311 209q25 -90 281 -90q150 0 201 22q61 27 79 115q16 68 21 281q2 104 -4 221z" />
<glyph unicode="&#xf9;" d="M135 385v690h162v-690q0 -147 33 -199q43 -68 188 -67q186 0 258 51q86 63 86 242v663h162v-1075h-164v143h-4q-68 -156 -336 -155q-211 0 -298 92t-87 305zM229 1421h205l172 -250h-57z" />
<glyph unicode="&#xfa;" d="M135 385v690h162v-690q0 -147 33 -199q43 -68 188 -67q186 0 258 51q86 63 86 242v663h162v-1075h-164v143h-4q-68 -156 -336 -155q-211 0 -298 92t-87 305zM551 1171l172 250h205l-320 -250h-57z" />
<glyph unicode="&#xfb;" d="M135 385v690h162v-690q0 -150 33 -199q43 -68 188 -67q186 0 258 51q86 61 86 242v663h162v-1075h-164v143h-4q-68 -156 -336 -155q-211 0 -298 91t-87 306zM228 1286l360 221l354 -221l-49 -86l-305 156l-317 -156z" />
<glyph unicode="&#xfc;" d="M135 385v690h162v-690q0 -150 33 -199q43 -68 188 -67q186 0 258 51q86 61 86 242v663h162v-1075h-164v143h-4q-68 -156 -336 -155q-211 0 -298 91t-87 306zM289 1186v151h180v-151h-180zM698 1186v151h180v-151h-180z" />
<glyph unicode="&#xfd;" horiz-adv-x="894" d="M-8 1075h166l331 -956h5l241 956h168l-309 -1151q-55 -205 -105 -276q-86 -125 -258 -125q-16 0 -73 10v125q29 -6 57 -6q106 0 162 127l61 221h-57zM414 1143l172 250h205l-320 -250h-57z" />
<glyph unicode="&#xfe;" horiz-adv-x="1173" d="M135 -465v2001h162l4 -596q78 147 346 147t357 -155q63 -109 63 -395q0 -317 -90 -433t-330 -116q-279 0 -346 139h-4v-592h-162zM297 537q0 -223 45 -304q61 -115 260 -114q186 0 241.5 77.5t55.5 340.5q0 256 -45 329q-55 90 -252 90q-211 0 -266 -102 q-39 -70 -39 -317z" />
<glyph unicode="&#xff;" horiz-adv-x="894" d="M-8 1075h166l331 -956h5l241 956h168l-309 -1151q-55 -205 -105 -276q-86 -125 -258 -125q-16 0 -73 10v125q29 -6 57 -6q106 0 162 127q31 111 61 221h-57zM154 1186v151h180v-151h-180zM563 1186v151h180v-151h-180z" />
<glyph unicode="&#x152;" horiz-adv-x="2271" d="M86 555v412q0 340 132 460.5t505 120.5q446 0 483 -176h4v164h985v-154h-811v-522h777v-143h-777v-563h811v-154h-985v160h-4q-59 -113 -205 -150q-88 -23 -278 -22q-371 0 -490 90q-147 113 -147 477zM258 555q0 -201 41 -287t145 -110q74 -16 279 -17q307 0 387 58 q100 72 100 356v412q0 209 -38.5 296t-145.5 111q-80 21 -303 21q-211 0 -287 -21q-102 -27 -138 -113.5t-38 -293.5z" />
<glyph unicode="&#x153;" horiz-adv-x="1929" d="M104 537q0 313 66 413q90 137 383 137q172 0 244 -14q150 -33 170 -137h4q35 96 157 129q80 23 240 22q268 0 361 -90q98 -96 98 -387v-108h-774q0 -258 50 -320.5t265 -62.5q176 0 229 26q63 31 64 140v41h166v-39q0 -193 -139 -256q-92 -43 -320 -43q-164 0 -242 22 q-115 33 -157 127q-37 -102 -170 -133q-68 -16 -234 -16q-291 0 -383 131q-78 109 -78 418zM272 537q0 -270 47 -340q53 -78 261 -78q213 0 264 80q41 64 41 338q0 215 -15 282q-20 90 -88 117q-57 20 -223 20q-203 0 -250 -77q-37 -63 -37 -342zM1053 633h606 q-6 223 -55 276q-47 47 -236 47q-207 0 -262 -69q-43 -51 -53 -254z" />
<glyph unicode="&#x178;" horiz-adv-x="1294" d="M-12 1536h202l455 -719l455 719h207l-582 -895v-641h-174v641zM353 1647v151h180v-151h-180zM762 1647v151h180v-151h-180z" />
<glyph unicode="&#x2c6;" horiz-adv-x="1021" d="M154 1286l360 221l354 -221l-49 -86l-305 156l-317 -156z" />
<glyph unicode="&#x2dc;" horiz-adv-x="1001" d="M154 1257q78 152 196 152q49 0 150.5 -44t140.5 -44q68 0 119 90l88 -57q-88 -154 -211 -154q-49 0 -146.5 44t-142.5 44q-39 0 -63 -24q-10 -12 -39 -60z" />
<glyph unicode="&#x2000;" horiz-adv-x="984" />
<glyph unicode="&#x2001;" horiz-adv-x="1968" />
<glyph unicode="&#x2002;" horiz-adv-x="984" />
<glyph unicode="&#x2003;" horiz-adv-x="1968" />
<glyph unicode="&#x2004;" horiz-adv-x="656" />
<glyph unicode="&#x2005;" horiz-adv-x="492" />
<glyph unicode="&#x2006;" horiz-adv-x="328" />
<glyph unicode="&#x2007;" horiz-adv-x="328" />
<glyph unicode="&#x2008;" horiz-adv-x="246" />
<glyph unicode="&#x2009;" horiz-adv-x="393" />
<glyph unicode="&#x200a;" horiz-adv-x="109" />
<glyph unicode="&#x2010;" horiz-adv-x="534" d="M0 483v154h535v-154h-535z" />
<glyph unicode="&#x2011;" horiz-adv-x="534" d="M0 483v154h535v-154h-535z" />
<glyph unicode="&#x2012;" horiz-adv-x="534" d="M0 483v154h535v-154h-535z" />
<glyph unicode="&#x2013;" horiz-adv-x="1024" d="M0 483v154h1024v-154h-1024z" />
<glyph unicode="&#x2014;" horiz-adv-x="2048" d="M0 483v154h2048v-154h-2048z" />
<glyph unicode="&#x2018;" horiz-adv-x="411" d="M104 1110v248q0 94 29 137q35 53 129 53h47v-92q-55 -2 -77.5 -22.5t-22.5 -75.5v-39h78v-209h-183z" />
<glyph unicode="&#x2019;" horiz-adv-x="411" d="M104 1098v92q55 2 78 22.5t23 75.5v39h-78v209h182v-248q0 -94 -28 -137q-35 -53 -129 -53h-48z" />
<glyph unicode="&#x201a;" horiz-adv-x="466" d="M131 -137q55 2 77.5 22.5t22.5 75.5v39h-77v209h182v-248q0 -94 -29 -137q-35 -53 -129 -53h-47v92z" />
<glyph unicode="&#x201c;" horiz-adv-x="735" d="M104 1110v248q0 94 29 137q35 53 129 53h47v-92q-55 -2 -77.5 -22.5t-22.5 -75.5v-39h78v-209h-183zM426 1110v248q0 94 29 137q35 53 129 53h47v-92q-55 -2 -78 -22.5t-23 -75.5v-39h78v-209h-182z" />
<glyph unicode="&#x201d;" horiz-adv-x="735" d="M104 1098v92q55 2 78 22.5t23 75.5v39h-78v209h182v-248q0 -94 -28 -137q-35 -53 -129 -53h-48zM426 1098v92q55 2 77.5 22.5t22.5 75.5v39h-77v209h182v-248q0 -94 -29 -137q-35 -53 -129 -53h-47z" />
<glyph unicode="&#x201e;" horiz-adv-x="735" d="M104 -137q55 2 78 22.5t23 75.5v39h-78v209h182v-248q0 -94 -28 -137q-35 -53 -129 -53h-48v92zM426 -137q55 2 77.5 22.5t22.5 75.5v39h-77v209h182v-248q0 -94 -29 -137q-35 -53 -129 -53h-47v92z" />
<glyph unicode="&#x2022;" horiz-adv-x="1064" d="M150 768q-2 160 109.5 272.5t272.5 112.5q160 0 273 -112.5t113 -272.5q0 -158 -113 -270.5t-273 -112.5q-158 0 -269 110.5t-113 272.5z" />
<glyph unicode="&#x2026;" horiz-adv-x="2048" d="M252 0v209h182v-209h-182zM934 0v209h182v-209h-182zM1616 0v209h182v-209h-182z" />
<glyph unicode="&#x202f;" horiz-adv-x="393" />
<glyph unicode="&#x2039;" horiz-adv-x="651" d="M115 592l276 586l119 -72l-242 -514l269 -518l-113 -74z" />
<glyph unicode="&#x203a;" horiz-adv-x="651" d="M115 74l268 518l-242 514l119 72l277 -586l-310 -592z" />
<glyph unicode="&#x205f;" horiz-adv-x="492" />
<glyph unicode="&#x2122;" horiz-adv-x="2048" d="M129 1413v123h698v-123h-272v-739h-154v739h-272zM973 674v862h227l248 -608l256 608h225v-862h-143v739h-4l-295 -739h-80l-287 739h-4v-739h-143z" />
<glyph unicode="&#x25fc;" horiz-adv-x="1075" d="M0 0v1075h1075v-1075h-1075z" />
</font>
</defs>
</svg>
